<?xml version="1.0" encoding="UTF-8" standalone="no"?>
<!-- Created with Inkscape (http://www.inkscape.org/) -->

<svg
   xmlns:dc="http://purl.org/dc/elements/1.1/"
   xmlns:cc="http://creativecommons.org/ns#"
   xmlns:rdf="http://www.w3.org/1999/02/22-rdf-syntax-ns#"
   xmlns:svg="http://www.w3.org/2000/svg"
   xmlns="http://www.w3.org/2000/svg"
   xmlns:sodipodi="http://sodipodi.sourceforge.net/DTD/sodipodi-0.dtd"
   xmlns:inkscape="http://www.inkscape.org/namespaces/inkscape"
   width="153.30142"
   height="40.521591"
   viewBox="0 0 40.561192 10.721338"
   version="1.1"
   id="svg5116"
   inkscape:version="0.92.2 (5c3e80d, 2017-08-06)"
   sodipodi:docname="emiia40.1.svg">
  <defs
     id="defs5110" />
  <sodipodi:namedview
     id="base"
     pagecolor="#ffffff"
     bordercolor="#666666"
     borderopacity="1.0"
     inkscape:pageopacity="0.0"
     inkscape:pageshadow="2"
     inkscape:zoom="3.2593751"
     inkscape:cx="121.06712"
     inkscape:cy="50.500509"
     inkscape:document-units="mm"
     inkscape:current-layer="layer1"
     showgrid="false"
     fit-margin-top="0"
     fit-margin-left="0"
     fit-margin-right="0"
     fit-margin-bottom="0"
     inkscape:window-width="1366"
     inkscape:window-height="745"
     inkscape:window-x="-8"
     inkscape:window-y="-8"
     inkscape:window-maximized="1"
     units="px" />
  <metadata
     id="metadata5113">
    <rdf:RDF>
      <cc:Work
         rdf:about="">
        <dc:format>image/svg+xml</dc:format>
        <dc:type
           rdf:resource="http://purl.org/dc/dcmitype/StillImage" />
        <dc:title />
      </cc:Work>
    </rdf:RDF>
  </metadata>
  <g
     inkscape:label="Layer 1"
     inkscape:groupmode="layer"
     id="layer1"
     transform="translate(-26.301296,-119.73322)">
    <path
       id="path849-9"
       d="m 64.288804,130.00798 c -0.148411,0 -0.269319,-0.12526 -0.269319,-0.28348 v -0.73181 h -0.494742 v 0.73181 c 0,0.15822 -0.120908,0.28348 -0.269316,0.28348 -0.148415,0 -0.269327,-0.12526 -0.269327,-0.28348 v -0.73181 h -0.494677 v 0.73181 c 0,0.15822 -0.120965,0.29007 -0.269388,0.29007 -0.148411,0 -0.269316,-0.13185 -0.269316,-0.29007 v -0.73181 h -0.494684 v 0.73181 c 0,0.15822 -0.120965,0.29007 -0.269388,0.29007 -0.148397,0 -0.269306,-0.13185 -0.269306,-0.29007 v -0.73181 h -0.494698 v 0.73181 c -0.0165,0.14503 -0.13191,0.25711 -0.269316,0.25711 -0.13746,0 -0.258365,-0.11208 -0.269374,-0.25711 v -0.73181 H 59.38026 v 0.73181 c 0,0.15822 -0.120904,0.29007 -0.269316,0.29007 -0.148411,0 -0.269327,-0.13185 -0.269327,-0.29007 v -0.7516 c -0.549689,-0.0989 -0.950915,-0.59996 -0.950915,-1.18673 0,0 0,0 0,0 v -0.0396 h 1.000378 v 0.0461 c 0,0.0791 0.06044,0.14504 0.137404,0.14504 h 5.205377 c 0.0054,0 0.0054,0 0.0054,0 0.07696,0 0.137417,-0.0659 0.137417,-0.14504 0,0 0,0 0,0 l 0.0055,-5.51161 c -0.0055,0 -0.0055,0 -0.0055,0 0,-0.0791 -0.06046,-0.14505 -0.137417,-0.14505 0,0 0,0 -0.0054,0 h -5.194368 c -0.08246,0 -0.142923,0.0659 -0.142923,0.14505 v 0.0461 h -1.000378 v -0.0396 c 0,0 0,0 0,0 0,-0.59335 0.40123,-1.09441 0.950929,-1.1867 v -0.68559 c 0,-0.15823 0.120912,-0.2835 0.269327,-0.2835 0.148409,0 0.269317,0.12527 0.269317,0.2835 v 0.66588 h 0.494684 v -0.66588 c 0.0165,-0.14504 0.131974,-0.25712 0.269377,-0.25712 0.142907,0 0.258322,0.11208 0.269327,0.25712 v 0.66588 h 0.489184 v -0.66588 c 0,-0.15823 0.120961,-0.2835 0.269373,-0.2835 0.148411,0 0.269316,0.12527 0.269316,0.2835 v 0.66588 h 0.494684 v -0.66588 c 0,-0.15823 0.120919,-0.2835 0.269331,-0.2835 0.148412,0 0.269373,0.12527 0.269373,0.2835 v 0.66588 h 0.494688 v -0.66588 c 0,-0.15823 0.120905,-0.2835 0.269327,-0.2835 0.148412,0 0.263873,0.12527 0.263873,0.2835 v 0.66588 h 0.500188 v -0.66588 c 0,-0.15823 0.120905,-0.2835 0.269316,-0.2835 0.148413,0 0.263816,0.12527 0.263816,0.2835 v 0.70544 c 0.406791,0.12526 0.714619,0.46808 0.808017,0.89662 h 0.742069 c 0.148415,0 0.269316,0.12526 0.269316,0.28349 0,0.15823 -0.120901,0.2835 -0.269316,0.2835 h -0.714563 v 0.52742 h 0.714563 c 0.148415,0 0.269316,0.12526 0.269316,0.2835 0,0.15822 -0.120901,0.28349 -0.269316,0.28349 h -0.714563 v 0.52743 h 0.714563 c 0.148415,0 0.269316,0.12526 0.269316,0.28349 0,0.15823 -0.120901,0.28348 -0.269316,0.28348 h -0.714563 v 0.52744 h 0.714563 c 0.148415,0 0.269316,0.12526 0.269316,0.28349 0,0.15164 -0.120901,0.28349 -0.269316,0.28349 h -0.714563 v 0.52084 h 0.714563 c 0.148415,0 0.269316,0.13186 0.269316,0.28349 0,0.15823 -0.120901,0.28349 -0.269316,0.28349 h -0.714563 v 0.52743 h 0.714563 c 0.148415,0 0.269316,0.12526 0.269316,0.28349 0,0.15822 -0.120901,0.2835 -0.269316,0.2835 h -0.742069 c -0.08795,0.42854 -0.390221,0.77138 -0.786018,0.89664 v 0.77796 c 0,0 0,0 0,0 0,0.15822 -0.120905,0.28349 -0.263811,0.28349 -0.0054,0 -0.01103,0 -0.01103,0 z"
       style="fill:none;stroke:#d4d4d4;stroke-width:0.20000094;stroke-linecap:butt;stroke-linejoin:miter;stroke-miterlimit:4;stroke-dasharray:none;stroke-opacity:1"
       inkscape:connector-curvature="0" />
    <text
       xml:space="preserve"
       style="font-style:normal;font-weight:normal;font-size:10.58338356px;line-height:1.25;font-family:sans-serif;letter-spacing:0px;word-spacing:0px;fill:#000000;fill-opacity:1;stroke:none;stroke-width:0.26458457"
       x="-1.7101167"
       y="156.16997"
       id="text1585"><tspan
         sodipodi:role="line"
         id="tspan1583"
         x="-1.7101167"
         y="165.82552"
         style="stroke-width:0.26458457" /></text>
    <g
       aria-label="EMIIA"
       style="font-style:normal;font-variant:normal;font-weight:normal;font-stretch:normal;font-size:10.61247158px;line-height:1.25;font-family:Orbitron;-inkscape-font-specification:Orbitron;letter-spacing:0px;word-spacing:0px;fill:#2a2626;fill-opacity:1;stroke:none;stroke-width:0.2487298"
       id="text5923">
      <path
         d="m 33.847273,121.27125 v 0.85961 h -6.112784 v 2.52577 h 4.913574 v 0.87022 h -4.913574 v 2.52577 h 6.112784 v 0.85961 h -6.972394 v -7.64098 z"
         style="font-size:10.61247158px;fill:#2a2626;fill-opacity:1;stroke-width:0.2487298"
         id="path5929" />
      <path
         d="m 39.019029,125.04929 3.173129,-3.77804 h 1.177984 v 7.64098 h -0.85961 v -6.66463 l -3.491503,4.14948 -3.491503,-4.14948 v 6.66463 h -0.859611 v -7.64098 H 35.8459 Z"
         style="font-size:10.61247158px;fill:#2a2626;fill-opacity:1;stroke-width:0.2487298"
         id="path5931" />
      <path
         d="m 44.524083,128.91223 v -7.64098 h 0.85961 v 7.64098 z"
         style="font-size:10.61247158px;fill:#2a2626;fill-opacity:1;stroke-width:0.2487298"
         id="path5933" />
      <path
         d="m 46.866288,128.91223 v -7.64098 h 0.85961 v 7.64098 z"
         style="font-size:10.61247158px;fill:#2a2626;fill-opacity:1;stroke-width:0.2487298"
         id="path5935" />
      <path
         d="m 50.492602,121.27125 h 5.093987 q 0.530623,0 0.90206,0.37144 0.371436,0.37143 0.371436,0.90206 v 6.36748 h -0.85961 v -2.79108 h -5.921759 v 2.79108 h -0.85961 v -6.36748 q 0,-0.53063 0.371436,-0.90206 0.371437,-0.37144 0.90206,-0.37144 z m -0.413886,3.99029 h 5.921759 v -2.71679 q 0,-0.1698 -0.12735,-0.28654 -0.116737,-0.12735 -0.286536,-0.12735 h -5.093987 q -0.169799,0 -0.297149,0.12735 -0.116737,0.11674 -0.116737,0.28654 z"
         style="font-size:10.61247158px;fill:#2a2626;fill-opacity:1;stroke-width:0.2487298"
         id="path5937" />
    </g>
    <g
       aria-label="AI"
       style="font-style:normal;font-variant:normal;font-weight:normal;font-stretch:normal;font-size:4.93891191px;line-height:1.25;font-family:Orbitron;-inkscape-font-specification:Orbitron;letter-spacing:0px;word-spacing:0px;fill:#d3d3d3;fill-opacity:1;stroke:none;stroke-width:0.26458457"
       id="text5927">
      <path
         d="m 59.813361,123.3268 h 2.370678 q 0.246945,0 0.419807,0.17286 0.172862,0.17286 0.172862,0.41981 v 2.96334 h -0.400052 v -1.29893 h -2.755913 v 1.29893 h -0.400051 v -2.96334 q 0,-0.24695 0.172861,-0.41981 0.172862,-0.17286 0.419808,-0.17286 z m -0.192618,1.85703 h 2.755913 v -1.26436 q 0,-0.079 -0.05927,-0.13336 -0.05433,-0.0593 -0.13335,-0.0593 h -2.370678 q -0.07902,0 -0.13829,0.0593 -0.05433,0.0543 -0.05433,0.13336 z"
         style="font-size:4.93891191px;fill:#d3d3d3;fill-opacity:1;stroke-width:0.26458457"
         id="path5940" />
      <path
         d="m 63.344374,126.88281 v -3.55601 h 0.400052 v 3.55601 z"
         style="font-size:4.93891191px;fill:#d3d3d3;fill-opacity:1;stroke-width:0.26458457"
         id="path5942" />
    </g>
  </g>
</svg>
