<?xml version="1.0" encoding="UTF-8" standalone="no"?>
<!-- Created with Inkscape (http://www.inkscape.org/) -->

<svg
   xmlns:dc="http://purl.org/dc/elements/1.1/"
   xmlns:cc="http://creativecommons.org/ns#"
   xmlns:rdf="http://www.w3.org/1999/02/22-rdf-syntax-ns#"
   xmlns:svg="http://www.w3.org/2000/svg"
   xmlns="http://www.w3.org/2000/svg"
   xmlns:sodipodi="http://sodipodi.sourceforge.net/DTD/sodipodi-0.dtd"
   xmlns:inkscape="http://www.inkscape.org/namespaces/inkscape"
   width="27.390459mm"
   height="13.48382mm"
   viewBox="0 0 27.39046 13.48382"
   version="1.1"
   id="svg20953"
   inkscape:version="0.92.2 (5c3e80d, 2017-08-06)"
   sodipodi:docname="messenger.svg"
   inkscape:export-filename="C:\Users\User1\Desktop\15 Р’Р»Р°РґРёРјРёСЂ 3Рґ РјР°РєСЃ\IoT &amp; IIoT\infografics\РЎРѕС†СЃРµС‚Рё\fog88.png"
   inkscape:export-xdpi="1182.2"
   inkscape:export-ydpi="1182.2">
  <defs
     id="defs20947" />
  <sodipodi:namedview
     id="base"
     pagecolor="#ffffff"
     bordercolor="#666666"
     borderopacity="1.0"
     inkscape:pageopacity="0.0"
     inkscape:pageshadow="2"
     inkscape:zoom="4.2284597"
     inkscape:cx="53.69775"
     inkscape:cy="20.45058"
     inkscape:document-units="mm"
     inkscape:current-layer="layer1"
     showgrid="false"
     fit-margin-top="0"
     fit-margin-left="0"
     fit-margin-right="0"
     fit-margin-bottom="0"
     inkscape:window-width="1366"
     inkscape:window-height="705"
     inkscape:window-x="-8"
     inkscape:window-y="-8"
     inkscape:window-maximized="1" />
  <metadata
     id="metadata20950">
    <rdf:RDF>
      <cc:Work
         rdf:about="">
        <dc:format>image/svg+xml</dc:format>
        <dc:type
           rdf:resource="http://purl.org/dc/dcmitype/StillImage" />
        <dc:title></dc:title>
      </cc:Work>
    </rdf:RDF>
  </metadata>
  <g
     inkscape:label="Layer 1"
     inkscape:groupmode="layer"
     id="layer1"
     transform="translate(-49.304447,-134.3368)">
    <text
       xml:space="preserve"
       style="font-style:normal;font-weight:normal;font-size:4.23333311px;line-height:1.25;font-family:sans-serif;letter-spacing:0px;word-spacing:0px;fill:#000000;fill-opacity:1;stroke:none;stroke-width:0.26458332"
       x="70.045975"
       y="142.4696"
       id="text891"><tspan
         sodipodi:role="line"
         id="tspan889"
         x="70.045975"
         y="146.3318"
         style="stroke-width:0.26458332" /></text>
    <path
       style="clip-rule:evenodd;fill:none;fill-rule:evenodd;stroke:#000000;stroke-width:0.15000001;stroke-miterlimit:22.92560005;stroke-dasharray:none;image-rendering:optimizeQuality;shape-rendering:geometricPrecision;text-rendering:geometricPrecision"
       inkscape:connector-curvature="0"
       id="path822"
       d="m 59.138634,142.54434 c 0.333087,-0.0777 2.457506,-1.42569 2.806614,-1.50702 l 1.507233,1.61092 2.338843,-2.49438 c 0.247451,-0.32419 0.534251,-0.51705 0.779615,-0.88341 -0.252301,0.0588 -0.455798,0.22592 -0.693121,0.34629 l -2.009501,1.10879 c -0.198834,0 -1.235106,-1.25524 -1.611223,-1.50706 l -2.742648,2.87013 c -0.109022,0.11017 -0.296375,0.33717 -0.375812,0.45574 z"
       class="fil0 str0" />
    <polygon
       transform="matrix(0.00613869,0,0,0.00613775,15.636151,109.64961)"
       style="clip-rule:evenodd;fill:#000000;fill-rule:evenodd;stroke-width:1.62913418;image-rendering:optimizeQuality;shape-rendering:geometricPrecision;text-rendering:geometricPrecision"
       id="polygon824"
       points="8305.8,4826 8298.74,4816.12 8297.33,4826 "
       class="fil1" />
    <polygon
       transform="matrix(0.00613869,0,0,0.00613775,15.636151,109.64961)"
       style="clip-rule:evenodd;fill:#000000;fill-rule:evenodd;stroke-width:1.62913418;image-rendering:optimizeQuality;shape-rendering:geometricPrecision;text-rendering:geometricPrecision"
       id="polygon826"
       points="7078.14,5359.4 7085.19,5369.28 7086.6,5359.4 "
       class="fil1" />
    <path
       style="color:#000000;font-style:normal;font-variant:normal;font-weight:normal;font-stretch:normal;font-size:medium;line-height:normal;font-family:sans-serif;font-variant-ligatures:normal;font-variant-position:normal;font-variant-caps:normal;font-variant-numeric:normal;font-variant-alternates:normal;font-feature-settings:normal;text-indent:0;text-align:start;text-decoration:none;text-decoration-line:none;text-decoration-style:solid;text-decoration-color:#000000;letter-spacing:normal;word-spacing:normal;text-transform:none;writing-mode:lr-tb;direction:ltr;text-orientation:mixed;dominant-baseline:auto;baseline-shift:baseline;text-anchor:start;white-space:normal;shape-padding:0;clip-rule:nonzero;display:inline;overflow:visible;visibility:visible;opacity:1;isolation:auto;mix-blend-mode:normal;color-interpolation:sRGB;color-interpolation-filters:linearRGB;solid-color:#000000;solid-opacity:1;vector-effect:none;fill:#000000;fill-opacity:1;fill-rule:nonzero;stroke:#000000;stroke-width:0.15000001;stroke-linecap:butt;stroke-linejoin:miter;stroke-miterlimit:4;stroke-dasharray:none;stroke-dashoffset:0;stroke-opacity:1;color-rendering:auto;image-rendering:auto;shape-rendering:auto;text-rendering:auto;enable-background:accumulate"
       d="m 62.946519,134.69291 c -1.239119,-0.002 -2.471071,0.3647 -3.572627,1.04077 -0.569292,0.3494 -1.114614,0.86481 -1.515981,1.40972 v 0 c -0.662966,0.90019 -1.188016,2.01873 -1.188016,3.29879 0,1.07409 0.212813,2.07797 0.67649,2.85627 0.387717,0.65086 0.843576,1.30634 1.454438,1.73552 v 2.52171 l 1.912745,-0.98112 0.0025,-0.001 c 0.232595,-0.14186 0.379499,-0.21148 0.486157,-0.23778 0.106657,-0.0264 0.175252,-0.015 0.280461,0.0156 0.210416,0.0612 0.536013,0.20291 1.346162,0.20291 1.455773,0 2.792212,-0.47599 3.892136,-1.28454 2.216718,-1.62931 3.023152,-4.62334 1.790905,-7.13786 v 0 c -0.08764,-0.17876 -0.163414,-0.32305 -0.259229,-0.48531 v 0 c -0.646346,-1.09419 -1.659444,-1.90139 -2.792015,-2.4107 -0.815067,-0.36651 -1.666242,-0.54089 -2.51406,-0.54244 z m -0.0012,0.15824 c 0.827201,0.001 1.657242,0.17188 2.45235,0.52938 1.108298,0.49839 2.094687,1.28638 2.721383,2.34731 0.0935,0.15836 0.166778,0.29781 0.253355,0.4744 1.198053,2.44477 0.415175,5.35225 -1.742658,6.93827 -1.074895,0.79015 -2.378457,1.2545 -3.800872,1.2545 -0.79285,0 -1.073272,-0.12988 -1.303322,-0.19678 -0.11502,-0.0335 -0.22528,-0.0505 -0.360013,-0.0171 -0.134085,0.033 -0.290512,0.11029 -0.526407,0.25402 l -1.682302,0.8629 v -2.34757 l -0.03459,-0.0235 c -0.595544,-0.40599 -1.051532,-1.05449 -1.442451,-1.71071 -0.443743,-0.74486 -0.653891,-1.72129 -0.653891,-2.77398 0,-1.23582 0.507363,-2.32165 1.156846,-3.20354 v 0 c 0.38893,-0.52803 0.922923,-1.03217 1.471728,-1.369 1.078941,-0.66218 2.28186,-1.0207 3.490843,-1.0185 z"
       id="path820"
       inkscape:connector-curvature="0"
       sodipodi:nodetypes="csccscccccccscccccccccccccscccccccsccscc" />
  </g>
</svg>
