<?xml version="1.0" encoding="UTF-8" standalone="no"?>
<!-- Created with Inkscape (http://www.inkscape.org/) -->

<svg
   xmlns:dc="http://purl.org/dc/elements/1.1/"
   xmlns:cc="http://creativecommons.org/ns#"
   xmlns:rdf="http://www.w3.org/1999/02/22-rdf-syntax-ns#"
   xmlns:svg="http://www.w3.org/2000/svg"
   xmlns="http://www.w3.org/2000/svg"
   xmlns:sodipodi="http://sodipodi.sourceforge.net/DTD/sodipodi-0.dtd"
   xmlns:inkscape="http://www.inkscape.org/namespaces/inkscape"
   width="153.30142"
   height="40.521591"
   viewBox="0 0 40.561192 10.721338"
   version="1.1"
   id="svg5116"
   inkscape:version="0.92.2 (5c3e80d, 2017-08-06)"
   sodipodi:docname="emiia40.1.svg">
  <defs
     id="defs5110" />
  <sodipodi:namedview
     id="base"
     pagecolor="#ffffff"
     bordercolor="#666666"
     borderopacity="1.0"
     inkscape:pageopacity="0.0"
     inkscape:pageshadow="2"
     inkscape:zoom="3.2593751"
     inkscape:cx="121.06712"
     inkscape:cy="50.500509"
     inkscape:document-units="mm"
     inkscape:current-layer="layer1"
     showgrid="false"
     fit-margin-top="0"
     fit-margin-left="0"
     fit-margin-right="0"
     fit-margin-bottom="0"
     inkscape:window-width="1366"
     inkscape:window-height="745"
     inkscape:window-x="-8"
     inkscape:window-y="-8"
     inkscape:window-maximized="1"
     units="px" />
  <metadata
     id="metadata5113">
    <rdf:RDF>
      <cc:Work
         rdf:about="">
        <dc:format>image/svg+xml</dc:format>
        <dc:type
           rdf:resource="http://purl.org/dc/dcmitype/StillImage" />
        <dc:title />
      </cc:Work>
    </rdf:RDF>
  </metadata>
  <g
     inkscape:label="Layer 1"
     inkscape:groupmode="layer"
     id="layer1"
     transform="translate(-26.301296,-119.73322)">
    <path
       id="path849-9"
       d="m 64.288804,130.00798 c -0.148411,0 -0.269319,-0.12526 -0.269319,-0.28348 v -0.73181 h -0.494742 v 0.73181 c 0,0.15822 -0.120908,0.28348 -0.269316,0.28348 -0.148415,0 -0.269327,-0.12526 -0.269327,-0.28348 v -0.73181 h -0.494677 v 0.73181 c 0,0.15822 -0.120965,0.29007 -0.269388,0.29007 -0.148411,0 -0.269316,-0.13185 -0.269316,-0.29007 v -0.73181 h -0.494684 v 0.73181 c 0,0.15822 -0.120965,0.29007 -0.269388,0.29007 -0.148397,0 -0.269306,-0.13185 -0.269306,-0.29007 v -0.73181 h -0.494698 v 0.73181 c -0.0165,0.14503 -0.13191,0.25711 -0.269316,0.25711 -0.13746,0 -0.258365,-0.11208 -0.269374,-0.25711 v -0.73181 H 59.38026 v 0.73181 c 0,0.15822 -0.120904,0.29007 -0.269316,0.29007 -0.148411,0 -0.269327,-0.13185 -0.269327,-0.29007 v -0.7516 c -0.549689,-0.0989 -0.950915,-0.59996 -0.950915,-1.18673 0,0 0,0 0,0 v -0.0396 h 1.000378 v 0.0461 c 0,0.0791 0.06044,0.14504 0.137404,0.14504 h 5.205377 c 0.0054,0 0.0054,0 0.0054,0 0.07696,0 0.137417,-0.0659 0.137417,-0.14504 0,0 0,0 0,0 l 0.0055,-5.51161 c -0.0055,0 -0.0055,0 -0.0055,0 0,-0.0791 -0.06046,-0.14505 -0.137417,-0.14505 0,0 0,0 -0.0054,0 h -5.194368 c -0.08246,0 -0.142923,0.0659 -0.142923,0.14505 v 0.0461 h -1.000378 v -0.0396 c 0,0 0,0 0,0 0,-0.59335 0.40123,-1.09441 0.950929,-1.1867 v -0.68559 c 0,-0.15823 0.120912,-0.2835 0.269327,-0.2835 0.148409,0 0.269317,0.12527 0.269317,0.2835 v 0.66588 h 0.494684 v -0.66588 c 0.0165,-0.14504 0.131974,-0.25712 0.269377,-0.25712 0.142907,0 0.258322,0.11208 0.269327,0.25712 v 0.66588 h 0.489184 v -0.66588 c 0,-0.15823 0.120961,-0.2835 0.269373,-0.2835 0.148411,0 0.269316,0.12527 0.269316,0.2835 v 0.66588 h 0.494684 v -0.66588 c 0,-0.15823 0.120919,-0.2835 0.269331,-0.2835 0.148412,0 0.269373,0.12527 0.269373,0.2835 v 0.66588 h 0.494688 v -0.66588 c 0,-0.15823 0.120905,-0.2835 0.269327,-0.2835 0.148412,0 0.263873,0.12527 0.263873,0.2835 v 0.66588 h 0.500188 v -0.66588 c 0,-0.15823 0.120905,-0.2835 0.269316,-0.2835 0.148413,0 0.263816,0.12527 0.263816,0.2835 v 0.70544 c 0.406791,0.12526 0.714619,0.46808 0.808017,0.89662 h 0.742069 c 0.148415,0 0.269316,0.12526 0.269316,0.28349 0,0.15823 -0.120901,0.2835 -0.269316,0.2835 h -0.714563 v 0.52742 h 0.714563 c 0.148415,0 0.269316,0.12526 0.269316,0.2835 0,0.15822 -0.120901,0.28349 -0.269316,0.28349 h -0.714563 v 0.52743 h 0.714563 c 0.148415,0 0.269316,0.12526 0.269316,0.28349 0,0.15823 -0.120901,0.28348 -0.269316,0.28348 h -0.714563 v 0.52744 h 0.714563 c 0.148415,0 0.269316,0.12526 0.269316,0.28349 0,0.15164 -0.120901,0.28349 -0.269316,0.28349 h -0.714563 v 0.52084 h 0.714563 c 0.148415,0 0.269316,0.13186 0.269316,0.28349 0,0.15823 -0.120901,0.28349 -0.269316,0.28349 h -0.714563 v 0.52743 h 0.714563 c 0.148415,0 0.269316,0.12526 0.269316,0.28349 0,0.15822 -0.120901,0.2835 -0.269316,0.2835 h -0.742069 c -0.08795,0.42854 -0.390221,0.77138 -0.786018,0.89664 v 0.77796 c 0,0 0,0 0,0 0,0.15822 -0.120905,0.28349 -0.263811,0.28349 -0.0054,0 -0.01103,0 -0.01103,0 z"
       style="fill:none;stroke:#d4d4d4;stroke-width:0.20000094;stroke-linecap:butt;stroke-linejoin:miter;stroke-miterlimit:4;stroke-dasharray:none;stroke-opacity:1"
       inkscape:connector-curvature="0" />
    <text
       xml:space="preserve"
       style="font-style:normal;font-weight:normal;font-size:10.58338356px;line-height:1.25;font-family:sans-serif;letter-spacing:0px;word-spacing:0px;fill:#000000;fill-opacity:1;stroke:none;stroke-width:0.26458457"
       x="-1.7101167"
       y="156.16997"
       id="text1585"><tspan
         sodipodi:role="line"
         id="tspan1583"
         x="-1.7101167"
         y="165.82552"
         style="stroke-width:0.26458457" /></text>
    <text
       xml:space="preserve"
       style="font-style:normal;font-variant:normal;font-weight:normal;font-stretch:normal;font-size:10.61247158px;line-height:1.25;font-family:Orbitron;-inkscape-font-specification:Orbitron;letter-spacing:0px;word-spacing:0px;fill:#2a2626;fill-opacity:1;stroke:none;stroke-width:0.2487298"
       x="26.259356"
       y="128.91223"
       id="text5923"><tspan
         sodipodi:role="line"
         id="tspan5921"
         x="26.259356"
         y="128.91223"
         style="font-size:10.61247158px;fill:#2a2626;fill-opacity:1;stroke-width:0.2487298">EMIIA</tspan></text>
    <text
       xml:space="preserve"
       style="font-style:normal;font-variant:normal;font-weight:normal;font-stretch:normal;font-size:4.93891191px;line-height:1.25;font-family:Orbitron;-inkscape-font-specification:Orbitron;letter-spacing:0px;word-spacing:0px;fill:#d3d3d3;fill-opacity:1;stroke:none;stroke-width:0.26458457;"
       x="58.934235"
       y="126.88281"
       id="text5927"><tspan
         sodipodi:role="line"
         id="tspan5925"
         x="58.934235"
         y="126.88281"
         style="font-size:4.93891191px;stroke-width:0.26458457;fill:#d3d3d3;fill-opacity:1;">AI</tspan></text>
  </g>
</svg>
