<?xml version="1.0" encoding="UTF-8" standalone="no"?>
<!-- Created with Inkscape (http://www.inkscape.org/) -->

<svg
   xmlns:dc="http://purl.org/dc/elements/1.1/"
   xmlns:cc="http://creativecommons.org/ns#"
   xmlns:rdf="http://www.w3.org/1999/02/22-rdf-syntax-ns#"
   xmlns:svg="http://www.w3.org/2000/svg"
   xmlns="http://www.w3.org/2000/svg"
   xmlns:sodipodi="http://sodipodi.sourceforge.net/DTD/sodipodi-0.dtd"
   xmlns:inkscape="http://www.inkscape.org/namespaces/inkscape"
   width="153.30142"
   height="40.521591"
   viewBox="0 0 40.561192 10.721338"
   version="1.1"
   id="svg5116"
   inkscape:version="0.92.2 (5c3e80d, 2017-08-06)"
   sodipodi:docname="emiia40.1.svg">
  <defs
     id="defs5110" />
  <sodipodi:namedview
     id="base"
     pagecolor="#ffffff"
     bordercolor="#666666"
     borderopacity="1.0"
     inkscape:pageopacity="0.0"
     inkscape:pageshadow="2"
     inkscape:zoom="1.6296875"
     inkscape:cx="102.70231"
     inkscape:cy="26.024543"
     inkscape:document-units="mm"
     inkscape:current-layer="layer1"
     showgrid="false"
     fit-margin-top="0"
     fit-margin-left="0"
     fit-margin-right="0"
     fit-margin-bottom="0"
     inkscape:window-width="1366"
     inkscape:window-height="745"
     inkscape:window-x="-8"
     inkscape:window-y="-8"
     inkscape:window-maximized="1"
     units="px" />
  <metadata
     id="metadata5113">
    <rdf:RDF>
      <cc:Work
         rdf:about="">
        <dc:format>image/svg+xml</dc:format>
        <dc:type
           rdf:resource="http://purl.org/dc/dcmitype/StillImage" />
        <dc:title></dc:title>
      </cc:Work>
    </rdf:RDF>
  </metadata>
  <g
     inkscape:label="Layer 1"
     inkscape:groupmode="layer"
     id="layer1"
     transform="translate(-26.301296,-119.73322)">
    <text
       xml:space="preserve"
       style="font-style:normal;font-weight:normal;font-size:10.58338356px;line-height:1.25;font-family:sans-serif;letter-spacing:0px;word-spacing:0px;fill:#000000;fill-opacity:1;stroke:none;stroke-width:0.26458457"
       x="-1.7101167"
       y="156.16997"
       id="text1585"><tspan
         sodipodi:role="line"
         id="tspan1583"
         x="-1.7101167"
         y="165.82552"
         style="stroke-width:0.26458457" /></text>
    <g
       aria-label="EMIIA.AI"
       style="font-style:normal;font-variant:normal;font-weight:normal;font-stretch:normal;font-size:9.79808617px;line-height:1.25;font-family:Orbitron;-inkscape-font-specification:Orbitron;letter-spacing:0px;word-spacing:0px;fill:#2a2626;fill-opacity:1;stroke:none;stroke-width:0.26244876;stroke-opacity:1"
       id="text3948">
      <path
         d="m 33.149202,121.88138 v 0.79365 h -5.643698 v 2.33194 h 4.536514 v 0.80345 h -4.536514 v 2.33194 h 5.643698 v 0.79364 h -6.437343 v -7.05462 z"
         style="font-size:9.79808617px;stroke-width:0.26244876;stroke:none;stroke-opacity:1;fill:#2a2626;fill-opacity:1"
         id="path5307" />
      <path
         d="m 37.924084,125.3695 2.929628,-3.48812 H 41.9413 v 7.05462 h -0.793645 v -6.15319 l -3.223571,3.83105 -3.22357,-3.83105 v 6.15319 h -0.793645 v -7.05462 h 1.087588 z"
         style="font-size:9.79808617px;stroke-width:0.26244876;stroke:none;stroke-opacity:1;fill:#2a2626;fill-opacity:1"
         id="path5309" />
      <path
         d="m 43.006687,128.936 v -7.05462 h 0.793645 v 7.05462 z"
         style="font-size:9.79808617px;stroke-width:0.26244876;stroke:none;stroke-opacity:1;fill:#2a2626;fill-opacity:1"
         id="path5311" />
      <path
         d="m 45.169157,128.936 v -7.05462 h 0.793645 v 7.05462 z"
         style="font-size:9.79808617px;stroke-width:0.26244876;stroke:none;stroke-opacity:1;fill:#2a2626;fill-opacity:1"
         id="path5313" />
      <path
         d="m 48.517194,121.88138 h 4.703081 q 0.489904,0 0.832837,0.34294 0.342933,0.34293 0.342933,0.83283 V 128.936 H 53.6024 v -2.57689 h -5.467332 v 2.57689 h -0.793645 v -5.87885 q 0,-0.4899 0.342933,-0.83283 0.342933,-0.34294 0.832838,-0.34294 z m -0.382126,3.68408 H 53.6024 v -2.50831 q 0,-0.15677 -0.117577,-0.26455 -0.107779,-0.11757 -0.264548,-0.11757 h -4.703081 q -0.15677,0 -0.274347,0.11757 -0.107779,0.10778 -0.107779,0.26455 z"
         style="font-size:9.79808617px;stroke-width:0.26244876;stroke:none;stroke-opacity:1;fill:#2a2626;fill-opacity:1"
         id="path5315" />
    </g>
    <path
       id="path849-9"
       d="m 62.775039,129.71373 c -0.136463,0 -0.247638,-0.11518 -0.247638,-0.26066 v -0.6729 h -0.454909 v 0.6729 c 0,0.14548 -0.111173,0.26066 -0.247634,0.26066 -0.136467,0 -0.247646,-0.11518 -0.247646,-0.26066 v -0.6729 h -0.454848 v 0.6729 c 0,0.14548 -0.111226,0.26671 -0.247702,0.26671 -0.136461,0 -0.247632,-0.12123 -0.247632,-0.26671 v -0.6729 h -0.454856 v 0.6729 c 0,0.14548 -0.111227,0.26671 -0.247701,0.26671 -0.136449,0 -0.247623,-0.12123 -0.247623,-0.26671 v -0.6729 h -0.45487 v 0.6729 c -0.01518,0.13336 -0.121289,0.23641 -0.247634,0.23641 -0.126392,0 -0.237563,-0.10305 -0.247685,-0.23641 v -0.6729 h -0.46498 v 0.6729 c 0,0.14548 -0.11117,0.26671 -0.247636,0.26671 -0.136461,0 -0.247642,-0.12123 -0.247642,-0.26671 v -0.69109 c -0.505434,-0.0909 -0.874356,-0.55166 -0.874356,-1.09118 0,0 0,0 0,0 v -0.0364 h 0.919838 v 0.0424 c 0,0.0727 0.05557,0.13337 0.126342,0.13337 h 4.786292 c 0.0049,0 0.0049,0 0.0049,0 0.07076,0 0.126353,-0.0606 0.126353,-0.13337 0,0 0,0 0,0 l 0.005,-5.06787 c -0.005,0 -0.005,0 -0.005,0 0,-0.0727 -0.05559,-0.13337 -0.126353,-0.13337 0,0 0,0 -0.0049,0 h -4.776172 c -0.07582,0 -0.131416,0.0606 -0.131416,0.13337 v 0.0424 h -0.919836 v -0.0364 c 0,0 0,0 0,0 0,-0.54558 0.368926,-1.00629 0.874369,-1.09115 v -0.6304 c 0,-0.14548 0.111177,-0.26067 0.247644,-0.26067 0.13646,0 0.247634,0.11519 0.247634,0.26067 v 0.61228 H 58.7216 v -0.61228 c 0.01518,-0.13336 0.121348,-0.23641 0.247689,-0.23641 0.131402,0 0.237524,0.10305 0.247643,0.23641 v 0.61228 h 0.449801 v -0.61228 c 0,-0.14548 0.111221,-0.26067 0.247685,-0.26067 0.136462,0 0.247634,0.11519 0.247634,0.26067 v 0.61228 h 0.454856 v -0.61228 c 0,-0.14548 0.111184,-0.26067 0.247646,-0.26067 0.136465,0 0.247687,0.11519 0.247687,0.26067 v 0.61228 h 0.454861 v -0.61228 c 0,-0.14548 0.111171,-0.26067 0.247643,-0.26067 0.136465,0 0.242629,0.11519 0.242629,0.26067 v 0.61228 h 0.459919 v -0.61228 c 0,-0.14548 0.111171,-0.26067 0.247632,-0.26067 0.136466,0 0.242576,0.11519 0.242576,0.26067 v 0.64865 c 0.37404,0.11518 0.657085,0.4304 0.742964,0.82444 h 0.682325 c 0.136467,0 0.247634,0.11516 0.247634,0.26066 0,0.14549 -0.111167,0.26068 -0.247634,0.26068 h -0.657033 v 0.48495 h 0.657033 c 0.136467,0 0.247634,0.11518 0.247634,0.26067 0,0.14549 -0.111167,0.26067 -0.247634,0.26067 h -0.657033 v 0.48497 h 0.657033 c 0.136467,0 0.247634,0.11517 0.247634,0.26067 0,0.14548 -0.111167,0.26065 -0.247634,0.26065 h -0.657033 v 0.48498 h 0.657033 c 0.136467,0 0.247634,0.11518 0.247634,0.26066 0,0.13944 -0.111167,0.26067 -0.247634,0.26067 h -0.657033 v 0.47891 h 0.657033 c 0.136467,0 0.247634,0.12124 0.247634,0.26066 0,0.1455 -0.111167,0.26067 -0.247634,0.26067 h -0.657033 v 0.48497 h 0.657033 c 0.136467,0 0.247634,0.11517 0.247634,0.26067 0,0.14547 -0.111167,0.26067 -0.247634,0.26067 h -0.682325 c -0.08087,0.39404 -0.358804,0.70928 -0.722735,0.82445 v 0.71533 c 0,0 0,0 0,0 0,0.14548 -0.111171,0.26066 -0.242573,0.26066 -0.0049,0 -0.01014,0 -0.01014,0 z"
       style="fill:none;stroke:#d4d4d4;stroke-width:0.18389887;stroke-linecap:butt;stroke-linejoin:miter;stroke-miterlimit:4;stroke-dasharray:none;stroke-opacity:1"
       inkscape:connector-curvature="0" />
    <g
       transform="matrix(0.91949001,0,0,0.91949001,3.6621232,10.172646)"
       aria-label="AI"
       style="font-style:normal;font-variant:normal;font-weight:normal;font-stretch:normal;font-size:4.93891191px;line-height:1.25;font-family:Orbitron;-inkscape-font-specification:Orbitron;letter-spacing:0px;word-spacing:0px;fill:#d3d3d3;fill-opacity:1;stroke:none;stroke-width:0.26458457"
       id="text5927">
      <path
         inkscape:connector-curvature="0"
         d="m 59.813361,123.3268 h 2.370678 q 0.246945,0 0.419807,0.17286 0.172862,0.17286 0.172862,0.41981 v 2.96334 h -0.400052 v -1.29893 h -2.755913 v 1.29893 h -0.400051 v -2.96334 q 0,-0.24695 0.172861,-0.41981 0.172862,-0.17286 0.419808,-0.17286 z m -0.192618,1.85703 h 2.755913 v -1.26436 q 0,-0.079 -0.05927,-0.13336 -0.05433,-0.0593 -0.13335,-0.0593 h -2.370678 q -0.07902,0 -0.13829,0.0593 -0.05433,0.0543 -0.05433,0.13336 z"
         style="font-size:4.93891191px;fill:#d3d3d3;fill-opacity:1;stroke-width:0.26458457"
         id="path5940" />
      <path
         inkscape:connector-curvature="0"
         d="m 63.344374,126.88281 v -3.55601 h 0.400052 v 3.55601 z"
         style="font-size:4.93891191px;fill:#d3d3d3;fill-opacity:1;stroke-width:0.26458457"
         id="path5942" />
    </g>
  </g>
</svg>
