<?xml version="1.0" encoding="UTF-8" standalone="no"?>
<!-- Created with Inkscape (http://www.inkscape.org/) -->

<svg
   xmlns:dc="http://purl.org/dc/elements/1.1/"
   xmlns:cc="http://creativecommons.org/ns#"
   xmlns:rdf="http://www.w3.org/1999/02/22-rdf-syntax-ns#"
   xmlns:svg="http://www.w3.org/2000/svg"
   xmlns="http://www.w3.org/2000/svg"
   xmlns:sodipodi="http://sodipodi.sourceforge.net/DTD/sodipodi-0.dtd"
   xmlns:inkscape="http://www.inkscape.org/namespaces/inkscape"
   width="33.267948mm"
   height="17mm"
   viewBox="0 0 33.26795 17"
   version="1.1"
   id="svg20953"
   inkscape:version="0.92.2 (5c3e80d, 2017-08-06)"
   sodipodi:docname="emiia28.svg"
   inkscape:export-filename="C:\Users\User1\Desktop\15 Владимир 3д макс\IoT &amp; IIoT\infografics\Соцсети\fog88.png"
   inkscape:export-xdpi="1182.2"
   inkscape:export-ydpi="1182.2">
  <defs
     id="defs20947">
    <pattern
       y="0"
       x="0"
       height="6"
       width="6"
       patternUnits="userSpaceOnUse"
       id="EMFhbasepattern" />
  </defs>
  <sodipodi:namedview
     id="base"
     pagecolor="#ffffff"
     bordercolor="#666666"
     borderopacity="1.0"
     inkscape:pageopacity="0.0"
     inkscape:pageshadow="2"
     inkscape:zoom="2.1142299"
     inkscape:cx="-4.1551736"
     inkscape:cy="15.842913"
     inkscape:document-units="mm"
     inkscape:current-layer="layer1"
     showgrid="false"
     fit-margin-top="0"
     fit-margin-left="0"
     fit-margin-right="0"
     fit-margin-bottom="0"
     inkscape:window-width="1366"
     inkscape:window-height="745"
     inkscape:window-x="-8"
     inkscape:window-y="-8"
     inkscape:window-maximized="1" />
  <metadata
     id="metadata20950">
    <rdf:RDF>
      <cc:Work
         rdf:about="">
        <dc:format>image/svg+xml</dc:format>
        <dc:type
           rdf:resource="http://purl.org/dc/dcmitype/StillImage" />
        <dc:title />
      </cc:Work>
    </rdf:RDF>
  </metadata>
  <g
     inkscape:label="Layer 1"
     inkscape:groupmode="layer"
     id="layer1"
     transform="translate(-45.28919,-133.1472)">
    <text
       xml:space="preserve"
       style="font-style:normal;font-weight:normal;font-size:4.23333311px;line-height:1.25;font-family:sans-serif;letter-spacing:0px;word-spacing:0px;fill:#000000;fill-opacity:1;stroke:none;stroke-width:0.26458332"
       x="70.045975"
       y="142.4696"
       id="text891"><tspan
         sodipodi:role="line"
         id="tspan889"
         x="70.045975"
         y="146.3318"
         style="stroke-width:0.26458332" /></text>
    <polygon
       transform="matrix(0.00613869,0,0,0.00613775,14.627879,108.41606)"
       style="clip-rule:evenodd;fill:#000000;fill-rule:evenodd;stroke-width:1.62913418;image-rendering:optimizeQuality;shape-rendering:geometricPrecision;text-rendering:geometricPrecision"
       id="polygon824"
       points="8297.33,4826 8305.8,4826 8298.74,4816.12 "
       class="fil1" />
    <polygon
       transform="matrix(0.00613869,0,0,0.00613775,14.627879,108.41606)"
       style="clip-rule:evenodd;fill:#000000;fill-rule:evenodd;stroke-width:1.62913418;image-rendering:optimizeQuality;shape-rendering:geometricPrecision;text-rendering:geometricPrecision"
       id="polygon826"
       points="7086.6,5359.4 7078.14,5359.4 7085.19,5369.28 "
       class="fil1" />
    <text
       xml:space="preserve"
       style="font-style:normal;font-weight:normal;font-size:6.3499999px;line-height:1.25;font-family:sans-serif;letter-spacing:0px;word-spacing:0px;fill:#000000;fill-opacity:1;stroke:none;stroke-width:0.26458332"
       x="69.878426"
       y="142.46696"
       id="text1433"><tspan
         sodipodi:role="line"
         id="tspan1431"
         x="69.878426"
         y="148.26027"
         style="stroke-width:0.26458332" /></text>
    <path
       id="path1520"
       d="m 63.887302,141.05564 c -0.0054,1.13673 0.0054,2.39618 0,3.53291 m -3.666915,0 c 0.0054,-1.13671 0.01067,-2.41219 0.01594,-3.54892"
       style="fill:none;stroke:#4a99d9;stroke-width:0.10628738px;stroke-linecap:butt;stroke-linejoin:miter;stroke-miterlimit:4;stroke-dasharray:none;stroke-opacity:1"
       inkscape:connector-curvature="0"
       sodipodi:nodetypes="cccc" />
    <path
       id="path1522"
       d="m 60.236332,141.03963 c -1.424251,-0.6831 -2.338323,-1.92654 -2.338323,-3.47954 0,-2.24141 1.860029,-4.0559 4.155836,-4.0559 2.295808,0 4.155837,1.81449 4.155837,4.0559 0,1.60635 -0.823727,2.84448 -2.32238,3.49555"
       style="fill:none;stroke:#4a99d9;stroke-width:0.10644785;stroke-linecap:round;stroke-linejoin:bevel;stroke-miterlimit:4;stroke-dasharray:none;stroke-opacity:1"
       inkscape:connector-curvature="0"
       sodipodi:nodetypes="csssc" />
    <path
       id="path1524"
       d="m 60.220387,143.37712 h 3.666915"
       style="fill:none;stroke:#4a99d9;stroke-width:0.10628738px;stroke-linecap:butt;stroke-linejoin:miter;stroke-miterlimit:4;stroke-dasharray:none;stroke-opacity:1"
       inkscape:connector-curvature="0" />
    <path
       id="path1526"
       d="m 60.220387,142.11232 h 3.666915"
       style="fill:none;stroke:#4a99d9;stroke-width:0.10628738px;stroke-linecap:butt;stroke-linejoin:miter;stroke-miterlimit:4;stroke-dasharray:none;stroke-opacity:1"
       inkscape:connector-curvature="0" />
    <path
       id="path1528"
       d="m 60.220387,144.56187 h 3.666915"
       style="fill:none;stroke:#4a99d9;stroke-width:0.10628738px;stroke-linecap:butt;stroke-linejoin:miter;stroke-miterlimit:4;stroke-dasharray:none;stroke-opacity:1"
       inkscape:connector-curvature="0" />
    <path
       id="path1530"
       d="m 63.887302,144.58855 -0.919384,0.97663 h -1.828144 l -0.919387,-0.97663"
       style="fill:none;stroke:#4a99d9;stroke-width:0.10628738px;stroke-linecap:round;stroke-linejoin:miter;stroke-miterlimit:4;stroke-dasharray:none;stroke-opacity:1"
       inkscape:connector-curvature="0" />
    <path
       id="path1532"
       d="m 61.367657,145.55996 h 1.389389 c 0.124054,0 0.229498,0.0905 0.229498,0.20223 v 0.21288 c 0,0.10644 -0.105439,0.1969 -0.229498,0.1969 h -1.389389 c -0.130255,0 -0.229496,-0.0905 -0.229496,-0.1969 v -0.21288 c 0,-0.11171 0.09924,-0.20223 0.229496,-0.20223 z"
       style="fill:none;stroke:#4a99d9;stroke-width:0.11466642px;stroke-linecap:butt;stroke-linejoin:miter;stroke-miterlimit:4;stroke-dasharray:none;stroke-opacity:1"
       inkscape:connector-curvature="0" />
    <g
       aria-label="Свет"
       style="font-style:normal;font-weight:normal;font-size:2.82222223px;line-height:1.25;font-family:sans-serif;letter-spacing:0px;word-spacing:0px;fill:#000000;fill-opacity:1;stroke:none;stroke-width:0.26458332"
       id="text1565">
      <path
         d="m 60.539955,149.72719 q -0.07579,0.0331 -0.137804,0.062 -0.06063,0.0289 -0.159852,0.0606 -0.08406,0.0262 -0.183279,0.0441 -0.09784,0.0193 -0.216352,0.0193 -0.223242,0 -0.406521,-0.062 -0.181901,-0.0634 -0.316949,-0.19706 -0.132292,-0.13092 -0.206706,-0.33211 -0.07441,-0.20257 -0.07441,-0.46991 0,-0.25356 0.07166,-0.45337 0.07166,-0.19982 0.206706,-0.33762 0.130913,-0.13367 0.31557,-0.20395 0.186036,-0.0703 0.412034,-0.0703 0.165364,0 0.329351,0.04 0.165365,0.04 0.366558,0.14056 v 0.32384 h -0.02067 q -0.169499,-0.14194 -0.336242,-0.20671 -0.166742,-0.0648 -0.356912,-0.0648 -0.155718,0 -0.281119,0.051 -0.124024,0.0496 -0.221865,0.15572 -0.09508,0.10335 -0.148828,0.26183 -0.05236,0.15709 -0.05236,0.3638 0,0.21635 0.05788,0.37207 0.05926,0.15572 0.151585,0.25356 0.09646,0.10197 0.22462,0.15158 0.129535,0.0482 0.272851,0.0482 0.19706,0 0.369315,-0.0675 0.172254,-0.0675 0.322461,-0.20257 h 0.01929 z"
         style="font-size:2.82222223px;stroke-width:0.26458332"
         id="path2794" />
      <path
         d="m 62.178443,149.41025 q 0,0.11162 -0.04548,0.19843 -0.0441,0.0868 -0.122645,0.1447 -0.08819,0.0648 -0.192926,0.0937 -0.103352,0.0289 -0.272851,0.0289 h -0.636654 v -1.53927 h 0.595313 q 0.172255,0 0.259071,0.0124 0.08819,0.011 0.165365,0.051 0.08682,0.0455 0.126779,0.11851 0.04134,0.073 0.04134,0.17226 0,0.11438 -0.06477,0.19844 -0.06477,0.0841 -0.166742,0.13091 v 0.0138 q 0.136426,0.0331 0.22462,0.12816 0.08957,0.0937 0.08957,0.24805 z m -0.348644,-0.67938 q 0,-0.0496 -0.02205,-0.0896 -0.02067,-0.04 -0.06477,-0.062 -0.05788,-0.0289 -0.130913,-0.0317 -0.07166,-0.004 -0.177767,-0.004 h -0.270096 v 0.42168 h 0.323839 q 0.101975,0 0.150207,-0.007 0.04961,-0.008 0.09922,-0.0386 0.05237,-0.0331 0.07166,-0.0772 0.02067,-0.0455 0.02067,-0.11162 z m 0.0813,0.68075 q 0,-0.0758 -0.02481,-0.12264 -0.0248,-0.0482 -0.108865,-0.0882 -0.05237,-0.0248 -0.112999,-0.0289 -0.06063,-0.006 -0.16812,-0.006 h -0.332108 v 0.50299 h 0.245291 q 0.15434,0 0.237023,-0.01 0.08406,-0.011 0.144694,-0.0455 0.06063,-0.0345 0.08957,-0.0841 0.03032,-0.0496 0.03032,-0.11851 z"
         style="font-size:2.82222223px;stroke-width:0.26458332"
         id="path2796" />
      <path
         d="m 63.877564,149.13326 h -1.134126 q 0,0.14194 0.04272,0.24805 0.04272,0.10473 0.117134,0.17225 0.07166,0.0661 0.169498,0.0992 0.09922,0.0331 0.21773,0.0331 0.157097,0 0.315571,-0.062 0.159852,-0.0634 0.227376,-0.12402 h 0.01378 v 0.2825 q -0.130914,0.0551 -0.26734,0.0923 -0.136425,0.0372 -0.286632,0.0372 -0.383094,0 -0.598068,-0.2067 -0.214974,-0.20809 -0.214974,-0.5898 0,-0.37759 0.205328,-0.59945 0.206705,-0.22187 0.542947,-0.22187 0.311436,0 0.479557,0.18191 0.169499,0.1819 0.169499,0.51676 z m -0.252181,-0.19844 q -0.0014,-0.20395 -0.103353,-0.31557 -0.100597,-0.11162 -0.307303,-0.11162 -0.208084,0 -0.332107,0.12265 -0.122645,0.12264 -0.139182,0.30454 z"
         style="font-size:2.82222223px;stroke-width:0.26458332"
         id="path2798" />
      <path
         d="m 65.401674,148.56413 h -0.556727 v 1.31189 h -0.259072 v -1.31189 h -0.556727 v -0.22738 h 1.372526 z"
         style="font-size:2.82222223px;stroke-width:0.26458332"
         id="path2800" />
    </g>
  </g>
</svg>
