<?xml version="1.0" encoding="UTF-8" standalone="no"?>
<!-- Created with Inkscape (http://www.inkscape.org/) -->

<svg
   xmlns:dc="http://purl.org/dc/elements/1.1/"
   xmlns:cc="http://creativecommons.org/ns#"
   xmlns:rdf="http://www.w3.org/1999/02/22-rdf-syntax-ns#"
   xmlns:svg="http://www.w3.org/2000/svg"
   xmlns="http://www.w3.org/2000/svg"
   xmlns:sodipodi="http://sodipodi.sourceforge.net/DTD/sodipodi-0.dtd"
   xmlns:inkscape="http://www.inkscape.org/namespaces/inkscape"
   width="63.799999mm"
   height="17mm"
   viewBox="0 0 63.800002 17"
   version="1.1"
   id="svg20953"
   inkscape:version="0.92.2 (5c3e80d, 2017-08-06)"
   sodipodi:docname="emiia35.svg"
   inkscape:export-filename="C:\Users\User1\Desktop\15 Владимир 3д макс\IoT &amp; IIoT\infografics\Соцсети\fog88.png"
   inkscape:export-xdpi="1182.2"
   inkscape:export-ydpi="1182.2">
  <defs
     id="defs20947" />
  <sodipodi:namedview
     id="base"
     pagecolor="#ffffff"
     bordercolor="#666666"
     borderopacity="1.0"
     inkscape:pageopacity="0.0"
     inkscape:pageshadow="2"
     inkscape:zoom="2.9899725"
     inkscape:cx="140.34889"
     inkscape:cy="5.4013409"
     inkscape:document-units="mm"
     inkscape:current-layer="layer1"
     showgrid="false"
     fit-margin-top="0"
     fit-margin-left="0"
     fit-margin-right="0"
     fit-margin-bottom="0"
     inkscape:window-width="1366"
     inkscape:window-height="745"
     inkscape:window-x="-8"
     inkscape:window-y="-8"
     inkscape:window-maximized="1" />
  <metadata
     id="metadata20950">
    <rdf:RDF>
      <cc:Work
         rdf:about="">
        <dc:format>image/svg+xml</dc:format>
        <dc:type
           rdf:resource="http://purl.org/dc/dcmitype/StillImage" />
        <dc:title></dc:title>
      </cc:Work>
    </rdf:RDF>
  </metadata>
  <g
     inkscape:label="Layer 1"
     inkscape:groupmode="layer"
     id="layer1"
     transform="translate(-45.28919,-133.1472)">
    <text
       xml:space="preserve"
       style="font-style:normal;font-weight:normal;font-size:4.23333311px;line-height:1.25;font-family:sans-serif;letter-spacing:0px;word-spacing:0px;fill:#000000;fill-opacity:1;stroke:none;stroke-width:0.26458332"
       x="70.045975"
       y="142.4696"
       id="text891"><tspan
         sodipodi:role="line"
         id="tspan889"
         x="70.045975"
         y="146.3318"
         style="stroke-width:0.26458332" /></text>
    <polygon
       transform="matrix(0.00613869,0,0,0.00613775,22.511535,110.29391)"
       style="clip-rule:evenodd;fill:#000000;fill-rule:evenodd;stroke-width:1.62913418;image-rendering:optimizeQuality;shape-rendering:geometricPrecision;text-rendering:geometricPrecision"
       id="polygon824"
       points="8305.8,4826 8298.74,4816.12 8297.33,4826 "
       class="fil1" />
    <polygon
       transform="matrix(0.00613869,0,0,0.00613775,22.511535,110.29391)"
       style="clip-rule:evenodd;fill:#000000;fill-rule:evenodd;stroke-width:1.62913418;image-rendering:optimizeQuality;shape-rendering:geometricPrecision;text-rendering:geometricPrecision"
       id="polygon826"
       points="7078.14,5359.4 7085.19,5369.28 7086.6,5359.4 "
       class="fil1" />
    <path
       id="path818"
       d="M 75.055369,135.3024 H 64.479107 c -0.621816,0 -1.125701,0.50601 -1.125701,1.13045 v 10.62075 c 0,0.62443 0.503885,1.13044 1.125701,1.13044 h 10.576262 c 0.621817,0 1.125702,-0.50601 1.125702,-1.13044 v -10.62075 c 0,-0.62444 -0.503885,-1.13045 -1.125702,-1.13045 z"
       style="fill:none;stroke:#4a99d9;stroke-width:0.13401243px;stroke-linecap:butt;stroke-linejoin:miter;stroke-miterlimit:4;stroke-dasharray:none;stroke-opacity:1"
       inkscape:connector-curvature="0" />
    <path
       id="path820-0"
       d="m 69.764559,137.1811 c -2.508715,0 -4.540339,2.04017 -4.540339,4.55943 0,2.52464 2.031624,4.56483 4.540339,4.56483 2.514074,0 4.545703,-2.04019 4.545703,-4.56483 0,-2.51926 -2.031629,-4.55943 -4.545703,-4.55943 z"
       style="fill:none;stroke:#4a99d9;stroke-width:0.13401243px;stroke-linecap:butt;stroke-linejoin:miter;stroke-miterlimit:4;stroke-dasharray:none;stroke-opacity:1"
       inkscape:connector-curvature="0" />
    <path
       id="path822-2"
       d="m 67.897898,141.40142 c -0.244433,0 -0.444427,0.19654 -0.444427,0.44219 0,0.24566 0.199994,0.44666 0.444427,0.44666 0.244433,0 0.444422,-0.201 0.444422,-0.44666 0,-0.24565 -0.199989,-0.44219 -0.444422,-0.44219 z"
       style="fill:none;stroke:#4a99d9;stroke-width:0.11115076px;stroke-linecap:butt;stroke-linejoin:miter;stroke-miterlimit:4;stroke-dasharray:none;stroke-opacity:1"
       inkscape:connector-curvature="0" />
    <path
       id="path824"
       d="m 71.428234,141.40155 c -0.245592,0 -0.442069,0.19647 -0.442069,0.44206 0,0.2456 0.196477,0.44654 0.442069,0.44654 0.245594,0 0.446532,-0.20094 0.446532,-0.44654 0,-0.24559 -0.200938,-0.44206 -0.446532,-0.44206 z"
       style="fill:none;stroke:#4a99d9;stroke-width:0.11139914px;stroke-linecap:butt;stroke-linejoin:miter;stroke-miterlimit:4;stroke-dasharray:none;stroke-opacity:1"
       inkscape:connector-curvature="0" />
    <path
       id="path826"
       d="m 69.764559,145.32026 v 0 c 0.117933,0 0.214417,0.0969 0.214417,0.21532 v 0.55445 c 0,0.11843 -0.09648,0.21533 -0.214417,0.21533 v 0 c -0.117931,0 -0.209058,-0.0969 -0.209058,-0.21533 v -0.55445 c 0,-0.11843 0.09113,-0.21532 0.209058,-0.21532 z"
       style="fill:none;stroke:#4a99d9;stroke-width:0.13401243px;stroke-linecap:butt;stroke-linejoin:miter;stroke-miterlimit:4;stroke-dasharray:none;stroke-opacity:1"
       inkscape:connector-curvature="0" />
    <path
       id="path828"
       d="m 69.764559,137.1811 v 0 c 0.117933,0 0.214417,0.0969 0.214417,0.21532 v 0.55445 c 0,0.11842 -0.09648,0.21532 -0.214417,0.21532 v 0 c -0.117931,0 -0.209058,-0.097 -0.209058,-0.21532 v -0.55445 c 0,-0.11843 0.09113,-0.21532 0.209058,-0.21532 z"
       style="fill:none;stroke:#4a99d9;stroke-width:0.13401243px;stroke-linecap:butt;stroke-linejoin:miter;stroke-miterlimit:4;stroke-dasharray:none;stroke-opacity:1"
       inkscape:connector-curvature="0" />
    <text
       xml:space="preserve"
       style="font-style:normal;font-weight:normal;font-size:6.3499999px;line-height:1.25;font-family:sans-serif;letter-spacing:0px;word-spacing:0px;fill:#000000;fill-opacity:1;stroke:none;stroke-width:0.26458332"
       x="69.878426"
       y="142.46696"
       id="text1433"><tspan
         sodipodi:role="line"
         id="tspan1431"
         x="69.878426"
         y="148.26027"
         style="stroke-width:0.26458332" /></text>
    <polygon
       transform="matrix(0.00613869,0,0,0.00613775,37.909373,110.29391)"
       style="clip-rule:evenodd;fill:#000000;fill-rule:evenodd;stroke-width:1.62913418;image-rendering:optimizeQuality;shape-rendering:geometricPrecision;text-rendering:geometricPrecision"
       id="polygon824-9"
       points="8305.8,4826 8298.74,4816.12 8297.33,4826 "
       class="fil1" />
    <polygon
       transform="matrix(0.00613869,0,0,0.00613775,37.909373,110.29391)"
       style="clip-rule:evenodd;fill:#000000;fill-rule:evenodd;stroke-width:1.62913418;image-rendering:optimizeQuality;shape-rendering:geometricPrecision;text-rendering:geometricPrecision"
       id="polygon826-6"
       points="7078.14,5359.4 7085.19,5369.28 7086.6,5359.4 "
       class="fil1" />
    <path
       id="path820-0-2"
       d="m 85.162408,137.18111 c -2.508715,0 -4.540339,2.04017 -4.540339,4.55943 0,2.52464 2.031624,4.56483 4.540339,4.56483 2.514074,0 4.545703,-2.04019 4.545703,-4.56483 0,-2.51926 -2.031629,-4.55943 -4.545703,-4.55943 z"
       style="fill:none;stroke:#4a99d9;stroke-width:0.13401243px;stroke-linecap:butt;stroke-linejoin:miter;stroke-miterlimit:4;stroke-dasharray:none;stroke-opacity:1"
       inkscape:connector-curvature="0" />
    <path
       id="path822-2-6"
       d="m 85.154041,141.31472 c -0.244432,0 -0.444428,0.19651 -0.444428,0.4422 0,0.24565 0.200006,0.44665 0.444428,0.44665 0.244432,0 0.444422,-0.20094 0.444422,-0.44665 0,-0.24567 -0.19998,-0.4422 -0.444422,-0.4422 z"
       style="fill:none;stroke:#4a99d9;stroke-width:0.11114966px;stroke-linecap:butt;stroke-linejoin:miter;stroke-miterlimit:4;stroke-dasharray:none;stroke-opacity:1"
       inkscape:connector-curvature="0" />
    <polygon
       transform="matrix(0.00613869,0,0,0.00613775,7.1282319,110.29838)"
       style="clip-rule:evenodd;fill:#000000;fill-rule:evenodd;stroke-width:1.62913418;image-rendering:optimizeQuality;shape-rendering:geometricPrecision;text-rendering:geometricPrecision"
       id="polygon824-9-4"
       points="8297.33,4826 8305.8,4826 8298.74,4816.12 "
       class="fil1" />
    <polygon
       transform="matrix(0.00613869,0,0,0.00613775,7.1282319,110.29838)"
       style="clip-rule:evenodd;fill:#000000;fill-rule:evenodd;stroke-width:1.62913418;image-rendering:optimizeQuality;shape-rendering:geometricPrecision;text-rendering:geometricPrecision"
       id="polygon826-6-9"
       points="7086.6,5359.4 7078.14,5359.4 7085.19,5369.28 "
       class="fil1" />
    <path
       id="path820-0-2-4"
       d="m 54.38126,137.18559 c -2.508715,0 -4.54034,2.04017 -4.54034,4.55943 0,2.52464 2.031625,4.56483 4.54034,4.56483 2.514074,0 4.545703,-2.04019 4.545703,-4.56483 0,-2.51926 -2.031629,-4.55943 -4.545703,-4.55943 z"
       style="fill:none;stroke:#4a99d9;stroke-width:0.13401243px;stroke-linecap:butt;stroke-linejoin:miter;stroke-miterlimit:4;stroke-dasharray:none;stroke-opacity:1"
       inkscape:connector-curvature="0" />
    <path
       id="path822-2-6-5"
       d="m 54.372893,141.49441 c -0.244432,0 -0.444428,0.19651 -0.444428,0.4422 0,0.24565 0.200006,0.44665 0.444428,0.44665 0.244432,0 0.444422,-0.20094 0.444422,-0.44665 0,-0.24567 -0.19998,-0.4422 -0.444422,-0.4422 z"
       style="fill:none;stroke:#4a99d9;stroke-width:0.11114966px;stroke-linecap:butt;stroke-linejoin:miter;stroke-miterlimit:4;stroke-dasharray:none;stroke-opacity:1"
       inkscape:connector-curvature="0" />
    <rect
       style="opacity:1;fill:none;fill-opacity:1;fill-rule:evenodd;stroke:#4a99d9;stroke-width:0.134;stroke-linecap:round;stroke-linejoin:round;stroke-miterlimit:4;stroke-dasharray:none;stroke-dashoffset:0;stroke-opacity:1;paint-order:markers fill stroke"
       id="rect4259"
       width="27.697439"
       height="13.012157"
       x="78.705322"
       y="135.21985"
       rx="1.337616"
       ry="1.3281696" />
    <polygon
       transform="matrix(0.00613869,0,0,0.00613775,52.800582,110.2107)"
       style="clip-rule:evenodd;fill:#000000;fill-rule:evenodd;stroke-width:1.62913418;image-rendering:optimizeQuality;shape-rendering:geometricPrecision;text-rendering:geometricPrecision"
       id="polygon824-6"
       points="8298.74,4816.12 8297.33,4826 8305.8,4826 "
       class="fil1" />
    <polygon
       transform="matrix(0.00613869,0,0,0.00613775,52.800582,110.2107)"
       style="clip-rule:evenodd;fill:#000000;fill-rule:evenodd;stroke-width:1.62913418;image-rendering:optimizeQuality;shape-rendering:geometricPrecision;text-rendering:geometricPrecision"
       id="polygon826-1"
       points="7085.19,5369.28 7086.6,5359.4 7078.14,5359.4 "
       class="fil1" />
    <path
       id="path820-0-71"
       d="m 100.0536,137.0979 c -2.508716,0 -4.54034,2.04017 -4.54034,4.55943 0,2.52464 2.031624,4.56483 4.54034,4.56483 2.51408,0 4.54573,-2.04019 4.54573,-4.56483 0,-2.51926 -2.03165,-4.55943 -4.54573,-4.55943 z"
       style="fill:none;stroke:#4a99d9;stroke-width:0.13401243px;stroke-linecap:butt;stroke-linejoin:miter;stroke-miterlimit:4;stroke-dasharray:none;stroke-opacity:1"
       inkscape:connector-curvature="0" />
    <path
       id="path822-2-9"
       d="m 98.186938,141.31822 c -0.244433,0 -0.444427,0.19654 -0.444427,0.44219 0,0.24566 0.199994,0.44666 0.444427,0.44666 0.244433,0 0.444422,-0.201 0.444422,-0.44666 0,-0.24565 -0.199989,-0.44219 -0.444422,-0.44219 z"
       style="fill:none;stroke:#4a99d9;stroke-width:0.11115076px;stroke-linecap:butt;stroke-linejoin:miter;stroke-miterlimit:4;stroke-dasharray:none;stroke-opacity:1"
       inkscape:connector-curvature="0" />
    <path
       id="path824-2"
       d="m 101.71728,141.31835 c -0.24559,0 -0.44207,0.19647 -0.44207,0.44206 0,0.2456 0.19648,0.44654 0.44207,0.44654 0.2456,0 0.44654,-0.20094 0.44654,-0.44654 0,-0.24559 -0.20094,-0.44206 -0.44654,-0.44206 z"
       style="fill:none;stroke:#4a99d9;stroke-width:0.11139914px;stroke-linecap:butt;stroke-linejoin:miter;stroke-miterlimit:4;stroke-dasharray:none;stroke-opacity:1"
       inkscape:connector-curvature="0" />
    <path
       id="path826-5"
       d="m 100.0536,145.23706 v 0 c 0.11793,0 0.21442,0.0969 0.21442,0.21532 v 0.55445 c 0,0.11843 -0.0965,0.21533 -0.21442,0.21533 v 0 c -0.117937,0 -0.209057,-0.0969 -0.209057,-0.21533 v -0.55445 c 0,-0.11843 0.0911,-0.21532 0.209057,-0.21532 z"
       style="fill:none;stroke:#4a99d9;stroke-width:0.13401243px;stroke-linecap:butt;stroke-linejoin:miter;stroke-miterlimit:4;stroke-dasharray:none;stroke-opacity:1"
       inkscape:connector-curvature="0" />
    <path
       id="path828-7"
       d="m 100.0536,137.0979 v 0 c 0.11793,0 0.21442,0.0969 0.21442,0.21532 v 0.55445 c 0,0.11842 -0.0965,0.21532 -0.21442,0.21532 v 0 c -0.117937,0 -0.209057,-0.097 -0.209057,-0.21532 v -0.55445 c 0,-0.11843 0.0911,-0.21532 0.209057,-0.21532 z"
       style="fill:none;stroke:#4a99d9;stroke-width:0.13401243px;stroke-linecap:butt;stroke-linejoin:miter;stroke-miterlimit:4;stroke-dasharray:none;stroke-opacity:1"
       inkscape:connector-curvature="0" />
    <path
       id="path818-4"
       d="M 59.666746,135.29627 H 49.090484 c -0.621816,0 -1.125701,0.50601 -1.125701,1.13045 v 10.62075 c 0,0.62443 0.503885,1.13044 1.125701,1.13044 h 10.576262 c 0.621817,0 1.125702,-0.50601 1.125702,-1.13044 v -10.62075 c 0,-0.62444 -0.503885,-1.13045 -1.125702,-1.13045 z"
       style="fill:none;stroke:#4a99d9;stroke-width:0.13401243px;stroke-linecap:butt;stroke-linejoin:miter;stroke-miterlimit:4;stroke-dasharray:none;stroke-opacity:1"
       inkscape:connector-curvature="0" />
  </g>
</svg>
