<?xml version="1.0" encoding="UTF-8" standalone="no"?>
<svg
   xmlns:dc="http://purl.org/dc/elements/1.1/"
   xmlns:cc="http://creativecommons.org/ns#"
   xmlns:rdf="http://www.w3.org/1999/02/22-rdf-syntax-ns#"
   xmlns:svg="http://www.w3.org/2000/svg"
   xmlns="http://www.w3.org/2000/svg"
   xmlns:sodipodi="http://sodipodi.sourceforge.net/DTD/sodipodi-0.dtd"
   xmlns:inkscape="http://www.inkscape.org/namespaces/inkscape"
   class="icon"
   height="1333"
   viewBox="0 0 1000 2666"
   version="1.1"
   id="svg12013"
   sodipodi:docname="emiia45.svg"
   width="1000"
   inkscape:version="0.92.2 (5c3e80d, 2017-08-06)">
  <metadata
     id="metadata12019">
    <rdf:RDF>
      <cc:Work
         rdf:about="">
        <dc:format>image/svg+xml</dc:format>
        <dc:type
           rdf:resource="http://purl.org/dc/dcmitype/StillImage" />
        <dc:title />
      </cc:Work>
    </rdf:RDF>
  </metadata>
  <defs
     id="defs12017">
    <pattern
       y="0"
       x="0"
       height="6"
       width="6"
       patternUnits="userSpaceOnUse"
       id="EMFhbasepattern" />
  </defs>
  <sodipodi:namedview
     pagecolor="#ffffff"
     bordercolor="#666666"
     borderopacity="1"
     objecttolerance="10"
     gridtolerance="10"
     guidetolerance="10"
     inkscape:pageopacity="0"
     inkscape:pageshadow="2"
     inkscape:window-width="1366"
     inkscape:window-height="745"
     id="namedview12015"
     showgrid="false"
     inkscape:zoom="0.26240291"
     inkscape:cx="-120.84711"
     inkscape:cy="500.75689"
     inkscape:window-x="-8"
     inkscape:window-y="-8"
     inkscape:window-maximized="1"
     inkscape:current-layer="svg12013" />
  <g
     aria-label="FOG/EDGE COMPUTING
WIRELESS MESH NETWORK
COGNITIVE RADIO OPTICS"
     style="font-style:normal;font-variant:normal;font-weight:normal;font-stretch:normal;font-size:106.66666412px;line-height:1.25;font-family:Orbitron;-inkscape-font-specification:Orbitron;letter-spacing:0px;word-spacing:0px;fill:#e9e9e9;fill-opacity:1;stroke:none;stroke-width:2"
     id="text10587">
    <path
       d="m -201.80741,1209.6421 h 70.08 v 8.64 h -61.44 v 25.3867 h 49.38667 v 8.7467 h -49.38667 v 34.0266 h -8.64 z"
       style="font-size:106.66666412px;line-height:1.54999995;text-align:center;text-anchor:middle;fill:#e9e9e9;fill-opacity:1;stroke-width:2"
       id="path10706" />
    <path
       d="m -112.35075,1209.6421 h 51.200004 q 5.333333,0 9.066666,3.7334 3.733333,3.7333 3.733333,9.0666 v 51.2 q 0,5.3334 -3.733333,9.0667 -3.733333,3.7333 -9.066666,3.7333 h -51.200004 q -5.33333,0 -9.06666,-3.7333 -3.73333,-3.7333 -3.73333,-9.0667 v -51.2 q 0,-5.3333 3.73333,-9.0666 3.73333,-3.7334 9.06666,-3.7334 z m 0,68.16 h 51.200004 q 1.706666,0 2.88,-1.1733 1.28,-1.28 1.28,-2.9867 v -51.2 q 0,-1.7066 -1.28,-2.88 -1.173334,-1.28 -2.88,-1.28 h -51.200004 q -1.70666,0 -2.98666,1.28 -1.17334,1.1734 -1.17334,2.88 v 51.2 q 0,1.7067 1.17334,2.9867 1.28,1.1733 2.98666,1.1733 z"
       style="font-size:106.66666412px;line-height:1.54999995;text-align:center;text-anchor:middle;fill:#e9e9e9;fill-opacity:1;stroke-width:2"
       id="path10708" />
    <path
       d="m 40.195915,1222.4421 v 3.0934 h -8.64 v -3.0934 q 0,-1.7066 -1.28,-2.88 -1.173333,-1.28 -2.88,-1.28 h -51.199999 q -1.706666,0 -2.986666,1.28 -1.173333,1.1734 -1.173333,2.88 v 51.2 q 0,1.7067 1.173333,2.9867 1.28,1.1733 2.986666,1.1733 h 51.199999 q 1.706667,0 2.88,-1.1733 1.28,-1.28 1.28,-2.9867 v -18.9866 H 12.569249 v -8.7467 h 27.626666 v 27.7333 q 0,5.3334 -3.733333,9.0667 -3.733334,3.7333 -9.066667,3.7333 h -51.199999 q -5.333333,0 -9.066666,-3.7333 -3.733333,-3.7333 -3.733333,-9.0667 v -51.2 q 0,-5.3333 3.733333,-9.0666 3.733333,-3.7334 9.066666,-3.7334 h 51.199999 q 5.333333,0 9.066667,3.7334 3.733333,3.7333 3.733333,9.0666 z"
       style="font-size:106.66666412px;line-height:1.54999995;text-align:center;text-anchor:middle;fill:#e9e9e9;fill-opacity:1;stroke-width:2"
       id="path10710" />
    <path
       d="m 46.60424,1275.1355 53.97333,-65.4934 v 11.0934 l -53.97333,65.7066 z"
       style="font-size:106.66666412px;line-height:1.54999995;text-align:center;text-anchor:middle;fill:#e9e9e9;fill-opacity:1;stroke-width:2"
       id="path10712" />
    <path
       d="m 177.8559,1209.6421 v 8.64 h -61.43999 v 25.3867 h 49.38666 v 8.7467 h -49.38666 v 25.3866 h 61.43999 v 8.64 h -70.07999 v -76.8 z"
       style="font-size:106.66666412px;line-height:1.54999995;text-align:center;text-anchor:middle;fill:#e9e9e9;fill-opacity:1;stroke-width:2"
       id="path10714" />
    <path
       d="m 189.44259,1209.6421 h 64 q 5.33334,0 9.06667,3.7334 3.73333,3.7333 3.73333,9.0666 v 51.2 q 0,5.3334 -3.73333,9.0667 -3.73333,3.7333 -9.06667,3.7333 h -64 z m 68.16,64 v -51.2 q 0,-1.7066 -1.28,-2.88 -1.17333,-1.28 -2.88,-1.28 h -51.2 q -1.70666,0 -2.98666,1.28 -1.17334,1.1734 -1.17334,2.88 v 51.2 q 0,1.7067 1.17334,2.9867 1.28,1.1733 2.98666,1.1733 h 51.2 q 1.70667,0 2.88,-1.1733 1.28,-1.28 1.28,-2.9867 z"
       style="font-size:106.66666412px;line-height:1.54999995;text-align:center;text-anchor:middle;fill:#e9e9e9;fill-opacity:1;stroke-width:2"
       id="path10716" />
    <path
       d="m 354.98757,1222.4421 v 3.0934 h -8.64 v -3.0934 q 0,-1.7066 -1.28,-2.88 -1.17333,-1.28 -2.88,-1.28 h -51.2 q -1.70666,0 -2.98666,1.28 -1.17334,1.1734 -1.17334,2.88 v 51.2 q 0,1.7067 1.17334,2.9867 1.28,1.1733 2.98666,1.1733 h 51.2 q 1.70667,0 2.88,-1.1733 1.28,-1.28 1.28,-2.9867 v -18.9866 h -18.98666 v -8.7467 h 27.62666 v 27.7333 q 0,5.3334 -3.73333,9.0667 -3.73334,3.7333 -9.06667,3.7333 h -51.2 q -5.33333,0 -9.06666,-3.7333 -3.73334,-3.7333 -3.73334,-9.0667 v -51.2 q 0,-5.3333 3.73334,-9.0666 3.73333,-3.7334 9.06666,-3.7334 h 51.2 q 5.33333,0 9.06667,3.7334 3.73333,3.7333 3.73333,9.0666 z"
       style="font-size:106.66666412px;line-height:1.54999995;text-align:center;text-anchor:middle;fill:#e9e9e9;fill-opacity:1;stroke-width:2"
       id="path10718" />
    <path
       d="m 437.02259,1209.6421 v 8.64 h -61.44 v 25.3867 h 49.38667 v 8.7467 h -49.38667 v 25.3866 h 61.44 v 8.64 h -70.08 v -76.8 z"
       style="font-size:106.66666412px;line-height:1.54999995;text-align:center;text-anchor:middle;fill:#e9e9e9;fill-opacity:1;stroke-width:2"
       id="path10720" />
    <path
       d="m 553.94093,1218.2821 h -63.78667 q -1.70667,0 -2.98667,1.28 -1.17333,1.1734 -1.17333,2.88 v 51.2 q 0,1.7067 1.17333,2.9867 1.28,1.1733 2.98667,1.1733 h 63.78667 v 8.64 h -63.78667 q -5.33333,0 -9.06667,-3.7333 -3.73333,-3.7333 -3.73333,-9.0667 v -51.2 q 0,-5.3333 3.73333,-9.0666 3.73334,-3.7334 9.06667,-3.7334 h 63.78667 z"
       style="font-size:106.66666412px;line-height:1.54999995;text-align:center;text-anchor:middle;fill:#e9e9e9;fill-opacity:1;stroke-width:2"
       id="path10722" />
    <path
       d="m 577.64924,1209.6421 h 51.2 q 5.33333,0 9.06666,3.7334 3.73334,3.7333 3.73334,9.0666 v 51.2 q 0,5.3334 -3.73334,9.0667 -3.73333,3.7333 -9.06666,3.7333 h -51.2 q -5.33333,0 -9.06667,-3.7333 -3.73333,-3.7333 -3.73333,-9.0667 v -51.2 q 0,-5.3333 3.73333,-9.0666 3.73334,-3.7334 9.06667,-3.7334 z m 0,68.16 h 51.2 q 1.70666,0 2.88,-1.1733 1.28,-1.28 1.28,-2.9867 v -51.2 q 0,-1.7066 -1.28,-2.88 -1.17334,-1.28 -2.88,-1.28 h -51.2 q -1.70667,0 -2.98667,1.28 -1.17333,1.1734 -1.17333,2.88 v 51.2 q 0,1.7067 1.17333,2.9867 1.28,1.1733 2.98667,1.1733 z"
       style="font-size:106.66666412px;line-height:1.54999995;text-align:center;text-anchor:middle;fill:#e9e9e9;fill-opacity:1;stroke-width:2"
       id="path10724" />
    <path
       d="m 697.12922,1247.6155 31.89333,-37.9734 h 11.84 v 76.8 h -8.64 v -66.9866 l -35.09333,41.7066 -35.09333,-41.7066 v 66.9866 h -8.64 v -76.8 h 11.84 z"
       style="font-size:106.66666412px;line-height:1.54999995;text-align:center;text-anchor:middle;fill:#e9e9e9;fill-opacity:1;stroke-width:2"
       id="path10726" />
    <path
       d="m 752.3542,1209.7488 h 64 q 5.33333,0 9.06666,3.7333 3.73334,3.7334 3.73334,9.0667 v 22.5067 q 0,5.3333 -3.73334,9.0666 -3.73333,3.7334 -9.06666,3.7334 h -51.2 q -0.96,0 -4.16,-0.4267 v 29.0133 h -8.64 z m 68.16,35.3067 v -22.5067 q 0,-1.7067 -1.28,-2.88 -1.17334,-1.28 -2.88,-1.28 h -51.2 q -1.70667,0 -2.98667,1.28 -1.17333,1.1733 -1.17333,2.88 v 22.5067 q 0,1.7066 1.17333,2.88 1.28,1.1733 2.98667,1.1733 h 51.2 q 1.70666,0 2.88,-1.1733 1.28,-1.1734 1.28,-2.88 z"
       style="font-size:106.66666412px;line-height:1.54999995;text-align:center;text-anchor:middle;fill:#e9e9e9;fill-opacity:1;stroke-width:2"
       id="path10728" />
    <path
       d="m 904.67593,1273.6421 v -64 h 8.64 v 64 q 0,5.3334 -3.73334,9.0667 -3.73333,3.7333 -9.06666,3.7333 h -51.2 q -5.33334,0 -9.06667,-3.7333 -3.73333,-3.7333 -3.73333,-9.0667 v -64 h 8.64 v 64 q 0,1.7067 1.17333,2.9867 1.28,1.1733 2.98667,1.1733 h 51.2 q 1.70666,0 2.88,-1.1733 1.28,-1.28 1.28,-2.9867 z"
       style="font-size:106.66666412px;line-height:1.54999995;text-align:center;text-anchor:middle;fill:#e9e9e9;fill-opacity:1;stroke-width:2"
       id="path10730" />
    <path
       d="m 921.22251,1209.6421 h 76.8 v 8.64 h -34.02667 v 68.16 h -8.64 v -68.16 h -34.13333 z"
       style="font-size:106.66666412px;line-height:1.54999995;text-align:center;text-anchor:middle;fill:#e9e9e9;fill-opacity:1;stroke-width:2"
       id="path10732" />
    <path
       d="m 1006.2109,1286.4421 v -76.8 h 8.64 v 76.8 z"
       style="font-size:106.66666412px;line-height:1.54999995;text-align:center;text-anchor:middle;fill:#e9e9e9;fill-opacity:1;stroke-width:2"
       id="path10734" />
    <path
       d="m 1097.8059,1276.6288 v -66.9867 h 8.64 v 76.8 h -11.84 l -56.32,-66.9866 v 66.9866 h -8.64 v -76.8 h 11.84 z"
       style="font-size:106.66666412px;line-height:1.54999995;text-align:center;text-anchor:middle;fill:#e9e9e9;fill-opacity:1;stroke-width:2"
       id="path10736" />
    <path
       d="m 1195.1959,1222.4421 v 3.0934 h -8.64 v -3.0934 q 0,-1.7066 -1.28,-2.88 -1.1733,-1.28 -2.88,-1.28 h -51.2 q -1.7067,0 -2.9867,1.28 -1.1733,1.1734 -1.1733,2.88 v 51.2 q 0,1.7067 1.1733,2.9867 1.28,1.1733 2.9867,1.1733 h 51.2 q 1.7067,0 2.88,-1.1733 1.28,-1.28 1.28,-2.9867 v -18.9866 h -18.9867 v -8.7467 h 27.6267 v 27.7333 q 0,5.3334 -3.7333,9.0667 -3.7334,3.7333 -9.0667,3.7333 h -51.2 q -5.3333,0 -9.0667,-3.7333 -3.7333,-3.7333 -3.7333,-9.0667 v -51.2 q 0,-5.3333 3.7333,-9.0666 3.7334,-3.7334 9.0667,-3.7334 h 51.2 q 5.3333,0 9.0667,3.7334 3.7333,3.7333 3.7333,9.0666 z"
       style="font-size:106.66666412px;line-height:1.54999995;text-align:center;text-anchor:middle;fill:#e9e9e9;fill-opacity:1;stroke-width:2"
       id="path10738" />
    <path
       d="m -246.59407,1374.9755 h 9.38666 l -27.94666,76.8 h -7.57333 l -23.89334,-65.6 -23.89333,65.6 h -7.46667 l -27.94666,-76.8 h 9.17333 l 22.50667,61.6533 22.4,-61.6533 h 10.45333 l 22.50667,61.6533 z"
       style="font-size:106.66666412px;line-height:1.54999995;text-align:center;text-anchor:middle;fill:#e9e9e9;fill-opacity:1;stroke-width:2"
       id="path10740" />
    <path
       d="m -227.74741,1451.7755 v -76.8 h 8.64 v 76.8 z"
       style="font-size:106.66666412px;line-height:1.54999995;text-align:center;text-anchor:middle;fill:#e9e9e9;fill-opacity:1;stroke-width:2"
       id="path10742" />
    <path
       d="m -127.61907,1387.8821 v 22.5067 q 0,5.3333 -3.73333,9.0667 -3.73334,3.7333 -9.06667,3.7333 h -11.73333 l 24.10666,28.5867 h -11.41333 l -24,-28.5867 h -28.16 q -0.96,0 -4.16,-0.4267 v 29.0134 h -8.64 v -76.6934 h 64 q 5.33333,0 9.06667,3.7334 3.73333,3.7333 3.73333,9.0666 z m -64,26.56 h 51.2 q 1.70667,0 2.88,-1.1733 1.17333,-1.1733 1.17333,-2.88 v -22.5067 q 0,-1.7066 -1.17333,-2.88 -1.17333,-1.28 -2.88,-1.28 h -51.2 q -1.70667,0 -2.98667,1.28 -1.17333,1.1734 -1.17333,2.88 v 22.5067 q 0,1.7067 1.17333,2.88 1.28,1.1733 2.98667,1.1733 z"
       style="font-size:106.66666412px;line-height:1.54999995;text-align:center;text-anchor:middle;fill:#e9e9e9;fill-opacity:1;stroke-width:2"
       id="path10744" />
    <path
       d="m -46.102415,1374.9755 v 8.64 h -61.439995 v 25.3866 h 49.386662 v 8.7467 h -49.386662 v 25.3867 h 61.439995 v 8.64 h -70.079995 v -76.8 z"
       style="font-size:106.66666412px;line-height:1.54999995;text-align:center;text-anchor:middle;fill:#e9e9e9;fill-opacity:1;stroke-width:2"
       id="path10746" />
    <path
       d="m -34.622423,1451.7755 v -76.9067 h 8.64 v 68.2667 h 68.159998 v 8.64 z"
       style="font-size:106.66666412px;line-height:1.54999995;text-align:center;text-anchor:middle;fill:#e9e9e9;fill-opacity:1;stroke-width:2"
       id="path10748" />
    <path
       d="m 118.68924,1374.9755 v 8.64 H 57.249243 v 25.3866 h 49.386667 v 8.7467 H 57.249243 v 25.3867 h 61.439997 v 8.64 H 48.609243 v -76.8 z"
       style="font-size:106.66666412px;line-height:1.54999995;text-align:center;text-anchor:middle;fill:#e9e9e9;fill-opacity:1;stroke-width:2"
       id="path10750" />
    <path
       d="m 206.32926,1387.7755 v 2.9866 h -8.64 v -2.9866 q 0,-1.7067 -1.28,-2.88 -1.17333,-1.28 -2.88,-1.28 h -51.2 q -1.70666,0 -2.98666,1.28 -1.17334,1.1733 -1.17334,2.88 v 17.1733 q 0,1.7067 1.17334,2.88 1.28,1.1733 2.98666,1.1733 h 51.2 q 5.33334,0 9.06667,3.7334 3.73333,3.7333 3.73333,9.0666 v 17.1734 q 0,5.3333 -3.73333,9.0666 -3.73333,3.7334 -9.06667,3.7334 h -51.2 q -5.33333,0 -9.06666,-3.7334 -3.73334,-3.7333 -3.73334,-9.0666 v -2.9867 h 8.64 v 2.9867 q 0,1.7066 1.17334,2.9866 1.28,1.1734 2.98666,1.1734 h 51.2 q 1.70667,0 2.88,-1.1734 1.28,-1.28 1.28,-2.9866 v -17.1734 q 0,-1.7066 -1.28,-2.88 -1.17333,-1.1733 -2.88,-1.1733 h -51.2 q -5.33333,0 -9.06666,-3.7333 -3.73334,-3.7334 -3.73334,-9.0667 v -17.1733 q 0,-5.3334 3.73334,-9.0667 3.73333,-3.7333 9.06666,-3.7333 h 51.2 q 5.33334,0 9.06667,3.7333 3.73333,3.7333 3.73333,9.0667 z"
       style="font-size:106.66666412px;line-height:1.54999995;text-align:center;text-anchor:middle;fill:#e9e9e9;fill-opacity:1;stroke-width:2"
       id="path10752" />
    <path
       d="m 294.03758,1387.7755 v 2.9866 h -8.64 v -2.9866 q 0,-1.7067 -1.28,-2.88 -1.17334,-1.28 -2.88,-1.28 h -51.2 q -1.70667,0 -2.98667,1.28 -1.17333,1.1733 -1.17333,2.88 v 17.1733 q 0,1.7067 1.17333,2.88 1.28,1.1733 2.98667,1.1733 h 51.2 q 5.33333,0 9.06666,3.7334 3.73334,3.7333 3.73334,9.0666 v 17.1734 q 0,5.3333 -3.73334,9.0666 -3.73333,3.7334 -9.06666,3.7334 h -51.2 q -5.33334,0 -9.06667,-3.7334 -3.73333,-3.7333 -3.73333,-9.0666 v -2.9867 h 8.64 v 2.9867 q 0,1.7066 1.17333,2.9866 1.28,1.1734 2.98667,1.1734 h 51.2 q 1.70666,0 2.88,-1.1734 1.28,-1.28 1.28,-2.9866 v -17.1734 q 0,-1.7066 -1.28,-2.88 -1.17334,-1.1733 -2.88,-1.1733 h -51.2 q -5.33334,0 -9.06667,-3.7333 -3.73333,-3.7334 -3.73333,-9.0667 v -17.1733 q 0,-5.3334 3.73333,-9.0667 3.73333,-3.7333 9.06667,-3.7333 h 51.2 q 5.33333,0 9.06666,3.7333 3.73334,3.7333 3.73334,9.0667 z"
       style="font-size:106.66666412px;line-height:1.54999995;text-align:center;text-anchor:middle;fill:#e9e9e9;fill-opacity:1;stroke-width:2"
       id="path10754" />
    <path
       d="m 378.17093,1412.9488 31.89333,-37.9733 h 11.84 v 76.8 h -8.64 v -66.9867 l -35.09333,41.7067 -35.09333,-41.7067 v 66.9867 h -8.64 v -76.8 h 11.84 z"
       style="font-size:106.66666412px;line-height:1.54999995;text-align:center;text-anchor:middle;fill:#e9e9e9;fill-opacity:1;stroke-width:2"
       id="path10756" />
    <path
       d="m 503.68924,1374.9755 v 8.64 h -61.44 v 25.3866 h 49.38667 v 8.7467 h -49.38667 v 25.3867 h 61.44 v 8.64 h -70.08 v -76.8 z"
       style="font-size:106.66666412px;line-height:1.54999995;text-align:center;text-anchor:middle;fill:#e9e9e9;fill-opacity:1;stroke-width:2"
       id="path10758" />
    <path
       d="m 591.3292,1387.7755 v 2.9866 h -8.64 v -2.9866 q 0,-1.7067 -1.28,-2.88 -1.17333,-1.28 -2.88,-1.28 h -51.2 q -1.70666,0 -2.98666,1.28 -1.17334,1.1733 -1.17334,2.88 v 17.1733 q 0,1.7067 1.17334,2.88 1.28,1.1733 2.98666,1.1733 h 51.2 q 5.33333,0 9.06667,3.7334 3.73333,3.7333 3.73333,9.0666 v 17.1734 q 0,5.3333 -3.73333,9.0666 -3.73334,3.7334 -9.06667,3.7334 h -51.2 q -5.33333,0 -9.06666,-3.7334 -3.73334,-3.7333 -3.73334,-9.0666 v -2.9867 h 8.64 v 2.9867 q 0,1.7066 1.17334,2.9866 1.28,1.1734 2.98666,1.1734 h 51.2 q 1.70667,0 2.88,-1.1734 1.28,-1.28 1.28,-2.9866 v -17.1734 q 0,-1.7066 -1.28,-2.88 -1.17333,-1.1733 -2.88,-1.1733 h -51.2 q -5.33333,0 -9.06666,-3.7333 -3.73334,-3.7334 -3.73334,-9.0667 v -17.1733 q 0,-5.3334 3.73334,-9.0667 3.73333,-3.7333 9.06666,-3.7333 h 51.2 q 5.33333,0 9.06667,3.7333 3.73333,3.7333 3.73333,9.0667 z"
       style="font-size:106.66666412px;line-height:1.54999995;text-align:center;text-anchor:middle;fill:#e9e9e9;fill-opacity:1;stroke-width:2"
       id="path10760" />
    <path
       d="m 672.85091,1374.9755 h 8.74666 v 76.8 h -8.74666 v -34.0267 h -61.33333 v 34.0267 h -8.64 v -76.8 h 8.64 v 34.0266 h 61.33333 z"
       style="font-size:106.66666412px;line-height:1.54999995;text-align:center;text-anchor:middle;fill:#e9e9e9;fill-opacity:1;stroke-width:2"
       id="path10762" />
    <path
       d="m 790.7226,1441.9621 v -66.9866 h 8.64 v 76.8 h -11.84 l -56.32,-66.9867 v 66.9867 h -8.64 v -76.8 h 11.84 z"
       style="font-size:106.66666412px;line-height:1.54999995;text-align:center;text-anchor:middle;fill:#e9e9e9;fill-opacity:1;stroke-width:2"
       id="path10764" />
    <path
       d="m 881.60593,1374.9755 v 8.64 h -61.44 v 25.3866 h 49.38667 v 8.7467 h -49.38667 v 25.3867 h 61.44 v 8.64 h -70.08 v -76.8 z"
       style="font-size:106.66666412px;line-height:1.54999995;text-align:center;text-anchor:middle;fill:#e9e9e9;fill-opacity:1;stroke-width:2"
       id="path10766" />
    <path
       d="m 889.13922,1374.9755 h 76.8 v 8.64 h -34.02666 v 68.16 h -8.64 v -68.16 h -34.13334 z"
       style="font-size:106.66666412px;line-height:1.54999995;text-align:center;text-anchor:middle;fill:#e9e9e9;fill-opacity:1;stroke-width:2"
       id="path10768" />
    <path
       d="m 1081.1142,1374.9755 h 9.3866 l -27.9466,76.8 h -7.5734 l -23.8933,-65.6 -23.8933,65.6 h -7.46668 l -27.94667,-76.8 h 9.17333 l 22.50662,61.6533 22.4,-61.6533 h 10.4534 l 22.5066,61.6533 z"
       style="font-size:106.66666412px;line-height:1.54999995;text-align:center;text-anchor:middle;fill:#e9e9e9;fill-opacity:1;stroke-width:2"
       id="path10770" />
    <path
       d="m 1109.9409,1374.9755 h 51.2 q 5.3333,0 9.0667,3.7333 3.7333,3.7333 3.7333,9.0667 v 51.2 q 0,5.3333 -3.7333,9.0666 -3.7334,3.7334 -9.0667,3.7334 h -51.2 q -5.3333,0 -9.0667,-3.7334 -3.7333,-3.7333 -3.7333,-9.0666 v -51.2 q 0,-5.3334 3.7333,-9.0667 3.7334,-3.7333 9.0667,-3.7333 z m 0,68.16 h 51.2 q 1.7067,0 2.88,-1.1734 1.28,-1.28 1.28,-2.9866 v -51.2 q 0,-1.7067 -1.28,-2.88 -1.1733,-1.28 -2.88,-1.28 h -51.2 q -1.7067,0 -2.9867,1.28 -1.1733,1.1733 -1.1733,2.88 v 51.2 q 0,1.7066 1.1733,2.9866 1.28,1.1734 2.9867,1.1734 z"
       style="font-size:106.66666412px;line-height:1.54999995;text-align:center;text-anchor:middle;fill:#e9e9e9;fill-opacity:1;stroke-width:2"
       id="path10772" />
    <path
       d="m 1262.3809,1387.8821 v 22.5067 q 0,5.3333 -3.7333,9.0667 -3.7333,3.7333 -9.0667,3.7333 h -11.7333 l 24.1067,28.5867 h -11.4134 l -24,-28.5867 h -28.16 q -0.96,0 -4.16,-0.4267 v 29.0134 h -8.64 v -76.6934 h 64 q 5.3334,0 9.0667,3.7334 3.7333,3.7333 3.7333,9.0666 z m -64,26.56 h 51.2 q 1.7067,0 2.88,-1.1733 1.1734,-1.1733 1.1734,-2.88 v -22.5067 q 0,-1.7066 -1.1734,-2.88 -1.1733,-1.28 -2.88,-1.28 h -51.2 q -1.7066,0 -2.9866,1.28 -1.1734,1.1734 -1.1734,2.88 v 22.5067 q 0,1.7067 1.1734,2.88 1.28,1.1733 2.9866,1.1733 z"
       style="font-size:106.66666412px;line-height:1.54999995;text-align:center;text-anchor:middle;fill:#e9e9e9;fill-opacity:1;stroke-width:2"
       id="path10774" />
    <path
       d="m 1335.7909,1374.9755 h 11.0933 l -32.1066,38.4 32.2133,38.4 h -11.2 l -28.5867,-34.0267 h -24.7466 v 34.0267 h -8.7467 v -76.8 h 8.7467 v 34.0266 h 24.7466 z"
       style="font-size:106.66666412px;line-height:1.54999995;text-align:center;text-anchor:middle;fill:#e9e9e9;fill-opacity:1;stroke-width:2"
       id="path10776" />
    <path
       d="m -200.32991,1548.9488 h -63.78666 q -1.70667,0 -2.98667,1.28 -1.17333,1.1733 -1.17333,2.88 v 51.2 q 0,1.7067 1.17333,2.9867 1.28,1.1733 2.98667,1.1733 h 63.78666 v 8.64 h -63.78666 q -5.33333,0 -9.06667,-3.7333 -3.73333,-3.7334 -3.73333,-9.0667 v -51.2 q 0,-5.3333 3.73333,-9.0667 3.73334,-3.7333 9.06667,-3.7333 h 63.78666 z"
       style="font-size:106.66666412px;line-height:1.54999995;text-align:center;text-anchor:middle;fill:#e9e9e9;fill-opacity:1;stroke-width:2"
       id="path10778" />
    <path
       d="m -176.62158,1540.3088 h 51.2 q 5.33334,0 9.06667,3.7333 3.73333,3.7334 3.73333,9.0667 v 51.2 q 0,5.3333 -3.73333,9.0667 -3.73333,3.7333 -9.06667,3.7333 h -51.2 q -5.33333,0 -9.06666,-3.7333 -3.73334,-3.7334 -3.73334,-9.0667 v -51.2 q 0,-5.3333 3.73334,-9.0667 3.73333,-3.7333 9.06666,-3.7333 z m 0,68.16 h 51.2 q 1.70667,0 2.88,-1.1733 1.28,-1.28 1.28,-2.9867 v -51.2 q 0,-1.7067 -1.28,-2.88 -1.17333,-1.28 -2.88,-1.28 h -51.2 q -1.70666,0 -2.98666,1.28 -1.17334,1.1733 -1.17334,2.88 v 51.2 q 0,1.7067 1.17334,2.9867 1.28,1.1733 2.98666,1.1733 z"
       style="font-size:106.66666412px;line-height:1.54999995;text-align:center;text-anchor:middle;fill:#e9e9e9;fill-opacity:1;stroke-width:2"
       id="path10780" />
    <path
       d="m -24.074917,1553.1088 v 3.0933 h -8.639999 v -3.0933 q 0,-1.7067 -1.28,-2.88 -1.173334,-1.28 -2.88,-1.28 h -51.199999 q -1.706667,0 -2.986667,1.28 -1.173333,1.1733 -1.173333,2.88 v 51.2 q 0,1.7067 1.173333,2.9867 1.28,1.1733 2.986667,1.1733 h 51.199999 q 1.706666,0 2.88,-1.1733 1.28,-1.28 1.28,-2.9867 v -18.9867 h -18.986667 v -8.7466 h 27.626666 v 27.7333 q 0,5.3333 -3.733333,9.0667 -3.733333,3.7333 -9.066666,3.7333 h -51.199999 q -5.333333,0 -9.066667,-3.7333 -3.733328,-3.7334 -3.733328,-9.0667 v -51.2 q 0,-5.3333 3.733328,-9.0667 3.733334,-3.7333 9.066667,-3.7333 h 51.199999 q 5.333333,0 9.066666,3.7333 3.733333,3.7334 3.733333,9.0667 z"
       style="font-size:106.66666412px;line-height:1.54999995;text-align:center;text-anchor:middle;fill:#e9e9e9;fill-opacity:1;stroke-width:2"
       id="path10782" />
    <path
       d="m 55.82674,1607.2955 v -66.9867 h 8.64 v 76.8 h -11.84 l -56.3199985,-66.9867 v 66.9867 h -8.6399995 v -76.8 h 11.83999938 z"
       style="font-size:106.66666412px;line-height:1.54999995;text-align:center;text-anchor:middle;fill:#e9e9e9;fill-opacity:1;stroke-width:2"
       id="path10784" />
    <path
       d="m 76.523408,1617.1088 v -76.8 h 8.64 v 76.8 z"
       style="font-size:106.66666412px;line-height:1.54999995;text-align:center;text-anchor:middle;fill:#e9e9e9;fill-opacity:1;stroke-width:2"
       id="path10786" />
    <path
       d="m 96.118429,1540.3088 h 76.800001 v 8.64 h -34.02667 v 68.16 h -8.64 v -68.16 H 96.118429 Z"
       style="font-size:106.66666412px;line-height:1.54999995;text-align:center;text-anchor:middle;fill:#e9e9e9;fill-opacity:1;stroke-width:2"
       id="path10788" />
    <path
       d="m 181.10675,1617.1088 v -76.8 h 8.64 v 76.8 z"
       style="font-size:106.66666412px;line-height:1.54999995;text-align:center;text-anchor:middle;fill:#e9e9e9;fill-opacity:1;stroke-width:2"
       id="path10790" />
    <path
       d="m 251.79507,1608.6821 39.25334,-68.3733 h 10.13333 l -44.37333,76.8 h -10.02667 l -44.48,-76.8 h 10.13333 z"
       style="font-size:106.66666412px;line-height:1.54999995;text-align:center;text-anchor:middle;fill:#e9e9e9;fill-opacity:1;stroke-width:2"
       id="path10792" />
    <path
       d="m 381.91839,1540.3088 v 8.64 h -61.44 v 25.3867 h 49.38666 v 8.7466 h -49.38666 v 25.3867 h 61.44 v 8.64 h -70.08 v -76.8 z"
       style="font-size:106.66666412px;line-height:1.54999995;text-align:center;text-anchor:middle;fill:#e9e9e9;fill-opacity:1;stroke-width:2"
       id="path10794" />
    <path
       d="m 498.94339,1553.2155 v 22.5066 q 0,5.3334 -3.73334,9.0667 -3.73333,3.7333 -9.06666,3.7333 h -11.73334 l 24.10667,28.5867 h -11.41333 l -24,-28.5867 h -28.16 q -0.96,0 -4.16,-0.4266 v 29.0133 h -8.64 v -76.6933 h 64 q 5.33333,0 9.06666,3.7333 3.73334,3.7333 3.73334,9.0667 z m -64,26.56 h 51.2 q 1.70666,0 2.88,-1.1734 1.17333,-1.1733 1.17333,-2.88 v -22.5066 q 0,-1.7067 -1.17333,-2.88 -1.17334,-1.28 -2.88,-1.28 h -51.2 q -1.70667,0 -2.98667,1.28 -1.17333,1.1733 -1.17333,2.88 v 22.5066 q 0,1.7067 1.17333,2.88 1.28,1.1734 2.98667,1.1734 z"
       style="font-size:106.66666412px;line-height:1.54999995;text-align:center;text-anchor:middle;fill:#e9e9e9;fill-opacity:1;stroke-width:2"
       id="path10796" />
    <path
       d="m 523.18007,1540.3088 h 51.2 q 5.33334,0 9.06667,3.7333 3.73333,3.7334 3.73333,9.0667 v 64 h -8.64 v -28.0533 h -59.52 v 28.0533 h -8.64 v -64 q 0,-5.3333 3.73334,-9.0667 3.73333,-3.7333 9.06666,-3.7333 z m -4.16,40.1067 h 59.52 v -27.3067 q 0,-1.7067 -1.28,-2.88 -1.17333,-1.28 -2.88,-1.28 h -51.2 q -1.70666,0 -2.98666,1.28 -1.17334,1.1733 -1.17334,2.88 z"
       style="font-size:106.66666412px;line-height:1.54999995;text-align:center;text-anchor:middle;fill:#e9e9e9;fill-opacity:1;stroke-width:2"
       id="path10798" />
    <path
       d="m 599.54676,1540.3088 h 64 q 5.33333,0 9.06667,3.7333 3.73333,3.7334 3.73333,9.0667 v 51.2 q 0,5.3333 -3.73333,9.0667 -3.73334,3.7333 -9.06667,3.7333 h -64 z m 68.16,64 v -51.2 q 0,-1.7067 -1.28,-2.88 -1.17333,-1.28 -2.88,-1.28 h -51.2 q -1.70666,0 -2.98666,1.28 -1.17334,1.1733 -1.17334,2.88 v 51.2 q 0,1.7067 1.17334,2.9867 1.28,1.1733 2.98666,1.1733 h 51.2 q 1.70667,0 2.88,-1.1733 1.28,-1.28 1.28,-2.9867 z"
       style="font-size:106.66666412px;line-height:1.54999995;text-align:center;text-anchor:middle;fill:#e9e9e9;fill-opacity:1;stroke-width:2"
       id="path10800" />
    <path
       d="m 688.39841,1617.1088 v -76.8 h 8.64 v 76.8 z"
       style="font-size:106.66666412px;line-height:1.54999995;text-align:center;text-anchor:middle;fill:#e9e9e9;fill-opacity:1;stroke-width:2"
       id="path10802" />
    <path
       d="m 724.42003,1540.3088 h 51.2 q 5.33334,0 9.06667,3.7333 3.73333,3.7334 3.73333,9.0667 v 51.2 q 0,5.3333 -3.73333,9.0667 -3.73333,3.7333 -9.06667,3.7333 h -51.2 q -5.33333,0 -9.06666,-3.7333 -3.73334,-3.7334 -3.73334,-9.0667 v -51.2 q 0,-5.3333 3.73334,-9.0667 3.73333,-3.7333 9.06666,-3.7333 z m 0,68.16 h 51.2 q 1.70667,0 2.88,-1.1733 1.28,-1.28 1.28,-2.9867 v -51.2 q 0,-1.7067 -1.28,-2.88 -1.17333,-1.28 -2.88,-1.28 h -51.2 q -1.70666,0 -2.98666,1.28 -1.17334,1.1733 -1.17334,2.88 v 51.2 q 0,1.7067 1.17334,2.9867 1.28,1.1733 2.98666,1.1733 z"
       style="font-size:106.66666412px;line-height:1.54999995;text-align:center;text-anchor:middle;fill:#e9e9e9;fill-opacity:1;stroke-width:2"
       id="path10804" />
    <path
       d="m 841.71172,1540.3088 h 51.2 q 5.33333,0 9.06667,3.7333 3.73333,3.7334 3.73333,9.0667 v 51.2 q 0,5.3333 -3.73333,9.0667 -3.73334,3.7333 -9.06667,3.7333 h -51.2 q -5.33333,0 -9.06667,-3.7333 -3.73333,-3.7334 -3.73333,-9.0667 v -51.2 q 0,-5.3333 3.73333,-9.0667 3.73334,-3.7333 9.06667,-3.7333 z m 0,68.16 h 51.2 q 1.70667,0 2.88,-1.1733 1.28,-1.28 1.28,-2.9867 v -51.2 q 0,-1.7067 -1.28,-2.88 -1.17333,-1.28 -2.88,-1.28 h -51.2 q -1.70667,0 -2.98667,1.28 -1.17333,1.1733 -1.17333,2.88 v 51.2 q 0,1.7067 1.17333,2.9867 1.28,1.1733 2.98667,1.1733 z"
       style="font-size:106.66666412px;line-height:1.54999995;text-align:center;text-anchor:middle;fill:#e9e9e9;fill-opacity:1;stroke-width:2"
       id="path10806" />
    <path
       d="m 917.45843,1540.4155 h 64 q 5.33333,0 9.06666,3.7333 3.73334,3.7333 3.73334,9.0667 v 22.5066 q 0,5.3334 -3.73334,9.0667 -3.73333,3.7333 -9.06666,3.7333 h -51.2 q -0.96,0 -4.16,-0.4266 v 29.0133 h -8.64 z m 68.16,35.3066 v -22.5066 q 0,-1.7067 -1.28,-2.88 -1.17334,-1.28 -2.88,-1.28 h -51.2 q -1.70667,0 -2.98667,1.28 -1.17333,1.1733 -1.17333,2.88 v 22.5066 q 0,1.7067 1.17333,2.88 1.28,1.1734 2.98667,1.1734 h 51.2 q 1.70666,0 2.88,-1.1734 1.28,-1.1733 1.28,-2.88 z"
       style="font-size:106.66666412px;line-height:1.54999995;text-align:center;text-anchor:middle;fill:#e9e9e9;fill-opacity:1;stroke-width:2"
       id="path10808" />
    <path
       d="m 997.99343,1540.3088 h 76.79997 v 8.64 h -34.0266 v 68.16 h -8.64 v -68.16 h -34.13337 z"
       style="font-size:106.66666412px;line-height:1.54999995;text-align:center;text-anchor:middle;fill:#e9e9e9;fill-opacity:1;stroke-width:2"
       id="path10810" />
    <path
       d="m 1082.9817,1617.1088 v -76.8 h 8.64 v 76.8 z"
       style="font-size:106.66666412px;line-height:1.54999995;text-align:center;text-anchor:middle;fill:#e9e9e9;fill-opacity:1;stroke-width:2"
       id="path10812" />
    <path
       d="m 1183.0033,1548.9488 h -63.7866 q -1.7067,0 -2.9867,1.28 -1.1733,1.1733 -1.1733,2.88 v 51.2 q 0,1.7067 1.1733,2.9867 1.28,1.1733 2.9867,1.1733 h 63.7866 v 8.64 h -63.7866 q -5.3334,0 -9.0667,-3.7333 -3.7333,-3.7334 -3.7333,-9.0667 v -51.2 q 0,-5.3333 3.7333,-9.0667 3.7333,-3.7333 9.0667,-3.7333 h 63.7866 z"
       style="font-size:106.66666412px;line-height:1.54999995;text-align:center;text-anchor:middle;fill:#e9e9e9;fill-opacity:1;stroke-width:2"
       id="path10814" />
    <path
       d="m 1270.3917,1553.1088 v 2.9867 h -8.64 v -2.9867 q 0,-1.7067 -1.28,-2.88 -1.1733,-1.28 -2.88,-1.28 h -51.2 q -1.7066,0 -2.9866,1.28 -1.1734,1.1733 -1.1734,2.88 v 17.1733 q 0,1.7067 1.1734,2.88 1.28,1.1734 2.9866,1.1734 h 51.2 q 5.3334,0 9.0667,3.7333 3.7333,3.7333 3.7333,9.0667 v 17.1733 q 0,5.3333 -3.7333,9.0667 -3.7333,3.7333 -9.0667,3.7333 h -51.2 q -5.3333,0 -9.0666,-3.7333 -3.7334,-3.7334 -3.7334,-9.0667 v -2.9867 h 8.64 v 2.9867 q 0,1.7067 1.1734,2.9867 1.28,1.1733 2.9866,1.1733 h 51.2 q 1.7067,0 2.88,-1.1733 1.28,-1.28 1.28,-2.9867 v -17.1733 q 0,-1.7067 -1.28,-2.88 -1.1733,-1.1734 -2.88,-1.1734 h -51.2 q -5.3333,0 -9.0666,-3.7333 -3.7334,-3.7333 -3.7334,-9.0667 v -17.1733 q 0,-5.3333 3.7334,-9.0667 3.7333,-3.7333 9.0666,-3.7333 h 51.2 q 5.3334,0 9.0667,3.7333 3.7333,3.7334 3.7333,9.0667 z"
       style="font-size:106.66666412px;line-height:1.54999995;text-align:center;text-anchor:middle;fill:#e9e9e9;fill-opacity:1;stroke-width:2"
       id="path10816" />
  </g>
</svg>
