<?xml version="1.0" encoding="UTF-8" standalone="no"?>
<!-- Created with Inkscape (http://www.inkscape.org/) -->

<svg
   xmlns:dc="http://purl.org/dc/elements/1.1/"
   xmlns:cc="http://creativecommons.org/ns#"
   xmlns:rdf="http://www.w3.org/1999/02/22-rdf-syntax-ns#"
   xmlns:svg="http://www.w3.org/2000/svg"
   xmlns="http://www.w3.org/2000/svg"
   xmlns:sodipodi="http://sodipodi.sourceforge.net/DTD/sodipodi-0.dtd"
   xmlns:inkscape="http://www.inkscape.org/namespaces/inkscape"
   width="63.799999mm"
   height="17mm"
   viewBox="0 0 63.800002 17"
   version="1.1"
   id="svg20953"
   inkscape:version="0.92.2 (5c3e80d, 2017-08-06)"
   sodipodi:docname="emiia35.svg"
   inkscape:export-filename="C:\Users\User1\Desktop\15 Владимир 3д макс\IoT &amp; IIoT\infografics\Соцсети\fog88.png"
   inkscape:export-xdpi="1182.2"
   inkscape:export-ydpi="1182.2">
  <defs
     id="defs20947" />
  <sodipodi:namedview
     id="base"
     pagecolor="#ffffff"
     bordercolor="#666666"
     borderopacity="1.0"
     inkscape:pageopacity="0.0"
     inkscape:pageshadow="2"
     inkscape:zoom="1.0571149"
     inkscape:cx="172.9449"
     inkscape:cy="32.125984"
     inkscape:document-units="mm"
     inkscape:current-layer="layer1"
     showgrid="false"
     fit-margin-top="0"
     fit-margin-left="0"
     fit-margin-right="0"
     fit-margin-bottom="0"
     inkscape:window-width="1366"
     inkscape:window-height="745"
     inkscape:window-x="-8"
     inkscape:window-y="-8"
     inkscape:window-maximized="1" />
  <metadata
     id="metadata20950">
    <rdf:RDF>
      <cc:Work
         rdf:about="">
        <dc:format>image/svg+xml</dc:format>
        <dc:type
           rdf:resource="http://purl.org/dc/dcmitype/StillImage" />
        <dc:title></dc:title>
      </cc:Work>
    </rdf:RDF>
  </metadata>
  <g
     inkscape:label="Layer 1"
     inkscape:groupmode="layer"
     id="layer1"
     transform="translate(-45.28919,-133.1472)">
    <text
       xml:space="preserve"
       style="font-style:normal;font-weight:normal;font-size:4.23333311px;line-height:1.25;font-family:sans-serif;letter-spacing:0px;word-spacing:0px;fill:#000000;fill-opacity:1;stroke:none;stroke-width:0.26458332"
       x="70.045975"
       y="142.4696"
       id="text891"><tspan
         sodipodi:role="line"
         id="tspan889"
         x="70.045975"
         y="146.3318"
         style="stroke-width:0.26458332" /></text>
    <polygon
       transform="matrix(0.00613869,0,0,0.00613775,22.511535,110.29391)"
       style="clip-rule:evenodd;fill:#000000;fill-rule:evenodd;stroke-width:1.62913418;image-rendering:optimizeQuality;shape-rendering:geometricPrecision;text-rendering:geometricPrecision"
       id="polygon824"
       points="8305.8,4826 8298.74,4816.12 8297.33,4826 "
       class="fil1" />
    <polygon
       transform="matrix(0.00613869,0,0,0.00613775,22.511535,110.29391)"
       style="clip-rule:evenodd;fill:#000000;fill-rule:evenodd;stroke-width:1.62913418;image-rendering:optimizeQuality;shape-rendering:geometricPrecision;text-rendering:geometricPrecision"
       id="polygon826"
       points="7078.14,5359.4 7085.19,5369.28 7086.6,5359.4 "
       class="fil1" />
    <path
       id="path818"
       d="M 75.055369,135.3024 H 64.479107 c -0.621816,0 -1.125701,0.50601 -1.125701,1.13045 v 10.62075 c 0,0.62443 0.503885,1.13044 1.125701,1.13044 h 10.576262 c 0.621817,0 1.125702,-0.50601 1.125702,-1.13044 v -10.62075 c 0,-0.62444 -0.503885,-1.13045 -1.125702,-1.13045 z"
       style="fill:none;stroke:#4a99d9;stroke-width:0.13401243px;stroke-linecap:butt;stroke-linejoin:miter;stroke-miterlimit:4;stroke-dasharray:none;stroke-opacity:1"
       inkscape:connector-curvature="0" />
    <path
       id="path820-0"
       d="m 69.764559,137.1811 c -2.508715,0 -4.540339,2.04017 -4.540339,4.55943 0,2.52464 2.031624,4.56483 4.540339,4.56483 2.514074,0 4.545703,-2.04019 4.545703,-4.56483 0,-2.51926 -2.031629,-4.55943 -4.545703,-4.55943 z"
       style="fill:none;stroke:#4a99d9;stroke-width:0.13401243px;stroke-linecap:butt;stroke-linejoin:miter;stroke-miterlimit:4;stroke-dasharray:none;stroke-opacity:1"
       inkscape:connector-curvature="0" />
    <path
       id="path822-2"
       d="m 68.098184,141.43885 c -0.216933,0 -0.394426,0.17443 -0.394426,0.39244 0,0.21802 0.177493,0.39641 0.394426,0.39641 0.216933,0 0.394423,-0.17839 0.394423,-0.39641 0,-0.21801 -0.17749,-0.39244 -0.394423,-0.39244 z"
       style="fill:none;stroke:#4a99d9;stroke-width:0.11115075px;stroke-linecap:butt;stroke-linejoin:miter;stroke-miterlimit:4;stroke-dasharray:none;stroke-opacity:1"
       inkscape:connector-curvature="0" />
    <path
       id="path824"
       d="m 71.44106,141.37641 c -0.217954,0 -0.392321,0.17436 -0.392321,0.39231 0,0.21797 0.174367,0.39629 0.392321,0.39629 0.217955,0 0.39628,-0.17832 0.39628,-0.39629 0,-0.21795 -0.178325,-0.39231 -0.39628,-0.39231 z"
       style="fill:none;stroke:#4a99d9;stroke-width:0.11139914px;stroke-linecap:butt;stroke-linejoin:miter;stroke-miterlimit:4;stroke-dasharray:none;stroke-opacity:1"
       inkscape:connector-curvature="0" />
    <path
       id="path826"
       d="m 69.764559,144.26461 v 0 c 0.117933,0 0.214417,0.0969 0.214417,0.21532 v 0.55445 c 0,0.11843 -0.09648,0.21533 -0.214417,0.21533 v 0 c -0.117931,0 -0.209058,-0.0969 -0.209058,-0.21533 v -0.55445 c 0,-0.11843 0.09113,-0.21532 0.209058,-0.21532 z"
       style="fill:none;stroke:#4a99d9;stroke-width:0.111;stroke-linecap:butt;stroke-linejoin:miter;stroke-miterlimit:4;stroke-dasharray:none;stroke-opacity:1"
       inkscape:connector-curvature="0" />
    <path
       id="path828"
       d="m 69.764559,138.23944 v 0 c 0.117933,0 0.214417,0.0969 0.214417,0.21532 v 0.55445 c 0,0.11842 -0.09648,0.21532 -0.214417,0.21532 v 0 c -0.117931,0 -0.209058,-0.097 -0.209058,-0.21532 v -0.55445 c 0,-0.11843 0.09113,-0.21532 0.209058,-0.21532 z"
       style="fill:none;stroke:#4a99d9;stroke-width:0.111;stroke-linecap:butt;stroke-linejoin:miter;stroke-miterlimit:4;stroke-dasharray:none;stroke-opacity:1"
       inkscape:connector-curvature="0" />
    <text
       xml:space="preserve"
       style="font-style:normal;font-weight:normal;font-size:6.3499999px;line-height:1.25;font-family:sans-serif;letter-spacing:0px;word-spacing:0px;fill:#000000;fill-opacity:1;stroke:none;stroke-width:0.26458332"
       x="69.878426"
       y="142.46696"
       id="text1433"><tspan
         sodipodi:role="line"
         id="tspan1431"
         x="69.878426"
         y="148.26027"
         style="stroke-width:0.26458332" /></text>
    <polygon
       transform="matrix(0.00613869,0,0,0.00613775,37.909373,110.29391)"
       style="clip-rule:evenodd;fill:#000000;fill-rule:evenodd;stroke-width:1.62913418;image-rendering:optimizeQuality;shape-rendering:geometricPrecision;text-rendering:geometricPrecision"
       id="polygon824-9"
       points="8305.8,4826 8298.74,4816.12 8297.33,4826 "
       class="fil1" />
    <polygon
       transform="matrix(0.00613869,0,0,0.00613775,37.909373,110.29391)"
       style="clip-rule:evenodd;fill:#000000;fill-rule:evenodd;stroke-width:1.62913418;image-rendering:optimizeQuality;shape-rendering:geometricPrecision;text-rendering:geometricPrecision"
       id="polygon826-6"
       points="7078.14,5359.4 7085.19,5369.28 7086.6,5359.4 "
       class="fil1" />
    <path
       id="path820-0-2"
       d="m 85.162408,137.18111 c -2.508715,0 -4.540339,2.04017 -4.540339,4.55943 0,2.52464 2.031624,4.56483 4.540339,4.56483 2.514074,0 4.545703,-2.04019 4.545703,-4.56483 0,-2.51926 -2.031629,-4.55943 -4.545703,-4.55943 z"
       style="fill:none;stroke:#4a99d9;stroke-width:0.13401243px;stroke-linecap:butt;stroke-linejoin:miter;stroke-miterlimit:4;stroke-dasharray:none;stroke-opacity:1"
       inkscape:connector-curvature="0" />
    <path
       id="path822-2-6"
       d="m 69.720769,141.55214 c -0.161932,0 -0.294427,0.13018 -0.294427,0.29295 0,0.16273 0.132501,0.2959 0.294427,0.2959 0.161933,0 0.294423,-0.13311 0.294423,-0.2959 0,-0.16275 -0.132483,-0.29295 -0.294423,-0.29295 z"
       style="fill:none;stroke:#4a99d9;stroke-width:0.11114969px;stroke-linecap:butt;stroke-linejoin:miter;stroke-miterlimit:4;stroke-dasharray:none;stroke-opacity:1"
       inkscape:connector-curvature="0" />
    <polygon
       transform="matrix(0.00613869,0,0,0.00613775,7.1282319,110.29838)"
       style="clip-rule:evenodd;fill:#000000;fill-rule:evenodd;stroke-width:1.62913418;image-rendering:optimizeQuality;shape-rendering:geometricPrecision;text-rendering:geometricPrecision"
       id="polygon824-9-4"
       points="8297.33,4826 8305.8,4826 8298.74,4816.12 "
       class="fil1" />
    <polygon
       transform="matrix(0.00613869,0,0,0.00613775,7.1282319,110.29838)"
       style="clip-rule:evenodd;fill:#000000;fill-rule:evenodd;stroke-width:1.62913418;image-rendering:optimizeQuality;shape-rendering:geometricPrecision;text-rendering:geometricPrecision"
       id="polygon826-6-9"
       points="7086.6,5359.4 7078.14,5359.4 7085.19,5369.28 "
       class="fil1" />
    <path
       id="path820-0-2-4"
       d="m 54.38126,137.18559 c -2.508715,0 -4.54034,2.04017 -4.54034,4.55943 0,2.52464 2.031625,4.56483 4.54034,4.56483 2.514074,0 4.545703,-2.04019 4.545703,-4.56483 0,-2.51926 -2.031629,-4.55943 -4.545703,-4.55943 z"
       style="fill:none;stroke:#4a99d9;stroke-width:0.13401243px;stroke-linecap:butt;stroke-linejoin:miter;stroke-miterlimit:4;stroke-dasharray:none;stroke-opacity:1"
       inkscape:connector-curvature="0" />
    <path
       id="path822-2-6-5"
       d="m 85.129184,141.55214 c -0.161975,0 -0.294503,0.1302 -0.294503,0.29301 0,0.16278 0.132534,0.29597 0.294503,0.29597 0.161973,0 0.294497,-0.13315 0.294497,-0.29597 0,-0.16278 -0.132518,-0.29301 -0.294497,-0.29301 z"
       style="fill:none;stroke:#4a99d9;stroke-width:0.11099999;stroke-linecap:butt;stroke-linejoin:miter;stroke-miterlimit:4;stroke-dasharray:none;stroke-opacity:1"
       inkscape:connector-curvature="0" />
    <rect
       style="opacity:1;fill:none;fill-opacity:1;fill-rule:evenodd;stroke:#4a99d9;stroke-width:0.134;stroke-linecap:round;stroke-linejoin:round;stroke-miterlimit:4;stroke-dasharray:none;stroke-dashoffset:0;stroke-opacity:1;paint-order:markers fill stroke"
       id="rect4259"
       width="27.697439"
       height="13.012157"
       x="78.705322"
       y="135.21985"
       rx="1.337616"
       ry="1.3281696" />
    <polygon
       transform="matrix(0.00613869,0,0,0.00613775,52.407026,110.11665)"
       style="clip-rule:evenodd;fill:#000000;fill-rule:evenodd;stroke-width:1.62913418;image-rendering:optimizeQuality;shape-rendering:geometricPrecision;text-rendering:geometricPrecision"
       id="polygon824-6"
       points="8305.8,4826 8298.74,4816.12 8297.33,4826 "
       class="fil1" />
    <polygon
       transform="matrix(0.00613869,0,0,0.00613775,52.800582,110.2107)"
       style="clip-rule:evenodd;fill:#000000;fill-rule:evenodd;stroke-width:1.62913418;image-rendering:optimizeQuality;shape-rendering:geometricPrecision;text-rendering:geometricPrecision"
       id="polygon826-1"
       points="7085.19,5369.28 7086.6,5359.4 7078.14,5359.4 "
       class="fil1" />
    <path
       id="path820-0-71"
       d="m 100.0536,137.0979 c -2.508716,0 -4.54034,2.04017 -4.54034,4.55943 0,2.52464 2.031624,4.56483 4.54034,4.56483 2.51408,0 4.54573,-2.04019 4.54573,-4.56483 0,-2.51926 -2.03165,-4.55943 -4.54573,-4.55943 z"
       style="fill:none;stroke:#4a99d9;stroke-width:0.13401243px;stroke-linecap:butt;stroke-linejoin:miter;stroke-miterlimit:4;stroke-dasharray:none;stroke-opacity:1"
       inkscape:connector-curvature="0" />
    <path
       id="path818-4"
       d="M 59.666746,135.29627 H 49.090484 c -0.621816,0 -1.125701,0.50601 -1.125701,1.13045 v 10.62075 c 0,0.62443 0.503885,1.13044 1.125701,1.13044 h 10.576262 c 0.621817,0 1.125702,-0.50601 1.125702,-1.13044 v -10.62075 c 0,-0.62444 -0.503885,-1.13045 -1.125702,-1.13045 z"
       style="fill:none;stroke:#4a99d9;stroke-width:0.13401243px;stroke-linecap:butt;stroke-linejoin:miter;stroke-miterlimit:4;stroke-dasharray:none;stroke-opacity:1"
       inkscape:connector-curvature="0" />
    <g
       aria-label="EMIIA"
       style="font-style:normal;font-weight:normal;font-size:1.05833328px;line-height:1.25;font-family:sans-serif;letter-spacing:0px;word-spacing:0px;fill:#4a99d9;fill-opacity:1;stroke:none;stroke-width:0.33103779"
       id="text6675"
       transform="matrix(0.79925412,0,0,0.79925412,9.8130996,29.583008)">
      <path
         d="m 49.57852,146.60346 v 0.0857 h -0.6096 v 0.25188 h 0.490008 v 0.0868 H 48.96892 v 0.25189 h 0.6096 v 0.0857 h -0.695325 v -0.762 z"
         style="font-style:normal;font-variant:normal;font-weight:normal;font-stretch:normal;font-size:1.05833328px;font-family:Orbitron;-inkscape-font-specification:Orbitron;fill:#4a99d9;fill-opacity:1;stroke-width:0.33103779"
         id="path6677"
         inkscape:connector-curvature="0" />
      <path
         d="m 50.094276,146.98023 0.316441,-0.37677 h 0.117475 v 0.762 h -0.08572 v -0.66463 l -0.348191,0.41381 -0.348192,-0.41381 v 0.66463 h -0.08573 v -0.762 h 0.117475 z"
         style="font-style:normal;font-variant:normal;font-weight:normal;font-stretch:normal;font-size:1.05833328px;font-family:Orbitron;-inkscape-font-specification:Orbitron;fill:#4a99d9;fill-opacity:1;stroke-width:0.33103779"
         id="path6679"
         inkscape:connector-curvature="0" />
      <path
         d="m 50.643269,147.36546 v -0.762 h 0.08573 v 0.762 z"
         style="font-style:normal;font-variant:normal;font-weight:normal;font-stretch:normal;font-size:1.05833328px;font-family:Orbitron;-inkscape-font-specification:Orbitron;fill:#4a99d9;fill-opacity:1;stroke-width:0.33103779"
         id="path6681"
         inkscape:connector-curvature="0" />
      <path
         d="m 50.876847,147.36546 v -0.762 h 0.08573 v 0.762 z"
         style="font-style:normal;font-variant:normal;font-weight:normal;font-stretch:normal;font-size:1.05833328px;font-family:Orbitron;-inkscape-font-specification:Orbitron;fill:#4a99d9;fill-opacity:1;stroke-width:0.33103779"
         id="path6683"
         inkscape:connector-curvature="0" />
      <path
         d="m 51.238483,146.60346 h 0.508 q 0.05292,0 0.08996,0.037 0.03704,0.037 0.03704,0.09 v 0.635 h -0.08573 v -0.27834 h -0.59055 v 0.27834 h -0.08573 v -0.635 q 0,-0.0529 0.03704,-0.09 0.03704,-0.037 0.08996,-0.037 z m -0.04127,0.39794 h 0.59055 v -0.27094 q 0,-0.0169 -0.0127,-0.0286 -0.01164,-0.0127 -0.02858,-0.0127 h -0.508 q -0.01693,0 -0.02963,0.0127 -0.01164,0.0116 -0.01164,0.0286 z"
         style="font-style:normal;font-variant:normal;font-weight:normal;font-stretch:normal;font-size:1.05833328px;font-family:Orbitron;-inkscape-font-specification:Orbitron;fill:#4a99d9;fill-opacity:1;stroke-width:0.33103779"
         id="path6685"
         inkscape:connector-curvature="0" />
    </g>
    <g
       aria-label="EMIIA"
       style="font-style:normal;font-weight:normal;font-size:1.05833328px;line-height:1.25;font-family:sans-serif;letter-spacing:0px;word-spacing:0px;fill:#4a99d9;fill-opacity:1;stroke:none;stroke-width:0.33103779"
       id="text6675-9"
       transform="matrix(0.79925412,0,0,0.79925412,25.158937,29.583008)">
      <path
         inkscape:connector-curvature="0"
         d="m 49.57852,146.60346 v 0.0857 h -0.6096 v 0.25188 h 0.490008 v 0.0868 H 48.96892 v 0.25189 h 0.6096 v 0.0857 h -0.695325 v -0.762 z"
         style="font-style:normal;font-variant:normal;font-weight:normal;font-stretch:normal;font-size:1.05833328px;font-family:Orbitron;-inkscape-font-specification:Orbitron;fill:#4a99d9;fill-opacity:1;stroke-width:0.33103779"
         id="path6677-9" />
      <path
         inkscape:connector-curvature="0"
         d="m 50.094276,146.98023 0.316441,-0.37677 h 0.117475 v 0.762 h -0.08572 v -0.66463 l -0.348191,0.41381 -0.348192,-0.41381 v 0.66463 h -0.08573 v -0.762 h 0.117475 z"
         style="font-style:normal;font-variant:normal;font-weight:normal;font-stretch:normal;font-size:1.05833328px;font-family:Orbitron;-inkscape-font-specification:Orbitron;fill:#4a99d9;fill-opacity:1;stroke-width:0.33103779"
         id="path6679-6" />
      <path
         inkscape:connector-curvature="0"
         d="m 50.643269,147.36546 v -0.762 h 0.08573 v 0.762 z"
         style="font-style:normal;font-variant:normal;font-weight:normal;font-stretch:normal;font-size:1.05833328px;font-family:Orbitron;-inkscape-font-specification:Orbitron;fill:#4a99d9;fill-opacity:1;stroke-width:0.33103779"
         id="path6681-5" />
      <path
         inkscape:connector-curvature="0"
         d="m 50.876847,147.36546 v -0.762 h 0.08573 v 0.762 z"
         style="font-style:normal;font-variant:normal;font-weight:normal;font-stretch:normal;font-size:1.05833328px;font-family:Orbitron;-inkscape-font-specification:Orbitron;fill:#4a99d9;fill-opacity:1;stroke-width:0.33103779"
         id="path6683-1" />
      <path
         inkscape:connector-curvature="0"
         d="m 51.238483,146.60346 h 0.508 q 0.05292,0 0.08996,0.037 0.03704,0.037 0.03704,0.09 v 0.635 h -0.08573 v -0.27834 h -0.59055 v 0.27834 h -0.08573 v -0.635 q 0,-0.0529 0.03704,-0.09 0.03704,-0.037 0.08996,-0.037 z m -0.04127,0.39794 h 0.59055 v -0.27094 q 0,-0.0169 -0.0127,-0.0286 -0.01164,-0.0127 -0.02858,-0.0127 h -0.508 q -0.01693,0 -0.02963,0.0127 -0.01164,0.0116 -0.01164,0.0286 z"
         style="font-style:normal;font-variant:normal;font-weight:normal;font-stretch:normal;font-size:1.05833328px;font-family:Orbitron;-inkscape-font-specification:Orbitron;fill:#4a99d9;fill-opacity:1;stroke-width:0.33103779"
         id="path6685-8" />
    </g>
    <g
       transform="matrix(0.79925412,0,0,0.79925412,40.433085,29.444822)"
       aria-label="EMIIA"
       style="font-style:normal;font-weight:normal;font-size:1.05833328px;line-height:1.25;font-family:sans-serif;letter-spacing:0px;word-spacing:0px;fill:#4a99d9;fill-opacity:1;stroke:none;stroke-width:0.33103779"
       id="text6675-98">
      <path
         inkscape:connector-curvature="0"
         d="m 49.57852,146.60346 v 0.0857 h -0.6096 v 0.25188 h 0.490008 v 0.0868 H 48.96892 v 0.25189 h 0.6096 v 0.0857 h -0.695325 v -0.762 z"
         style="font-style:normal;font-variant:normal;font-weight:normal;font-stretch:normal;font-size:1.05833328px;font-family:Orbitron;-inkscape-font-specification:Orbitron;fill:#4a99d9;fill-opacity:1;stroke-width:0.33103779"
         id="path6677-4" />
      <path
         inkscape:connector-curvature="0"
         d="m 50.094276,146.98023 0.316441,-0.37677 h 0.117475 v 0.762 h -0.08572 v -0.66463 l -0.348191,0.41381 -0.348192,-0.41381 v 0.66463 h -0.08573 v -0.762 h 0.117475 z"
         style="font-style:normal;font-variant:normal;font-weight:normal;font-stretch:normal;font-size:1.05833328px;font-family:Orbitron;-inkscape-font-specification:Orbitron;fill:#4a99d9;fill-opacity:1;stroke-width:0.33103779"
         id="path6679-5" />
      <path
         inkscape:connector-curvature="0"
         d="m 50.643269,147.36546 v -0.762 h 0.08573 v 0.762 z"
         style="font-style:normal;font-variant:normal;font-weight:normal;font-stretch:normal;font-size:1.05833328px;font-family:Orbitron;-inkscape-font-specification:Orbitron;fill:#4a99d9;fill-opacity:1;stroke-width:0.33103779"
         id="path6681-8" />
      <path
         inkscape:connector-curvature="0"
         d="m 50.876847,147.36546 v -0.762 h 0.08573 v 0.762 z"
         style="font-style:normal;font-variant:normal;font-weight:normal;font-stretch:normal;font-size:1.05833328px;font-family:Orbitron;-inkscape-font-specification:Orbitron;fill:#4a99d9;fill-opacity:1;stroke-width:0.33103779"
         id="path6683-5" />
      <path
         inkscape:connector-curvature="0"
         d="m 51.238483,146.60346 h 0.508 q 0.05292,0 0.08996,0.037 0.03704,0.037 0.03704,0.09 v 0.635 h -0.08573 v -0.27834 h -0.59055 v 0.27834 h -0.08573 v -0.635 q 0,-0.0529 0.03704,-0.09 0.03704,-0.037 0.08996,-0.037 z m -0.04127,0.39794 h 0.59055 v -0.27094 q 0,-0.0169 -0.0127,-0.0286 -0.01164,-0.0127 -0.02858,-0.0127 h -0.508 q -0.01693,0 -0.02963,0.0127 -0.01164,0.0116 -0.01164,0.0286 z"
         style="font-style:normal;font-variant:normal;font-weight:normal;font-stretch:normal;font-size:1.05833328px;font-family:Orbitron;-inkscape-font-specification:Orbitron;fill:#4a99d9;fill-opacity:1;stroke-width:0.33103779"
         id="path6685-7" />
    </g>
    <path
       id="path820-0-3"
       d="m 69.764559,138.23944 c -1.928877,0 -3.490932,1.56863 -3.490932,3.50575 0,1.94105 1.562055,3.50977 3.490932,3.50977 1.932997,0 3.495055,-1.56872 3.495055,-3.50977 0,-1.93712 -1.562058,-3.50575 -3.495055,-3.50575 z"
       style="fill:none;stroke:#4a99d9;stroke-width:0.01;stroke-linecap:butt;stroke-linejoin:miter;stroke-miterlimit:4;stroke-dasharray:none;stroke-opacity:1"
       inkscape:connector-curvature="0" />
    <path
       id="path822-2-6-5-9"
       d="m 54.348112,141.60656 c -0.161975,0 -0.294503,0.1302 -0.294503,0.29301 0,0.16278 0.132534,0.29597 0.294503,0.29597 0.161973,0 0.294497,-0.13315 0.294497,-0.29597 0,-0.16278 -0.132518,-0.29301 -0.294497,-0.29301 z"
       style="fill:none;stroke:#4a99d9;stroke-width:0.11099999;stroke-linecap:butt;stroke-linejoin:miter;stroke-miterlimit:4;stroke-dasharray:none;stroke-opacity:1"
       inkscape:connector-curvature="0" />
    <polygon
       transform="matrix(0.00613869,0,0,0.00613775,52.809664,110.19984)"
       style="clip-rule:evenodd;fill:#000000;fill-rule:evenodd;stroke-width:1.62913418;image-rendering:optimizeQuality;shape-rendering:geometricPrecision;text-rendering:geometricPrecision"
       id="polygon824-5"
       points="8297.33,4826 8305.8,4826 8298.74,4816.12 "
       class="fil1" />
    <polygon
       transform="matrix(0.00613869,0,0,0.00613775,53.212304,110.33585)"
       style="clip-rule:evenodd;fill:#000000;fill-rule:evenodd;stroke-width:1.62913418;image-rendering:optimizeQuality;shape-rendering:geometricPrecision;text-rendering:geometricPrecision"
       id="polygon826-9"
       points="7078.14,5359.4 7085.19,5369.28 7086.6,5359.4 "
       class="fil1" />
    <path
       id="path822-2-3"
       d="m 98.396313,141.3448 c -0.21693,0 -0.394427,0.17443 -0.394427,0.39244 0,0.21802 0.177497,0.39641 0.394427,0.39641 0.216937,0 0.394427,-0.17839 0.394427,-0.39641 0,-0.21801 -0.17749,-0.39244 -0.394427,-0.39244 z"
       style="fill:none;stroke:#4a99d9;stroke-width:0.11115075px;stroke-linecap:butt;stroke-linejoin:miter;stroke-miterlimit:4;stroke-dasharray:none;stroke-opacity:1"
       inkscape:connector-curvature="0" />
    <path
       id="path824-9"
       d="m 101.73921,141.28236 c -0.21796,0 -0.39233,0.17436 -0.39233,0.39231 0,0.21797 0.17437,0.39629 0.39233,0.39629 0.21795,0 0.39628,-0.17832 0.39628,-0.39629 0,-0.21795 -0.17833,-0.39231 -0.39628,-0.39231 z"
       style="fill:none;stroke:#4a99d9;stroke-width:0.11139914px;stroke-linecap:butt;stroke-linejoin:miter;stroke-miterlimit:4;stroke-dasharray:none;stroke-opacity:1"
       inkscape:connector-curvature="0" />
    <path
       id="path826-9"
       d="m 100.07832,144.13927 v 0 c 0.11794,0 0.21442,0.0969 0.21442,0.21532 v 0.55445 c 0,0.11843 -0.0965,0.21533 -0.21442,0.21533 v 0 c -0.117923,0 -0.209043,-0.0969 -0.209043,-0.21533 v -0.55445 c 0,-0.11843 0.0911,-0.21532 0.209043,-0.21532 z"
       style="fill:none;stroke:#4a99d9;stroke-width:0.111;stroke-linecap:butt;stroke-linejoin:miter;stroke-miterlimit:4;stroke-dasharray:none;stroke-opacity:1"
       inkscape:connector-curvature="0" />
    <path
       id="path828-72"
       d="m 100.06268,138.14539 v 0 c 0.11794,0 0.21442,0.0969 0.21442,0.21532 v 0.55445 c 0,0.11842 -0.0965,0.21532 -0.21442,0.21532 v 0 c -0.117926,0 -0.209046,-0.097 -0.209046,-0.21532 v -0.55445 c 0,-0.11843 0.0911,-0.21532 0.209046,-0.21532 z"
       style="fill:none;stroke:#4a99d9;stroke-width:0.111;stroke-linecap:butt;stroke-linejoin:miter;stroke-miterlimit:4;stroke-dasharray:none;stroke-opacity:1"
       inkscape:connector-curvature="0" />
    <path
       id="path822-2-6-3"
       d="m 100.05018,141.4268 c -0.161928,0 -0.294418,0.13018 -0.294418,0.29295 0,0.16273 0.1325,0.2959 0.294418,0.2959 0.16194,0 0.29443,-0.13311 0.29443,-0.2959 0,-0.16275 -0.13249,-0.29295 -0.29443,-0.29295 z"
       style="fill:none;stroke:#4a99d9;stroke-width:0.11114969px;stroke-linecap:butt;stroke-linejoin:miter;stroke-miterlimit:4;stroke-dasharray:none;stroke-opacity:1"
       inkscape:connector-curvature="0" />
    <path
       id="path820-0-3-1"
       d="m 100.06268,138.14539 c -1.928867,0 -3.490928,1.56863 -3.490928,3.50575 0,1.94105 1.562061,3.50977 3.490928,3.50977 1.93302,0 3.49509,-1.56872 3.49509,-3.50977 0,-1.93712 -1.56207,-3.50575 -3.49509,-3.50575 z"
       style="fill:none;stroke:#4a99d9;stroke-width:0.01;stroke-linecap:butt;stroke-linejoin:miter;stroke-miterlimit:4;stroke-dasharray:none;stroke-opacity:1"
       inkscape:connector-curvature="0" />
  </g>
</svg>
