<?xml version="1.0" encoding="UTF-8" standalone="no"?>
<!-- Created with Inkscape (http://www.inkscape.org/) -->

<svg
   xmlns:dc="http://purl.org/dc/elements/1.1/"
   xmlns:cc="http://creativecommons.org/ns#"
   xmlns:rdf="http://www.w3.org/1999/02/22-rdf-syntax-ns#"
   xmlns:svg="http://www.w3.org/2000/svg"
   xmlns="http://www.w3.org/2000/svg"
   xmlns:sodipodi="http://sodipodi.sourceforge.net/DTD/sodipodi-0.dtd"
   xmlns:inkscape="http://www.inkscape.org/namespaces/inkscape"
   width="27.390459mm"
   height="13.48382mm"
   viewBox="0 0 27.39046 13.48382"
   version="1.1"
   id="svg20953"
   inkscape:version="0.92.2 (5c3e80d, 2017-08-06)"
   sodipodi:docname="monocle detect.svg">
  <defs
     id="defs20947" />
  <sodipodi:namedview
     id="base"
     pagecolor="#ffffff"
     bordercolor="#666666"
     borderopacity="1.0"
     inkscape:pageopacity="0.0"
     inkscape:pageshadow="2"
     inkscape:zoom="5.0055772"
     inkscape:cx="12.96599"
     inkscape:cy="-3.8275344"
     inkscape:document-units="mm"
     inkscape:current-layer="layer1"
     showgrid="false"
     fit-margin-top="0"
     fit-margin-left="0"
     fit-margin-right="0"
     fit-margin-bottom="0"
     inkscape:window-width="1366"
     inkscape:window-height="745"
     inkscape:window-x="-8"
     inkscape:window-y="-8"
     inkscape:window-maximized="1" />
  <metadata
     id="metadata20950">
    <rdf:RDF>
      <cc:Work
         rdf:about="">
        <dc:format>image/svg+xml</dc:format>
        <dc:type
           rdf:resource="http://purl.org/dc/dcmitype/StillImage" />
        <dc:title />
      </cc:Work>
    </rdf:RDF>
  </metadata>
  <g
     inkscape:label="Layer 1"
     inkscape:groupmode="layer"
     id="layer1"
     transform="translate(-49.304447,-134.3368)">
    <g
       transform="matrix(0.00515932,0,0,0.00515932,31.191628,115.99375)"
       id="Слой_x0020_1-6"
       style="clip-rule:evenodd;fill:none;fill-rule:evenodd;stroke:#000000;stroke-width:3.66640165;stroke-miterlimit:4;stroke-dasharray:3.66640165,3.66640165;stroke-opacity:1;image-rendering:optimizeQuality;shape-rendering:geometricPrecision;text-rendering:geometricPrecision;stroke-dashoffset:0">
      <metadata
         id="CorelCorpID_0Corel-Layer-8" />
      <g
         id="_1893367758752-6"
         style="fill:none;stroke:#000000;stroke-width:3.66640165;stroke-miterlimit:4;stroke-dasharray:3.66640165,3.66640165;stroke-opacity:1;stroke-dashoffset:0">
        <path
           inkscape:connector-curvature="0"
           class="fil0 str0"
           d="m 6016.17,4702.47 c 0,17.68 -0.56,23.51 7.29,40.32 9.16,19.63 24.97,37.22 45.61,45.78 28.55,11.85 45.18,10.97 76.01,4.74 l 242.27,-47.11 c 4.1,-0.85 8.29,-1.96 12.57,-2.67 l 51.16,-9.76 c 8.71,-1.52 16.11,-3.86 23.8,-6.66 19.95,-7.25 32.95,-14.7 45.28,-30.88 2.41,-3.18 3.94,-5.91 6.05,-9.18 4.48,-6.91 57.96,-113.78 68.6,-137.04 l 22.25,-44.39 c 0.09,-0.15 0.28,-0.47 0.36,-0.59 0.07,-0.12 0.22,-0.41 0.35,-0.6 0.72,8.65 13.94,69.35 16.76,80.35 1.24,4.83 1.57,8.53 2.68,13.51 7.88,35.45 14.31,71.55 22.63,106.85 l 17.09,81.01 c 1.96,10.82 1.11,7.92 -9.91,18.9 -3.25,3.22 -4.7,5.72 -8.07,9.06 l -94.89,100.27 c -2.55,3.31 -5.04,5.37 -7.92,8.26 -1.5,1.49 -2.35,2.3 -3.82,3.8 -0.81,0.82 -1.07,1.07 -1.86,1.95 l -3.48,4.14 c -14.05,16.43 -32.76,32.26 -46.15,49.04 l -44.51,46.88 c -0.14,0.14 -0.35,0.33 -0.48,0.47 l -18.2,19.88 c -5.55,6.01 -10.62,10.04 -15.82,16.56 l -16.11,17.21 c -10.13,11.62 -21.69,21.95 -29.1,35.63 -4.25,7.85 -7.04,13.19 -10.27,22.1 -2.03,5.6 -5.58,20.17 -5.58,27.74 v 614.1 c 0,21.95 9.47,42.95 21.51,60.37 1.88,2.73 3.65,5.23 5.84,7.49 12.23,12.62 22.34,21.2 38.96,29.58 26.23,13.23 59.73,13.93 87.31,4.8 14.2,-4.7 28.31,-12.24 38.42,-22.5 2.19,-2.22 3.79,-3 5.63,-4.84 l 13.8,-16.67 c 1.43,-2.06 2.56,-4.18 3.96,-6.51 14.98,-25.07 15.88,-46.37 15.88,-76.47 v -468.43 c -0.02,-21.24 1.46,-12.81 18.37,-33.05 l 134.16,-140.95 c 3.74,-3.71 6.76,-6.76 10.49,-10.47 l 57.09,-60 c 10.87,-11.76 34.34,-34.91 42.47,-45.11 1.31,-1.64 19.41,-20.32 20.13,-20.81 l 16.34,94.11 c 4.05,28.91 12.29,65.52 16.71,94.67 l 16.38,95.03 c 3.17,15.72 4.83,31.17 8.09,47.13 1.67,8.23 2.86,15.51 5.18,22.42 5.5,16.41 13.32,31.86 24.67,44.83 l 219.87,259.94 c 1.53,1.71 2.09,2.01 3.63,3.98 l 19.2,22.7 c 2.19,2.46 4.43,5.12 6.5,7.78 14.12,18.04 29.68,35.13 44.48,52.62 l 31.86,37.64 c 2.48,2.79 4.16,4.86 6.64,7.64 2.19,2.46 4.42,5.12 6.5,7.77 9.95,12.73 21.44,24.37 31.41,37.14 6.3,8.07 13.7,14.71 21.64,21.2 46.81,38.22 118.48,30.1 157.95,-14.71 15.9,-18.04 28.28,-44.58 28.32,-68.8 0.03,-12.06 0.01,-25.78 -3.03,-36.93 -7.67,-28.11 -24.16,-47.45 -42.89,-68.49 l -44.1,-52.06 c -10.05,-12.87 -21.8,-24.72 -31.81,-37.69 l -83.04,-97.84 c -1.56,-1.76 -1.45,-1.97 -2.93,-3.74 L 7303,5420.48 c -8.78,-10.89 -21.73,-26.95 -31.53,-37.02 -7.11,-7.3 -12.49,-15.97 -19.5,-23.33 l -41.03,-48.45 c -7.77,-9.6 -7.31,-12.15 -9.39,-25.84 l -83.33,-487.91 c -4.45,-22.97 -6.8,-48.67 -12.76,-71.03 l -10.39,-44.83 c -5.95,-27.06 -10.65,-52.97 -17.36,-79.75 -1.04,-4.17 -1.37,-7.61 -2.3,-11.97 l -44.91,-205.49 c -0.98,-4.44 -1.8,-6.99 -2.71,-11.57 -0.51,-2.59 -1.53,-9.43 -2.6,-11.67 6.09,1.63 31.26,17.73 37.75,21.27 13.19,7.21 24.88,14.69 38.07,21.9 3.21,1.76 6,3.36 9.07,5.2 3.47,2.08 6.76,2.98 8.98,6.26 l 25.81,49.4 c 19.82,39.57 41.72,77.94 61.48,117.5 1.93,3.86 3.58,6.14 5.41,9.82 1.57,3.16 3.12,6.42 4.75,9.54 l 36.18,68.54 c 6.08,12.23 22.99,45.51 30.85,58.64 20.03,33.47 59.71,53.89 98.91,47.34 24.26,-4.04 43.01,-14.63 57.99,-31.48 22.59,-25.43 32.48,-68.32 17.55,-99.89 -15.49,-32.73 -33.7,-63.43 -49.83,-95.85 -7.27,-14.61 -28.07,-55.25 -36.09,-68.63 -2.75,-4.6 -4.67,-9.35 -7.04,-13.89 l -28.57,-54.26 c -2.45,-4.91 -4.76,-8.51 -7.31,-13.64 -2.5,-5.06 -4.84,-8.97 -7.22,-13.72 l -35.61,-68.17 c -2.55,-5.15 -4.7,-8.37 -7.3,-13.64 -4.63,-9.39 -11.17,-16.63 -17.35,-24.54 -10.9,-13.95 -46.19,-32.09 -62.11,-41.66 l -66.82,-37.89 c -17.87,-9.23 -34.81,-20.71 -52.66,-30.16 -26.93,-14.27 -52.59,-31.08 -79.65,-45.06 -4.45,-2.3 -8.88,-5.22 -13.32,-7.62 -8.89,-4.81 -17.63,-10.56 -26.66,-15.23 -22.65,-11.69 -44.64,-25.35 -66.68,-38.03 -4.45,-2.57 -9,-4.78 -13.46,-7.49 -4.97,-3.03 -8.73,-4.48 -14.08,-6.86 -2.41,-1.08 -4.25,-2.29 -7.06,-3.41 -2.99,-1.2 -4.76,-1.53 -7.78,-2.69 -31.87,-12.33 -80.06,-16.86 -115.57,-8.16 -42.18,10.33 -84.84,32.95 -115.43,63.54 -3.54,3.55 -7.76,7.21 -10.78,11.12 -3.59,4.65 -6.85,7.52 -10.66,12.19 l -29.23,43.12 -42.7,85.82 c -9.98,19.91 -20.46,39.64 -29.59,59.91 l -22.44,45.15 c -10.39,20.77 -21.55,41.64 -31.29,62.95 -1.09,2.38 -0.89,1.82 -1.98,3.74 -1.39,2.47 -2.31,5.05 -3.72,7.7 l -18.62,37.55 c -6.58,11.73 -37.49,78.58 -41.04,81.78 -2.26,2.05 -31.95,7.05 -36.89,7.85 -7.14,1.17 -12.88,2.77 -19.03,3.82 -6.86,1.16 -11.65,2.15 -18.38,3.51 l -187.2,36.5 c -31.07,6.24 -55.75,10.32 -76.65,35.68 -10.56,12.81 -24.02,42.39 -24.02,65.48 z"
           id="path16198-2"
           style="fill:none;stroke:#000000;stroke-width:3.66640165;stroke-miterlimit:4;stroke-dasharray:3.66640165,3.66640165;stroke-opacity:1;stroke-dashoffset:0" />
        <path
           inkscape:connector-curvature="0"
           class="fil0 str0"
           d="m 6506.4,3787.5 c 0,71.87 42.71,136.59 96.45,165.36 79.12,42.35 168.18,29.18 228.39,-30.87 2.2,-2.2 3.62,-3.56 5.56,-5.86 12.95,-15.37 25.69,-31.6 33.38,-50.4 2.32,-5.65 4.5,-10.79 6.63,-17.17 1.99,-5.99 3.3,-11.81 5.26,-18.54 8.32,-28.53 5.8,-74.49 -4.7,-102.22 -9.93,-26.24 -9.15,-24.75 -23.23,-47.23 -10.34,-16.51 -31.3,-36.97 -46.39,-47.86 -9.89,-7.14 -18.61,-11.77 -29.42,-17.22 -48.21,-24.31 -113.69,-24.71 -161.82,-0.63 -2.97,1.48 -4.84,2.12 -7.71,3.72 -2.81,1.56 -4.79,2.45 -7.4,4.02 -25.92,15.62 -43.57,32.43 -61.28,56.77 -6.53,8.97 -12.32,19.84 -17.23,30.38 -10.63,22.82 -16.49,52.2 -16.49,77.75 z"
           id="path16200-9"
           style="fill:none;stroke:#000000;stroke-width:3.66640165;stroke-miterlimit:4;stroke-dasharray:3.66640165,3.66640165;stroke-opacity:1;stroke-dashoffset:0" />
      </g>
    </g>
    <g
       transform="matrix(0.00515932,0,0,0.00515932,28.601664,116.45483)"
       id="Слой_x0020_1"
       style="clip-rule:evenodd;fill:#ffffff;fill-opacity:1;fill-rule:evenodd;stroke:#000000;stroke-width:17.46488208;stroke-miterlimit:4;stroke-dasharray:17.46488208,17.46488208;stroke-opacity:1;image-rendering:optimizeQuality;shape-rendering:geometricPrecision;text-rendering:geometricPrecision;stroke-dashoffset:0">
      <metadata
         id="CorelCorpID_0Corel-Layer" />
      <g
         id="_1893367758752"
         style="fill:#ffffff;fill-opacity:1;stroke:#000000;stroke-width:17.46488208;stroke-miterlimit:4;stroke-dasharray:17.46488208,17.46488208;stroke-opacity:1;stroke-dashoffset:0">
        <path
           inkscape:connector-curvature="0"
           class="fil0 str0"
           d="m 6016.17,4702.47 c 0,17.68 -0.56,23.51 7.29,40.32 9.16,19.63 24.97,37.22 45.61,45.78 28.55,11.85 45.18,10.97 76.01,4.74 l 242.27,-47.11 c 4.1,-0.85 8.29,-1.96 12.57,-2.67 l 51.16,-9.76 c 8.71,-1.52 16.11,-3.86 23.8,-6.66 19.95,-7.25 32.95,-14.7 45.28,-30.88 2.41,-3.18 3.94,-5.91 6.05,-9.18 4.48,-6.91 57.96,-113.78 68.6,-137.04 l 22.25,-44.39 c 0.09,-0.15 0.28,-0.47 0.36,-0.59 0.07,-0.12 0.22,-0.41 0.35,-0.6 0.72,8.65 13.94,69.35 16.76,80.35 1.24,4.83 1.57,8.53 2.68,13.51 7.88,35.45 14.31,71.55 22.63,106.85 l 17.09,81.01 c 1.96,10.82 1.11,7.92 -9.91,18.9 -3.25,3.22 -4.7,5.72 -8.07,9.06 l -94.89,100.27 c -2.55,3.31 -5.04,5.37 -7.92,8.26 -1.5,1.49 -2.35,2.3 -3.82,3.8 -0.81,0.82 -1.07,1.07 -1.86,1.95 l -3.48,4.14 c -14.05,16.43 -32.76,32.26 -46.15,49.04 l -44.51,46.88 c -0.14,0.14 -0.35,0.33 -0.48,0.47 l -18.2,19.88 c -5.55,6.01 -10.62,10.04 -15.82,16.56 l -16.11,17.21 c -10.13,11.62 -21.69,21.95 -29.1,35.63 -4.25,7.85 -7.04,13.19 -10.27,22.1 -2.03,5.6 -5.58,20.17 -5.58,27.74 v 614.1 c 0,21.95 9.47,42.95 21.51,60.37 1.88,2.73 3.65,5.23 5.84,7.49 12.23,12.62 22.34,21.2 38.96,29.58 26.23,13.23 59.73,13.93 87.31,4.8 14.2,-4.7 28.31,-12.24 38.42,-22.5 2.19,-2.22 3.79,-3 5.63,-4.84 l 13.8,-16.67 c 1.43,-2.06 2.56,-4.18 3.96,-6.51 14.98,-25.07 15.88,-46.37 15.88,-76.47 v -468.43 c -0.02,-21.24 1.46,-12.81 18.37,-33.05 l 134.16,-140.95 c 3.74,-3.71 6.76,-6.76 10.49,-10.47 l 57.09,-60 c 10.87,-11.76 34.34,-34.91 42.47,-45.11 1.31,-1.64 19.41,-20.32 20.13,-20.81 l 16.34,94.11 c 4.05,28.91 12.29,65.52 16.71,94.67 l 16.38,95.03 c 3.17,15.72 4.83,31.17 8.09,47.13 1.67,8.23 2.86,15.51 5.18,22.42 5.5,16.41 13.32,31.86 24.67,44.83 l 219.87,259.94 c 1.53,1.71 2.09,2.01 3.63,3.98 l 19.2,22.7 c 2.19,2.46 4.43,5.12 6.5,7.78 14.12,18.04 29.68,35.13 44.48,52.62 l 31.86,37.64 c 2.48,2.79 4.16,4.86 6.64,7.64 2.19,2.46 4.42,5.12 6.5,7.77 9.95,12.73 21.44,24.37 31.41,37.14 6.3,8.07 13.7,14.71 21.64,21.2 46.81,38.22 118.48,30.1 157.95,-14.71 15.9,-18.04 28.28,-44.58 28.32,-68.8 0.03,-12.06 0.01,-25.78 -3.03,-36.93 -7.67,-28.11 -24.16,-47.45 -42.89,-68.49 l -44.1,-52.06 c -10.05,-12.87 -21.8,-24.72 -31.81,-37.69 l -83.04,-97.84 c -1.56,-1.76 -1.45,-1.97 -2.93,-3.74 L 7303,5420.48 c -8.78,-10.89 -21.73,-26.95 -31.53,-37.02 -7.11,-7.3 -12.49,-15.97 -19.5,-23.33 l -41.03,-48.45 c -7.77,-9.6 -7.31,-12.15 -9.39,-25.84 l -83.33,-487.91 c -4.45,-22.97 -6.8,-48.67 -12.76,-71.03 l -10.39,-44.83 c -5.95,-27.06 -10.65,-52.97 -17.36,-79.75 -1.04,-4.17 -1.37,-7.61 -2.3,-11.97 l -44.91,-205.49 c -0.98,-4.44 -1.8,-6.99 -2.71,-11.57 -0.51,-2.59 -1.53,-9.43 -2.6,-11.67 6.09,1.63 31.26,17.73 37.75,21.27 13.19,7.21 24.88,14.69 38.07,21.9 3.21,1.76 6,3.36 9.07,5.2 3.47,2.08 6.76,2.98 8.98,6.26 l 25.81,49.4 c 19.82,39.57 41.72,77.94 61.48,117.5 1.93,3.86 3.58,6.14 5.41,9.82 1.57,3.16 3.12,6.42 4.75,9.54 l 36.18,68.54 c 6.08,12.23 22.99,45.51 30.85,58.64 20.03,33.47 59.71,53.89 98.91,47.34 24.26,-4.04 43.01,-14.63 57.99,-31.48 22.59,-25.43 32.48,-68.32 17.55,-99.89 -15.49,-32.73 -33.7,-63.43 -49.83,-95.85 -7.27,-14.61 -28.07,-55.25 -36.09,-68.63 -2.75,-4.6 -4.67,-9.35 -7.04,-13.89 l -28.57,-54.26 c -2.45,-4.91 -4.76,-8.51 -7.31,-13.64 -2.5,-5.06 -4.84,-8.97 -7.22,-13.72 l -35.61,-68.17 c -2.55,-5.15 -4.7,-8.37 -7.3,-13.64 -4.63,-9.39 -11.17,-16.63 -17.35,-24.54 -10.9,-13.95 -46.19,-32.09 -62.11,-41.66 l -66.82,-37.89 c -17.87,-9.23 -34.81,-20.71 -52.66,-30.16 -26.93,-14.27 -52.59,-31.08 -79.65,-45.06 -4.45,-2.3 -8.88,-5.22 -13.32,-7.62 -8.89,-4.81 -17.63,-10.56 -26.66,-15.23 -22.65,-11.69 -44.64,-25.35 -66.68,-38.03 -4.45,-2.57 -9,-4.78 -13.46,-7.49 -4.97,-3.03 -8.73,-4.48 -14.08,-6.86 -2.41,-1.08 -4.25,-2.29 -7.06,-3.41 -2.99,-1.2 -4.76,-1.53 -7.78,-2.69 -31.87,-12.33 -80.06,-16.86 -115.57,-8.16 -42.18,10.33 -84.84,32.95 -115.43,63.54 -3.54,3.55 -7.76,7.21 -10.78,11.12 -3.59,4.65 -6.85,7.52 -10.66,12.19 l -29.23,43.12 -42.7,85.82 c -9.98,19.91 -20.46,39.64 -29.59,59.91 l -22.44,45.15 c -10.39,20.77 -21.55,41.64 -31.29,62.95 -1.09,2.38 -0.89,1.82 -1.98,3.74 -1.39,2.47 -2.31,5.05 -3.72,7.7 l -18.62,37.55 c -6.58,11.73 -37.49,78.58 -41.04,81.78 -2.26,2.05 -31.95,7.05 -36.89,7.85 -7.14,1.17 -12.88,2.77 -19.03,3.82 -6.86,1.16 -11.65,2.15 -18.38,3.51 l -187.2,36.5 c -31.07,6.24 -55.75,10.32 -76.65,35.68 -10.56,12.81 -24.02,42.39 -24.02,65.48 z"
           id="path16198"
           style="fill:#ffffff;fill-opacity:1;stroke:#000000;stroke-width:17.46488208;stroke-miterlimit:4;stroke-dasharray:17.46488208,17.46488208;stroke-opacity:1;stroke-dashoffset:0" />
        <path
           inkscape:connector-curvature="0"
           class="fil0 str0"
           d="m 6506.4,3787.5 c 0,71.87 42.71,136.59 96.45,165.36 79.12,42.35 168.18,29.18 228.39,-30.87 2.2,-2.2 3.62,-3.56 5.56,-5.86 12.95,-15.37 25.69,-31.6 33.38,-50.4 2.32,-5.65 4.5,-10.79 6.63,-17.17 1.99,-5.99 3.3,-11.81 5.26,-18.54 8.32,-28.53 5.8,-74.49 -4.7,-102.22 -9.93,-26.24 -9.15,-24.75 -23.23,-47.23 -10.34,-16.51 -31.3,-36.97 -46.39,-47.86 -9.89,-7.14 -18.61,-11.77 -29.42,-17.22 -48.21,-24.31 -113.69,-24.71 -161.82,-0.63 -2.97,1.48 -4.84,2.12 -7.71,3.72 -2.81,1.56 -4.79,2.45 -7.4,4.02 -25.92,15.62 -43.57,32.43 -61.28,56.77 -6.53,8.97 -12.32,19.84 -17.23,30.38 -10.63,22.82 -16.49,52.2 -16.49,77.75 z"
           id="path16200"
           style="fill:#ffffff;fill-opacity:1;stroke:#000000;stroke-width:17.46488208;stroke-miterlimit:4;stroke-dasharray:17.46488208,17.46488208;stroke-opacity:1;stroke-dashoffset:0" />
      </g>
    </g>
    <g
       transform="matrix(0.00515932,0,0,0.00515932,26.011701,116.91592)"
       id="Слой_x0020_1-5"
       style="clip-rule:evenodd;fill:#ffffff;fill-opacity:1;fill-rule:evenodd;stroke:#000000;stroke-width:46.71158206;stroke-miterlimit:4;stroke-dasharray:46.71158206,46.71158206;stroke-opacity:1;image-rendering:optimizeQuality;shape-rendering:geometricPrecision;text-rendering:geometricPrecision;stroke-dashoffset:0">
      <metadata
         id="CorelCorpID_0Corel-Layer-2" />
      <g
         id="_1893367758752-4"
         style="fill:#ffffff;fill-opacity:1;stroke:#000000;stroke-width:46.71158206;stroke-miterlimit:4;stroke-dasharray:46.71158206,46.71158206;stroke-opacity:1;stroke-dashoffset:0">
        <path
           inkscape:connector-curvature="0"
           class="fil0 str0"
           d="m 6016.17,4702.47 c 0,17.68 -0.56,23.51 7.29,40.32 9.16,19.63 24.97,37.22 45.61,45.78 28.55,11.85 45.18,10.97 76.01,4.74 l 242.27,-47.11 c 4.1,-0.85 8.29,-1.96 12.57,-2.67 l 51.16,-9.76 c 8.71,-1.52 16.11,-3.86 23.8,-6.66 19.95,-7.25 32.95,-14.7 45.28,-30.88 2.41,-3.18 3.94,-5.91 6.05,-9.18 4.48,-6.91 57.96,-113.78 68.6,-137.04 l 22.25,-44.39 c 0.09,-0.15 0.28,-0.47 0.36,-0.59 0.07,-0.12 0.22,-0.41 0.35,-0.6 0.72,8.65 13.94,69.35 16.76,80.35 1.24,4.83 1.57,8.53 2.68,13.51 7.88,35.45 14.31,71.55 22.63,106.85 l 17.09,81.01 c 1.96,10.82 1.11,7.92 -9.91,18.9 -3.25,3.22 -4.7,5.72 -8.07,9.06 l -94.89,100.27 c -2.55,3.31 -5.04,5.37 -7.92,8.26 -1.5,1.49 -2.35,2.3 -3.82,3.8 -0.81,0.82 -1.07,1.07 -1.86,1.95 l -3.48,4.14 c -14.05,16.43 -32.76,32.26 -46.15,49.04 l -44.51,46.88 c -0.14,0.14 -0.35,0.33 -0.48,0.47 l -18.2,19.88 c -5.55,6.01 -10.62,10.04 -15.82,16.56 l -16.11,17.21 c -10.13,11.62 -21.69,21.95 -29.1,35.63 -4.25,7.85 -7.04,13.19 -10.27,22.1 -2.03,5.6 -5.58,20.17 -5.58,27.74 v 614.1 c 0,21.95 9.47,42.95 21.51,60.37 1.88,2.73 3.65,5.23 5.84,7.49 12.23,12.62 22.34,21.2 38.96,29.58 26.23,13.23 59.73,13.93 87.31,4.8 14.2,-4.7 28.31,-12.24 38.42,-22.5 2.19,-2.22 3.79,-3 5.63,-4.84 l 13.8,-16.67 c 1.43,-2.06 2.56,-4.18 3.96,-6.51 14.98,-25.07 15.88,-46.37 15.88,-76.47 v -468.43 c -0.02,-21.24 1.46,-12.81 18.37,-33.05 l 134.16,-140.95 c 3.74,-3.71 6.76,-6.76 10.49,-10.47 l 57.09,-60 c 10.87,-11.76 34.34,-34.91 42.47,-45.11 1.31,-1.64 19.41,-20.32 20.13,-20.81 l 16.34,94.11 c 4.05,28.91 12.29,65.52 16.71,94.67 l 16.38,95.03 c 3.17,15.72 4.83,31.17 8.09,47.13 1.67,8.23 2.86,15.51 5.18,22.42 5.5,16.41 13.32,31.86 24.67,44.83 l 219.87,259.94 c 1.53,1.71 2.09,2.01 3.63,3.98 l 19.2,22.7 c 2.19,2.46 4.43,5.12 6.5,7.78 14.12,18.04 29.68,35.13 44.48,52.62 l 31.86,37.64 c 2.48,2.79 4.16,4.86 6.64,7.64 2.19,2.46 4.42,5.12 6.5,7.77 9.95,12.73 21.44,24.37 31.41,37.14 6.3,8.07 13.7,14.71 21.64,21.2 46.81,38.22 118.48,30.1 157.95,-14.71 15.9,-18.04 28.28,-44.58 28.32,-68.8 0.03,-12.06 0.01,-25.78 -3.03,-36.93 -7.67,-28.11 -24.16,-47.45 -42.89,-68.49 l -44.1,-52.06 c -10.05,-12.87 -21.8,-24.72 -31.81,-37.69 l -83.04,-97.84 c -1.56,-1.76 -1.45,-1.97 -2.93,-3.74 L 7303,5420.48 c -8.78,-10.89 -21.73,-26.95 -31.53,-37.02 -7.11,-7.3 -12.49,-15.97 -19.5,-23.33 l -41.03,-48.45 c -7.77,-9.6 -7.31,-12.15 -9.39,-25.84 l -83.33,-487.91 c -4.45,-22.97 -6.8,-48.67 -12.76,-71.03 l -10.39,-44.83 c -5.95,-27.06 -10.65,-52.97 -17.36,-79.75 -1.04,-4.17 -1.37,-7.61 -2.3,-11.97 l -44.91,-205.49 c -0.98,-4.44 -1.8,-6.99 -2.71,-11.57 -0.51,-2.59 -1.53,-9.43 -2.6,-11.67 6.09,1.63 31.26,17.73 37.75,21.27 13.19,7.21 24.88,14.69 38.07,21.9 3.21,1.76 6,3.36 9.07,5.2 3.47,2.08 6.76,2.98 8.98,6.26 l 25.81,49.4 c 19.82,39.57 41.72,77.94 61.48,117.5 1.93,3.86 3.58,6.14 5.41,9.82 1.57,3.16 3.12,6.42 4.75,9.54 l 36.18,68.54 c 6.08,12.23 22.99,45.51 30.85,58.64 20.03,33.47 59.71,53.89 98.91,47.34 24.26,-4.04 43.01,-14.63 57.99,-31.48 22.59,-25.43 32.48,-68.32 17.55,-99.89 -15.49,-32.73 -33.7,-63.43 -49.83,-95.85 -7.27,-14.61 -28.07,-55.25 -36.09,-68.63 -2.75,-4.6 -4.67,-9.35 -7.04,-13.89 l -28.57,-54.26 c -2.45,-4.91 -4.76,-8.51 -7.31,-13.64 -2.5,-5.06 -4.84,-8.97 -7.22,-13.72 l -35.61,-68.17 c -2.55,-5.15 -4.7,-8.37 -7.3,-13.64 -4.63,-9.39 -11.17,-16.63 -17.35,-24.54 -10.9,-13.95 -46.19,-32.09 -62.11,-41.66 l -66.82,-37.89 c -17.87,-9.23 -34.81,-20.71 -52.66,-30.16 -26.93,-14.27 -52.59,-31.08 -79.65,-45.06 -4.45,-2.3 -8.88,-5.22 -13.32,-7.62 -8.89,-4.81 -17.63,-10.56 -26.66,-15.23 -22.65,-11.69 -44.64,-25.35 -66.68,-38.03 -4.45,-2.57 -9,-4.78 -13.46,-7.49 -4.97,-3.03 -8.73,-4.48 -14.08,-6.86 -2.41,-1.08 -4.25,-2.29 -7.06,-3.41 -2.99,-1.2 -4.76,-1.53 -7.78,-2.69 -31.87,-12.33 -80.06,-16.86 -115.57,-8.16 -42.18,10.33 -84.84,32.95 -115.43,63.54 -3.54,3.55 -7.76,7.21 -10.78,11.12 -3.59,4.65 -6.85,7.52 -10.66,12.19 l -29.23,43.12 -42.7,85.82 c -9.98,19.91 -20.46,39.64 -29.59,59.91 l -22.44,45.15 c -10.39,20.77 -21.55,41.64 -31.29,62.95 -1.09,2.38 -0.89,1.82 -1.98,3.74 -1.39,2.47 -2.31,5.05 -3.72,7.7 l -18.62,37.55 c -6.58,11.73 -37.49,78.58 -41.04,81.78 -2.26,2.05 -31.95,7.05 -36.89,7.85 -7.14,1.17 -12.88,2.77 -19.03,3.82 -6.86,1.16 -11.65,2.15 -18.38,3.51 l -187.2,36.5 c -31.07,6.24 -55.75,10.32 -76.65,35.68 -10.56,12.81 -24.02,42.39 -24.02,65.48 z"
           id="path16198-9"
           style="fill:#ffffff;fill-opacity:1;stroke:#000000;stroke-width:46.71158206;stroke-miterlimit:4;stroke-dasharray:46.71158206,46.71158206;stroke-opacity:1;stroke-dashoffset:0" />
        <path
           inkscape:connector-curvature="0"
           class="fil0 str0"
           d="m 6506.4,3787.5 c 0,71.87 42.71,136.59 96.45,165.36 79.12,42.35 168.18,29.18 228.39,-30.87 2.2,-2.2 3.62,-3.56 5.56,-5.86 12.95,-15.37 25.69,-31.6 33.38,-50.4 2.32,-5.65 4.5,-10.79 6.63,-17.17 1.99,-5.99 3.3,-11.81 5.26,-18.54 8.32,-28.53 5.8,-74.49 -4.7,-102.22 -9.93,-26.24 -9.15,-24.75 -23.23,-47.23 -10.34,-16.51 -31.3,-36.97 -46.39,-47.86 -9.89,-7.14 -18.61,-11.77 -29.42,-17.22 -48.21,-24.31 -113.69,-24.71 -161.82,-0.63 -2.97,1.48 -4.84,2.12 -7.71,3.72 -2.81,1.56 -4.79,2.45 -7.4,4.02 -25.92,15.62 -43.57,32.43 -61.28,56.77 -6.53,8.97 -12.32,19.84 -17.23,30.38 -10.63,22.82 -16.49,52.2 -16.49,77.75 z"
           id="path16200-4"
           style="fill:#ffffff;fill-opacity:1;stroke:#000000;stroke-width:46.71158206;stroke-miterlimit:4;stroke-dasharray:46.71158206,46.71158206;stroke-opacity:1;stroke-dashoffset:0" />
      </g>
    </g>
  </g>
</svg>
