<?xml version="1.0" encoding="UTF-8" standalone="no"?>
<!-- Created with Inkscape (http://www.inkscape.org/) -->

<svg
   xmlns:dc="http://purl.org/dc/elements/1.1/"
   xmlns:cc="http://creativecommons.org/ns#"
   xmlns:rdf="http://www.w3.org/1999/02/22-rdf-syntax-ns#"
   xmlns:svg="http://www.w3.org/2000/svg"
   xmlns="http://www.w3.org/2000/svg"
   xmlns:sodipodi="http://sodipodi.sourceforge.net/DTD/sodipodi-0.dtd"
   xmlns:inkscape="http://www.inkscape.org/namespaces/inkscape"
   width="33.267948mm"
   height="17mm"
   viewBox="0 0 33.26795 17"
   version="1.1"
   id="svg20953"
   inkscape:version="0.92.2 (5c3e80d, 2017-08-06)"
   sodipodi:docname="emiia27.svg"
   inkscape:export-filename="C:\Users\User1\Desktop\15 Владимир 3д макс\IoT &amp; IIoT\infografics\Соцсети\fog88.png"
   inkscape:export-xdpi="1182.2"
   inkscape:export-ydpi="1182.2">
  <defs
     id="defs20947" />
  <sodipodi:namedview
     id="base"
     pagecolor="#ffffff"
     bordercolor="#666666"
     borderopacity="1.0"
     inkscape:pageopacity="0.0"
     inkscape:pageshadow="2"
     inkscape:zoom="2.9899725"
     inkscape:cx="90.903329"
     inkscape:cy="-19.252447"
     inkscape:document-units="mm"
     inkscape:current-layer="layer1"
     showgrid="false"
     fit-margin-top="0"
     fit-margin-left="0"
     fit-margin-right="0"
     fit-margin-bottom="0"
     inkscape:window-width="1366"
     inkscape:window-height="745"
     inkscape:window-x="-8"
     inkscape:window-y="-8"
     inkscape:window-maximized="1" />
  <metadata
     id="metadata20950">
    <rdf:RDF>
      <cc:Work
         rdf:about="">
        <dc:format>image/svg+xml</dc:format>
        <dc:type
           rdf:resource="http://purl.org/dc/dcmitype/StillImage" />
        <dc:title />
      </cc:Work>
    </rdf:RDF>
  </metadata>
  <g
     inkscape:label="Layer 1"
     inkscape:groupmode="layer"
     id="layer1"
     transform="translate(-45.28919,-133.1472)">
    <text
       xml:space="preserve"
       style="font-style:normal;font-weight:normal;font-size:4.23333311px;line-height:1.25;font-family:sans-serif;letter-spacing:0px;word-spacing:0px;fill:#000000;fill-opacity:1;stroke:none;stroke-width:0.26458332"
       x="70.045975"
       y="142.4696"
       id="text891"><tspan
         sodipodi:role="line"
         id="tspan889"
         x="70.045975"
         y="146.3318"
         style="stroke-width:0.26458332" /></text>
    <polygon
       transform="matrix(0.00613869,0,0,0.00613775,14.753023,108.41606)"
       style="clip-rule:evenodd;fill:#000000;fill-rule:evenodd;stroke-width:1.62913418;image-rendering:optimizeQuality;shape-rendering:geometricPrecision;text-rendering:geometricPrecision"
       id="polygon824"
       points="8298.74,4816.12 8297.33,4826 8305.8,4826 "
       class="fil1" />
    <polygon
       transform="matrix(0.00613869,0,0,0.00613775,14.753023,108.41606)"
       style="clip-rule:evenodd;fill:#000000;fill-rule:evenodd;stroke-width:1.62913418;image-rendering:optimizeQuality;shape-rendering:geometricPrecision;text-rendering:geometricPrecision"
       id="polygon826"
       points="7085.19,5369.28 7086.6,5359.4 7078.14,5359.4 "
       class="fil1" />
    <path
       id="path818"
       d="M 67.296845,133.42455 H 56.720583 c -0.621816,0 -1.125701,0.50601 -1.125701,1.13045 v 10.62075 c 0,0.62443 0.503885,1.13044 1.125701,1.13044 h 10.576262 c 0.621817,0 1.125702,-0.50601 1.125702,-1.13044 V 134.555 c 0,-0.62444 -0.503885,-1.13045 -1.125702,-1.13045 z"
       style="fill:none;stroke:#4a99d9;stroke-width:0.13401243px;stroke-linecap:butt;stroke-linejoin:miter;stroke-miterlimit:4;stroke-dasharray:none;stroke-opacity:1"
       inkscape:connector-curvature="0" />
    <path
       id="path820-0"
       d="m 62.006035,135.30325 c -2.508715,0 -4.540339,2.04017 -4.540339,4.55943 0,2.52464 2.031624,4.56483 4.540339,4.56483 2.514074,0 4.545703,-2.04019 4.545703,-4.56483 0,-2.51926 -2.031629,-4.55943 -4.545703,-4.55943 z"
       style="fill:none;stroke:#4a99d9;stroke-width:0.13401243px;stroke-linecap:butt;stroke-linejoin:miter;stroke-miterlimit:4;stroke-dasharray:none;stroke-opacity:1"
       inkscape:connector-curvature="0" />
    <path
       id="path822-2"
       d="m 60.242432,139.32976 c -0.294828,0 -0.536054,0.23686 -0.536054,0.53292 0,0.29607 0.241226,0.53831 0.536054,0.53831 0.294827,0 0.536048,-0.24224 0.536048,-0.53831 0,-0.29606 -0.241221,-0.53292 -0.536048,-0.53292 z"
       style="fill:none;stroke:#4a99d9;stroke-width:0.13401243px;stroke-linecap:butt;stroke-linejoin:miter;stroke-miterlimit:4;stroke-dasharray:none;stroke-opacity:1"
       inkscape:connector-curvature="0" />
    <path
       id="path824"
       d="m 63.769638,139.32976 c -0.294826,0 -0.53069,0.23686 -0.53069,0.53292 0,0.29607 0.235864,0.53831 0.53069,0.53831 0.294827,0 0.536048,-0.24224 0.536048,-0.53831 0,-0.29606 -0.241221,-0.53292 -0.536048,-0.53292 z"
       style="fill:none;stroke:#4a99d9;stroke-width:0.13401243px;stroke-linecap:butt;stroke-linejoin:miter;stroke-miterlimit:4;stroke-dasharray:none;stroke-opacity:1"
       inkscape:connector-curvature="0" />
    <path
       id="path826"
       d="m 62.006035,143.44241 v 0 c 0.117933,0 0.214417,0.0969 0.214417,0.21532 v 0.55445 c 0,0.11843 -0.09648,0.21533 -0.214417,0.21533 v 0 c -0.117931,0 -0.209058,-0.0969 -0.209058,-0.21533 v -0.55445 c 0,-0.11843 0.09113,-0.21532 0.209058,-0.21532 z"
       style="fill:none;stroke:#4a99d9;stroke-width:0.13401243px;stroke-linecap:butt;stroke-linejoin:miter;stroke-miterlimit:4;stroke-dasharray:none;stroke-opacity:1"
       inkscape:connector-curvature="0" />
    <path
       id="path828"
       d="m 62.006035,135.30325 v 0 c 0.117933,0 0.214417,0.0969 0.214417,0.21532 v 0.55445 c 0,0.11842 -0.09648,0.21532 -0.214417,0.21532 v 0 c -0.117931,0 -0.209058,-0.097 -0.209058,-0.21532 v -0.55445 c 0,-0.11843 0.09113,-0.21532 0.209058,-0.21532 z"
       style="fill:none;stroke:#4a99d9;stroke-width:0.13401243px;stroke-linecap:butt;stroke-linejoin:miter;stroke-miterlimit:4;stroke-dasharray:none;stroke-opacity:1"
       inkscape:connector-curvature="0" />
    <text
       xml:space="preserve"
       style="font-style:normal;font-weight:normal;font-size:6.3499999px;line-height:1.25;font-family:sans-serif;letter-spacing:0px;word-spacing:0px;fill:#000000;fill-opacity:1;stroke:none;stroke-width:0.26458332"
       x="69.878426"
       y="142.46696"
       id="text1433"><tspan
         sodipodi:role="line"
         id="tspan1431"
         x="69.878426"
         y="148.26027"
         style="stroke-width:0.26458332" /></text>
    <g
       aria-label="Выключатели/Розетки"
       style="font-style:normal;font-variant:normal;font-weight:normal;font-stretch:normal;font-size:2.82222223px;line-height:1.25;font-family:sans-serif;-inkscape-font-specification:sans-serif;letter-spacing:0px;word-spacing:0px;fill:#000000;fill-opacity:1;stroke:none;stroke-width:0.26458332"
       id="text2979">
      <path
         d="m 47.377805,149.25059 q 0,0.15296 -0.05788,0.27009 -0.05788,0.11714 -0.155719,0.19293 -0.115755,0.091 -0.254937,0.12953 -0.137803,0.0386 -0.351399,0.0386 h -0.727605 v -2.0519 h 0.607715 q 0.224621,0 0.336242,0.0165 0.111621,0.0165 0.213596,0.0689 0.112999,0.0593 0.163986,0.15296 0.05099,0.0923 0.05099,0.22187 0,0.14607 -0.07441,0.24942 -0.07441,0.10197 -0.198437,0.16399 v 0.011 q 0.208084,0.0427 0.327973,0.18328 0.119889,0.13918 0.119889,0.35278 z m -0.458886,-0.92467 q 0,-0.0744 -0.02481,-0.1254 -0.02481,-0.051 -0.07993,-0.0827 -0.06477,-0.0372 -0.157097,-0.0455 -0.09233,-0.01 -0.228754,-0.01 H 46.10312 v 0.59256 h 0.352778 q 0.128157,0 0.203949,-0.0124 0.07579,-0.0138 0.14056,-0.0551 0.06477,-0.0413 0.09095,-0.10611 0.02756,-0.0661 0.02756,-0.15572 z m 0.17501,0.93569 q 0,-0.12402 -0.03721,-0.19706 -0.03721,-0.073 -0.135047,-0.12402 -0.06615,-0.0344 -0.161231,-0.0441 -0.09371,-0.011 -0.228754,-0.011 h -0.42857 v 0.76343 h 0.361046 q 0.179145,0 0.293522,-0.0179 0.114377,-0.0193 0.187413,-0.0689 0.07717,-0.0537 0.112999,-0.12264 0.03583,-0.0689 0.03583,-0.17777 z"
         style="font-style:normal;font-variant:normal;font-weight:normal;font-stretch:normal;font-size:2.82222223px;font-family:sans-serif;-inkscape-font-specification:sans-serif;stroke-width:0.26458332"
         id="path2981" />
      <path
         d="m 48.692454,149.40906 q 0,-0.0703 -0.02481,-0.12264 -0.02343,-0.0537 -0.07855,-0.0868 -0.05788,-0.0344 -0.132292,-0.0413 -0.07304,-0.007 -0.21084,-0.007 h -0.242534 v 0.52365 h 0.237022 q 0.137804,0 0.213596,-0.011 0.07579,-0.0124 0.130914,-0.0455 0.0565,-0.0358 0.0813,-0.0841 0.02618,-0.0496 0.02618,-0.1254 z m 0.267339,-0.004 q 0,0.11162 -0.04547,0.20257 -0.0441,0.091 -0.121267,0.14745 -0.09095,0.0689 -0.194304,0.0978 -0.103353,0.0289 -0.265961,0.0289 h -0.588423 v -1.53927 h 0.259072 v 0.59945 h 0.336241 q 0.173633,0 0.268717,0.0179 0.09646,0.0179 0.191548,0.0882 0.07993,0.0592 0.119889,0.15158 0.03996,0.0923 0.03996,0.20533 z m 0.257693,-1.06247 h 0.259071 v 1.53927 h -0.259071 z"
         style="font-style:normal;font-variant:normal;font-weight:normal;font-stretch:normal;font-size:2.82222223px;font-family:sans-serif;-inkscape-font-specification:sans-serif;stroke-width:0.26458332"
         id="path2983" />
      <path
         d="m 51.376872,149.88173 h -0.338997 l -0.63941,-0.70556 h -0.14056 v 0.70556 h -0.259071 v -1.53927 h 0.259071 v 0.66421 q 0.128158,0 0.206706,-0.0455 0.07855,-0.0468 0.133669,-0.14883 0.01929,-0.0372 0.03721,-0.0785 0.01929,-0.0427 0.03721,-0.0813 0.07166,-0.15572 0.179145,-0.23289 0.107486,-0.0772 0.30868,-0.0772 h 0.118511 v 0.22324 h -0.114377 q -0.108865,0 -0.170877,0.0469 -0.06063,0.0455 -0.110243,0.16123 -0.05512,0.12953 -0.117133,0.1943 -0.06063,0.0634 -0.129535,0.0965 z"
         style="font-style:normal;font-variant:normal;font-weight:normal;font-stretch:normal;font-size:2.82222223px;font-family:sans-serif;-inkscape-font-specification:sans-serif;stroke-width:0.26458332"
         id="path2985" />
      <path
         d="m 52.899604,149.88173 h -0.259071 v -1.32154 h -0.574642 q -0.0041,0.11438 -0.0083,0.22049 -0.0041,0.10611 -0.0083,0.19154 -0.0096,0.23014 -0.03169,0.36794 -0.02205,0.13643 -0.05788,0.22738 -0.03307,0.0854 -0.07441,0.13918 -0.03996,0.0524 -0.08682,0.0951 -0.04685,0.0413 -0.104731,0.062 -0.0565,0.0207 -0.124024,0.0207 -0.02343,0 -0.0689,-0.001 -0.0441,-0.001 -0.05788,-0.001 v -0.226 h 0.01378 q 0.01103,0 0.03169,0.001 0.02067,0.001 0.03445,0.001 0.03307,0 0.06752,-0.01 0.03583,-0.01 0.06063,-0.0358 0.07028,-0.0689 0.112999,-0.23289 0.04272,-0.16398 0.0565,-0.47404 0.0055,-0.113 0.0096,-0.26734 0.0055,-0.15572 0.0096,-0.29628 h 1.059711 z"
         style="font-style:normal;font-variant:normal;font-weight:normal;font-stretch:normal;font-size:2.82222223px;font-family:sans-serif;-inkscape-font-specification:sans-serif;stroke-width:0.26458332"
         id="path2987" />
      <path
         d="m 55.109978,149.11278 q 0,-0.29627 -0.114377,-0.44235 -0.114378,-0.14745 -0.316949,-0.14745 -0.21084,0 -0.322461,0.15434 -0.110243,0.15297 -0.110243,0.43546 0,0.29215 0.115755,0.44098 0.115755,0.14745 0.316949,0.14745 0.201193,0 0.315571,-0.14608 0.115755,-0.14745 0.115755,-0.44235 z m -1.120345,0.0717 h -0.319705 v 0.69729 h -0.259071 v -1.53927 h 0.259071 v 0.62425 h 0.326595 q 0.03445,-0.31833 0.221864,-0.49196 0.188791,-0.17501 0.463021,-0.17501 0.318327,0 0.507118,0.21773 0.188791,0.21773 0.188791,0.59531 0,0.37345 -0.186035,0.59256 -0.186035,0.21911 -0.509874,0.21911 -0.305925,0 -0.490582,-0.19844 -0.183279,-0.19844 -0.201193,-0.54157 z"
         style="font-style:normal;font-variant:normal;font-weight:normal;font-stretch:normal;font-size:2.82222223px;font-family:sans-serif;-inkscape-font-specification:sans-serif;stroke-width:0.26458332"
         id="path2989" />
      <path
         d="m 56.979975,149.88173 h -0.259071 v -0.59118 q -0.125401,0.0386 -0.239779,0.062 -0.114377,0.0234 -0.249424,0.0234 -0.248047,0 -0.378961,-0.12127 -0.130914,-0.12264 -0.130914,-0.35278 v -0.55948 h 0.259072 v 0.42719 q 0,0.0882 0.01102,0.15848 0.01102,0.0689 0.04685,0.11989 0.03583,0.0496 0.100597,0.0758 0.06477,0.0262 0.180523,0.0262 0.09508,0 0.206706,-0.0179 0.111621,-0.0193 0.194303,-0.0441 v -0.74552 h 0.259071 z"
         style="font-style:normal;font-variant:normal;font-weight:normal;font-stretch:normal;font-size:2.82222223px;font-family:sans-serif;-inkscape-font-specification:sans-serif;stroke-width:0.26458332"
         id="path2991" />
      <path
         d="m 58.685987,149.88173 h -0.257693 v -0.16399 q -0.03445,0.0234 -0.09371,0.0662 -0.05788,0.0413 -0.112999,0.0661 -0.06477,0.0317 -0.148828,0.0524 -0.08406,0.0221 -0.197059,0.0221 -0.208084,0 -0.352778,-0.13781 -0.144694,-0.1378 -0.144694,-0.3514 0,-0.17501 0.07441,-0.28249 0.07579,-0.10887 0.214974,-0.17088 0.14056,-0.062 0.337619,-0.0841 0.19706,-0.022 0.423058,-0.0331 v -0.04 q 0,-0.0882 -0.03169,-0.14607 -0.03032,-0.0579 -0.08819,-0.0909 -0.05512,-0.0317 -0.132292,-0.0427 -0.07717,-0.011 -0.161231,-0.011 -0.101974,0 -0.227376,0.0276 -0.125401,0.0262 -0.259071,0.0772 h -0.01378 v -0.26321 q 0.07579,-0.0207 0.219108,-0.0455 0.143316,-0.0248 0.282498,-0.0248 0.162608,0 0.282497,0.0276 0.121268,0.0262 0.209462,0.0909 0.08682,0.0634 0.132292,0.16399 0.04547,0.1006 0.04547,0.24943 z m -0.257693,-0.37896 v -0.42857 q -0.118511,0.007 -0.279742,0.0207 -0.159852,0.0138 -0.253559,0.04 -0.111621,0.0317 -0.180523,0.0992 -0.0689,0.0661 -0.0689,0.18328 0,0.13229 0.07993,0.19982 0.07993,0.0661 0.243913,0.0661 0.136426,0 0.249425,-0.0524 0.112999,-0.0538 0.209462,-0.12816 z"
         style="font-style:normal;font-variant:normal;font-weight:normal;font-stretch:normal;font-size:2.82222223px;font-family:sans-serif;-inkscape-font-specification:sans-serif;stroke-width:0.26458332"
         id="path2993" />
      <path
         d="m 60.318962,148.56984 h -0.556728 v 1.31189 h -0.259071 v -1.31189 h -0.556727 v -0.22738 h 1.372526 z"
         style="font-style:normal;font-variant:normal;font-weight:normal;font-stretch:normal;font-size:2.82222223px;font-family:sans-serif;-inkscape-font-specification:sans-serif;stroke-width:0.26458332"
         id="path2995" />
      <path
         d="M 61.876145,149.13897 H 60.74202 q 0,0.14193 0.04272,0.24804 0.04272,0.10473 0.117133,0.17226 0.07166,0.0661 0.169499,0.0992 0.09922,0.0331 0.21773,0.0331 0.157097,0 0.315571,-0.062 0.159852,-0.0634 0.227376,-0.12403 h 0.01378 v 0.2825 q -0.130914,0.0551 -0.26734,0.0923 -0.136426,0.0372 -0.286632,0.0372 -0.383094,0 -0.598068,-0.20671 -0.214974,-0.20808 -0.214974,-0.5898 0,-0.37758 0.205327,-0.59944 0.206706,-0.22187 0.542947,-0.22187 0.311437,0 0.479558,0.1819 0.169498,0.1819 0.169498,0.51677 z m -0.252181,-0.19844 q -0.0014,-0.20395 -0.103352,-0.31557 -0.100597,-0.11162 -0.307303,-0.11162 -0.208084,0 -0.332107,0.12264 -0.122646,0.12265 -0.139182,0.30455 z"
         style="font-style:normal;font-variant:normal;font-weight:normal;font-stretch:normal;font-size:2.82222223px;font-family:sans-serif;-inkscape-font-specification:sans-serif;stroke-width:0.26458332"
         id="path2997" />
      <path
         d="m 63.510498,149.88173 h -0.259071 v -1.32154 h -0.574642 q -0.0041,0.11438 -0.0083,0.22049 -0.0041,0.10611 -0.0083,0.19154 -0.0096,0.23014 -0.0317,0.36794 -0.02205,0.13643 -0.05788,0.22738 -0.03307,0.0854 -0.07441,0.13918 -0.03996,0.0524 -0.08682,0.0951 -0.04685,0.0413 -0.10473,0.062 -0.0565,0.0207 -0.124024,0.0207 -0.02343,0 -0.0689,-0.001 -0.0441,-0.001 -0.05788,-0.001 v -0.226 h 0.01378 q 0.01102,0 0.03169,0.001 0.02067,0.001 0.03445,0.001 0.03307,0 0.06752,-0.01 0.03583,-0.01 0.06063,-0.0358 0.07028,-0.0689 0.112999,-0.23289 0.04272,-0.16398 0.0565,-0.47404 0.0055,-0.113 0.0096,-0.26734 0.0055,-0.15572 0.0096,-0.29628 h 1.059711 z"
         style="font-style:normal;font-variant:normal;font-weight:normal;font-stretch:normal;font-size:2.82222223px;font-family:sans-serif;-inkscape-font-specification:sans-serif;stroke-width:0.26458332"
         id="path2999" />
      <path
         d="m 65.318484,149.88173 h -0.256315 v -1.15617 l -0.806152,1.15617 H 64.02175 v -1.53927 h 0.256315 v 1.13964 l 0.797885,-1.13964 h 0.242534 z"
         style="font-style:normal;font-variant:normal;font-weight:normal;font-stretch:normal;font-size:2.82222223px;font-family:sans-serif;-inkscape-font-specification:sans-serif;stroke-width:0.26458332"
         id="path3001" />
      <path
         d="m 66.759913,147.7375 -0.988053,2.56315 h -0.238401 l 0.98392,-2.56315 z"
         style="font-style:normal;font-variant:normal;font-weight:normal;font-stretch:normal;font-size:2.82222223px;font-family:sans-serif;-inkscape-font-specification:sans-serif;stroke-width:0.26458332"
         id="path3003" />
      <path
         d="m 68.476948,148.44995 q 0,0.13642 -0.04823,0.25356 -0.04685,0.11575 -0.132291,0.20119 -0.106109,0.10611 -0.250803,0.15985 -0.144694,0.0524 -0.36518,0.0524 H 67.40759 v 0.76481 h -0.272852 v -2.0519 h 0.556728 q 0.184657,0 0.312815,0.0317 0.128157,0.0303 0.227376,0.0965 0.117133,0.0786 0.180523,0.19568 0.06477,0.11713 0.06477,0.29628 z m -0.283876,0.007 q 0,-0.10611 -0.03721,-0.18466 -0.03721,-0.0785 -0.112999,-0.12816 -0.06615,-0.0427 -0.151585,-0.0606 -0.08406,-0.0193 -0.213595,-0.0193 H 67.40759 v 0.81993 h 0.230132 q 0.165365,0 0.268718,-0.0289 0.103353,-0.0303 0.168121,-0.0951 0.06477,-0.0661 0.09095,-0.13919 0.02756,-0.073 0.02756,-0.16398 z"
         style="font-style:normal;font-variant:normal;font-weight:normal;font-stretch:normal;font-size:2.82222223px;font-family:sans-serif;-inkscape-font-specification:sans-serif;stroke-width:0.26458332"
         id="path3005" />
      <path
         d="m 70.129215,149.11278 q 0,0.37621 -0.192925,0.59394 -0.192926,0.21773 -0.516765,0.21773 -0.326595,0 -0.51952,-0.21773 -0.191547,-0.21773 -0.191547,-0.59394 0,-0.3762 0.191547,-0.59393 0.192925,-0.21911 0.51952,-0.21911 0.323839,0 0.516765,0.21911 0.192925,0.21773 0.192925,0.59393 z m -0.267339,0 q 0,-0.29903 -0.117134,-0.44372 -0.117133,-0.14608 -0.325217,-0.14608 -0.21084,0 -0.327973,0.14608 -0.115755,0.14469 -0.115755,0.44372 0,0.28939 0.117133,0.4396 0.117134,0.14883 0.326595,0.14883 0.206706,0 0.323839,-0.14745 0.118512,-0.14883 0.118512,-0.44098 z"
         style="font-style:normal;font-variant:normal;font-weight:normal;font-stretch:normal;font-size:2.82222223px;font-family:sans-serif;-inkscape-font-specification:sans-serif;stroke-width:0.26458332"
         id="path3007" />
      <path
         d="m 71.602339,149.4504 q 0,0.12954 -0.06063,0.21911 -0.05926,0.0896 -0.152963,0.1447 -0.09371,0.0537 -0.206705,0.0785 -0.112999,0.0248 -0.225999,0.0248 -0.159852,0 -0.304546,-0.0303 -0.144694,-0.0303 -0.285254,-0.0937 v -0.28387 h 0.01792 q 0.100596,0.0882 0.256315,0.13642 0.155718,0.0482 0.30179,0.0482 0.0689,0 0.141938,-0.0124 0.07304,-0.0138 0.12678,-0.0427 0.05788,-0.0331 0.09233,-0.0785 0.03445,-0.0469 0.03445,-0.12678 0,-0.0827 -0.03445,-0.13229 -0.03307,-0.0496 -0.09095,-0.0744 -0.0565,-0.0248 -0.136426,-0.0303 -0.07993,-0.006 -0.146072,-0.006 h -0.22462 v -0.22324 h 0.155718 q 0.05512,0 0.143316,-0.004 0.08957,-0.004 0.144694,-0.022 0.07166,-0.0234 0.112999,-0.0661 0.04272,-0.0427 0.04272,-0.13642 0,-0.0648 -0.03307,-0.10611 -0.03307,-0.0427 -0.08268,-0.0661 -0.05099,-0.0234 -0.114377,-0.0317 -0.06201,-0.008 -0.110243,-0.008 -0.14056,0 -0.276986,0.0386 -0.135048,0.0372 -0.227376,0.10887 h -0.01792 v -0.28526 q 0.114377,-0.0372 0.245291,-0.0606 0.130914,-0.0234 0.261827,-0.0234 0.107487,0 0.213596,0.0193 0.107487,0.0193 0.199816,0.0661 0.09095,0.0469 0.148828,0.12816 0.05788,0.0799 0.05788,0.19844 0,0.12126 -0.07579,0.21359 -0.07441,0.0909 -0.201193,0.13092 v 0.01 q 0.141938,0.0344 0.225998,0.12954 0.08406,0.0937 0.08406,0.24942 z"
         style="font-style:normal;font-variant:normal;font-weight:normal;font-stretch:normal;font-size:2.82222223px;font-family:sans-serif;-inkscape-font-specification:sans-serif;stroke-width:0.26458332"
         id="path3009" />
      <path
         d="m 73.302838,149.13897 h -1.134125 q 0,0.14193 0.04272,0.24804 0.04272,0.10473 0.117133,0.17226 0.07166,0.0661 0.169499,0.0992 0.09922,0.0331 0.21773,0.0331 0.157097,0 0.315571,-0.062 0.159852,-0.0634 0.227376,-0.12403 h 0.01378 v 0.2825 q -0.130914,0.0551 -0.26734,0.0923 -0.136426,0.0372 -0.286632,0.0372 -0.383094,0 -0.598068,-0.20671 -0.214974,-0.20808 -0.214974,-0.5898 0,-0.37758 0.205327,-0.59944 0.206706,-0.22187 0.542947,-0.22187 0.311437,0 0.479558,0.1819 0.169498,0.1819 0.169498,0.51677 z m -0.252181,-0.19844 q -0.0014,-0.20395 -0.103352,-0.31557 -0.100597,-0.11162 -0.307303,-0.11162 -0.208084,0 -0.332107,0.12264 -0.122646,0.12265 -0.139182,0.30455 z"
         style="font-style:normal;font-variant:normal;font-weight:normal;font-stretch:normal;font-size:2.82222223px;font-family:sans-serif;-inkscape-font-specification:sans-serif;stroke-width:0.26458332"
         id="path3011" />
      <path
         d="M 74.826948,148.56984 H 74.27022 v 1.31189 h -0.259071 v -1.31189 h -0.556727 v -0.22738 h 1.372526 z"
         style="font-style:normal;font-variant:normal;font-weight:normal;font-stretch:normal;font-size:2.82222223px;font-family:sans-serif;-inkscape-font-specification:sans-serif;stroke-width:0.26458332"
         id="path3013" />
      <path
         d="m 76.484728,149.88173 h -0.338997 l -0.63941,-0.70556 h -0.14056 v 0.70556 H 75.10669 v -1.53927 h 0.259071 v 0.66421 q 0.128158,0 0.206706,-0.0455 0.07855,-0.0468 0.13367,-0.14883 0.01929,-0.0372 0.03721,-0.0785 0.01929,-0.0427 0.03721,-0.0813 0.07166,-0.15572 0.179145,-0.23289 0.107487,-0.0772 0.30868,-0.0772 h 0.118512 v 0.22324 H 76.27251 q -0.108865,0 -0.170876,0.0469 -0.06063,0.0455 -0.110243,0.16123 -0.05512,0.12953 -0.117134,0.1943 -0.06063,0.0634 -0.129535,0.0965 z"
         style="font-style:normal;font-variant:normal;font-weight:normal;font-stretch:normal;font-size:2.82222223px;font-family:sans-serif;-inkscape-font-specification:sans-serif;stroke-width:0.26458332"
         id="path3015" />
      <path
         d="m 78.062581,149.88173 h -0.256315 v -1.15617 l -0.806152,1.15617 h -0.234267 v -1.53927 h 0.256315 v 1.13964 l 0.797884,-1.13964 h 0.242535 z"
         style="font-style:normal;font-variant:normal;font-weight:normal;font-stretch:normal;font-size:2.82222223px;font-family:sans-serif;-inkscape-font-specification:sans-serif;stroke-width:0.26458332"
         id="path3017" />
    </g>
  </g>
</svg>
