<?xml version="1.0" encoding="UTF-8" standalone="no"?>
<!-- Created with Inkscape (http://www.inkscape.org/) -->

<svg
   xmlns:dc="http://purl.org/dc/elements/1.1/"
   xmlns:cc="http://creativecommons.org/ns#"
   xmlns:rdf="http://www.w3.org/1999/02/22-rdf-syntax-ns#"
   xmlns:svg="http://www.w3.org/2000/svg"
   xmlns="http://www.w3.org/2000/svg"
   xmlns:sodipodi="http://sodipodi.sourceforge.net/DTD/sodipodi-0.dtd"
   xmlns:inkscape="http://www.inkscape.org/namespaces/inkscape"
   width="61.32391mm"
   height="34.737659mm"
   viewBox="0 0 61.32391 34.73766"
   version="1.1"
   id="svg1181"
   inkscape:version="0.92.2 (5c3e80d, 2017-08-06)"
   sodipodi:docname="emiia36.svg">
  <defs
     id="defs1175" />
  <sodipodi:namedview
     id="base"
     pagecolor="#ffffff"
     bordercolor="#666666"
     borderopacity="1.0"
     inkscape:pageopacity="0.0"
     inkscape:pageshadow="2"
     inkscape:zoom="0.7"
     inkscape:cx="219.20965"
     inkscape:cy="15.566547"
     inkscape:document-units="mm"
     inkscape:current-layer="layer1"
     showgrid="false"
     fit-margin-top="0"
     fit-margin-left="0"
     fit-margin-right="0"
     fit-margin-bottom="0"
     inkscape:window-width="1366"
     inkscape:window-height="745"
     inkscape:window-x="-8"
     inkscape:window-y="-8"
     inkscape:window-maximized="1" />
  <metadata
     id="metadata1178">
    <rdf:RDF>
      <cc:Work
         rdf:about="">
        <dc:format>image/svg+xml</dc:format>
        <dc:type
           rdf:resource="http://purl.org/dc/dcmitype/StillImage" />
        <dc:title></dc:title>
      </cc:Work>
    </rdf:RDF>
  </metadata>
  <g
     inkscape:label="Layer 1"
     inkscape:groupmode="layer"
     id="layer1"
     transform="translate(-69.111859,-87.644943)">
    <path
       id="path934"
       d="m 93.658786,96.142212 h 11.861524 v -0.79194 H 93.658786 Z"
       style="fill:none;stroke:#4a99d9;stroke-width:0.13321549px;stroke-linecap:butt;stroke-linejoin:miter;stroke-miterlimit:4;stroke-dasharray:none;stroke-opacity:1"
       inkscape:connector-curvature="0" />
    <path
       id="path936"
       d="m 99.195216,102.09792 c 2.120794,-0.56721 0.841934,-0.85083 0.788637,-3.178518 -2.115467,0.567221 -0.841917,0.850811 -0.788637,3.178518 z"
       style="fill:none;stroke:#4a99d9;stroke-width:0.13321549px;stroke-linecap:butt;stroke-linejoin:miter;stroke-miterlimit:4;stroke-dasharray:none;stroke-opacity:1"
       inkscape:connector-curvature="0" />
    <path
       id="path938"
       d="m 96.429666,102.09792 c 2.11546,-0.56721 0.84192,-0.85083 0.78864,-3.178518 -2.1208,0.567221 -0.84193,0.850811 -0.78864,3.178518 z"
       style="fill:none;stroke:#4a99d9;stroke-width:0.13321549px;stroke-linecap:butt;stroke-linejoin:miter;stroke-miterlimit:4;stroke-dasharray:none;stroke-opacity:1"
       inkscape:connector-curvature="0" />
    <path
       id="path940"
       d="m 101.96079,102.09792 c 2.12079,-0.56721 0.84192,-0.85083 0.78863,-3.178518 -2.11547,0.567221 -0.84192,0.850811 -0.78863,3.178518 z"
       style="fill:none;stroke:#4a99d9;stroke-width:0.13321549px;stroke-linecap:butt;stroke-linejoin:miter;stroke-miterlimit:4;stroke-dasharray:none;stroke-opacity:1"
       inkscape:connector-curvature="0" />
    <path
       id="path942"
       d="m 104.33202,92.171752 h 1.18829 v -0.79195 h -1.18829 z"
       style="fill:none;stroke:#4a99d9;stroke-width:0.13321549px;stroke-linecap:butt;stroke-linejoin:miter;stroke-miterlimit:4;stroke-dasharray:none;stroke-opacity:1"
       inkscape:connector-curvature="0" />
    <path
       id="path944"
       d="m 92.321306,89.854752 h 14.675024 c 0.3517,0 0.63411,0.28896 0.63411,0.64213 v 6.52825 c 0,0.35317 -0.28241,0.64212 -0.63411,0.64212 H 92.321306 c -0.35169,0 -0.63411,-0.28895 -0.63411,-0.64212 v -6.52825 c 0,-0.35317 0.28242,-0.64213 0.63411,-0.64213 z"
       style="fill:none;stroke:#4a99d9;stroke-width:0.13321549px;stroke-linecap:butt;stroke-linejoin:miter;stroke-miterlimit:4;stroke-dasharray:none;stroke-opacity:1"
       inkscape:connector-curvature="0" />
    <path
       id="path958"
       d="m 77.177516,108.46576 c -3.51689,0 -6.37303,2.8521 -6.37303,6.37307 0,3.51563 2.85614,6.37309 6.37303,6.37309 3.52222,0 6.37836,-2.85746 6.37836,-6.37309 0,-3.52097 -2.85614,-6.37307 -6.37836,-6.37307 z"
       style="fill:none;stroke:#4a99d9;stroke-width:0.133;stroke-linecap:butt;stroke-linejoin:miter;stroke-miterlimit:4;stroke-dasharray:none;stroke-opacity:1"
       inkscape:connector-curvature="0" />
    <path
       id="path960"
       d="m 77.177516,108.46576 c -1.75844,0 -3.18651,1.42337 -3.18651,3.18385 0,1.7605 1.42807,3.18922 3.18651,3.18922 1.76378,0 3.19184,-1.42872 3.19184,-3.18922 0,-1.76048 -1.42806,-3.18385 -3.19184,-3.18385 z"
       style="fill:none;stroke:#4a99d9;stroke-width:0.13321549px;stroke-linecap:butt;stroke-linejoin:miter;stroke-miterlimit:4;stroke-dasharray:none;stroke-opacity:1"
       inkscape:connector-curvature="0" />
    <path
       id="path962"
       d="m 71.587796,117.89428 h 11.18477"
       style="fill:none;stroke:#4a99d9;stroke-width:0.13321549px;stroke-linecap:butt;stroke-linejoin:miter;stroke-miterlimit:4;stroke-dasharray:none;stroke-opacity:1"
       inkscape:connector-curvature="0" />
    <path
       id="path964"
       d="m 72.759386,108.51928 v 1.71232"
       style="fill:none;stroke:#4a99d9;stroke-width:0.13321549px;stroke-linecap:butt;stroke-linejoin:miter;stroke-miterlimit:4;stroke-dasharray:none;stroke-opacity:1"
       inkscape:connector-curvature="0" />
    <path
       id="path966"
       d="m 81.642896,108.55673 v 1.71232"
       style="fill:none;stroke:#4a99d9;stroke-width:0.13321549px;stroke-linecap:butt;stroke-linejoin:miter;stroke-miterlimit:4;stroke-dasharray:none;stroke-opacity:1"
       inkscape:connector-curvature="0" />
    <path
       id="path968"
       d="m 71.054236,110.19415 h 1.70515"
       style="fill:none;stroke:#4a99d9;stroke-width:0.13321549px;stroke-linecap:butt;stroke-linejoin:miter;stroke-miterlimit:4;stroke-dasharray:none;stroke-opacity:1"
       inkscape:connector-curvature="0" />
    <path
       id="path970"
       d="m 81.637576,110.2316 h 1.70515"
       style="fill:none;stroke:#4a99d9;stroke-width:0.13321549px;stroke-linecap:butt;stroke-linejoin:miter;stroke-miterlimit:4;stroke-dasharray:none;stroke-opacity:1"
       inkscape:connector-curvature="0" />
    <path
       id="path982"
       d="m 115.09088,89.793472 h 11.86685 c 0.33036,0 0.60212,0.2729 0.60212,0.60467 v 8.09077 c 0,0.33175 -0.27176,0.604654 -0.60212,0.604654 h -11.86685 c -0.33571,0 -0.60746,-0.272904 -0.60746,-0.604654 v -8.09077 c 0,-0.33177 0.27175,-0.60467 0.60746,-0.60467 z"
       style="fill:none;stroke:#4a99d9;stroke-width:0.13321549px;stroke-linecap:butt;stroke-linejoin:miter;stroke-miterlimit:4;stroke-dasharray:none;stroke-opacity:1"
       inkscape:connector-curvature="0" />
    <path
       id="path984"
       d="m 124.37007,93.806742 h 4.26289 c 0.17585,0 0.31972,0.14448 0.31972,0.32107 v 7.887408 c 0,0.17658 -0.14387,0.32106 -0.31972,0.32106 h -4.26289 c -0.17585,0 -0.31972,-0.14448 -0.31972,-0.32106 v -7.887408 c 0,-0.17659 0.14387,-0.32107 0.31972,-0.32107 z"
       style="fill:#ffffff;fill-opacity:1;fill-rule:evenodd;stroke:#4a99d9;stroke-width:0.14119922px;stroke-linecap:butt;stroke-linejoin:miter;stroke-miterlimit:4;stroke-dasharray:none;stroke-opacity:1"
       inkscape:connector-curvature="0" />
    <path
       id="path986"
       d="m 126.5015,95.551182 c -0.2984,0 -0.54352,0.24615 -0.54352,0.5458 0,0.30501 0.24512,0.55116 0.54352,0.55116 0.30375,0 0.54354,-0.24615 0.54354,-0.55116 0,-0.29965 -0.23979,-0.5458 -0.54354,-0.5458 z"
       style="fill:none;stroke:#4a99d9;stroke-width:0.13321549px;stroke-linecap:butt;stroke-linejoin:miter;stroke-miterlimit:4;stroke-dasharray:none;stroke-opacity:1"
       inkscape:connector-curvature="0" />
    <path
       id="path988"
       d="m 126.5015,98.943746 c -0.60212,0 -1.08704,0.49229 -1.08704,1.096944 0,0.60467 0.48492,1.09161 1.08704,1.09161 0.60215,0 1.09238,-0.48694 1.09238,-1.09161 0,-0.604654 -0.49023,-1.096944 -1.09238,-1.096944 z"
       style="fill:none;stroke:#4a99d9;stroke-width:0.13321549px;stroke-linecap:butt;stroke-linejoin:miter;stroke-miterlimit:4;stroke-dasharray:none;stroke-opacity:1"
       inkscape:connector-curvature="0" />
    <path
       id="path990"
       d="m 121.02163,99.179986 v 1.524244"
       style="fill:none;stroke:#4a99d9;stroke-width:0.13321549px;stroke-linecap:butt;stroke-linejoin:miter;stroke-miterlimit:4;stroke-dasharray:none;stroke-opacity:1"
       inkscape:connector-curvature="0"
       sodipodi:nodetypes="cc" />
    <path
       id="path992"
       d="m 119.11398,101.3303 c 0,-0.35853 0.85791,-0.65284 1.90765,-0.65284 1.05507,0 1.90765,0.29431 1.90765,0.65284"
       style="fill:none;stroke:#4a99d9;stroke-width:0.13321549px;stroke-linecap:butt;stroke-linejoin:miter;stroke-miterlimit:4;stroke-dasharray:none;stroke-opacity:1"
       inkscape:connector-curvature="0" />
    <path
       id="path994"
       d="m 101.70241,115.63647 c -0.005,1.13978 -0.0107,2.27955 -0.016,3.41931 m -3.660774,-0.016 c 0.005,-1.13975 0.0107,-2.27953 0.0159,-3.4193"
       style="fill:none;stroke:#4a99d9;stroke-width:0.1065724px;stroke-linecap:butt;stroke-linejoin:miter;stroke-miterlimit:4;stroke-dasharray:none;stroke-opacity:1"
       inkscape:connector-curvature="0" />
    <path
       id="path996"
       d="m 98.041536,115.62048 c -1.4334,-0.68494 -2.3445,-1.93177 -2.3445,-3.48893 0,-2.24743 1.86502,-4.06678 4.166977,-4.06678 2.301987,0 4.166997,1.81935 4.166997,4.06678 0,1.61067 -0.82592,2.85208 -2.3286,3.50492"
       style="fill:none;stroke:#4a99d9;stroke-width:0.133;stroke-linecap:butt;stroke-linejoin:bevel;stroke-miterlimit:4;stroke-dasharray:none;stroke-opacity:1"
       inkscape:connector-curvature="0"
       sodipodi:nodetypes="csssc" />
    <path
       id="path998"
       d="m 98.025646,117.96417 h 3.676764"
       style="fill:none;stroke:#4a99d9;stroke-width:0.1065724px;stroke-linecap:butt;stroke-linejoin:miter;stroke-miterlimit:4;stroke-dasharray:none;stroke-opacity:1"
       inkscape:connector-curvature="0" />
    <path
       id="path1000"
       d="m 98.025646,116.69598 h 3.676764"
       style="fill:none;stroke:#4a99d9;stroke-width:0.1065724px;stroke-linecap:butt;stroke-linejoin:miter;stroke-miterlimit:4;stroke-dasharray:none;stroke-opacity:1"
       inkscape:connector-curvature="0" />
    <path
       id="path1002"
       d="m 98.025646,119.1521 h 3.676764"
       style="fill:none;stroke:#4a99d9;stroke-width:0.1065724px;stroke-linecap:butt;stroke-linejoin:miter;stroke-miterlimit:4;stroke-dasharray:none;stroke-opacity:1"
       inkscape:connector-curvature="0" />
    <path
       id="path1004"
       d="m 101.70241,119.17886 -0.92186,0.97925 h -1.838384 l -0.91652,-0.97925"
       style="fill:none;stroke:#4a99d9;stroke-width:0.1065724px;stroke-linecap:butt;stroke-linejoin:miter;stroke-miterlimit:4;stroke-dasharray:none;stroke-opacity:1"
       inkscape:connector-curvature="0" />
    <path
       id="path1006"
       d="m 99.267216,120.31864 h 1.193614 c 0.10657,0 0.19715,0.0909 0.19715,0.20333 v 0.21405 c 0,0.10702 -0.0906,0.19798 -0.19715,0.19798 h -1.193614 c -0.11191,0 -0.20249,-0.0909 -0.20249,-0.19798 v -0.21405 c 0,-0.11237 0.0906,-0.20333 0.20249,-0.20333 z"
       style="fill:none;stroke:#4a99d9;stroke-width:0.1065724px;stroke-linecap:butt;stroke-linejoin:miter;stroke-miterlimit:4;stroke-dasharray:none;stroke-opacity:1"
       inkscape:connector-curvature="0" />
    <path
       id="path818-3"
       d="m 82.468326,89.653622 h -10.57626 c -0.62182,0 -1.1257,0.50601 -1.1257,1.13045 v 10.620748 c 0,0.62443 0.50388,1.13044 1.1257,1.13044 h 10.57626 c 0.62182,0 1.1257,-0.50601 1.1257,-1.13044 V 90.784072 c 0,-0.62444 -0.50388,-1.13045 -1.1257,-1.13045 z"
       style="fill:none;stroke:#4a99d9;stroke-width:0.13401243px;stroke-linecap:butt;stroke-linejoin:miter;stroke-miterlimit:4;stroke-dasharray:none;stroke-opacity:1"
       inkscape:connector-curvature="0" />
    <path
       id="path820-0-6"
       d="m 77.177516,91.532322 c -2.50871,0 -4.54034,2.04017 -4.54034,4.55943 0,2.52464 2.03163,4.564828 4.54034,4.564828 2.51408,0 4.5457,-2.040188 4.5457,-4.564828 0,-2.51926 -2.03162,-4.55943 -4.5457,-4.55943 z"
       style="fill:none;stroke:#4a99d9;stroke-width:0.13401243px;stroke-linecap:butt;stroke-linejoin:miter;stroke-miterlimit:4;stroke-dasharray:none;stroke-opacity:1"
       inkscape:connector-curvature="0" />
    <path
       id="path822-2-8"
       d="m 75.511146,95.790072 c -0.21694,0 -0.39443,0.17443 -0.39443,0.39244 0,0.21802 0.17749,0.39641 0.39443,0.39641 0.21693,0 0.39442,-0.17839 0.39442,-0.39641 0,-0.21801 -0.17749,-0.39244 -0.39442,-0.39244 z"
       style="fill:none;stroke:#4a99d9;stroke-width:0.11115075px;stroke-linecap:butt;stroke-linejoin:miter;stroke-miterlimit:4;stroke-dasharray:none;stroke-opacity:1"
       inkscape:connector-curvature="0" />
    <path
       id="path824-93"
       d="m 78.854016,95.727632 c -0.21795,0 -0.39232,0.17436 -0.39232,0.39231 0,0.21797 0.17437,0.39629 0.39232,0.39629 0.21796,0 0.39628,-0.17832 0.39628,-0.39629 0,-0.21795 -0.17832,-0.39231 -0.39628,-0.39231 z"
       style="fill:none;stroke:#4a99d9;stroke-width:0.11139914px;stroke-linecap:butt;stroke-linejoin:miter;stroke-miterlimit:4;stroke-dasharray:none;stroke-opacity:1"
       inkscape:connector-curvature="0" />
    <path
       id="path826-7"
       d="m 77.177516,98.615832 v 0 c 0.11793,0 0.21442,0.0969 0.21442,0.21532 v 0.554454 c 0,0.118427 -0.0965,0.215327 -0.21442,0.215327 v 0 c -0.11793,0 -0.20906,-0.0969 -0.20906,-0.215327 v -0.554454 c 0,-0.11843 0.0911,-0.21532 0.20906,-0.21532 z"
       style="fill:none;stroke:#4a99d9;stroke-width:0.111;stroke-linecap:butt;stroke-linejoin:miter;stroke-miterlimit:4;stroke-dasharray:none;stroke-opacity:1"
       inkscape:connector-curvature="0" />
    <path
       id="path828-1"
       d="m 77.177516,92.590662 v 0 c 0.11793,0 0.21442,0.0969 0.21442,0.21532 v 0.55445 c 0,0.11842 -0.0965,0.21532 -0.21442,0.21532 v 0 c -0.11793,0 -0.20906,-0.097 -0.20906,-0.21532 v -0.55445 c 0,-0.11843 0.0911,-0.21532 0.20906,-0.21532 z"
       style="fill:none;stroke:#4a99d9;stroke-width:0.111;stroke-linecap:butt;stroke-linejoin:miter;stroke-miterlimit:4;stroke-dasharray:none;stroke-opacity:1"
       inkscape:connector-curvature="0" />
    <path
       id="path822-2-6-50"
       d="m 77.133726,95.903362 c -0.16193,0 -0.29443,0.13018 -0.29443,0.29295 0,0.16273 0.13251,0.2959 0.29443,0.2959 0.16193,0 0.29442,-0.13311 0.29442,-0.2959 0,-0.16275 -0.13248,-0.29295 -0.29442,-0.29295 z"
       style="fill:none;stroke:#4a99d9;stroke-width:0.11114969px;stroke-linecap:butt;stroke-linejoin:miter;stroke-miterlimit:4;stroke-dasharray:none;stroke-opacity:1"
       inkscape:connector-curvature="0" />
    <path
       id="path820-0-3-9"
       d="m 77.177516,92.590662 c -1.92888,0 -3.49093,1.56863 -3.49093,3.50575 0,1.94105 1.56205,3.509771 3.49093,3.509771 1.933,0 3.49506,-1.568721 3.49506,-3.509771 0,-1.93712 -1.56206,-3.50575 -3.49506,-3.50575 z"
       style="fill:none;stroke:#4a99d9;stroke-width:0.03;stroke-linecap:butt;stroke-linejoin:miter;stroke-miterlimit:4;stroke-dasharray:none;stroke-opacity:1"
       inkscape:connector-curvature="0" />
    <path
       id="path2806"
       d="m 117.41567,118.49667 4.19955,2.67753 c 0.17207,0.11382 0.47319,0.10304 0.66139,-0.0163 l 4.16192,-2.63959"
       style="fill:none;stroke:#4a99d9;stroke-width:0.13450359;stroke-linecap:round;stroke-linejoin:miter;stroke-miterlimit:4;stroke-dasharray:none;stroke-opacity:1"
       inkscape:connector-curvature="0" />
    <path
       id="path2808"
       d="m 126.3107,111.09784 -4.06982,-2.67222 c -0.17272,-0.11383 -0.46419,-0.10836 -0.64232,0.0113 l -4.04283,2.64512 c -0.17812,0.11924 -0.18891,0.30896 -0.0162,0.41736 l 4.06982,2.67765 c 0.16733,0.10836 0.4588,0.10304 0.64232,-0.0163 l 4.03743,-2.63971 c 0.18352,-0.11925 0.18892,-0.30895 0.0216,-0.42278 z"
       style="fill:none;stroke:#4a99d9;stroke-width:0.14302808px;stroke-linecap:butt;stroke-linejoin:miter;stroke-miterlimit:4;stroke-dasharray:none;stroke-opacity:1"
       inkscape:connector-curvature="0" />
    <path
       id="path2810"
       d="m 117.4154,111.25977 v 7.23685"
       style="fill:none;stroke:#4a99d9;stroke-width:0.13494092px;stroke-linecap:butt;stroke-linejoin:miter;stroke-miterlimit:4;stroke-dasharray:none;stroke-opacity:1"
       inkscape:connector-curvature="0"
       sodipodi:nodetypes="cc" />
    <path
       id="path2812"
       d="m 126.43853,111.28842 v 7.22991"
       style="fill:none;stroke:#4a99d9;stroke-width:0.13716197px;stroke-linecap:round;stroke-linejoin:miter;stroke-miterlimit:4;stroke-dasharray:none;stroke-opacity:1"
       inkscape:connector-curvature="0" />
    <path
       id="path2814"
       d="m 121.96021,110.19807 c -0.75567,0 -1.371,0.49325 -1.371,1.10033 0,0.6125 0.61533,1.10575 1.371,1.10575 0.75567,0 1.3656,-0.49325 1.3656,-1.10575 0,-0.60708 -0.60993,-1.10033 -1.3656,-1.10033 z"
       style="fill:none;stroke:#4a99d9;stroke-width:0.13494092px;stroke-linecap:butt;stroke-linejoin:miter;stroke-miterlimit:4;stroke-dasharray:none;stroke-opacity:1"
       inkscape:connector-curvature="0" />
  </g>
</svg>
