<?xml version="1.0" encoding="UTF-8" standalone="no"?>
<!-- Created with Inkscape (http://www.inkscape.org/) -->

<svg
   xmlns:dc="http://purl.org/dc/elements/1.1/"
   xmlns:cc="http://creativecommons.org/ns#"
   xmlns:rdf="http://www.w3.org/1999/02/22-rdf-syntax-ns#"
   xmlns:svg="http://www.w3.org/2000/svg"
   xmlns="http://www.w3.org/2000/svg"
   xmlns:sodipodi="http://sodipodi.sourceforge.net/DTD/sodipodi-0.dtd"
   xmlns:inkscape="http://www.inkscape.org/namespaces/inkscape"
   width="33.267948mm"
   height="17mm"
   viewBox="0 0 33.26795 17"
   version="1.1"
   id="svg20953"
   inkscape:version="0.92.2 (5c3e80d, 2017-08-06)"
   sodipodi:docname="emiia29.svg"
   inkscape:export-filename="C:\Users\User1\Desktop\15 Владимир 3д макс\IoT &amp; IIoT\infografics\Соцсети\fog88.png"
   inkscape:export-xdpi="1182.2"
   inkscape:export-ydpi="1182.2">
  <defs
     id="defs20947">
    <pattern
       y="0"
       x="0"
       height="6"
       width="6"
       patternUnits="userSpaceOnUse"
       id="EMFhbasepattern" />
    <pattern
       y="0"
       x="0"
       height="6"
       width="6"
       patternUnits="userSpaceOnUse"
       id="EMFhbasepattern-8" />
  </defs>
  <sodipodi:namedview
     id="base"
     pagecolor="#ffffff"
     bordercolor="#666666"
     borderopacity="1.0"
     inkscape:pageopacity="0.0"
     inkscape:pageshadow="2"
     inkscape:zoom="2.1142299"
     inkscape:cx="78.380789"
     inkscape:cy="15.842913"
     inkscape:document-units="mm"
     inkscape:current-layer="layer1"
     showgrid="false"
     fit-margin-top="0"
     fit-margin-left="0"
     fit-margin-right="0"
     fit-margin-bottom="0"
     inkscape:window-width="1366"
     inkscape:window-height="745"
     inkscape:window-x="-8"
     inkscape:window-y="-8"
     inkscape:window-maximized="1" />
  <metadata
     id="metadata20950">
    <rdf:RDF>
      <cc:Work
         rdf:about="">
        <dc:format>image/svg+xml</dc:format>
        <dc:type
           rdf:resource="http://purl.org/dc/dcmitype/StillImage" />
        <dc:title></dc:title>
      </cc:Work>
    </rdf:RDF>
  </metadata>
  <g
     inkscape:label="Layer 1"
     inkscape:groupmode="layer"
     id="layer1"
     transform="translate(-45.28919,-133.1472)">
    <text
       xml:space="preserve"
       style="font-style:normal;font-weight:normal;font-size:4.23333311px;line-height:1.25;font-family:sans-serif;letter-spacing:0px;word-spacing:0px;fill:#000000;fill-opacity:1;stroke:none;stroke-width:0.26458332"
       x="70.045975"
       y="142.4696"
       id="text891"><tspan
         sodipodi:role="line"
         id="tspan889"
         x="70.045975"
         y="146.3318"
         style="stroke-width:0.26458332" /></text>
    <text
       xml:space="preserve"
       style="font-style:normal;font-weight:normal;font-size:6.3499999px;line-height:1.25;font-family:sans-serif;letter-spacing:0px;word-spacing:0px;fill:#000000;fill-opacity:1;stroke:none;stroke-width:0.26458332"
       x="69.878426"
       y="142.46696"
       id="text1433"><tspan
         sodipodi:role="line"
         id="tspan1431"
         x="69.878426"
         y="148.26027"
         style="stroke-width:0.26458332" /></text>
    <g
       aria-label="Роботы-пылесосы"
       style="font-style:normal;font-weight:normal;font-size:2.82222223px;line-height:1.25;font-family:sans-serif;letter-spacing:0px;word-spacing:0px;fill:#000000;fill-opacity:1;stroke:none;stroke-width:0.26458332"
       id="text1565">
      <path
         d="m 50.661327,148.3191 q 0,0.13643 -0.04823,0.25356 -0.04685,0.11576 -0.132292,0.2012 -0.106109,0.1061 -0.250803,0.15985 -0.144694,0.0524 -0.36518,0.0524 H 49.59197 v 0.76482 h -0.272852 v -2.0519 h 0.556728 q 0.184657,0 0.312814,0.0317 0.128158,0.0303 0.227376,0.0965 0.117134,0.0785 0.180523,0.19569 0.06477,0.11713 0.06477,0.29627 z m -0.283876,0.007 q 0,-0.10611 -0.03721,-0.18465 -0.03721,-0.0786 -0.112999,-0.12816 -0.06615,-0.0427 -0.151584,-0.0606 -0.08406,-0.0193 -0.213596,-0.0193 H 49.59197 v 0.81994 h 0.230132 q 0.165365,0 0.268717,-0.0289 0.103353,-0.0303 0.168121,-0.0951 0.06477,-0.0661 0.09095,-0.13918 0.02756,-0.073 0.02756,-0.16399 z"
         style="font-size:2.82222223px;stroke-width:0.26458332"
         id="path2178" />
      <path
         d="m 52.313595,148.98194 q 0,0.3762 -0.192925,0.59393 -0.192926,0.21773 -0.516765,0.21773 -0.326595,0 -0.51952,-0.21773 -0.191547,-0.21773 -0.191547,-0.59393 0,-0.3762 0.191547,-0.59393 0.192925,-0.21911 0.51952,-0.21911 0.323839,0 0.516765,0.21911 0.192925,0.21773 0.192925,0.59393 z m -0.267339,0 q 0,-0.29903 -0.117134,-0.44373 -0.117133,-0.14607 -0.325217,-0.14607 -0.210839,0 -0.327973,0.14607 -0.115755,0.1447 -0.115755,0.44373 0,0.28939 0.117133,0.43959 0.117134,0.14883 0.326595,0.14883 0.206706,0 0.323839,-0.14745 0.118512,-0.14883 0.118512,-0.44097 z"
         style="font-size:2.82222223px;stroke-width:0.26458332"
         id="path2180" />
      <path
         d="m 53.847352,148.43899 q 0.09646,0.0965 0.146072,0.23427 0.04961,0.13642 0.04961,0.32108 0,0.34451 -0.206706,0.57189 -0.206705,0.22737 -0.508496,0.22737 -0.148828,0 -0.274229,-0.0496 -0.125402,-0.051 -0.213596,-0.15571 -0.110243,-0.13092 -0.165365,-0.32935 -0.05374,-0.19982 -0.05374,-0.48645 0,-0.10335 0.0096,-0.20946 0.0096,-0.10749 0.0441,-0.25632 0.02756,-0.12816 0.07993,-0.24667 0.05374,-0.11851 0.12678,-0.19155 0.09922,-0.10059 0.260449,-0.16123 0.162609,-0.062 0.429948,-0.0854 0.108865,-0.01 0.202572,-0.0152 0.09371,-0.007 0.16812,-0.0124 v 0.2384 q -0.09095,0.006 -0.180523,0.011 -0.08819,0.006 -0.176389,0.0138 -0.176388,0.0152 -0.319704,0.0579 -0.141938,0.0427 -0.208084,0.11024 -0.07304,0.073 -0.110243,0.19155 -0.03583,0.11713 -0.04685,0.22324 0.103353,-0.0744 0.225999,-0.12402 0.124023,-0.051 0.263205,-0.051 0.129536,0 0.249425,0.0427 0.119889,0.0427 0.208084,0.13091 z m -0.06752,0.57051 q 0,-0.25494 -0.122646,-0.38034 -0.122645,-0.12678 -0.323839,-0.12678 -0.119889,0 -0.230132,0.0386 -0.110243,0.0372 -0.209462,0.10059 -0.0028,0.0345 -0.0055,0.0813 -0.0014,0.0455 -0.0014,0.0841 0,0.23978 0.03996,0.38861 0.03996,0.14882 0.112999,0.23702 0.06339,0.0744 0.137804,0.10611 0.07441,0.0303 0.159853,0.0303 0.208083,0 0.325217,-0.1502 0.117133,-0.15021 0.117133,-0.40928 z"
         style="font-size:2.82222223px;stroke-width:0.26458332"
         id="path2182" />
      <path
         d="m 55.764203,148.98194 q 0,0.3762 -0.192926,0.59393 -0.192925,0.21773 -0.516764,0.21773 -0.326595,0 -0.51952,-0.21773 -0.191548,-0.21773 -0.191548,-0.59393 0,-0.3762 0.191548,-0.59393 0.192925,-0.21911 0.51952,-0.21911 0.323839,0 0.516764,0.21911 0.192926,0.21773 0.192926,0.59393 z m -0.26734,0 q 0,-0.29903 -0.117133,-0.44373 -0.117133,-0.14607 -0.325217,-0.14607 -0.21084,0 -0.327973,0.14607 -0.115755,0.1447 -0.115755,0.44373 0,0.28939 0.117133,0.43959 0.117133,0.14883 0.326595,0.14883 0.206706,0 0.323839,-0.14745 0.118511,-0.14883 0.118511,-0.44097 z"
         style="font-size:2.82222223px;stroke-width:0.26458332"
         id="path2184" />
      <path
         d="m 57.297959,148.43899 h -0.556727 v 1.3119 H 56.48216 v -1.3119 h -0.556727 v -0.22737 h 1.372526 z"
         style="font-size:2.82222223px;stroke-width:0.26458332"
         id="path2186" />
      <path
         d="m 58.514767,149.27822 q 0,-0.0703 -0.0248,-0.12265 -0.02343,-0.0537 -0.07855,-0.0868 -0.05788,-0.0344 -0.132291,-0.0413 -0.07304,-0.007 -0.21084,-0.007 h -0.242535 v 0.52366 h 0.237023 q 0.137804,0 0.213596,-0.011 0.07579,-0.0124 0.130913,-0.0455 0.0565,-0.0358 0.08131,-0.0841 0.02618,-0.0496 0.02618,-0.1254 z m 0.26734,-0.004 q 0,0.11162 -0.04548,0.20258 -0.0441,0.0909 -0.121267,0.14745 -0.09095,0.0689 -0.194303,0.0978 -0.103353,0.0289 -0.265962,0.0289 h -0.588422 v -1.53927 h 0.259071 v 0.59944 h 0.336241 q 0.173633,0 0.268718,0.0179 0.09646,0.0179 0.191547,0.0882 0.07993,0.0593 0.11989,0.15159 0.03996,0.0923 0.03996,0.20532 z m 0.257693,-1.06246 h 0.259071 v 1.53927 H 59.0398 Z"
         style="font-size:2.82222223px;stroke-width:0.26458332"
         id="path2188" />
      <path
         d="m 60.625921,148.97781 h -0.859896 v -0.24943 h 0.859896 z"
         style="font-size:2.82222223px;stroke-width:0.26458332"
         id="path2190" />
      <path
         d="m 62.38292,149.75089 h -0.259071 v -1.31603 h -0.770323 v 1.31603 h -0.259071 v -1.53927 h 1.288465 z"
         style="font-size:2.82222223px;stroke-width:0.26458332"
         id="path2192" />
      <path
         d="m 63.839507,149.27822 q 0,-0.0703 -0.02481,-0.12265 -0.02343,-0.0537 -0.07855,-0.0868 -0.05788,-0.0344 -0.132292,-0.0413 -0.07304,-0.007 -0.21084,-0.007 h -0.242534 v 0.52366 h 0.237022 q 0.137804,0 0.213596,-0.011 0.07579,-0.0124 0.130914,-0.0455 0.0565,-0.0358 0.0813,-0.0841 0.02618,-0.0496 0.02618,-0.1254 z m 0.267339,-0.004 q 0,0.11162 -0.04548,0.20258 -0.0441,0.0909 -0.121267,0.14745 -0.09095,0.0689 -0.194304,0.0978 -0.103353,0.0289 -0.265961,0.0289 h -0.588423 v -1.53927 h 0.259072 v 0.59944 h 0.336241 q 0.173633,0 0.268717,0.0179 0.09646,0.0179 0.191548,0.0882 0.07993,0.0593 0.119889,0.15159 0.03996,0.0923 0.03996,0.20532 z m 0.257693,-1.06246 h 0.259071 v 1.53927 h -0.259071 z"
         style="font-size:2.82222223px;stroke-width:0.26458332"
         id="path2194" />
      <path
         d="m 66.376474,149.75089 h -0.259071 v -1.32154 h -0.574642 q -0.0041,0.11437 -0.0083,0.22048 -0.0041,0.10611 -0.0083,0.19155 -0.0096,0.23013 -0.03169,0.36794 -0.02205,0.13642 -0.05788,0.22737 -0.03307,0.0854 -0.07441,0.13918 -0.03996,0.0524 -0.08682,0.0951 -0.04685,0.0413 -0.104731,0.062 -0.0565,0.0207 -0.124024,0.0207 -0.02343,0 -0.0689,-0.001 -0.0441,-0.001 -0.05788,-0.001 v -0.226 h 0.01378 q 0.01103,0 0.03169,0.001 0.02067,0.001 0.03445,0.001 0.03307,0 0.06752,-0.01 0.03583,-0.01 0.06063,-0.0358 0.07028,-0.0689 0.112999,-0.23289 0.04272,-0.16399 0.0565,-0.47405 0.0055,-0.113 0.0096,-0.26734 0.0055,-0.15571 0.0096,-0.29627 h 1.059711 z"
         style="font-size:2.82222223px;stroke-width:0.26458332"
         id="path2196" />
      <path
         d="m 68.176192,149.00812 h -1.134125 q 0,0.14194 0.04272,0.24805 0.04272,0.10473 0.117133,0.17225 0.07166,0.0662 0.169499,0.0992 0.09922,0.0331 0.21773,0.0331 0.157096,0 0.315571,-0.062 0.159852,-0.0634 0.227376,-0.12402 h 0.01378 v 0.2825 q -0.130914,0.0551 -0.26734,0.0923 -0.136426,0.0372 -0.286632,0.0372 -0.383094,0 -0.598068,-0.2067 -0.214974,-0.20809 -0.214974,-0.5898 0,-0.37758 0.205327,-0.59945 0.206706,-0.22186 0.542947,-0.22186 0.311437,0 0.479558,0.1819 0.169498,0.1819 0.169498,0.51676 z m -0.252181,-0.19844 q -0.0014,-0.20394 -0.103352,-0.31557 -0.100597,-0.11162 -0.307303,-0.11162 -0.208084,0 -0.332107,0.12265 -0.122646,0.12264 -0.139182,0.30454 z"
         style="font-size:2.82222223px;stroke-width:0.26458332"
         id="path2198" />
      <path
         d="m 69.720972,149.65442 q -0.158474,0.0744 -0.272851,0.10198 -0.112999,0.0289 -0.225998,0.0289 -0.168121,0 -0.308681,-0.0482 -0.14056,-0.0496 -0.241157,-0.14882 -0.100596,-0.0992 -0.157096,-0.25081 -0.05512,-0.15158 -0.05512,-0.35415 0,-0.36794 0.20395,-0.58705 0.20395,-0.22048 0.558106,-0.22048 0.133669,0 0.261827,0.0372 0.129535,0.0372 0.237022,0.091 v 0.28801 h -0.01516 q -0.128158,-0.0978 -0.253559,-0.14469 -0.124024,-0.0469 -0.241157,-0.0469 -0.230132,0 -0.356912,0.15434 -0.125401,0.15434 -0.125401,0.42857 0,0.27423 0.125401,0.42581 0.125402,0.15159 0.356912,0.15159 0.0813,0 0.161231,-0.0207 0.0813,-0.0207 0.14745,-0.0538 0.05236,-0.0262 0.107487,-0.062 0.0565,-0.0372 0.07855,-0.0551 h 0.01516 z"
         style="font-size:2.82222223px;stroke-width:0.26458332"
         id="path2200" />
      <path
         d="m 71.391155,148.98194 q 0,0.3762 -0.192925,0.59393 -0.192926,0.21773 -0.516765,0.21773 -0.326595,0 -0.51952,-0.21773 -0.191547,-0.21773 -0.191547,-0.59393 0,-0.3762 0.191547,-0.59393 0.192925,-0.21911 0.51952,-0.21911 0.323839,0 0.516765,0.21911 0.192925,0.21773 0.192925,0.59393 z m -0.267339,0 q 0,-0.29903 -0.117134,-0.44373 -0.117133,-0.14607 -0.325217,-0.14607 -0.21084,0 -0.327973,0.14607 -0.115755,0.1447 -0.115755,0.44373 0,0.28939 0.117133,0.43959 0.117134,0.14883 0.326595,0.14883 0.206706,0 0.323839,-0.14745 0.118512,-0.14883 0.118512,-0.44097 z"
         style="font-size:2.82222223px;stroke-width:0.26458332"
         id="path2202" />
      <path
         d="m 72.945582,149.65442 q -0.158475,0.0744 -0.272852,0.10198 -0.112999,0.0289 -0.225998,0.0289 -0.168121,0 -0.308681,-0.0482 -0.14056,-0.0496 -0.241156,-0.14882 -0.100597,-0.0992 -0.157097,-0.25081 -0.05512,-0.15158 -0.05512,-0.35415 0,-0.36794 0.203949,-0.58705 0.20395,-0.22048 0.558106,-0.22048 0.13367,0 0.261827,0.0372 0.129536,0.0372 0.237023,0.091 v 0.28801 h -0.01516 q -0.128157,-0.0978 -0.253559,-0.14469 -0.124023,-0.0469 -0.241156,-0.0469 -0.230133,0 -0.356912,0.15434 -0.125402,0.15434 -0.125402,0.42857 0,0.27423 0.125402,0.42581 0.125401,0.15159 0.356912,0.15159 0.0813,0 0.16123,-0.0207 0.0813,-0.0207 0.14745,-0.0538 0.05237,-0.0262 0.107487,-0.062 0.0565,-0.0372 0.07855,-0.0551 h 0.01516 z"
         style="font-size:2.82222223px;stroke-width:0.26458332"
         id="path2204" />
      <path
         d="m 74.251962,149.27822 q 0,-0.0703 -0.0248,-0.12265 -0.02343,-0.0537 -0.07855,-0.0868 -0.05788,-0.0344 -0.132291,-0.0413 -0.07304,-0.007 -0.21084,-0.007 h -0.242535 v 0.52366 h 0.237023 q 0.137804,0 0.213596,-0.011 0.07579,-0.0124 0.130913,-0.0455 0.0565,-0.0358 0.08131,-0.0841 0.02618,-0.0496 0.02618,-0.1254 z m 0.26734,-0.004 q 0,0.11162 -0.04548,0.20258 -0.0441,0.0909 -0.121267,0.14745 -0.09095,0.0689 -0.194303,0.0978 -0.103353,0.0289 -0.265962,0.0289 h -0.588422 v -1.53927 h 0.259071 v 0.59944 h 0.336242 q 0.173632,0 0.268717,0.0179 0.09646,0.0179 0.191547,0.0882 0.07993,0.0593 0.11989,0.15159 0.03996,0.0923 0.03996,0.20532 z m 0.257693,-1.06246 h 0.259071 v 1.53927 h -0.259071 z"
         style="font-size:2.82222223px;stroke-width:0.26458332"
         id="path2206" />
    </g>
    <path
       id="path2150"
       d="m 62.151891,133.56803 c -3.447476,0 -6.247243,2.79581 -6.247243,6.2473 0,3.44623 2.799767,6.24729 6.247243,6.24729 3.452698,0 6.252465,-2.80106 6.252465,-6.24729 0,-3.45149 -2.799767,-6.2473 -6.252465,-6.2473 z"
       style="fill:none;stroke:#4a99d9;stroke-width:0.13058618px;stroke-linecap:butt;stroke-linejoin:miter;stroke-miterlimit:4;stroke-dasharray:none;stroke-opacity:1"
       inkscape:connector-curvature="0" />
    <path
       id="path2152"
       d="m 62.151891,133.56803 c -1.723738,0 -3.123622,1.39528 -3.123622,3.12103 0,1.72574 1.399884,3.12627 3.123622,3.12627 1.728961,0 3.128845,-1.40053 3.128845,-3.12627 0,-1.72575 -1.399884,-3.12103 -3.128845,-3.12103 z"
       style="fill:none;stroke:#4a99d9;stroke-width:0.13058618px;stroke-linecap:butt;stroke-linejoin:miter;stroke-miterlimit:4;stroke-dasharray:none;stroke-opacity:1"
       inkscape:connector-curvature="0" />
    <path
       id="path2154"
       d="M 56.672494,142.81046 H 67.63651"
       style="fill:none;stroke:#4a99d9;stroke-width:0.13058618px;stroke-linecap:butt;stroke-linejoin:miter;stroke-miterlimit:4;stroke-dasharray:none;stroke-opacity:1"
       inkscape:connector-curvature="0" />
    <path
       id="path2156"
       d="m 57.779865,133.6572 v 1.67854"
       style="fill:none;stroke:#4a99d9;stroke-width:0.13058618px;stroke-linecap:round;stroke-linejoin:miter;stroke-miterlimit:4;stroke-dasharray:none;stroke-opacity:1"
       inkscape:connector-curvature="0" />
    <path
       id="path2158"
       d="m 66.52914,133.6572 v 1.67854"
       style="fill:none;stroke:#4a99d9;stroke-width:0.13058618px;stroke-linecap:round;stroke-linejoin:miter;stroke-miterlimit:4;stroke-dasharray:none;stroke-opacity:1"
       inkscape:connector-curvature="0" />
    <path
       id="path2160"
       d="m 56.108362,135.29901 h 1.671503"
       style="fill:none;stroke:#4a99d9;stroke-width:0.13058618px;stroke-linecap:round;stroke-linejoin:miter;stroke-miterlimit:4;stroke-dasharray:none;stroke-opacity:1"
       inkscape:connector-curvature="0" />
    <path
       id="path2162"
       d="m 66.523916,135.29901 h 1.671502"
       style="fill:none;stroke:#4a99d9;stroke-width:0.13058618px;stroke-linecap:round;stroke-linejoin:miter;stroke-miterlimit:4;stroke-dasharray:none;stroke-opacity:1"
       inkscape:connector-curvature="0" />
  </g>
</svg>
