<?xml version="1.0" encoding="UTF-8" standalone="no"?>
<!-- Created with Inkscape (http://www.inkscape.org/) -->

<svg
   xmlns:dc="http://purl.org/dc/elements/1.1/"
   xmlns:cc="http://creativecommons.org/ns#"
   xmlns:rdf="http://www.w3.org/1999/02/22-rdf-syntax-ns#"
   xmlns:svg="http://www.w3.org/2000/svg"
   xmlns="http://www.w3.org/2000/svg"
   xmlns:sodipodi="http://sodipodi.sourceforge.net/DTD/sodipodi-0.dtd"
   xmlns:inkscape="http://www.inkscape.org/namespaces/inkscape"
   width="33.267948mm"
   height="17mm"
   viewBox="0 0 33.26795 17"
   version="1.1"
   id="svg20953"
   inkscape:version="0.92.2 (5c3e80d, 2017-08-06)"
   sodipodi:docname="emiia32.svg"
   inkscape:export-filename="C:\Users\User1\Desktop\15 Владимир 3д макс\IoT &amp; IIoT\infografics\Соцсети\fog88.png"
   inkscape:export-xdpi="1182.2"
   inkscape:export-ydpi="1182.2">
  <defs
     id="defs20947">
    <pattern
       y="0"
       x="0"
       height="6"
       width="6"
       patternUnits="userSpaceOnUse"
       id="EMFhbasepattern" />
    <pattern
       y="0"
       x="0"
       height="6"
       width="6"
       patternUnits="userSpaceOnUse"
       id="EMFhbasepattern-8" />
    <pattern
       y="0"
       x="0"
       height="6"
       width="6"
       patternUnits="userSpaceOnUse"
       id="EMFhbasepattern-6" />
    <pattern
       y="0"
       x="0"
       height="6"
       width="6"
       patternUnits="userSpaceOnUse"
       id="EMFhbasepattern-2" />
  </defs>
  <sodipodi:namedview
     id="base"
     pagecolor="#ffffff"
     bordercolor="#666666"
     borderopacity="1.0"
     inkscape:pageopacity="0.0"
     inkscape:pageshadow="2"
     inkscape:zoom="5.9799451"
     inkscape:cx="78.380789"
     inkscape:cy="17.825337"
     inkscape:document-units="mm"
     inkscape:current-layer="layer1"
     showgrid="false"
     fit-margin-top="0"
     fit-margin-left="0"
     fit-margin-right="0"
     fit-margin-bottom="0"
     inkscape:window-width="1366"
     inkscape:window-height="745"
     inkscape:window-x="-8"
     inkscape:window-y="-8"
     inkscape:window-maximized="1" />
  <metadata
     id="metadata20950">
    <rdf:RDF>
      <cc:Work
         rdf:about="">
        <dc:format>image/svg+xml</dc:format>
        <dc:type
           rdf:resource="http://purl.org/dc/dcmitype/StillImage" />
        <dc:title></dc:title>
      </cc:Work>
    </rdf:RDF>
  </metadata>
  <g
     inkscape:label="Layer 1"
     inkscape:groupmode="layer"
     id="layer1"
     transform="translate(-45.28919,-133.1472)">
    <text
       xml:space="preserve"
       style="font-style:normal;font-weight:normal;font-size:4.23333311px;line-height:1.25;font-family:sans-serif;letter-spacing:0px;word-spacing:0px;fill:#000000;fill-opacity:1;stroke:none;stroke-width:0.26458332"
       x="70.045975"
       y="142.4696"
       id="text891"><tspan
         sodipodi:role="line"
         id="tspan889"
         x="70.045975"
         y="146.3318"
         style="stroke-width:0.26458332" /></text>
    <text
       xml:space="preserve"
       style="font-style:normal;font-weight:normal;font-size:6.3499999px;line-height:1.25;font-family:sans-serif;letter-spacing:0px;word-spacing:0px;fill:#000000;fill-opacity:1;stroke:none;stroke-width:0.26458332"
       x="69.878426"
       y="142.46696"
       id="text1433"><tspan
         sodipodi:role="line"
         id="tspan1431"
         x="69.878426"
         y="148.26027"
         style="stroke-width:0.26458332" /></text>
    <path
       id="path2919"
       d="m 55.18616,133.79328 h 11.112522 c 0.314365,0 0.56885,0.25555 0.56885,0.56623 v 7.57647 c 0,0.31068 -0.254485,0.56623 -0.56885,0.56623 H 55.18616 c -0.309375,0 -0.563861,-0.25555 -0.563861,-0.56623 v -7.57647 c 0,-0.31068 0.254486,-0.56623 0.563861,-0.56623 z"
       style="fill:none;stroke:#4a99d9;stroke-width:0.12973757px;stroke-linecap:butt;stroke-linejoin:miter;stroke-miterlimit:4;stroke-dasharray:none;stroke-opacity:1"
       inkscape:connector-curvature="0" />
    <path
       id="path2921"
       d="m 64.871569,137.55144 h 3.991926 c 0.164667,0 0.299394,0.13529 0.299394,0.30066 v 7.38605 c 0,0.16537 -0.134732,0.30066 -0.299394,0.30066 h -3.991926 c -0.164668,0 -0.299395,-0.13529 -0.299395,-0.30066 v -7.38605 c 0,-0.16536 0.134732,-0.30066 0.299395,-0.30066 z"
       style="fill:#ffffff;stroke:#4a99d9;stroke-width:0.13222393px;stroke-linecap:butt;stroke-linejoin:miter;stroke-miterlimit:4;stroke-dasharray:none;stroke-opacity:1;fill-opacity:1"
       inkscape:connector-curvature="0" />
    <path
       id="path2923"
       d="m 66.867532,139.185 c -0.284425,0 -0.51396,0.2305 -0.51396,0.51111 0,0.28562 0.229535,0.51112 0.51396,0.51112 0.279436,0 0.508971,-0.2255 0.508971,-0.51112 0,-0.28061 -0.229535,-0.51111 -0.508971,-0.51111 z"
       style="fill:none;stroke:#4a99d9;stroke-width:0.12973757px;stroke-linecap:butt;stroke-linejoin:miter;stroke-miterlimit:4;stroke-dasharray:none;stroke-opacity:1"
       inkscape:connector-curvature="0" />
    <path
       id="path2925"
       d="m 66.867532,142.36191 c -0.563861,0 -1.022931,0.45599 -1.022931,1.02222 0,0.56624 0.45907,1.02723 1.022931,1.02723 0.56386,0 1.017941,-0.46099 1.017941,-1.02723 0,-0.56623 -0.454081,-1.02222 -1.017941,-1.02222 z"
       style="fill:none;stroke:#4a99d9;stroke-width:0.12973757px;stroke-linecap:butt;stroke-linejoin:miter;stroke-miterlimit:4;stroke-dasharray:none;stroke-opacity:1"
       inkscape:connector-curvature="0" />
    <path
       id="path2927"
       d="m 60.744915,142.53889 v 1.46658"
       style="fill:none;stroke:#4a99d9;stroke-width:0.12973757px;stroke-linecap:butt;stroke-linejoin:miter;stroke-miterlimit:4;stroke-dasharray:none;stroke-opacity:1"
       inkscape:connector-curvature="0"
       sodipodi:nodetypes="cc" />
    <path
       id="path2929"
       d="m 58.958528,144.59677 c 0,-0.34074 0.798386,-0.61634 1.786387,-0.61634 0.983012,0 1.786388,0.2756 1.786388,0.61634"
       style="fill:none;stroke:#4a99d9;stroke-width:0.12973757px;stroke-linecap:butt;stroke-linejoin:miter;stroke-miterlimit:4;stroke-dasharray:none;stroke-opacity:1"
       inkscape:connector-curvature="0" />
    <g
       aria-label="Бытовая техника"
       style="font-style:normal;font-weight:normal;font-size:2.82222223px;line-height:1.25;font-family:sans-serif;letter-spacing:0px;word-spacing:0px;fill:#000000;fill-opacity:1;stroke:none;stroke-width:0.26458332"
       id="text2946">
      <path
         d="m 51.243468,149.13648 q 0,0.14883 -0.05926,0.2701 -0.05788,0.12127 -0.155718,0.19706 -0.115755,0.0909 -0.248047,0.12953 -0.132292,0.0386 -0.341753,0.0386 h -0.744141 v -2.0519 h 1.373904 v 0.24253 h -1.101052 v 0.56224 h 0.479557 q 0.209462,0 0.341753,0.0248 0.132292,0.0234 0.249425,0.11438 0.104731,0.0813 0.15434,0.20119 0.05099,0.11989 0.05099,0.27147 z m -0.285254,0.006 q 0,-0.10336 -0.03445,-0.18191 -0.03445,-0.0785 -0.107487,-0.12677 -0.07579,-0.051 -0.175011,-0.062 -0.09922,-0.011 -0.279742,-0.011 h -0.394118 v 0.77859 h 0.387228 q 0.183279,0 0.28112,-0.0179 0.09922,-0.0179 0.173633,-0.0689 0.07717,-0.0537 0.112999,-0.1254 0.03583,-0.073 0.03583,-0.18465 z"
         style="font-size:2.82222223px;stroke-width:0.26458332"
         id="path2948" />
      <path
         d="m 52.556738,149.29909 q 0,-0.0703 -0.0248,-0.12264 -0.02343,-0.0537 -0.07855,-0.0868 -0.05788,-0.0344 -0.132291,-0.0413 -0.07304,-0.007 -0.21084,-0.007 h -0.242535 v 0.52365 h 0.237023 q 0.137804,0 0.213596,-0.011 0.07579,-0.0124 0.130913,-0.0455 0.0565,-0.0358 0.08131,-0.0841 0.02618,-0.0496 0.02618,-0.1254 z m 0.26734,-0.004 q 0,0.11162 -0.04548,0.20257 -0.0441,0.0909 -0.121267,0.14745 -0.09095,0.0689 -0.194303,0.0978 -0.103353,0.0289 -0.265962,0.0289 h -0.588422 v -1.53927 h 0.259071 v 0.59945 h 0.336241 q 0.173633,0 0.268718,0.0179 0.09646,0.0179 0.191547,0.0882 0.07993,0.0592 0.11989,0.15158 0.03996,0.0923 0.03996,0.20533 z m 0.257693,-1.06247 h 0.259071 v 1.53927 h -0.259071 z"
         style="font-size:2.82222223px;stroke-width:0.26458332"
         id="path2950" />
      <path
         d="m 54.983463,148.45987 h -0.556727 v 1.31189 h -0.259071 v -1.31189 h -0.556728 v -0.22738 h 1.372526 z"
         style="font-size:2.82222223px;stroke-width:0.26458332"
         id="path2952" />
      <path
         d="m 56.564073,149.00281 q 0,0.37621 -0.192925,0.59394 -0.192925,0.21773 -0.516764,0.21773 -0.326595,0 -0.519521,-0.21773 -0.191547,-0.21773 -0.191547,-0.59394 0,-0.3762 0.191547,-0.59393 0.192926,-0.21911 0.519521,-0.21911 0.323839,0 0.516764,0.21911 0.192925,0.21773 0.192925,0.59393 z m -0.267339,0 q 0,-0.29903 -0.117133,-0.44372 -0.117134,-0.14608 -0.325217,-0.14608 -0.21084,0 -0.327973,0.14608 -0.115756,0.14469 -0.115756,0.44372 0,0.28939 0.117134,0.4396 0.117133,0.14883 0.326595,0.14883 0.206705,0 0.323839,-0.14745 0.118511,-0.14883 0.118511,-0.44098 z"
         style="font-size:2.82222223px;stroke-width:0.26458332"
         id="path2954" />
      <path
         d="m 58.237011,149.30598 q 0,0.11162 -0.04548,0.19844 -0.0441,0.0868 -0.122645,0.14469 -0.08819,0.0648 -0.192926,0.0937 -0.103353,0.0289 -0.272851,0.0289 H 56.96646 v -1.53927 h 0.595313 q 0.172254,0 0.259071,0.0124 0.08819,0.011 0.165364,0.051 0.08682,0.0455 0.12678,0.11851 0.04134,0.073 0.04134,0.17226 0,0.11437 -0.06477,0.19843 -0.06477,0.0841 -0.166742,0.13092 v 0.0138 q 0.136425,0.0331 0.22462,0.12816 0.08957,0.0937 0.08957,0.24804 z m -0.348643,-0.67937 q 0,-0.0496 -0.02205,-0.0896 -0.02067,-0.04 -0.06477,-0.062 -0.05788,-0.0289 -0.130913,-0.0317 -0.07166,-0.004 -0.177767,-0.004 h -0.270096 v 0.42168 h 0.323839 q 0.101975,0 0.150206,-0.007 0.04961,-0.008 0.09922,-0.0386 0.05237,-0.0331 0.07166,-0.0772 0.02067,-0.0455 0.02067,-0.11162 z m 0.0813,0.68075 q 0,-0.0758 -0.02481,-0.12265 -0.0248,-0.0482 -0.108865,-0.0882 -0.05237,-0.0248 -0.112999,-0.0289 -0.06063,-0.006 -0.168121,-0.006 h -0.332107 v 0.50298 h 0.245291 q 0.15434,0 0.237023,-0.01 0.08406,-0.011 0.144694,-0.0455 0.06063,-0.0344 0.08957,-0.0841 0.03032,-0.0496 0.03032,-0.11851 z"
         style="font-size:2.82222223px;stroke-width:0.26458332"
         id="path2956" />
      <path
         d="m 59.843804,149.77176 h -0.257693 v -0.16399 q -0.03445,0.0234 -0.09371,0.0662 -0.05788,0.0413 -0.112999,0.0661 -0.06477,0.0317 -0.148828,0.0524 -0.08406,0.0221 -0.197059,0.0221 -0.208084,0 -0.352778,-0.13781 -0.144694,-0.1378 -0.144694,-0.3514 0,-0.17501 0.07441,-0.28249 0.07579,-0.10887 0.214974,-0.17088 0.14056,-0.062 0.337619,-0.0841 0.19706,-0.022 0.423058,-0.0331 v -0.04 q 0,-0.0882 -0.03169,-0.14607 -0.03032,-0.0579 -0.08819,-0.0909 -0.05512,-0.0317 -0.132292,-0.0427 -0.07717,-0.011 -0.161231,-0.011 -0.101974,0 -0.227376,0.0276 -0.125401,0.0262 -0.259071,0.0772 h -0.01378 v -0.26321 q 0.07579,-0.0207 0.219108,-0.0455 0.143316,-0.0248 0.282497,-0.0248 0.162609,0 0.282498,0.0276 0.121268,0.0262 0.209462,0.091 0.08682,0.0634 0.132292,0.16399 0.04547,0.1006 0.04547,0.24943 z m -0.257693,-0.37896 v -0.42857 q -0.118511,0.007 -0.279742,0.0207 -0.159852,0.0138 -0.253559,0.04 -0.111621,0.0317 -0.180523,0.0992 -0.0689,0.0662 -0.0689,0.18328 0,0.13229 0.07993,0.19982 0.07993,0.0661 0.243913,0.0661 0.136426,0 0.249425,-0.0524 0.112999,-0.0538 0.209462,-0.12816 z"
         style="font-size:2.82222223px;stroke-width:0.26458332"
         id="path2958" />
      <path
         d="m 61.527767,149.77176 h -0.259071 v -0.61047 h -0.304547 l -0.476801,0.61047 h -0.304546 l 0.518142,-0.63528 q -0.199815,-0.0551 -0.292144,-0.16812 -0.09233,-0.11437 -0.09233,-0.29903 0,-0.12265 0.05512,-0.20809 0.05512,-0.0854 0.139182,-0.13918 0.08268,-0.0524 0.190169,-0.0703 0.107487,-0.0193 0.234267,-0.0193 h 0.592556 z m -0.259071,-0.81442 v -0.51814 h -0.326595 q -0.106109,0 -0.152962,0.007 -0.04685,0.007 -0.101975,0.0372 -0.05374,0.0303 -0.07993,0.0827 -0.0248,0.051 -0.0248,0.11162 0,0.0758 0.01516,0.12264 0.01654,0.0469 0.06615,0.0882 0.05099,0.04 0.124024,0.0551 0.07304,0.0138 0.162608,0.0138 z"
         style="font-size:2.82222223px;stroke-width:0.26458332"
         id="path2960" />
      <path
         d="M 64.161197,148.45987 H 63.60447 v 1.31189 h -0.259071 v -1.31189 h -0.556728 v -0.22738 h 1.372526 z"
         style="font-size:2.82222223px;stroke-width:0.26458332"
         id="path2962" />
      <path
         d="m 65.718381,149.029 h -1.134125 q 0,0.14193 0.04272,0.24804 0.04272,0.10473 0.117133,0.17226 0.07166,0.0661 0.169499,0.0992 0.09922,0.0331 0.21773,0.0331 0.157096,0 0.315571,-0.062 0.159852,-0.0634 0.227376,-0.12403 h 0.01378 v 0.2825 q -0.130913,0.0551 -0.267339,0.0923 -0.136426,0.0372 -0.286632,0.0372 -0.383095,0 -0.598069,-0.20671 -0.214974,-0.20808 -0.214974,-0.5898 0,-0.37758 0.205328,-0.59944 0.206706,-0.22187 0.542947,-0.22187 0.311437,0 0.479557,0.1819 0.169499,0.1819 0.169499,0.51677 z M 65.4662,148.83056 q -0.0014,-0.20395 -0.103353,-0.31557 -0.100597,-0.11162 -0.307302,-0.11162 -0.208084,0 -0.332108,0.12264 -0.122645,0.12265 -0.139181,0.30455 z"
         style="font-size:2.82222223px;stroke-width:0.26458332"
         id="path2964" />
      <path
         d="m 67.443684,149.77176 h -0.326595 l -0.436838,-0.59118 -0.439594,0.59118 h -0.301791 l 0.600825,-0.76757 -0.595313,-0.7717 h 0.326596 l 0.434082,0.58153 0.43546,-0.58153 h 0.303168 l -0.604959,0.75792 z"
         style="font-size:2.82222223px;stroke-width:0.26458332"
         id="path2966" />
      <path
         d="m 69.06977,149.77176 h -0.259071 v -0.69315 h -0.770324 v 0.69315 h -0.259071 v -1.53927 h 0.259071 v 0.62287 h 0.770324 v -0.62287 h 0.259071 z"
         style="font-size:2.82222223px;stroke-width:0.26458332"
         id="path2968" />
      <path
         d="m 70.874999,149.77176 h -0.256315 v -1.15618 l -0.806152,1.15618 h -0.234267 v -1.53927 h 0.256315 v 1.13964 l 0.797884,-1.13964 h 0.242535 z"
         style="font-size:2.82222223px;stroke-width:0.26458332"
         id="path2970" />
      <path
         d="m 72.775315,149.77176 h -0.338998 l -0.639409,-0.70556 h -0.14056 v 0.70556 h -0.259071 v -1.53927 h 0.259071 v 0.66421 q 0.128157,0 0.206706,-0.0455 0.07855,-0.0468 0.133669,-0.14883 0.01929,-0.0372 0.03721,-0.0786 0.01929,-0.0427 0.03721,-0.0813 0.07166,-0.15572 0.179145,-0.23289 0.107487,-0.0772 0.308681,-0.0772 h 0.118511 v 0.22324 h -0.114377 q -0.108865,0 -0.170877,0.0469 -0.06063,0.0455 -0.110243,0.16123 -0.05512,0.12953 -0.117133,0.1943 -0.06063,0.0634 -0.129536,0.0965 z"
         style="font-size:2.82222223px;stroke-width:0.26458332"
         id="path2972" />
      <path
         d="m 74.252571,149.77176 h -0.257693 v -0.16399 q -0.03445,0.0234 -0.09371,0.0662 -0.05788,0.0413 -0.112999,0.0661 -0.06477,0.0317 -0.148828,0.0524 -0.08406,0.0221 -0.19706,0.0221 -0.208083,0 -0.352778,-0.13781 -0.144694,-0.1378 -0.144694,-0.3514 0,-0.17501 0.07442,-0.28249 0.07579,-0.10887 0.214974,-0.17088 0.140559,-0.062 0.337619,-0.0841 0.197059,-0.022 0.423058,-0.0331 v -0.04 q 0,-0.0882 -0.03169,-0.14607 -0.03032,-0.0579 -0.08819,-0.0909 -0.05512,-0.0317 -0.132291,-0.0427 -0.07717,-0.011 -0.161231,-0.011 -0.101975,0 -0.227376,0.0276 -0.125402,0.0262 -0.259071,0.0772 h -0.01378 v -0.26321 q 0.07579,-0.0207 0.219108,-0.0455 0.143316,-0.0248 0.282498,-0.0248 0.162609,0 0.282498,0.0276 0.121267,0.0262 0.209462,0.091 0.08682,0.0634 0.132291,0.16399 0.04548,0.1006 0.04548,0.24943 z m -0.257693,-0.37896 v -0.42857 q -0.118512,0.007 -0.279742,0.0207 -0.159853,0.0138 -0.253559,0.04 -0.111621,0.0317 -0.180523,0.0992 -0.0689,0.0662 -0.0689,0.18328 0,0.13229 0.07993,0.19982 0.07993,0.0661 0.243913,0.0661 0.136426,0 0.249425,-0.0524 0.112999,-0.0538 0.209462,-0.12816 z"
         style="font-size:2.82222223px;stroke-width:0.26458332"
         id="path2974" />
    </g>
  </g>
</svg>
