<?xml version="1.0" encoding="UTF-8" standalone="no"?>
<!-- Created with Inkscape (http://www.inkscape.org/) -->

<svg
   xmlns:dc="http://purl.org/dc/elements/1.1/"
   xmlns:cc="http://creativecommons.org/ns#"
   xmlns:rdf="http://www.w3.org/1999/02/22-rdf-syntax-ns#"
   xmlns:svg="http://www.w3.org/2000/svg"
   xmlns="http://www.w3.org/2000/svg"
   xmlns:sodipodi="http://sodipodi.sourceforge.net/DTD/sodipodi-0.dtd"
   xmlns:inkscape="http://www.inkscape.org/namespaces/inkscape"
   width="13.39046mm"
   height="13.48382mm"
   viewBox="0 0 13.390461 13.48382"
   version="1.1"
   id="svg20953"
   inkscape:version="0.92.2 (5c3e80d, 2017-08-06)"
   sodipodi:docname="emiia24.svg"
   inkscape:export-filename="C:\Users\User1\Desktop\15 Владимир 3д макс\IoT &amp; IIoT\infografics\Соцсети\fog88.png"
   inkscape:export-xdpi="1182.2"
   inkscape:export-ydpi="1182.2">
  <defs
     id="defs20947" />
  <sodipodi:namedview
     id="base"
     pagecolor="#ffffff"
     bordercolor="#666666"
     borderopacity="1.0"
     inkscape:pageopacity="0.0"
     inkscape:pageshadow="2"
     inkscape:zoom="4.2284598"
     inkscape:cx="-44.196403"
     inkscape:cy="36.503953"
     inkscape:document-units="mm"
     inkscape:current-layer="layer1"
     showgrid="false"
     fit-margin-top="0"
     fit-margin-left="0"
     fit-margin-right="0"
     fit-margin-bottom="0"
     inkscape:window-width="1366"
     inkscape:window-height="745"
     inkscape:window-x="-8"
     inkscape:window-y="-8"
     inkscape:window-maximized="1" />
  <metadata
     id="metadata20950">
    <rdf:RDF>
      <cc:Work
         rdf:about="">
        <dc:format>image/svg+xml</dc:format>
        <dc:type
           rdf:resource="http://purl.org/dc/dcmitype/StillImage" />
        <dc:title></dc:title>
      </cc:Work>
    </rdf:RDF>
  </metadata>
  <g
     inkscape:label="Layer 1"
     inkscape:groupmode="layer"
     id="layer1"
     transform="translate(-49.304447,-134.3368)">
    <text
       xml:space="preserve"
       style="font-style:normal;font-weight:normal;font-size:4.23333311px;line-height:1.25;font-family:sans-serif;letter-spacing:0px;word-spacing:0px;fill:#000000;fill-opacity:1;stroke:none;stroke-width:0.26458332"
       x="70.045975"
       y="142.4696"
       id="text891"><tspan
         sodipodi:role="line"
         id="tspan889"
         x="70.045975"
         y="146.3318"
         style="stroke-width:0.26458332" /></text>
    <polygon
       transform="matrix(0.00613869,0,0,0.00613775,9.8207055,109.71218)"
       style="clip-rule:evenodd;fill:#000000;fill-rule:evenodd;stroke-width:1.62913418;image-rendering:optimizeQuality;shape-rendering:geometricPrecision;text-rendering:geometricPrecision"
       id="polygon824"
       points="8297.33,4826 8305.8,4826 8298.74,4816.12 "
       class="fil1" />
    <polygon
       transform="matrix(0.00613869,0,0,0.00613775,9.8207055,109.71218)"
       style="clip-rule:evenodd;fill:#000000;fill-rule:evenodd;stroke-width:1.62913418;image-rendering:optimizeQuality;shape-rendering:geometricPrecision;text-rendering:geometricPrecision"
       id="polygon826"
       points="7086.6,5359.4 7078.14,5359.4 7085.19,5369.28 "
       class="fil1" />
    <g
       style="fill:none;fill-opacity:1;stroke:#4e9bda;stroke-width:0.2835567;stroke-miterlimit:4;stroke-dasharray:none;stroke-opacity:1"
       id="g23096"
       transform="matrix(0.35266314,0,0,0.35266314,36.527589,136.47826)" />
    <g
       style="fill:none;fill-opacity:1;stroke:#4e9bda;stroke-width:0.2835567;stroke-miterlimit:4;stroke-dasharray:none;stroke-opacity:1"
       id="g23098"
       transform="matrix(0.35266314,0,0,0.35266314,36.527589,136.47826)" />
    <g
       style="fill:none;fill-opacity:1;stroke:#4e9bda;stroke-width:0.2835567;stroke-miterlimit:4;stroke-dasharray:none;stroke-opacity:1"
       id="g23100"
       transform="matrix(0.35266314,0,0,0.35266314,36.527589,136.47826)" />
    <g
       style="fill:none;fill-opacity:1;stroke:#4e9bda;stroke-width:0.2835567;stroke-miterlimit:4;stroke-dasharray:none;stroke-opacity:1"
       id="g23102"
       transform="matrix(0.35266314,0,0,0.35266314,36.527589,136.47826)" />
    <g
       style="fill:none;fill-opacity:1;stroke:#4e9bda;stroke-width:0.2835567;stroke-miterlimit:4;stroke-dasharray:none;stroke-opacity:1"
       id="g23104"
       transform="matrix(0.35266314,0,0,0.35266314,36.527589,136.47826)" />
    <g
       style="fill:none;fill-opacity:1;stroke:#4e9bda;stroke-width:0.2835567;stroke-miterlimit:4;stroke-dasharray:none;stroke-opacity:1"
       id="g23106"
       transform="matrix(0.35266314,0,0,0.35266314,36.527589,136.47826)" />
    <g
       style="fill:none;fill-opacity:1;stroke:#4e9bda;stroke-width:0.2835567;stroke-miterlimit:4;stroke-dasharray:none;stroke-opacity:1"
       id="g23108"
       transform="matrix(0.35266314,0,0,0.35266314,36.527589,136.47826)" />
    <g
       style="fill:none;fill-opacity:1;stroke:#4e9bda;stroke-width:0.2835567;stroke-miterlimit:4;stroke-dasharray:none;stroke-opacity:1"
       id="g23110"
       transform="matrix(0.35266314,0,0,0.35266314,36.527589,136.47826)" />
    <g
       style="fill:none;fill-opacity:1;stroke:#4e9bda;stroke-width:0.2835567;stroke-miterlimit:4;stroke-dasharray:none;stroke-opacity:1"
       id="g23112"
       transform="matrix(0.35266314,0,0,0.35266314,36.527589,136.47826)" />
    <g
       style="fill:none;fill-opacity:1;stroke:#4e9bda;stroke-width:0.2835567;stroke-miterlimit:4;stroke-dasharray:none;stroke-opacity:1"
       id="g23114"
       transform="matrix(0.35266314,0,0,0.35266314,36.527589,136.47826)" />
    <g
       style="fill:none;fill-opacity:1;stroke:#4e9bda;stroke-width:0.2835567;stroke-miterlimit:4;stroke-dasharray:none;stroke-opacity:1"
       id="g23116"
       transform="matrix(0.35266314,0,0,0.35266314,36.527589,136.47826)" />
    <g
       style="fill:none;fill-opacity:1;stroke:#4e9bda;stroke-width:0.2835567;stroke-miterlimit:4;stroke-dasharray:none;stroke-opacity:1"
       id="g23118"
       transform="matrix(0.35266314,0,0,0.35266314,36.527589,136.47826)" />
    <g
       style="fill:none;fill-opacity:1;stroke:#4e9bda;stroke-width:0.2835567;stroke-miterlimit:4;stroke-dasharray:none;stroke-opacity:1"
       id="g23120"
       transform="matrix(0.35266314,0,0,0.35266314,36.527589,136.47826)" />
    <g
       style="fill:none;fill-opacity:1;stroke:#4e9bda;stroke-width:0.2835567;stroke-miterlimit:4;stroke-dasharray:none;stroke-opacity:1"
       id="g23122"
       transform="matrix(0.35266314,0,0,0.35266314,36.527589,136.47826)" />
    <g
       style="fill:none;fill-opacity:1;stroke:#4e9bda;stroke-width:0.2835567;stroke-miterlimit:4;stroke-dasharray:none;stroke-opacity:1"
       id="g23124"
       transform="matrix(0.35266314,0,0,0.35266314,36.527589,136.47826)" />
    <g
       id="g23255"
       transform="matrix(0.01775382,0,0,0.01775382,36.561904,137.21002)" />
    <g
       id="g23257"
       transform="matrix(0.01775382,0,0,0.01775382,36.561904,137.21002)" />
    <g
       id="g23259"
       transform="matrix(0.01775382,0,0,0.01775382,36.561904,137.21002)" />
    <g
       id="g23261"
       transform="matrix(0.01775382,0,0,0.01775382,36.561904,137.21002)" />
    <g
       id="g23263"
       transform="matrix(0.01775382,0,0,0.01775382,36.561904,137.21002)" />
    <g
       id="g23265"
       transform="matrix(0.01775382,0,0,0.01775382,36.561904,137.21002)" />
    <g
       id="g23267"
       transform="matrix(0.01775382,0,0,0.01775382,36.561904,137.21002)" />
    <g
       id="g23269"
       transform="matrix(0.01775382,0,0,0.01775382,36.561904,137.21002)" />
    <g
       id="g23271"
       transform="matrix(0.01775382,0,0,0.01775382,36.561904,137.21002)" />
    <g
       id="g23273"
       transform="matrix(0.01775382,0,0,0.01775382,36.561904,137.21002)" />
    <g
       id="g23275"
       transform="matrix(0.01775382,0,0,0.01775382,36.561904,137.21002)" />
    <g
       id="g23277"
       transform="matrix(0.01775382,0,0,0.01775382,36.561904,137.21002)" />
    <g
       id="g23279"
       transform="matrix(0.01775382,0,0,0.01775382,36.561904,137.21002)" />
    <g
       id="g23281"
       transform="matrix(0.01775382,0,0,0.01775382,36.561904,137.21002)" />
    <g
       id="g23283"
       transform="matrix(0.01775382,0,0,0.01775382,36.561904,137.21002)" />
    <path
       id="path818"
       d="m 51.952247,138.94773 h 2.165917 c 0.491792,0.003 0.731318,-0.20216 0.728768,-0.71136 v -2.19551 c 1.274073,0 2.548142,0 3.822213,0 0.244619,0 0.708383,-0.0358 0.90204,0.0537 0.226785,0.10491 0.336357,0.29683 0.336357,0.62436 v 8.64639 c 0,0.34544 0.03057,0.60901 -0.170726,0.81115 -0.198755,0.19961 -0.445925,0.17145 -0.787377,0.17145 h -4.76757 c -0.338903,0 -1.669032,0.0461 -1.880528,-0.0487 -0.221688,-0.0998 -0.351644,-0.28147 -0.349094,-0.609 0,-2.2262 -0.02803,-4.54198 0,-6.7426 z m 0.114666,-0.40685 2.36977,-2.38999 c 0.01529,0.39918 0.0076,0.80349 0.0076,1.19755 0,0.22262 0.06116,1.01587 -0.05606,1.13869 -0.117216,0.1177 -0.912234,0.0563 -1.133923,0.0563 -0.389867,0 -0.802663,0.0128 -1.187434,-0.003 z m 0.313419,8.20881 h 7.137343 l 0.08664,-0.0358 c 0.359287,-0.12794 0.634486,-0.38383 0.695641,-0.79325 0.03058,-0.20982 0.0076,-7.34137 0.0076,-7.92222 0,-0.37104 0.04586,-1.25641 -0.01273,-1.56858 -0.117212,-0.61669 -0.6141,-0.69345 -0.789923,-0.79325 h -5.144689 c -0.06116,0.10491 -0.34145,0.3608 -0.448474,0.46572 -0.723669,0.73183 -1.577296,1.61463 -2.298421,2.30553 -0.10957,0.10491 -0.07135,0.2047 -0.07135,0.3915 v 5.09213 c 0,0.60133 -0.02294,1.24616 0.0026,1.84238 0.01273,0.3224 0.08918,0.49386 0.249717,0.68321 0.234429,0.2738 0.410251,0.24821 0.586073,0.33265 z"
       style="fill:#4e9bda;fill-opacity:1;fill-rule:evenodd;stroke:none;stroke-width:0.06752133;stroke-opacity:1"
       inkscape:connector-curvature="0" />
    <path
       id="path820"
       d="m 52.066913,138.54088 c 0.384768,0.0153 0.797567,0.003 1.187432,0.003 0.221689,0 1.016709,0.0614 1.133925,-0.0563 0.117213,-0.12282 0.05605,-0.91608 0.05605,-1.1387 0,-0.39406 0.0076,-0.79836 -0.0076,-1.19754 z"
       style="fill:#fefefe;fill-opacity:1;fill-rule:evenodd;stroke:none;stroke-width:0.06752133"
       inkscape:connector-curvature="0" />
    <path
       id="path822"
       d="m 53.323146,143.97489 5.210947,0.003 0.0026,-0.40174 -5.210947,-0.003 z"
       style="fill:#4e9bda;fill-opacity:1;fill-rule:evenodd;stroke:none;stroke-width:0.06752133"
       inkscape:connector-curvature="0" />
    <path
       id="path824"
       d="m 53.320597,145.24176 5.216046,0.003 -0.0026,-0.40173 -5.205854,-0.003 z"
       style="fill:#4e9bda;fill-opacity:1;fill-rule:evenodd;stroke:none;stroke-width:0.06752133"
       inkscape:connector-curvature="0" />
    <path
       id="path826"
       d="m 53.323146,142.60684 h 5.205851 l 0.0076,-0.39919 -5.213496,-0.003 z"
       style="fill:#4e9bda;fill-opacity:1;fill-rule:evenodd;stroke:none;stroke-width:0.2;stroke-miterlimit:4;stroke-dasharray:none;stroke-opacity:1"
       inkscape:connector-curvature="0" />
    <g
       aria-label="WHITE PAPER"
       style="font-style:normal;font-variant:normal;font-weight:normal;font-stretch:normal;font-size:1.04257095px;line-height:1.25;font-family:Arial;-inkscape-font-specification:Arial;letter-spacing:0px;word-spacing:0px;fill:#4e9bda;fill-opacity:1;stroke:#4e9bda;stroke-width:0.0651607;stroke-opacity:1"
       id="text852"
       transform="translate(14.267241,0.10477714)">
      <path
         d="m 38.29795,140.68839 -0.198027,-0.7463 h 0.101305 l 0.113522,0.48922 q 0.01833,0.0769 0.03156,0.15272 0.02851,-0.11963 0.0336,-0.13796 l 0.14203,-0.50398 h 0.119122 l 0.106904,0.37773 q 0.04022,0.1405 0.05803,0.26421 0.01425,-0.0708 0.03716,-0.1624 l 0.117086,-0.47954 h 0.09927 l -0.204645,0.7463 h -0.0952 l -0.157302,-0.56863 q -0.01985,-0.0713 -0.02342,-0.0876 -0.01171,0.0514 -0.02189,0.0876 l -0.15832,0.56863 z"
         style="font-style:normal;font-variant:normal;font-weight:normal;font-stretch:normal;font-size:1.04257095px;font-family:Arial;-inkscape-font-specification:Arial;fill:#4e9bda;fill-opacity:1;stroke:#4e9bda;stroke-width:0.0651607;stroke-opacity:1"
         id="path2671"
         inkscape:connector-curvature="0" />
      <path
         d="m 39.154203,140.68839 v -0.7463 h 0.09876 v 0.30646 h 0.387909 v -0.30646 h 0.09876 v 0.7463 h -0.09876 v -0.35177 h -0.387909 v 0.35177 z"
         style="font-style:normal;font-variant:normal;font-weight:normal;font-stretch:normal;font-size:1.04257095px;font-family:Arial;-inkscape-font-specification:Arial;fill:#4e9bda;fill-opacity:1;stroke:#4e9bda;stroke-width:0.0651607;stroke-opacity:1"
         id="path2673"
         inkscape:connector-curvature="0" />
      <path
         d="m 39.921368,140.68839 v -0.7463 h 0.09876 v 0.7463 z"
         style="font-style:normal;font-variant:normal;font-weight:normal;font-stretch:normal;font-size:1.04257095px;font-family:Arial;-inkscape-font-specification:Arial;fill:#4e9bda;fill-opacity:1;stroke:#4e9bda;stroke-width:0.0651607;stroke-opacity:1"
         id="path2675"
         inkscape:connector-curvature="0" />
      <path
         d="m 40.383602,140.68839 v -0.65823 h -0.24588 v -0.0881 h 0.591537 v 0.0881 h -0.246898 v 0.65823 z"
         style="font-style:normal;font-variant:normal;font-weight:normal;font-stretch:normal;font-size:1.04257095px;font-family:Arial;-inkscape-font-specification:Arial;fill:#4e9bda;fill-opacity:1;stroke:#4e9bda;stroke-width:0.0651607;stroke-opacity:1"
         id="path2677"
         inkscape:connector-curvature="0" />
      <path
         d="m 40.833108,140.68839 v -0.7463 h 0.539612 v 0.0881 h -0.440852 v 0.22857 h 0.412854 v 0.0876 h -0.412854 v 0.25403 h 0.458161 v 0.0881 z"
         style="font-style:normal;font-variant:normal;font-weight:normal;font-stretch:normal;font-size:1.04257095px;font-family:Arial;-inkscape-font-specification:Arial;fill:#4e9bda;fill-opacity:1;stroke:#4e9bda;stroke-width:0.0651607;stroke-opacity:1"
         id="path2679"
         inkscape:connector-curvature="0" />
      <path
         d="m 41.816627,140.68839 v -0.7463 h 0.281515 q 0.07432,0 0.113522,0.007 0.05498,0.009 0.09214,0.0351 0.03716,0.0255 0.05956,0.0718 0.02291,0.0463 0.02291,0.10182 0,0.0952 -0.06058,0.16137 -0.06058,0.0657 -0.218899,0.0657 h -0.19141 v 0.30341 z m 0.09876,-0.39148 h 0.192937 q 0.09571,0 0.135921,-0.0356 0.04022,-0.0356 0.04022,-0.10029 0,-0.0468 -0.02393,-0.0799 -0.02342,-0.0336 -0.06211,-0.0443 -0.02494,-0.007 -0.09214,-0.007 h -0.190901 z"
         style="font-style:normal;font-variant:normal;font-weight:normal;font-stretch:normal;font-size:1.04257095px;font-family:Arial;-inkscape-font-specification:Arial;fill:#4e9bda;fill-opacity:1;stroke:#4e9bda;stroke-width:0.0651607;stroke-opacity:1"
         id="path2681"
         inkscape:connector-curvature="0" />
      <path
         d="m 42.353694,140.68839 0.286605,-0.7463 h 0.106395 l 0.305441,0.7463 h -0.112504 l -0.08705,-0.22603 h -0.312059 l -0.08196,0.22603 z m 0.215336,-0.30646 h 0.253006 l -0.07789,-0.20669 q -0.03563,-0.0942 -0.05294,-0.15475 -0.01425,0.0718 -0.04022,0.14254 z"
         style="font-style:normal;font-variant:normal;font-weight:normal;font-stretch:normal;font-size:1.04257095px;font-family:Arial;-inkscape-font-specification:Arial;fill:#4e9bda;fill-opacity:1;stroke:#4e9bda;stroke-width:0.0651607;stroke-opacity:1"
         id="path2683"
         inkscape:connector-curvature="0" />
      <path
         d="m 43.132059,140.68839 v -0.7463 h 0.281514 q 0.07432,0 0.113523,0.007 0.05498,0.009 0.09214,0.0351 0.03716,0.0255 0.05956,0.0718 0.02291,0.0463 0.02291,0.10182 0,0.0952 -0.06058,0.16137 -0.06058,0.0657 -0.218899,0.0657 h -0.19141 v 0.30341 z m 0.09876,-0.39148 h 0.192937 q 0.09571,0 0.135921,-0.0356 0.04022,-0.0356 0.04022,-0.10029 0,-0.0468 -0.02393,-0.0799 -0.02342,-0.0336 -0.06211,-0.0443 -0.02495,-0.007 -0.09214,-0.007 h -0.190901 z"
         style="font-style:normal;font-variant:normal;font-weight:normal;font-stretch:normal;font-size:1.04257095px;font-family:Arial;-inkscape-font-specification:Arial;fill:#4e9bda;fill-opacity:1;stroke:#4e9bda;stroke-width:0.0651607;stroke-opacity:1"
         id="path2685"
         inkscape:connector-curvature="0" />
      <path
         d="m 43.8305,140.68839 v -0.7463 h 0.539612 v 0.0881 h -0.440853 v 0.22857 h 0.412854 v 0.0876 h -0.412854 v 0.25403 h 0.458161 v 0.0881 z"
         style="font-style:normal;font-variant:normal;font-weight:normal;font-stretch:normal;font-size:1.04257095px;font-family:Arial;-inkscape-font-specification:Arial;fill:#4e9bda;fill-opacity:1;stroke:#4e9bda;stroke-width:0.0651607;stroke-opacity:1"
         id="path2687"
         inkscape:connector-curvature="0" />
      <path
         d="m 44.526396,140.68839 v -0.7463 h 0.330894 q 0.09978,0 0.151702,0.0204 0.05193,0.0199 0.08298,0.0708 0.03105,0.0509 0.03105,0.11251 0,0.0794 -0.05142,0.13388 -0.05142,0.0545 -0.158829,0.0692 0.0392,0.0188 0.05956,0.0372 0.04327,0.0397 0.08196,0.0993 l 0.129812,0.20312 h -0.124212 l -0.09876,-0.15527 q -0.04327,-0.0672 -0.07127,-0.10283 -0.028,-0.0356 -0.0504,-0.0499 -0.02189,-0.0143 -0.0448,-0.0199 -0.0168,-0.004 -0.05498,-0.004 h -0.11454 v 0.33141 z m 0.09876,-0.41693 h 0.212281 q 0.06771,0 0.105886,-0.0137 0.03818,-0.0143 0.05803,-0.0448 0.01985,-0.0311 0.01985,-0.0672 0,-0.0529 -0.03869,-0.0871 -0.03818,-0.0341 -0.121158,-0.0341 h -0.236207 z"
         style="font-style:normal;font-variant:normal;font-weight:normal;font-stretch:normal;font-size:1.04257095px;font-family:Arial;-inkscape-font-specification:Arial;fill:#4e9bda;fill-opacity:1;stroke:#4e9bda;stroke-width:0.0651607;stroke-opacity:1"
         id="path2689"
         inkscape:connector-curvature="0" />
    </g>
  </g>
</svg>
