<?xml version="1.0" encoding="UTF-8" standalone="no"?>
<!-- Created with Inkscape (http://www.inkscape.org/) -->

<svg
   xmlns:dc="http://purl.org/dc/elements/1.1/"
   xmlns:cc="http://creativecommons.org/ns#"
   xmlns:rdf="http://www.w3.org/1999/02/22-rdf-syntax-ns#"
   xmlns:svg="http://www.w3.org/2000/svg"
   xmlns="http://www.w3.org/2000/svg"
   xmlns:sodipodi="http://sodipodi.sourceforge.net/DTD/sodipodi-0.dtd"
   xmlns:inkscape="http://www.inkscape.org/namespaces/inkscape"
   width="113.99998"
   height="33"
   viewBox="0 0 30.162635 8.7312505"
   version="1.1"
   id="svg5116"
   inkscape:version="0.92.2 (5c3e80d, 2017-08-06)"
   sodipodi:docname="emiia40.svg">
  <defs
     id="defs5110" />
  <sodipodi:namedview
     id="base"
     pagecolor="#ffffff"
     bordercolor="#666666"
     borderopacity="1.0"
     inkscape:pageopacity="0.0"
     inkscape:pageshadow="2"
     inkscape:zoom="1.6296875"
     inkscape:cx="27.927967"
     inkscape:cy="-3.7245503"
     inkscape:document-units="mm"
     inkscape:current-layer="layer1"
     showgrid="false"
     fit-margin-top="0"
     fit-margin-left="0"
     fit-margin-right="0"
     fit-margin-bottom="0"
     inkscape:window-width="1366"
     inkscape:window-height="745"
     inkscape:window-x="-8"
     inkscape:window-y="-8"
     inkscape:window-maximized="1"
     units="px" />
  <metadata
     id="metadata5113">
    <rdf:RDF>
      <cc:Work
         rdf:about="">
        <dc:format>image/svg+xml</dc:format>
        <dc:type
           rdf:resource="http://purl.org/dc/dcmitype/StillImage" />
        <dc:title></dc:title>
      </cc:Work>
    </rdf:RDF>
  </metadata>
  <g
     inkscape:label="Layer 1"
     inkscape:groupmode="layer"
     id="layer1"
     transform="translate(-33.356792,-121.05378)">
    <g
       aria-label="EMIIA"
       transform="matrix(0.72254679,0,0,0.75689147,-24.087705,33.53542)"
       style="font-style:normal;font-variant:normal;font-weight:normal;font-stretch:normal;font-size:13.53283596px;line-height:1.25;font-family:Orbitron;-inkscape-font-specification:Orbitron;letter-spacing:0px;word-spacing:0px;fill:#000000;fill-opacity:1;stroke:none;stroke-width:0.14096698"
       id="text5120">
      <path
         d="m 89.394644,116.65506 v 1.09615 H 81.59973 v 3.22082 h 6.265703 v 1.10969 H 81.59973 v 3.22082 h 7.794914 v 1.09616 h -8.891073 v -9.74364 z"
         style="font-style:normal;font-variant:normal;font-weight:normal;font-stretch:normal;font-size:13.53283596px;font-family:Orbitron;-inkscape-font-specification:Orbitron;stroke-width:0.14096698"
         id="path829"
         inkscape:connector-curvature="0" />
      <path
         d="m 95.989576,121.47274 4.046314,-4.81768 h 1.50215 v 9.74364 h -1.09616 v -8.49862 l -4.452304,5.29133 -4.452303,-5.29133 v 8.49862 h -1.09616 v -9.74364 h 1.502145 z"
         style="font-style:normal;font-variant:normal;font-weight:normal;font-stretch:normal;font-size:13.53283596px;font-family:Orbitron;-inkscape-font-specification:Orbitron;stroke-width:0.14096698"
         id="path831"
         inkscape:connector-curvature="0" />
      <path
         d="m 103.00952,126.3987 v -9.74364 h 1.09616 v 9.74364 z"
         style="font-style:normal;font-variant:normal;font-weight:normal;font-stretch:normal;font-size:13.53283596px;font-family:Orbitron;-inkscape-font-specification:Orbitron;stroke-width:0.14096698"
         id="path833"
         inkscape:connector-curvature="0" />
      <path
         d="m 105.99626,126.3987 v -9.74364 h 1.09616 v 9.74364 z"
         style="font-style:normal;font-variant:normal;font-weight:normal;font-stretch:normal;font-size:13.53283596px;font-family:Orbitron;-inkscape-font-specification:Orbitron;stroke-width:0.14096698"
         id="path835"
         inkscape:connector-curvature="0" />
      <path
         d="m 110.62047,116.65506 h 6.49577 q 0.67664,0 1.15029,0.47364 0.47365,0.47365 0.47365,1.1503 v 8.1197 h -1.09616 v -3.55914 h -7.55133 v 3.55914 h -1.09616 v -8.1197 q 0,-0.67665 0.47365,-1.1503 0.47365,-0.47364 1.15029,-0.47364 z m -0.52778,5.08834 h 7.55133 v -3.4644 q 0,-0.21653 -0.1624,-0.36539 -0.14886,-0.1624 -0.36538,-0.1624 h -6.49577 q -0.21652,0 -0.37891,0.1624 -0.14887,0.14886 -0.14887,0.36539 z"
         style="font-style:normal;font-variant:normal;font-weight:normal;font-stretch:normal;font-size:13.53283596px;font-family:Orbitron;-inkscape-font-specification:Orbitron;stroke-width:0.14096698"
         id="path837"
         inkscape:connector-curvature="0" />
    </g>
    <g
       aria-label="a"
       style="font-style:normal;font-weight:normal;font-size:3.12973571px;line-height:1.25;font-family:sans-serif;letter-spacing:0px;word-spacing:0px;fill:#a8a7b1;fill-opacity:1;stroke:none;stroke-width:0.26458332"
       id="text38438"
       transform="matrix(0.73951978,0,0,0.73951978,-24.087705,33.53542)">
      <path
         d="m 118.1686,119.87356 q 0,0.006 -0.005,0.0275 -0.0596,0.34996 -0.0596,0.60364 0,0.0153 0.0382,0.68615 l 0.002,0.0214 q 0.002,0.0443 -0.0413,0.0443 -0.0413,0 -0.12684,0.009 -0.0841,0.0107 -0.12532,0.0107 -0.029,0 -0.0443,-0.10697 -0.0153,-0.10697 -0.029,-0.10697 -0.009,0 -0.0825,0.0596 -0.0902,0.0733 -0.1681,0.11155 -0.12073,0.0611 -0.24146,0.0611 -0.29647,0 -0.49971,-0.23687 -0.19256,-0.22617 -0.19256,-0.52722 0,-0.33926 0.19408,-0.56085 0.20325,-0.23076 0.53487,-0.23076 0.23381,0 0.40803,0.16199 0.026,0.0306 0.081,0.0886 0.005,0.005 0.009,0.005 0.009,0 0.026,-0.0963 0.0168,-0.0963 0.0428,-0.0963 0.0413,0 0.15435,0.0229 0.12531,0.0275 0.12531,0.0489 z m -0.38969,0.63879 q 0,-0.18797 -0.11156,-0.32245 -0.11767,-0.14518 -0.30105,-0.14518 -0.18339,0 -0.30564,0.14365 -0.11767,0.13754 -0.11767,0.32398 0,0.18491 0.11767,0.32092 0.12225,0.14212 0.30564,0.14212 0.1788,0 0.29952,-0.14518 0.11309,-0.13601 0.11309,-0.31786 z"
         style="font-style:normal;font-variant:normal;font-weight:normal;font-stretch:normal;font-family:'Berlin Sans FB';-inkscape-font-specification:'Berlin Sans FB';fill:#a8a7b1;fill-opacity:1;stroke-width:0.26458332"
         id="path38440"
         inkscape:connector-curvature="0" />
    </g>
  </g>
</svg>
