<?xml version="1.0" encoding="UTF-8" standalone="no"?>
<!-- Created with Inkscape (http://www.inkscape.org/) -->

<svg
   xmlns:dc="http://purl.org/dc/elements/1.1/"
   xmlns:cc="http://creativecommons.org/ns#"
   xmlns:rdf="http://www.w3.org/1999/02/22-rdf-syntax-ns#"
   xmlns:svg="http://www.w3.org/2000/svg"
   xmlns="http://www.w3.org/2000/svg"
   xmlns:sodipodi="http://sodipodi.sourceforge.net/DTD/sodipodi-0.dtd"
   xmlns:inkscape="http://www.inkscape.org/namespaces/inkscape"
   width="61.32391mm"
   height="34.737659mm"
   viewBox="0 0 61.32391 34.73766"
   version="1.1"
   id="svg1181"
   inkscape:version="0.92.4 (5da689c313, 2019-01-14)"
   sodipodi:docname="emiia36.svg"
   inkscape:export-filename="C:\Users\User1\Desktop\Бортник\emiia36.png"
   inkscape:export-xdpi="952.74695"
   inkscape:export-ydpi="952.74695">
  <defs
     id="defs1175" />
  <sodipodi:namedview
     id="base"
     pagecolor="#ffffff"
     bordercolor="#666666"
     borderopacity="1.0"
     inkscape:pageopacity="0.0"
     inkscape:pageshadow="2"
     inkscape:zoom="11.2"
     inkscape:cx="104.62379"
     inkscape:cy="26.515453"
     inkscape:document-units="mm"
     inkscape:current-layer="layer1"
     showgrid="false"
     fit-margin-top="0"
     fit-margin-left="0"
     fit-margin-right="0"
     fit-margin-bottom="0"
     inkscape:window-width="1366"
     inkscape:window-height="705"
     inkscape:window-x="-8"
     inkscape:window-y="-8"
     inkscape:window-maximized="1" />
  <metadata
     id="metadata1178">
    <rdf:RDF>
      <cc:Work
         rdf:about="">
        <dc:format>image/svg+xml</dc:format>
        <dc:type
           rdf:resource="http://purl.org/dc/dcmitype/StillImage" />
        <dc:title />
      </cc:Work>
    </rdf:RDF>
  </metadata>
  <g
     inkscape:label="Layer 1"
     inkscape:groupmode="layer"
     id="layer1"
     transform="translate(-69.111859,-87.644943)">
    <rect
       style="fill:#ffffff;fill-opacity:1;stroke:none;stroke-width:0.13422835;stroke-linecap:round;stroke-linejoin:round;stroke-miterlimit:4;stroke-dasharray:none;stroke-opacity:1"
       id="rect4967"
       width="61.893597"
       height="35.435268"
       x="69.017365"
       y="87.608795" />
    <path
       id="path934"
       d="m 93.658786,96.142212 h 11.861524 v -0.79194 H 93.658786 Z"
       style="fill:none;stroke:#4a99d9;stroke-width:0.13321549px;stroke-linecap:round;stroke-linejoin:round;stroke-miterlimit:4;stroke-dasharray:none;stroke-opacity:1"
       inkscape:connector-curvature="0" />
    <path
       id="path936"
       d="m 99.195216,102.09792 c 2.120794,-0.56721 0.841934,-0.85083 0.788637,-3.178518 -2.115467,0.567221 -0.841917,0.850811 -0.788637,3.178518 z"
       style="fill:none;stroke:#4a99d9;stroke-width:0.13321549px;stroke-linecap:butt;stroke-linejoin:miter;stroke-miterlimit:4;stroke-dasharray:none;stroke-opacity:1"
       inkscape:connector-curvature="0" />
    <path
       id="path938"
       d="m 96.429666,102.09792 c 2.11546,-0.56721 0.84192,-0.85083 0.78864,-3.178518 -2.1208,0.567221 -0.84193,0.850811 -0.78864,3.178518 z"
       style="fill:none;stroke:#4a99d9;stroke-width:0.13321549px;stroke-linecap:butt;stroke-linejoin:miter;stroke-miterlimit:4;stroke-dasharray:none;stroke-opacity:1"
       inkscape:connector-curvature="0" />
    <path
       id="path940"
       d="m 101.96079,102.09792 c 2.12079,-0.56721 0.84192,-0.85083 0.78863,-3.178518 -2.11547,0.567221 -0.84192,0.850811 -0.78863,3.178518 z"
       style="fill:none;stroke:#4a99d9;stroke-width:0.13321549px;stroke-linecap:butt;stroke-linejoin:miter;stroke-miterlimit:4;stroke-dasharray:none;stroke-opacity:1"
       inkscape:connector-curvature="0" />
    <path
       id="path942"
       d="m 104.33202,92.171752 h 1.18829 v -0.79195 h -1.18829 z"
       style="fill:none;stroke:#4a99d9;stroke-width:0.13321549px;stroke-linecap:round;stroke-linejoin:round;stroke-miterlimit:4;stroke-dasharray:none;stroke-opacity:1"
       inkscape:connector-curvature="0" />
    <path
       id="path944"
       d="m 92.321306,89.854752 h 14.675024 c 0.3517,0 0.63411,0.28896 0.63411,0.64213 v 6.52825 c 0,0.35317 -0.28241,0.64212 -0.63411,0.64212 H 92.321306 c -0.35169,0 -0.63411,-0.28895 -0.63411,-0.64212 v -6.52825 c 0,-0.35317 0.28242,-0.64213 0.63411,-0.64213 z"
       style="fill:none;stroke:#4a99d9;stroke-width:0.13321549px;stroke-linecap:butt;stroke-linejoin:miter;stroke-miterlimit:4;stroke-dasharray:none;stroke-opacity:1"
       inkscape:connector-curvature="0" />
    <path
       id="path958"
       d="m 77.177516,108.46576 c -3.51689,0 -6.37303,2.8521 -6.37303,6.37307 0,3.51563 2.85614,6.37309 6.37303,6.37309 3.52222,0 6.37836,-2.85746 6.37836,-6.37309 0,-3.52097 -2.85614,-6.37307 -6.37836,-6.37307 z"
       style="fill:none;stroke:#4a99d9;stroke-width:0.133;stroke-linecap:butt;stroke-linejoin:miter;stroke-miterlimit:4;stroke-dasharray:none;stroke-opacity:1"
       inkscape:connector-curvature="0" />
    <path
       id="path960"
       d="m 77.177516,108.46576 c -1.75844,0 -3.18651,1.42337 -3.18651,3.18385 0,1.7605 1.42807,3.18922 3.18651,3.18922 1.76378,0 3.19184,-1.42872 3.19184,-3.18922 0,-1.76048 -1.42806,-3.18385 -3.19184,-3.18385 z"
       style="fill:none;stroke:#4a99d9;stroke-width:0.13321549px;stroke-linecap:butt;stroke-linejoin:miter;stroke-miterlimit:4;stroke-dasharray:none;stroke-opacity:1"
       inkscape:connector-curvature="0" />
    <path
       id="path962"
       d="m 71.587796,117.89428 h 11.18477"
       style="fill:none;stroke:#4a99d9;stroke-width:0.13321549px;stroke-linecap:butt;stroke-linejoin:miter;stroke-miterlimit:4;stroke-dasharray:none;stroke-opacity:1"
       inkscape:connector-curvature="0" />
    <path
       id="path964"
       d="m 72.759386,108.51928 v 1.71232"
       style="fill:none;stroke:#4a99d9;stroke-width:0.13321549px;stroke-linecap:round;stroke-linejoin:round;stroke-miterlimit:4;stroke-dasharray:none;stroke-opacity:1"
       inkscape:connector-curvature="0" />
    <path
       id="path966"
       d="m 81.642896,108.55673 v 1.71232"
       style="fill:none;stroke:#4a99d9;stroke-width:0.13321549px;stroke-linecap:butt;stroke-linejoin:miter;stroke-miterlimit:4;stroke-dasharray:none;stroke-opacity:1"
       inkscape:connector-curvature="0" />
    <path
       id="path968"
       d="m 71.054236,110.19415 h 1.70515"
       style="fill:none;stroke:#4a99d9;stroke-width:0.13321549px;stroke-linecap:round;stroke-linejoin:round;stroke-miterlimit:4;stroke-dasharray:none;stroke-opacity:1"
       inkscape:connector-curvature="0" />
    <path
       id="path970"
       d="m 81.637576,110.2316 h 1.70515"
       style="fill:none;stroke:#4a99d9;stroke-width:0.13321549px;stroke-linecap:round;stroke-linejoin:round;stroke-miterlimit:4;stroke-dasharray:none;stroke-opacity:1"
       inkscape:connector-curvature="0" />
    <path
       id="path982"
       d="m 115.09088,89.793472 h 11.86685 c 0.33036,0 0.60212,0.2729 0.60212,0.60467 v 8.09077 c 0,0.33175 -0.27176,0.604654 -0.60212,0.604654 h -11.86685 c -0.33571,0 -0.60746,-0.272904 -0.60746,-0.604654 v -8.09077 c 0,-0.33177 0.27175,-0.60467 0.60746,-0.60467 z"
       style="fill:none;stroke:#4a99d9;stroke-width:0.13321549px;stroke-linecap:butt;stroke-linejoin:miter;stroke-miterlimit:4;stroke-dasharray:none;stroke-opacity:1"
       inkscape:connector-curvature="0" />
    <path
       id="path984"
       d="m 124.37007,93.806742 h 4.26289 c 0.17585,0 0.31972,0.14448 0.31972,0.32107 v 7.887408 c 0,0.17658 -0.14387,0.32106 -0.31972,0.32106 h -4.26289 c -0.17585,0 -0.31972,-0.14448 -0.31972,-0.32106 v -7.887408 c 0,-0.17659 0.14387,-0.32107 0.31972,-0.32107 z"
       style="fill:#ffffff;fill-opacity:1;fill-rule:evenodd;stroke:#4a99d9;stroke-width:0.14119922px;stroke-linecap:butt;stroke-linejoin:miter;stroke-miterlimit:4;stroke-dasharray:none;stroke-opacity:1"
       inkscape:connector-curvature="0" />
    <path
       id="path986"
       d="m 126.5015,95.551182 c -0.2984,0 -0.54352,0.24615 -0.54352,0.5458 0,0.30501 0.24512,0.55116 0.54352,0.55116 0.30375,0 0.54354,-0.24615 0.54354,-0.55116 0,-0.29965 -0.23979,-0.5458 -0.54354,-0.5458 z"
       style="fill:none;stroke:#4a99d9;stroke-width:0.13321549px;stroke-linecap:butt;stroke-linejoin:miter;stroke-miterlimit:4;stroke-dasharray:none;stroke-opacity:1"
       inkscape:connector-curvature="0" />
    <path
       id="path988"
       d="m 126.5015,98.943746 c -0.60212,0 -1.08704,0.49229 -1.08704,1.096944 0,0.60467 0.48492,1.09161 1.08704,1.09161 0.60215,0 1.09238,-0.48694 1.09238,-1.09161 0,-0.604654 -0.49023,-1.096944 -1.09238,-1.096944 z"
       style="fill:none;stroke:#4a99d9;stroke-width:0.13321549px;stroke-linecap:butt;stroke-linejoin:miter;stroke-miterlimit:4;stroke-dasharray:none;stroke-opacity:1"
       inkscape:connector-curvature="0" />
    <path
       id="path990"
       d="m 121.02163,99.061868 v 1.642362"
       style="fill:none;stroke:#4a99d9;stroke-width:0.13828079px;stroke-linecap:butt;stroke-linejoin:miter;stroke-miterlimit:4;stroke-dasharray:none;stroke-opacity:1"
       inkscape:connector-curvature="0"
       sodipodi:nodetypes="cc" />
    <path
       id="path992"
       d="m 119.11398,101.3303 c 0,-0.35853 0.85791,-0.65284 1.90765,-0.65284 1.05507,0 1.90765,0.29431 1.90765,0.65284"
       style="fill:none;stroke:#4a99d9;stroke-width:0.13321549px;stroke-linecap:round;stroke-linejoin:miter;stroke-miterlimit:4;stroke-dasharray:none;stroke-opacity:1"
       inkscape:connector-curvature="0" />
    <path
       id="path818-3"
       d="m 82.468326,89.653622 h -10.57626 c -0.62182,0 -1.1257,0.50601 -1.1257,1.13045 v 10.620748 c 0,0.62443 0.50388,1.13044 1.1257,1.13044 h 10.57626 c 0.62182,0 1.1257,-0.50601 1.1257,-1.13044 V 90.784072 c 0,-0.62444 -0.50388,-1.13045 -1.1257,-1.13045 z"
       style="fill:none;stroke:#4a99d9;stroke-width:0.13401243px;stroke-linecap:butt;stroke-linejoin:miter;stroke-miterlimit:4;stroke-dasharray:none;stroke-opacity:1"
       inkscape:connector-curvature="0" />
    <path
       id="path820-0-6"
       d="m 77.177516,91.532322 c -2.50871,0 -4.54034,2.04017 -4.54034,4.55943 0,2.52464 2.03163,4.564828 4.54034,4.564828 2.51408,0 4.5457,-2.040188 4.5457,-4.564828 0,-2.51926 -2.03162,-4.55943 -4.5457,-4.55943 z"
       style="fill:none;stroke:#4a99d9;stroke-width:0.13401243px;stroke-linecap:butt;stroke-linejoin:miter;stroke-miterlimit:4;stroke-dasharray:none;stroke-opacity:1"
       inkscape:connector-curvature="0" />
    <path
       id="path822-2-8"
       d="m 75.511146,95.790072 c -0.21694,0 -0.39443,0.17443 -0.39443,0.39244 0,0.21802 0.17749,0.39641 0.39443,0.39641 0.21693,0 0.39442,-0.17839 0.39442,-0.39641 0,-0.21801 -0.17749,-0.39244 -0.39442,-0.39244 z"
       style="fill:none;stroke:#4a99d9;stroke-width:0.11115075px;stroke-linecap:butt;stroke-linejoin:miter;stroke-miterlimit:4;stroke-dasharray:none;stroke-opacity:1"
       inkscape:connector-curvature="0" />
    <path
       id="path824-93"
       d="m 78.854016,95.727632 c -0.21795,0 -0.39232,0.17436 -0.39232,0.39231 0,0.21797 0.17437,0.39629 0.39232,0.39629 0.21796,0 0.39628,-0.17832 0.39628,-0.39629 0,-0.21795 -0.17832,-0.39231 -0.39628,-0.39231 z"
       style="fill:none;stroke:#4a99d9;stroke-width:0.11139914px;stroke-linecap:butt;stroke-linejoin:miter;stroke-miterlimit:4;stroke-dasharray:none;stroke-opacity:1"
       inkscape:connector-curvature="0" />
    <path
       id="path826-7"
       d="m 77.177516,98.615832 v 0 c 0.11793,0 0.21442,0.0969 0.21442,0.21532 v 0.554454 c 0,0.118427 -0.0965,0.215327 -0.21442,0.215327 v 0 c -0.11793,0 -0.20906,-0.0969 -0.20906,-0.215327 v -0.554454 c 0,-0.11843 0.0911,-0.21532 0.20906,-0.21532 z"
       style="fill:none;stroke:#4a99d9;stroke-width:0.111;stroke-linecap:butt;stroke-linejoin:miter;stroke-miterlimit:4;stroke-dasharray:none;stroke-opacity:1"
       inkscape:connector-curvature="0" />
    <path
       id="path828-1"
       d="m 77.177516,92.590662 v 0 c 0.11793,0 0.21442,0.0969 0.21442,0.21532 v 0.55445 c 0,0.11842 -0.0965,0.21532 -0.21442,0.21532 v 0 c -0.11793,0 -0.20906,-0.097 -0.20906,-0.21532 v -0.55445 c 0,-0.11843 0.0911,-0.21532 0.20906,-0.21532 z"
       style="fill:none;stroke:#4a99d9;stroke-width:0.111;stroke-linecap:butt;stroke-linejoin:miter;stroke-miterlimit:4;stroke-dasharray:none;stroke-opacity:1"
       inkscape:connector-curvature="0" />
    <path
       id="path822-2-6-50"
       d="m 77.133726,95.903362 c -0.16193,0 -0.29443,0.13018 -0.29443,0.29295 0,0.16273 0.13251,0.2959 0.29443,0.2959 0.16193,0 0.29442,-0.13311 0.29442,-0.2959 0,-0.16275 -0.13248,-0.29295 -0.29442,-0.29295 z"
       style="fill:none;stroke:#4a99d9;stroke-width:0.11114969px;stroke-linecap:butt;stroke-linejoin:miter;stroke-miterlimit:4;stroke-dasharray:none;stroke-opacity:1"
       inkscape:connector-curvature="0" />
    <path
       id="path820-0-3-9"
       d="m 77.177516,92.590662 c -1.92888,0 -3.49093,1.56863 -3.49093,3.50575 0,1.94105 1.56205,3.509771 3.49093,3.509771 1.933,0 3.49506,-1.568721 3.49506,-3.509771 0,-1.93712 -1.56206,-3.50575 -3.49506,-3.50575 z"
       style="fill:none;stroke:#4a99d9;stroke-width:0.03;stroke-linecap:butt;stroke-linejoin:miter;stroke-miterlimit:4;stroke-dasharray:none;stroke-opacity:1"
       inkscape:connector-curvature="0" />
    <g
       id="g4628"
       transform="translate(0.52916663,2.1166667)">
      <rect
         y="108.99384"
         x="115.45487"
         height="7.336381"
         width="9.0372648"
         id="rect4620"
         style="fill:#ffffff;fill-opacity:1;stroke:#4a99d9;stroke-width:0;stroke-miterlimit:4;stroke-dasharray:none;stroke-opacity:1" />
      <path
         inkscape:connector-curvature="0"
         style="fill:#ffffff;fill-opacity:1;stroke:#4a99d9;stroke-width:0.13450359;stroke-linecap:round;stroke-linejoin:miter;stroke-miterlimit:4;stroke-dasharray:none;stroke-opacity:1"
         d="m 115.46927,116.26131 4.19955,2.67753 c 0.17207,0.11382 0.47319,0.10304 0.66139,-0.0163 l 4.16192,-2.63959"
         id="path2806" />
      <path
         inkscape:connector-curvature="0"
         style="fill:#ffffff;fill-opacity:1;stroke:#4a99d9;stroke-width:0.14302808px;stroke-linecap:butt;stroke-linejoin:miter;stroke-miterlimit:4;stroke-dasharray:none;stroke-opacity:1"
         d="m 124.3643,108.86248 -4.06982,-2.67222 c -0.17272,-0.11383 -0.46419,-0.10836 -0.64232,0.0113 l -4.04283,2.64512 c -0.17812,0.11924 -0.18891,0.30896 -0.0162,0.41736 l 4.06982,2.67765 c 0.16733,0.10836 0.4588,0.10304 0.64232,-0.0163 l 4.03743,-2.63971 c 0.18352,-0.11925 0.18892,-0.30895 0.0216,-0.42278 z"
         id="path2808" />
      <path
         sodipodi:nodetypes="cc"
         inkscape:connector-curvature="0"
         style="fill:#ffffff;fill-opacity:1;stroke:#4a99d9;stroke-width:0.13494092px;stroke-linecap:butt;stroke-linejoin:miter;stroke-miterlimit:4;stroke-dasharray:none;stroke-opacity:1"
         d="m 115.469,109.02441 v 7.23685"
         id="path2810" />
      <path
         inkscape:connector-curvature="0"
         style="fill:#ffffff;fill-opacity:1;stroke:#4a99d9;stroke-width:0.13716197px;stroke-linecap:round;stroke-linejoin:miter;stroke-miterlimit:4;stroke-dasharray:none;stroke-opacity:1"
         d="m 124.49213,109.05306 v 7.22991"
         id="path2812" />
      <path
         inkscape:connector-curvature="0"
         style="fill:#ffffff;fill-opacity:1;stroke:#4a99d9;stroke-width:0.13494092px;stroke-linecap:butt;stroke-linejoin:miter;stroke-miterlimit:4;stroke-dasharray:none;stroke-opacity:1"
         d="m 120.01381,107.96271 c -0.75567,0 -1.371,0.49325 -1.371,1.10033 0,0.6125 0.61533,1.10575 1.371,1.10575 0.75567,0 1.3656,-0.49325 1.3656,-1.10575 0,-0.60708 -0.60993,-1.10033 -1.3656,-1.10033 z"
         id="path2814" />
    </g>
    <rect
       style="fill:#ffffff;fill-opacity:1;stroke-width:0.26458332"
       id="rect4618"
       width="2.5513394"
       height="1.1339285"
       x="54.276295"
       y="95.546295" />
    <path
       id="path994"
       d="m 127.63277,117.9914 c -0.003,0.6221 -0.006,1.24419 -0.008,1.86628 m -1.99809,-0.008 c 0.003,-0.62208 0.006,-1.24418 0.008,-1.86628"
       style="fill:#ffffff;fill-opacity:1;stroke:#4a99d9;stroke-width:0.12248764;stroke-linecap:round;stroke-linejoin:round;stroke-miterlimit:4;stroke-dasharray:none;stroke-opacity:1"
       inkscape:connector-curvature="0" />
    <path
       id="path996"
       d="m 125.63463,117.98267 c -0.78236,-0.37385 -1.27964,-1.05437 -1.27964,-1.90428 0,-1.22666 1.01794,-2.21968 2.27437,-2.21968 1.25645,0 2.27439,0.99302 2.27439,2.21968 0,0.87911 -0.4508,1.55668 -1.27098,1.91301"
       style="fill:#ffffff;fill-opacity:1;stroke:#4a99d9;stroke-width:0.12248764;stroke-linecap:round;stroke-linejoin:round;stroke-miterlimit:4;stroke-dasharray:none;stroke-opacity:1"
       inkscape:connector-curvature="0"
       sodipodi:nodetypes="csssc" />
    <path
       id="path998"
       d="m 125.62597,119.26187 h 2.0068"
       style="fill:#ffffff;fill-opacity:1;stroke:#4a99d9;stroke-width:0.12248764;stroke-linecap:butt;stroke-linejoin:miter;stroke-miterlimit:4;stroke-dasharray:none;stroke-opacity:1"
       inkscape:connector-curvature="0" />
    <path
       id="path1000"
       d="m 125.62597,118.56969 h 2.0068"
       style="fill:#ffffff;fill-opacity:1;stroke:#4a99d9;stroke-width:0.12248764;stroke-linecap:butt;stroke-linejoin:miter;stroke-miterlimit:4;stroke-dasharray:none;stroke-opacity:1"
       inkscape:connector-curvature="0" />
    <path
       id="path1002"
       d="m 125.62597,119.91025 h 2.0068"
       style="fill:#ffffff;fill-opacity:1;stroke:#4a99d9;stroke-width:0.12248764;stroke-linecap:butt;stroke-linejoin:miter;stroke-miterlimit:4;stroke-dasharray:none;stroke-opacity:1"
       inkscape:connector-curvature="0" />
    <path
       id="path1004"
       d="m 127.63277,119.92486 -0.50315,0.53448 h -1.00341 l -0.50024,-0.53448"
       style="fill:#ffffff;fill-opacity:1;stroke:#4a99d9;stroke-width:0.12248764;stroke-linecap:round;stroke-linejoin:round;stroke-miterlimit:4;stroke-dasharray:none;stroke-opacity:1"
       inkscape:connector-curvature="0" />
    <path
       id="path1006"
       d="m 126.30363,120.54696 h 0.65148 c 0.0582,0 0.10761,0.0496 0.10761,0.11098 v 0.11683 c 0,0.0584 -0.0495,0.10805 -0.10761,0.10805 h -0.65148 c -0.0611,0 -0.11053,-0.0496 -0.11053,-0.10805 v -0.11683 c 0,-0.0613 0.0495,-0.11098 0.11053,-0.11098 z"
       style="fill:#ffffff;fill-opacity:1;stroke:#4a99d9;stroke-width:0.12248764;stroke-linecap:butt;stroke-linejoin:miter;stroke-miterlimit:4;stroke-dasharray:none;stroke-opacity:1"
       inkscape:connector-curvature="0" />
    <line
       class="cls-1"
       x1="175.30981"
       y1="88.128113"
       x2="193.54755"
       y2="88.128113"
       id="line4702-0"
       style="stroke-width:0.26458332" />
    <line
       style="fill:none;stroke:#4a99d9;stroke-width:0.133;stroke-miterlimit:4;stroke-dasharray:none;stroke-opacity:1"
       class="cls-1"
       x1="93.112892"
       y1="111.12946"
       x2="106.68354"
       y2="111.12946"
       id="line4688" />
    <line
       style="fill:none;stroke:#4a99d9;stroke-width:0.133;stroke-miterlimit:4;stroke-dasharray:none;stroke-opacity:1"
       class="cls-1"
       x1="87.271561"
       y1="109.75037"
       x2="96.197365"
       y2="109.75037"
       id="line4690-3" />
    <path
       style="fill:none;stroke:#4a99d9;stroke-width:0.133;stroke-miterlimit:4;stroke-dasharray:none;stroke-opacity:1"
       class="cls-1"
       d="m 90.648682,109.75038 a 1.0857815,1.0857815 0 1 1 2.171563,0"
       id="path4692"
       inkscape:connector-curvature="0" />
    <path
       style="fill:none;stroke:#4a99d9;stroke-width:0.133;stroke-miterlimit:4;stroke-dasharray:none;stroke-opacity:1"
       class="cls-1"
       d="m 90.287403,109.75038 v 0.90643 a 1.4477083,1.4477083 0 0 0 2.895416,0 v -0.90643"
       id="path4694"
       inkscape:connector-curvature="0" />
    <line
       style="fill:none;stroke:#4a99d9;stroke-width:0.133;stroke-miterlimit:4;stroke-dasharray:none;stroke-opacity:1;stroke-linejoin:round;stroke-linecap:round"
       class="cls-1"
       x1="87.271561"
       y1="109.75037"
       x2="96.197365"
       y2="109.75037"
       id="line4696-9" />
    <path
       style="fill:none;stroke:#4a99d9;stroke-width:0.133;stroke-miterlimit:4;stroke-dasharray:none;stroke-opacity:1"
       class="cls-1"
       d="m 90.648682,109.75038 a 1.0857815,1.0857815 0 1 1 2.171563,0"
       id="path4698"
       inkscape:connector-curvature="0" />
    <path
       style="fill:none;stroke:#4a99d9;stroke-width:0.133;stroke-miterlimit:4;stroke-dasharray:none;stroke-opacity:1"
       class="cls-1"
       d="m 90.287403,109.75038 v 0.90643 a 1.4477083,1.4477083 0 0 0 2.895416,0 v -0.90643"
       id="path4700"
       inkscape:connector-curvature="0" />
    <line
       style="fill:none;stroke:#4a99d9;stroke-width:0.133;stroke-miterlimit:4;stroke-dasharray:none;stroke-opacity:1;stroke-linejoin:round;stroke-linecap:round"
       class="cls-1"
       x1="103.60555"
       y1="109.75037"
       x2="112.53135"
       y2="109.75037"
       id="line4702" />
    <path
       style="fill:none;stroke:#4a99d9;stroke-width:0.133;stroke-miterlimit:4;stroke-dasharray:none;stroke-opacity:1"
       class="cls-1"
       d="m 106.98137,109.75038 a 1.0857812,1.0857812 0 1 1 2.17156,0"
       id="path4704"
       inkscape:connector-curvature="0" />
    <path
       style="fill:none;stroke:#4a99d9;stroke-width:0.133;stroke-miterlimit:4;stroke-dasharray:none;stroke-opacity:1"
       class="cls-1"
       d="m 106.62009,109.75038 v 0.90643 a 1.44771,1.44771 0 0 0 2.89542,0 v -0.90643"
       id="path4706"
       inkscape:connector-curvature="0" />
    <path
       style="fill:none;stroke:#4a99d9;stroke-width:0.133;stroke-miterlimit:4;stroke-dasharray:none;stroke-opacity:1"
       class="cls-1"
       d="m 103.94351,111.12945 c 0,2.08481 -1.45547,2.37746 -1.45547,2.37746 h -5.05015 c 0,0 -1.4244,-0.29265 -1.4244,-2.37746"
       id="path4708"
       inkscape:connector-curvature="0" />
    <circle
       style="fill:none;stroke:#4a99d9;stroke-width:0.133;stroke-miterlimit:4;stroke-dasharray:none;stroke-opacity:1"
       class="cls-1"
       cx="99.975914"
       cy="116.14075"
       r="1.0851338"
       id="circle4710" />
    <path
       style="fill:none;stroke:#4a99d9;stroke-width:0.133;stroke-miterlimit:4;stroke-dasharray:none;stroke-opacity:1;stroke-linecap:round;stroke-linejoin:round"
       class="cls-1"
       d="m 101.72792,117.67263 a 2.3308362,2.3308362 0 0 1 -3.436685,0.0738"
       id="path4712"
       inkscape:connector-curvature="0" />
    <path
       style="fill:none;stroke:#4a99d9;stroke-width:0.133;stroke-miterlimit:4;stroke-dasharray:none;stroke-opacity:1;stroke-linejoin:round;stroke-linecap:round"
       class="cls-1"
       d="M 102.93348,118.72927 A 3.9300488,3.9300488 0 0 1 97.129702,118.851"
       id="path4714"
       inkscape:connector-curvature="0" />
    <path
       style="fill:none;stroke:#4a99d9;stroke-width:0.133;stroke-miterlimit:4;stroke-dasharray:none;stroke-opacity:1;stroke-linejoin:round;stroke-linecap:round"
       class="cls-1"
       d="m 104.24393,119.87786 a 5.6729963,5.6729963 0 0 1 -8.374175,0.17611"
       id="path4716"
       inkscape:connector-curvature="0" />
    <line
       style="fill:none;stroke:#4a99d9;stroke-width:0.13838065;stroke-miterlimit:4;stroke-dasharray:none;stroke-opacity:1"
       class="cls-1"
       x1="99.975914"
       y1="113.45965"
       x2="99.975914"
       y2="115.00865"
       id="line4718" />
  </g>
</svg>
