<?xml version="1.0" encoding="UTF-8" standalone="no"?>
<!-- Created with Inkscape (http://www.inkscape.org/) -->

<svg
   xmlns:dc="http://purl.org/dc/elements/1.1/"
   xmlns:cc="http://creativecommons.org/ns#"
   xmlns:rdf="http://www.w3.org/1999/02/22-rdf-syntax-ns#"
   xmlns:svg="http://www.w3.org/2000/svg"
   xmlns="http://www.w3.org/2000/svg"
   xmlns:sodipodi="http://sodipodi.sourceforge.net/DTD/sodipodi-0.dtd"
   xmlns:inkscape="http://www.inkscape.org/namespaces/inkscape"
   width="33.267948mm"
   height="17mm"
   viewBox="0 0 33.26795 17"
   version="1.1"
   id="svg20953"
   inkscape:version="0.92.2 (5c3e80d, 2017-08-06)"
   sodipodi:docname="emiia30.svg"
   inkscape:export-filename="C:\Users\User1\Desktop\15 Владимир 3д макс\IoT &amp; IIoT\infografics\Соцсети\fog88.png"
   inkscape:export-xdpi="1182.2"
   inkscape:export-ydpi="1182.2">
  <defs
     id="defs20947">
    <pattern
       y="0"
       x="0"
       height="6"
       width="6"
       patternUnits="userSpaceOnUse"
       id="EMFhbasepattern" />
    <pattern
       y="0"
       x="0"
       height="6"
       width="6"
       patternUnits="userSpaceOnUse"
       id="EMFhbasepattern-9" />
  </defs>
  <sodipodi:namedview
     id="base"
     pagecolor="#ffffff"
     bordercolor="#666666"
     borderopacity="1.0"
     inkscape:pageopacity="0.0"
     inkscape:pageshadow="2"
     inkscape:zoom="1.4949863"
     inkscape:cx="-53.194449"
     inkscape:cy="15.842913"
     inkscape:document-units="mm"
     inkscape:current-layer="layer1"
     showgrid="false"
     fit-margin-top="0"
     fit-margin-left="0"
     fit-margin-right="0"
     fit-margin-bottom="0"
     inkscape:window-width="1366"
     inkscape:window-height="745"
     inkscape:window-x="-8"
     inkscape:window-y="-8"
     inkscape:window-maximized="1" />
  <metadata
     id="metadata20950">
    <rdf:RDF>
      <cc:Work
         rdf:about="">
        <dc:format>image/svg+xml</dc:format>
        <dc:type
           rdf:resource="http://purl.org/dc/dcmitype/StillImage" />
        <dc:title></dc:title>
      </cc:Work>
    </rdf:RDF>
  </metadata>
  <g
     inkscape:label="Layer 1"
     inkscape:groupmode="layer"
     id="layer1"
     transform="translate(-45.28919,-133.1472)">
    <text
       xml:space="preserve"
       style="font-style:normal;font-weight:normal;font-size:4.23333311px;line-height:1.25;font-family:sans-serif;letter-spacing:0px;word-spacing:0px;fill:#000000;fill-opacity:1;stroke:none;stroke-width:0.26458332"
       x="70.045975"
       y="142.4696"
       id="text891"><tspan
         sodipodi:role="line"
         id="tspan889"
         x="70.045975"
         y="146.3318"
         style="stroke-width:0.26458332" /></text>
    <text
       xml:space="preserve"
       style="font-style:normal;font-weight:normal;font-size:6.3499999px;line-height:1.25;font-family:sans-serif;letter-spacing:0px;word-spacing:0px;fill:#000000;fill-opacity:1;stroke:none;stroke-width:0.26458332"
       x="69.878426"
       y="142.46696"
       id="text1433"><tspan
         sodipodi:role="line"
         id="tspan1431"
         x="69.878426"
         y="148.26027"
         style="stroke-width:0.26458332" /></text>
    <path
       id="path2806"
       d="m 57.571841,143.89443 4.199558,2.67753 c 0.17207,0.11382 0.47319,0.10304 0.66139,-0.0163 l 4.161917,-2.63959"
       style="fill:none;stroke:#4a99d9;stroke-width:0.13450359;stroke-linecap:round;stroke-linejoin:miter;stroke-miterlimit:4;stroke-dasharray:none;stroke-opacity:1"
       inkscape:connector-curvature="0" />
    <path
       id="path2808"
       d="m 66.466877,136.4956 -4.069819,-2.67222 c -0.172724,-0.11383 -0.464196,-0.10836 -0.642319,0.0113 l -4.04283,2.64512 c -0.178122,0.11924 -0.188917,0.30896 -0.0162,0.41736 l 4.069818,2.67765 c 0.167327,0.10836 0.458799,0.10304 0.64232,-0.0163 l 4.037431,-2.63971 c 0.18352,-0.11925 0.188918,-0.30895 0.02159,-0.42278 z"
       style="fill:none;stroke:#4a99d9;stroke-width:0.14302807px;stroke-linecap:butt;stroke-linejoin:miter;stroke-miterlimit:4;stroke-dasharray:none;stroke-opacity:0.67843137"
       inkscape:connector-curvature="0" />
    <path
       id="path2810"
       d="m 57.571571,136.65753 v 7.23685"
       style="fill:none;stroke:#4a99d9;stroke-width:0.13494092px;stroke-linecap:butt;stroke-linejoin:miter;stroke-miterlimit:4;stroke-dasharray:none;stroke-opacity:1"
       inkscape:connector-curvature="0"
       sodipodi:nodetypes="cc" />
    <path
       id="path2812"
       d="m 66.594706,136.68618 v 7.22991"
       style="fill:none;stroke:#4a99d9;stroke-width:0.13716197px;stroke-linecap:round;stroke-linejoin:miter;stroke-miterlimit:4;stroke-dasharray:none;stroke-opacity:1"
       inkscape:connector-curvature="0" />
    <path
       id="path2814"
       d="m 62.116381,135.59583 c -0.75567,0 -1.371,0.49325 -1.371,1.10033 0,0.6125 0.61533,1.10575 1.371,1.10575 0.755668,0 1.365602,-0.49325 1.365602,-1.10575 0,-0.60708 -0.609934,-1.10033 -1.365602,-1.10033 z"
       style="fill:none;stroke:#4a99d9;stroke-width:0.13494092px;stroke-linecap:butt;stroke-linejoin:miter;stroke-miterlimit:4;stroke-dasharray:none;stroke-opacity:1"
       inkscape:connector-curvature="0" />
    <g
       aria-label="Умные колонки"
       style="font-style:normal;font-weight:normal;font-size:2.82222223px;line-height:1.25;font-family:sans-serif;letter-spacing:0px;word-spacing:0px;fill:#000000;fill-opacity:1;stroke:none;stroke-width:0.26458332"
       id="text2830">
      <path
         d="m 52.680624,147.74134 -0.779969,1.72669 q -0.04685,0.10473 -0.111622,0.17225 -0.06339,0.0675 -0.137803,0.10473 -0.07166,0.0344 -0.139182,0.0469 -0.06615,0.011 -0.128158,0.011 -0.05512,0 -0.13367,-0.006 -0.07855,-0.006 -0.100596,-0.007 v -0.25494 h 0.01929 q 0.02067,0.003 0.0689,0.01 0.04823,0.006 0.110243,0.006 0.02756,0 0.07717,-0.004 0.04961,-0.004 0.0882,-0.0193 0.0441,-0.0165 0.08682,-0.0524 0.0441,-0.0358 0.07441,-0.10473 l 0.04961,-0.10887 -0.763434,-1.51998 h 0.301791 l 0.599446,1.20992 0.537435,-1.20992 z"
         style="font-size:2.82222223px;stroke-width:0.26458332"
         id="path2832" />
      <path
         d="m 54.399038,149.79324 h -0.256315 v -1.21543 l -0.383095,0.791 h -0.192925 l -0.380339,-0.791 v 1.21543 h -0.242535 v -1.53927 h 0.312815 l 0.418924,0.86128 0.405143,-0.86128 h 0.318327 z"
         style="font-size:2.82222223px;stroke-width:0.26458332"
         id="path2834" />
      <path
         d="m 56.200134,149.79324 h -0.259072 v -0.69315 h -0.770323 v 0.69315 h -0.259071 v -1.53927 h 0.259071 v 0.62288 h 0.770323 v -0.62288 h 0.259072 z"
         style="font-size:2.82222223px;stroke-width:0.26458332"
         id="path2836" />
      <path
         d="m 57.65672,149.32058 q 0,-0.0703 -0.02481,-0.12265 -0.02343,-0.0537 -0.07855,-0.0868 -0.05788,-0.0344 -0.132292,-0.0413 -0.07304,-0.007 -0.21084,-0.007 h -0.242534 v 0.52366 h 0.237022 q 0.137804,0 0.213596,-0.011 0.07579,-0.0124 0.130914,-0.0455 0.0565,-0.0358 0.0813,-0.0841 0.02618,-0.0496 0.02618,-0.1254 z m 0.267339,-0.004 q 0,0.11162 -0.04548,0.20257 -0.0441,0.0909 -0.121267,0.14745 -0.09095,0.0689 -0.194304,0.0978 -0.103353,0.0289 -0.265961,0.0289 H 56.70863 v -1.53927 h 0.259071 v 0.59945 h 0.336241 q 0.173633,0 0.268717,0.0179 0.09646,0.0179 0.191548,0.0882 0.07993,0.0593 0.119889,0.15158 0.03996,0.0923 0.03996,0.20533 z m 0.257693,-1.06247 h 0.259072 v 1.53927 h -0.259072 z"
         style="font-size:2.82222223px;stroke-width:0.26458332"
         id="path2838" />
      <path
         d="m 60.240542,149.05048 h -1.134126 q 0,0.14194 0.04272,0.24805 0.04272,0.10473 0.117134,0.17225 0.07166,0.0662 0.169498,0.0992 0.09922,0.0331 0.21773,0.0331 0.157097,0 0.315571,-0.062 0.159852,-0.0634 0.227376,-0.12402 h 0.01378 v 0.2825 q -0.130914,0.0551 -0.26734,0.0923 -0.136425,0.0372 -0.286632,0.0372 -0.383094,0 -0.598068,-0.2067 -0.214974,-0.20809 -0.214974,-0.5898 0,-0.37759 0.205328,-0.59945 0.206705,-0.22186 0.542947,-0.22186 0.311436,0 0.479557,0.1819 0.169499,0.1819 0.169499,0.51676 z m -0.252181,-0.19844 q -0.0014,-0.20395 -0.103353,-0.31557 -0.100597,-0.11162 -0.307303,-0.11162 -0.208084,0 -0.332107,0.12265 -0.122645,0.12264 -0.139182,0.30454 z"
         style="font-size:2.82222223px;stroke-width:0.26458332"
         id="path2840" />
      <path
         d="m 63.014533,149.79324 h -0.338998 l -0.63941,-0.70555 h -0.140559 v 0.70555 h -0.259072 v -1.53927 h 0.259072 v 0.66422 q 0.128157,0 0.206705,-0.0455 0.07855,-0.0469 0.13367,-0.14882 0.01929,-0.0372 0.03721,-0.0786 0.01929,-0.0427 0.03721,-0.0813 0.07166,-0.15571 0.179145,-0.23289 0.107487,-0.0772 0.308681,-0.0772 h 0.118511 v 0.22325 h -0.114377 q -0.108865,0 -0.170877,0.0469 -0.06063,0.0455 -0.110243,0.16123 -0.05512,0.12954 -0.117133,0.1943 -0.06063,0.0634 -0.129536,0.0965 z"
         style="font-size:2.82222223px;stroke-width:0.26458332"
         id="path2842" />
      <path
         d="m 64.607545,149.0243 q 0,0.3762 -0.192926,0.59393 -0.192925,0.21773 -0.516764,0.21773 -0.326595,0 -0.51952,-0.21773 -0.191548,-0.21773 -0.191548,-0.59393 0,-0.37621 0.191548,-0.59394 0.192925,-0.2191 0.51952,-0.2191 0.323839,0 0.516764,0.2191 0.192926,0.21773 0.192926,0.59394 z m -0.26734,0 q 0,-0.29904 -0.117133,-0.44373 -0.117133,-0.14607 -0.325217,-0.14607 -0.21084,0 -0.327973,0.14607 -0.115755,0.14469 -0.115755,0.44373 0,0.28939 0.117133,0.43959 0.117133,0.14883 0.326595,0.14883 0.206706,0 0.323839,-0.14745 0.118511,-0.14883 0.118511,-0.44097 z"
         style="font-size:2.82222223px;stroke-width:0.26458332"
         id="path2844" />
      <path
         d="m 66.251544,149.79324 h -0.259071 v -1.32154 h -0.574642 q -0.0041,0.11438 -0.0083,0.22049 -0.0041,0.10611 -0.0083,0.19155 -0.0096,0.23013 -0.03169,0.36793 -0.02205,0.13643 -0.05788,0.22738 -0.03307,0.0854 -0.07441,0.13918 -0.03996,0.0524 -0.08682,0.0951 -0.04685,0.0413 -0.104731,0.062 -0.0565,0.0207 -0.124023,0.0207 -0.02343,0 -0.0689,-0.001 -0.0441,-0.001 -0.05788,-0.001 v -0.22599 h 0.01378 q 0.01102,0 0.03169,0.001 0.02067,0.001 0.03445,0.001 0.03307,0 0.06752,-0.01 0.03583,-0.01 0.06063,-0.0358 0.07028,-0.0689 0.112999,-0.23289 0.04272,-0.16399 0.0565,-0.47405 0.0055,-0.113 0.0096,-0.26734 0.0055,-0.15572 0.0096,-0.29628 h 1.059711 z"
         style="font-size:2.82222223px;stroke-width:0.26458332"
         id="path2846" />
      <path
         d="m 68.074689,149.0243 q 0,0.3762 -0.192926,0.59393 -0.192925,0.21773 -0.516764,0.21773 -0.326595,0 -0.51952,-0.21773 -0.191548,-0.21773 -0.191548,-0.59393 0,-0.37621 0.191548,-0.59394 0.192925,-0.2191 0.51952,-0.2191 0.323839,0 0.516764,0.2191 0.192926,0.21773 0.192926,0.59394 z m -0.26734,0 q 0,-0.29904 -0.117133,-0.44373 -0.117133,-0.14607 -0.325217,-0.14607 -0.21084,0 -0.327973,0.14607 -0.115755,0.14469 -0.115755,0.44373 0,0.28939 0.117133,0.43959 0.117133,0.14883 0.326595,0.14883 0.206706,0 0.323839,-0.14745 0.118511,-0.14883 0.118511,-0.44097 z"
         style="font-size:2.82222223px;stroke-width:0.26458332"
         id="path2848" />
      <path
         d="m 69.765542,149.79324 h -0.259071 v -0.69315 h -0.770323 v 0.69315 h -0.259072 v -1.53927 h 0.259072 v 0.62288 h 0.770323 v -0.62288 h 0.259071 z"
         style="font-size:2.82222223px;stroke-width:0.26458332"
         id="path2850" />
      <path
         d="m 71.6631,149.79324 h -0.338998 l -0.639409,-0.70555 h -0.14056 v 0.70555 h -0.259071 v -1.53927 h 0.259071 v 0.66422 q 0.128157,0 0.206705,-0.0455 0.07855,-0.0469 0.13367,-0.14882 0.01929,-0.0372 0.03721,-0.0786 0.01929,-0.0427 0.03721,-0.0813 0.07166,-0.15571 0.179145,-0.23289 0.107487,-0.0772 0.308681,-0.0772 h 0.118511 v 0.22325 h -0.114377 q -0.108865,0 -0.170877,0.0469 -0.06063,0.0455 -0.110243,0.16123 -0.05512,0.12954 -0.117133,0.1943 -0.06063,0.0634 -0.129536,0.0965 z"
         style="font-size:2.82222223px;stroke-width:0.26458332"
         id="path2852" />
      <path
         d="m 73.240954,149.79324 h -0.256315 v -1.15617 l -0.806152,1.15617 H 71.94422 v -1.53927 h 0.256316 v 1.13964 l 0.797884,-1.13964 h 0.242534 z"
         style="font-size:2.82222223px;stroke-width:0.26458332"
         id="path2854" />
    </g>
  </g>
</svg>
