<?xml version="1.0" encoding="UTF-8" standalone="no"?>
<!-- Created with Inkscape (http://www.inkscape.org/) -->

<svg
   xmlns:dc="http://purl.org/dc/elements/1.1/"
   xmlns:cc="http://creativecommons.org/ns#"
   xmlns:rdf="http://www.w3.org/1999/02/22-rdf-syntax-ns#"
   xmlns:svg="http://www.w3.org/2000/svg"
   xmlns="http://www.w3.org/2000/svg"
   xmlns:sodipodi="http://sodipodi.sourceforge.net/DTD/sodipodi-0.dtd"
   xmlns:inkscape="http://www.inkscape.org/namespaces/inkscape"
   width="13.39046mm"
   height="13.48382mm"
   viewBox="0 0 13.390461 13.48382"
   version="1.1"
   id="svg20953"
   inkscape:version="0.92.2 (5c3e80d, 2017-08-06)"
   sodipodi:docname="emiia23.svg"
   inkscape:export-filename="C:\Users\User1\Desktop\15 Владимир 3д макс\IoT &amp; IIoT\infografics\Соцсети\fog88.png"
   inkscape:export-xdpi="1182.2"
   inkscape:export-ydpi="1182.2">
  <defs
     id="defs20947" />
  <sodipodi:namedview
     id="base"
     pagecolor="#ffffff"
     bordercolor="#666666"
     borderopacity="1.0"
     inkscape:pageopacity="0.0"
     inkscape:pageshadow="2"
     inkscape:zoom="2.1142299"
     inkscape:cx="-4.8519657"
     inkscape:cy="31.596636"
     inkscape:document-units="mm"
     inkscape:current-layer="layer1"
     showgrid="false"
     fit-margin-top="0"
     fit-margin-left="0"
     fit-margin-right="0"
     fit-margin-bottom="0"
     inkscape:window-width="1366"
     inkscape:window-height="745"
     inkscape:window-x="-8"
     inkscape:window-y="-8"
     inkscape:window-maximized="1" />
  <metadata
     id="metadata20950">
    <rdf:RDF>
      <cc:Work
         rdf:about="">
        <dc:format>image/svg+xml</dc:format>
        <dc:type
           rdf:resource="http://purl.org/dc/dcmitype/StillImage" />
        <dc:title></dc:title>
      </cc:Work>
    </rdf:RDF>
  </metadata>
  <g
     inkscape:label="Layer 1"
     inkscape:groupmode="layer"
     id="layer1"
     transform="translate(-49.304447,-134.3368)">
    <text
       xml:space="preserve"
       style="font-style:normal;font-weight:normal;font-size:4.23333311px;line-height:1.25;font-family:sans-serif;letter-spacing:0px;word-spacing:0px;fill:#000000;fill-opacity:1;stroke:none;stroke-width:0.26458332"
       x="70.045975"
       y="142.4696"
       id="text891"><tspan
         sodipodi:role="line"
         id="tspan889"
         x="70.045975"
         y="146.3318"
         style="stroke-width:0.26458332" /></text>
    <polygon
       transform="matrix(0.00613869,0,0,0.00613775,8.7569809,109.64961)"
       style="clip-rule:evenodd;fill:#000000;fill-rule:evenodd;stroke-width:1.62913418;image-rendering:optimizeQuality;shape-rendering:geometricPrecision;text-rendering:geometricPrecision"
       id="polygon824"
       points="8298.74,4816.12 8297.33,4826 8305.8,4826 "
       class="fil1" />
    <polygon
       transform="matrix(0.00613869,0,0,0.00613775,8.7569809,109.64961)"
       style="clip-rule:evenodd;fill:#000000;fill-rule:evenodd;stroke-width:1.62913418;image-rendering:optimizeQuality;shape-rendering:geometricPrecision;text-rendering:geometricPrecision"
       id="polygon826"
       points="7085.19,5369.28 7086.6,5359.4 7078.14,5359.4 "
       class="fil1" />
    <g
       style="fill:none;fill-opacity:1;stroke:#4e9bda;stroke-width:0.2835567;stroke-miterlimit:4;stroke-dasharray:none;stroke-opacity:1"
       id="g23096"
       transform="matrix(0.35266314,0,0,0.35266314,36.527589,136.47826)" />
    <g
       style="fill:none;fill-opacity:1;stroke:#4e9bda;stroke-width:0.2835567;stroke-miterlimit:4;stroke-dasharray:none;stroke-opacity:1"
       id="g23098"
       transform="matrix(0.35266314,0,0,0.35266314,36.527589,136.47826)" />
    <g
       style="fill:none;fill-opacity:1;stroke:#4e9bda;stroke-width:0.2835567;stroke-miterlimit:4;stroke-dasharray:none;stroke-opacity:1"
       id="g23100"
       transform="matrix(0.35266314,0,0,0.35266314,36.527589,136.47826)" />
    <g
       style="fill:none;fill-opacity:1;stroke:#4e9bda;stroke-width:0.2835567;stroke-miterlimit:4;stroke-dasharray:none;stroke-opacity:1"
       id="g23102"
       transform="matrix(0.35266314,0,0,0.35266314,36.527589,136.47826)" />
    <g
       style="fill:none;fill-opacity:1;stroke:#4e9bda;stroke-width:0.2835567;stroke-miterlimit:4;stroke-dasharray:none;stroke-opacity:1"
       id="g23104"
       transform="matrix(0.35266314,0,0,0.35266314,36.527589,136.47826)" />
    <g
       style="fill:none;fill-opacity:1;stroke:#4e9bda;stroke-width:0.2835567;stroke-miterlimit:4;stroke-dasharray:none;stroke-opacity:1"
       id="g23106"
       transform="matrix(0.35266314,0,0,0.35266314,36.527589,136.47826)" />
    <g
       style="fill:none;fill-opacity:1;stroke:#4e9bda;stroke-width:0.2835567;stroke-miterlimit:4;stroke-dasharray:none;stroke-opacity:1"
       id="g23108"
       transform="matrix(0.35266314,0,0,0.35266314,36.527589,136.47826)" />
    <g
       style="fill:none;fill-opacity:1;stroke:#4e9bda;stroke-width:0.2835567;stroke-miterlimit:4;stroke-dasharray:none;stroke-opacity:1"
       id="g23110"
       transform="matrix(0.35266314,0,0,0.35266314,36.527589,136.47826)" />
    <g
       style="fill:none;fill-opacity:1;stroke:#4e9bda;stroke-width:0.2835567;stroke-miterlimit:4;stroke-dasharray:none;stroke-opacity:1"
       id="g23112"
       transform="matrix(0.35266314,0,0,0.35266314,36.527589,136.47826)" />
    <g
       style="fill:none;fill-opacity:1;stroke:#4e9bda;stroke-width:0.2835567;stroke-miterlimit:4;stroke-dasharray:none;stroke-opacity:1"
       id="g23114"
       transform="matrix(0.35266314,0,0,0.35266314,36.527589,136.47826)" />
    <g
       style="fill:none;fill-opacity:1;stroke:#4e9bda;stroke-width:0.2835567;stroke-miterlimit:4;stroke-dasharray:none;stroke-opacity:1"
       id="g23116"
       transform="matrix(0.35266314,0,0,0.35266314,36.527589,136.47826)" />
    <g
       style="fill:none;fill-opacity:1;stroke:#4e9bda;stroke-width:0.2835567;stroke-miterlimit:4;stroke-dasharray:none;stroke-opacity:1"
       id="g23118"
       transform="matrix(0.35266314,0,0,0.35266314,36.527589,136.47826)" />
    <g
       style="fill:none;fill-opacity:1;stroke:#4e9bda;stroke-width:0.2835567;stroke-miterlimit:4;stroke-dasharray:none;stroke-opacity:1"
       id="g23120"
       transform="matrix(0.35266314,0,0,0.35266314,36.527589,136.47826)" />
    <g
       style="fill:none;fill-opacity:1;stroke:#4e9bda;stroke-width:0.2835567;stroke-miterlimit:4;stroke-dasharray:none;stroke-opacity:1"
       id="g23122"
       transform="matrix(0.35266314,0,0,0.35266314,36.527589,136.47826)" />
    <g
       style="fill:none;fill-opacity:1;stroke:#4e9bda;stroke-width:0.2835567;stroke-miterlimit:4;stroke-dasharray:none;stroke-opacity:1"
       id="g23124"
       transform="matrix(0.35266314,0,0,0.35266314,36.527589,136.47826)" />
    <path
       id="path23241"
       d="m 61.140312,144.10204 -2.169439,-1.44675 c -0.275309,-0.18211 -0.644348,-0.12214 -0.847882,0.13772 l -0.631934,0.81249 c -0.08122,0.107 -0.228841,0.13815 -0.34633,0.073 l -0.120206,-0.0663 c -0.398489,-0.21721 -0.894308,-0.48761 -1.893293,-1.48695 -0.998985,-0.99934 -1.269941,-1.49554 -1.487142,-1.8933 l -0.06591,-0.12015 c -0.06617,-0.11752 -0.03569,-0.26572 0.07144,-0.34759 l 0.811964,-0.63174 c 0.259801,-0.20356 0.319809,-0.5725 0.137895,-0.84789 l -1.446766,-2.16944 c -0.186436,-0.28047 -0.560477,-0.36469 -0.849098,-0.19119 l -0.907181,0.54496 c -0.285042,0.16757 -0.494165,0.43896 -0.583522,0.75731 -0.326673,1.19027 -0.08092,3.24452 2.945152,6.27093 2.407174,2.40699 4.199204,3.05429 5.430924,3.05429 0.283473,9.8e-4 0.565834,-0.0357 0.839489,-0.10975 0.318406,-0.0893 0.589842,-0.29841 0.757313,-0.58353 l 0.545489,-0.90664 c 0.173749,-0.2887 0.0896,-0.66296 -0.190957,-0.84949 z m -0.116814,0.66624 -0.544233,0.90719 c -0.120247,0.20579 -0.315476,0.3571 -0.544777,0.42222 -1.098826,0.30171 -3.018557,0.0517 -5.923708,-2.85333 -2.90515,-2.90514 -3.155006,-4.82472 -2.853327,-5.92372 0.06522,-0.22957 0.216724,-0.42506 0.422771,-0.54548 l 0.907181,-0.54422 c 0.125229,-0.0754 0.287575,-0.0389 0.368473,0.0828 l 0.785906,1.1799 0.659626,0.98935 c 0.079,0.1195 0.05304,0.27955 -0.05966,0.36796 l -0.812154,0.63173 c -0.247155,0.18899 -0.317736,0.53096 -0.165565,0.80234 l 0.0645,0.11712 c 0.228274,0.41866 0.512081,0.9395 1.54822,1.97549 1.036139,1.03594 1.556802,1.31976 1.97528,1.54802 l 0.117345,0.0647 c 0.271372,0.15215 0.613348,0.0817 0.802336,-0.16558 l 0.631745,-0.81215 c 0.08841,-0.11266 0.248455,-0.13854 0.367952,-0.0596 l 2.16925,1.44678 c 0.121782,0.0808 0.158301,0.24327 0.08284,0.36847 z"
       inkscape:connector-curvature="0"
       style="fill:#4e9bda;fill-opacity:1;stroke-width:0.02093123" />
    <g
       id="g23255"
       transform="matrix(0.01775382,0,0,0.01775382,36.561904,137.21002)" />
    <g
       id="g23257"
       transform="matrix(0.01775382,0,0,0.01775382,36.561904,137.21002)" />
    <g
       id="g23259"
       transform="matrix(0.01775382,0,0,0.01775382,36.561904,137.21002)" />
    <g
       id="g23261"
       transform="matrix(0.01775382,0,0,0.01775382,36.561904,137.21002)" />
    <g
       id="g23263"
       transform="matrix(0.01775382,0,0,0.01775382,36.561904,137.21002)" />
    <g
       id="g23265"
       transform="matrix(0.01775382,0,0,0.01775382,36.561904,137.21002)" />
    <g
       id="g23267"
       transform="matrix(0.01775382,0,0,0.01775382,36.561904,137.21002)" />
    <g
       id="g23269"
       transform="matrix(0.01775382,0,0,0.01775382,36.561904,137.21002)" />
    <g
       id="g23271"
       transform="matrix(0.01775382,0,0,0.01775382,36.561904,137.21002)" />
    <g
       id="g23273"
       transform="matrix(0.01775382,0,0,0.01775382,36.561904,137.21002)" />
    <g
       id="g23275"
       transform="matrix(0.01775382,0,0,0.01775382,36.561904,137.21002)" />
    <g
       id="g23277"
       transform="matrix(0.01775382,0,0,0.01775382,36.561904,137.21002)" />
    <g
       id="g23279"
       transform="matrix(0.01775382,0,0,0.01775382,36.561904,137.21002)" />
    <g
       id="g23281"
       transform="matrix(0.01775382,0,0,0.01775382,36.561904,137.21002)" />
    <g
       id="g23283"
       transform="matrix(0.01775382,0,0,0.01775382,36.561904,137.21002)" />
  </g>
</svg>
