<?xml version="1.0" encoding="UTF-8" standalone="no"?>
<svg
   xmlns:dc="http://purl.org/dc/elements/1.1/"
   xmlns:cc="http://creativecommons.org/ns#"
   xmlns:rdf="http://www.w3.org/1999/02/22-rdf-syntax-ns#"
   xmlns:svg="http://www.w3.org/2000/svg"
   xmlns="http://www.w3.org/2000/svg"
   xmlns:sodipodi="http://sodipodi.sourceforge.net/DTD/sodipodi-0.dtd"
   xmlns:inkscape="http://www.inkscape.org/namespaces/inkscape"
   class="icon"
   height="1333"
   viewBox="0 0 1000 2666"
   version="1.1"
   id="svg12013"
   sodipodi:docname="emiia45.svg"
   width="1000"
   inkscape:version="0.92.2 (5c3e80d, 2017-08-06)">
  <metadata
     id="metadata12019">
    <rdf:RDF>
      <cc:Work
         rdf:about="">
        <dc:format>image/svg+xml</dc:format>
        <dc:type
           rdf:resource="http://purl.org/dc/dcmitype/StillImage" />
        <dc:title />
      </cc:Work>
    </rdf:RDF>
  </metadata>
  <defs
     id="defs12017">
    <pattern
       y="0"
       x="0"
       height="6"
       width="6"
       patternUnits="userSpaceOnUse"
       id="EMFhbasepattern" />
  </defs>
  <sodipodi:namedview
     pagecolor="#ffffff"
     bordercolor="#666666"
     borderopacity="1"
     objecttolerance="10"
     gridtolerance="10"
     guidetolerance="10"
     inkscape:pageopacity="0"
     inkscape:pageshadow="2"
     inkscape:window-width="1366"
     inkscape:window-height="745"
     id="namedview12015"
     showgrid="false"
     inkscape:zoom="0.52480582"
     inkscape:cx="547.77745"
     inkscape:cy="500.75689"
     inkscape:window-x="-8"
     inkscape:window-y="-8"
     inkscape:window-maximized="1"
     inkscape:current-layer="svg12013" />
  <path
     inkscape:connector-curvature="0"
     id="path10706"
     style="font-style:normal;font-variant:normal;font-weight:normal;font-stretch:normal;font-size:106.66666412px;line-height:1.54999995;font-family:Orbitron;-inkscape-font-specification:Orbitron;text-align:center;letter-spacing:0px;word-spacing:0px;text-anchor:middle;fill:#e9e9e9;fill-opacity:1;stroke:none;stroke-width:1.10213625"
     d="m 133.00321,1261.6421 h 38.61886 v 4.7612 h -33.85763 v 13.9898 h 27.21542 v 4.8201 h -27.21542 v 18.7509 h -4.76123 z" />
  <path
     inkscape:connector-curvature="0"
     id="path10708"
     style="font-style:normal;font-variant:normal;font-weight:normal;font-stretch:normal;font-size:106.66666412px;line-height:1.54999995;font-family:Orbitron;-inkscape-font-specification:Orbitron;text-align:center;letter-spacing:0px;word-spacing:0px;text-anchor:middle;fill:#e9e9e9;fill-opacity:1;stroke:none;stroke-width:1.10213625"
     d="m 182.29993,1261.6421 h 28.21468 q 2.93903,0 4.99635,2.0574 2.05733,2.0573 2.05733,4.9963 v 28.2147 q 0,2.939 -2.05733,4.9963 -2.05732,2.0573 -4.99635,2.0573 h -28.21468 q -2.93903,0 -4.99635,-2.0573 -2.05732,-2.0573 -2.05732,-4.9963 v -28.2147 q 0,-2.939 2.05732,-4.9963 2.05732,-2.0574 4.99635,-2.0574 z m 0,37.5608 h 28.21468 q 0.94049,0 1.58708,-0.6466 0.70537,-0.7053 0.70537,-1.6458 v -28.2147 q 0,-0.9405 -0.70537,-1.5871 -0.64659,-0.7054 -1.58708,-0.7054 h -28.21468 q -0.94049,0 -1.64586,0.7054 -0.64659,0.6466 -0.64659,1.5871 v 28.2147 q 0,0.9405 0.64659,1.6458 0.70537,0.6466 1.64586,0.6466 z" />
  <path
     inkscape:connector-curvature="0"
     id="path10710"
     style="font-style:normal;font-variant:normal;font-weight:normal;font-stretch:normal;font-size:106.66666412px;line-height:1.54999995;font-family:Orbitron;-inkscape-font-specification:Orbitron;text-align:center;letter-spacing:0px;word-spacing:0px;text-anchor:middle;fill:#e9e9e9;fill-opacity:1;stroke:none;stroke-width:1.10213625"
     d="m 266.36353,1268.6958 v 1.7046 h -4.76123 v -1.7046 q 0,-0.9405 -0.70537,-1.5871 -0.64659,-0.7054 -1.58708,-0.7054 h -28.21468 q -0.94049,0 -1.64586,0.7054 -0.64658,0.6466 -0.64658,1.5871 v 28.2147 q 0,0.9405 0.64658,1.6458 0.70537,0.6466 1.64586,0.6466 h 28.21468 q 0.94049,0 1.58708,-0.6466 0.70537,-0.7053 0.70537,-1.6458 v -10.4629 h -10.46295 v -4.8201 h 15.22418 v 15.283 q 0,2.939 -2.05732,4.9963 -2.05733,2.0573 -4.99636,2.0573 h -28.21468 q -2.93903,0 -4.99635,-2.0573 -2.05732,-2.0573 -2.05732,-4.9963 v -28.2147 q 0,-2.939 2.05732,-4.9963 2.05732,-2.0574 4.99635,-2.0574 h 28.21468 q 2.93903,0 4.99636,2.0574 2.05732,2.0573 2.05732,4.9963 z" />
  <path
     inkscape:connector-curvature="0"
     id="path10712"
     style="font-style:normal;font-variant:normal;font-weight:normal;font-stretch:normal;font-size:106.66666412px;line-height:1.54999995;font-family:Orbitron;-inkscape-font-specification:Orbitron;text-align:center;letter-spacing:0px;word-spacing:0px;text-anchor:middle;fill:#e9e9e9;fill-opacity:1;stroke:none;stroke-width:1.10213625"
     d="m 269.89495,1297.7334 29.74298,-36.0913 v 6.1132 l -29.74298,36.2088 z" />
  <path
     inkscape:connector-curvature="0"
     id="path10714"
     style="font-style:normal;font-variant:normal;font-weight:normal;font-stretch:normal;font-size:106.66666412px;line-height:1.54999995;font-family:Orbitron;-inkscape-font-specification:Orbitron;text-align:center;letter-spacing:0px;word-spacing:0px;text-anchor:middle;fill:#e9e9e9;fill-opacity:1;stroke:none;stroke-width:1.10213625"
     d="m 342.22355,1261.6421 v 4.7612 h -33.85762 v 13.9898 h 27.21542 v 4.8201 h -27.21542 v 13.9897 h 33.85762 v 4.7612 h -38.61884 v -42.322 z" />
  <path
     inkscape:connector-curvature="0"
     id="path10716"
     style="font-style:normal;font-variant:normal;font-weight:normal;font-stretch:normal;font-size:106.66666412px;line-height:1.54999995;font-family:Orbitron;-inkscape-font-specification:Orbitron;text-align:center;letter-spacing:0px;word-spacing:0px;text-anchor:middle;fill:#e9e9e9;fill-opacity:1;stroke:none;stroke-width:1.10213625"
     d="m 348.60861,1261.6421 h 35.26836 q 2.93903,0 4.99635,2.0574 2.05732,2.0573 2.05732,4.9963 v 28.2147 q 0,2.939 -2.05732,4.9963 -2.05732,2.0573 -4.99635,2.0573 h -35.26836 z m 37.5608,35.2684 v -28.2147 q 0,-0.9405 -0.70537,-1.5871 -0.64658,-0.7054 -1.58707,-0.7054 h -28.21469 q -0.94049,0 -1.64585,0.7054 -0.64659,0.6466 -0.64659,1.5871 v 28.2147 q 0,0.9405 0.64659,1.6458 0.70536,0.6466 1.64585,0.6466 h 28.21469 q 0.94049,0 1.58707,-0.6466 0.70537,-0.7053 0.70537,-1.6458 z" />
  <path
     inkscape:connector-curvature="0"
     id="path10718"
     style="font-style:normal;font-variant:normal;font-weight:normal;font-stretch:normal;font-size:106.66666412px;line-height:1.54999995;font-family:Orbitron;-inkscape-font-specification:Orbitron;text-align:center;letter-spacing:0px;word-spacing:0px;text-anchor:middle;fill:#e9e9e9;fill-opacity:1;stroke:none;stroke-width:1.10213625"
     d="m 439.83517,1268.6958 v 1.7046 h -4.76123 v -1.7046 q 0,-0.9405 -0.70537,-1.5871 -0.64658,-0.7054 -1.58708,-0.7054 h -28.21468 q -0.94049,0 -1.64586,0.7054 -0.64659,0.6466 -0.64659,1.5871 v 28.2147 q 0,0.9405 0.64659,1.6458 0.70537,0.6466 1.64586,0.6466 h 28.21468 q 0.9405,0 1.58708,-0.6466 0.70537,-0.7053 0.70537,-1.6458 v -10.4629 h -10.46295 v -4.8201 h 15.22418 v 15.283 q 0,2.939 -2.05732,4.9963 -2.05733,2.0573 -4.99636,2.0573 h -28.21468 q -2.93903,0 -4.99635,-2.0573 -2.05732,-2.0573 -2.05732,-4.9963 v -28.2147 q 0,-2.939 2.05732,-4.9963 2.05732,-2.0574 4.99635,-2.0574 h 28.21468 q 2.93903,0 4.99636,2.0574 2.05732,2.0573 2.05732,4.9963 z" />
  <path
     inkscape:connector-curvature="0"
     id="path10720"
     style="font-style:normal;font-variant:normal;font-weight:normal;font-stretch:normal;font-size:106.66666412px;line-height:1.54999995;font-family:Orbitron;-inkscape-font-specification:Orbitron;text-align:center;letter-spacing:0px;word-spacing:0px;text-anchor:middle;fill:#e9e9e9;fill-opacity:1;stroke:none;stroke-width:1.10213625"
     d="m 485.04205,1261.6421 v 4.7612 h -33.85763 v 13.9898 h 27.21542 v 4.8201 h -27.21542 v 13.9897 h 33.85763 v 4.7612 H 446.4232 v -42.322 z" />
  <path
     inkscape:connector-curvature="0"
     id="path10722"
     style="font-style:normal;font-variant:normal;font-weight:normal;font-stretch:normal;font-size:106.66666412px;line-height:1.54999995;font-family:Orbitron;-inkscape-font-specification:Orbitron;text-align:center;letter-spacing:0px;word-spacing:0px;text-anchor:middle;fill:#e9e9e9;fill-opacity:1;stroke:none;stroke-width:1.10213625"
     d="m 549.47202,1266.4033 h -35.1508 q -0.94049,0 -1.64586,0.7054 -0.64659,0.6466 -0.64659,1.5871 v 28.2147 q 0,0.9405 0.64659,1.6458 0.70537,0.6466 1.64586,0.6466 h 35.1508 v 4.7612 h -35.1508 q -2.93903,0 -4.99636,-2.0573 -2.05731,-2.0573 -2.05731,-4.9963 v -28.2147 q 0,-2.939 2.05731,-4.9963 2.05733,-2.0574 4.99636,-2.0574 h 35.1508 z" />
  <path
     inkscape:connector-curvature="0"
     id="path10724"
     style="font-style:normal;font-variant:normal;font-weight:normal;font-stretch:normal;font-size:106.66666412px;line-height:1.54999995;font-family:Orbitron;-inkscape-font-specification:Orbitron;text-align:center;letter-spacing:0px;word-spacing:0px;text-anchor:middle;fill:#e9e9e9;fill-opacity:1;stroke:none;stroke-width:1.10213625"
     d="m 562.53691,1261.6421 h 28.21469 q 2.93902,0 4.99634,2.0574 2.05733,2.0573 2.05733,4.9963 v 28.2147 q 0,2.939 -2.05733,4.9963 -2.05732,2.0573 -4.99634,2.0573 h -28.21469 q -2.93903,0 -4.99635,-2.0573 -2.05732,-2.0573 -2.05732,-4.9963 v -28.2147 q 0,-2.939 2.05732,-4.9963 2.05732,-2.0574 4.99635,-2.0574 z m 0,37.5608 h 28.21469 q 0.94048,0 1.58707,-0.6466 0.70537,-0.7053 0.70537,-1.6458 v -28.2147 q 0,-0.9405 -0.70537,-1.5871 -0.64659,-0.7054 -1.58707,-0.7054 h -28.21469 q -0.94049,0 -1.64586,0.7054 -0.64658,0.6466 -0.64658,1.5871 v 28.2147 q 0,0.9405 0.64658,1.6458 0.70537,0.6466 1.64586,0.6466 z" />
  <path
     inkscape:connector-curvature="0"
     id="path10726"
     style="font-style:normal;font-variant:normal;font-weight:normal;font-stretch:normal;font-size:106.66666412px;line-height:1.54999995;font-family:Orbitron;-inkscape-font-specification:Orbitron;text-align:center;letter-spacing:0px;word-spacing:0px;text-anchor:middle;fill:#e9e9e9;fill-opacity:1;stroke:none;stroke-width:1.10213625"
     d="m 628.37851,1282.568 17.5754,-20.9259 h 6.52465 v 42.322 h -4.76123 V 1267.05 l -19.33882,22.9831 -19.33881,-22.9831 v 36.9141 h -4.76123 v -42.322 h 6.52465 z" />
  <path
     inkscape:connector-curvature="0"
     id="path10728"
     style="font-style:normal;font-variant:normal;font-weight:normal;font-stretch:normal;font-size:106.66666412px;line-height:1.54999995;font-family:Orbitron;-inkscape-font-specification:Orbitron;text-align:center;letter-spacing:0px;word-spacing:0px;text-anchor:middle;fill:#e9e9e9;fill-opacity:1;stroke:none;stroke-width:1.10213625"
     d="m 658.81124,1261.7009 h 35.26836 q 2.93903,0 4.99635,2.0573 2.05732,2.0574 2.05732,4.9964 v 12.4027 q 0,2.939 -2.05732,4.9963 -2.05732,2.0574 -4.99635,2.0574 h -28.21469 q -0.52902,0 -2.29244,-0.2352 v 15.9883 h -4.76123 z m 37.5608,19.4564 v -12.4027 q 0,-0.9405 -0.70537,-1.5871 -0.64659,-0.7054 -1.58707,-0.7054 h -28.21469 q -0.94049,0 -1.64586,0.7054 -0.64658,0.6466 -0.64658,1.5871 v 12.4027 q 0,0.9405 0.64658,1.5871 0.70537,0.6465 1.64586,0.6465 h 28.21469 q 0.94048,0 1.58707,-0.6465 0.70537,-0.6466 0.70537,-1.5871 z" />
  <path
     inkscape:connector-curvature="0"
     id="path10730"
     style="font-style:normal;font-variant:normal;font-weight:normal;font-stretch:normal;font-size:106.66666412px;line-height:1.54999995;font-family:Orbitron;-inkscape-font-specification:Orbitron;text-align:center;letter-spacing:0px;word-spacing:0px;text-anchor:middle;fill:#e9e9e9;fill-opacity:1;stroke:none;stroke-width:1.10213625"
     d="m 742.75089,1296.9105 v -35.2684 h 4.76122 v 35.2684 q 0,2.939 -2.05732,4.9963 -2.05732,2.0573 -4.99635,2.0573 h -28.21468 q -2.93904,0 -4.99636,-2.0573 -2.05732,-2.0573 -2.05732,-4.9963 v -35.2684 h 4.76123 v 35.2684 q 0,0.9405 0.64659,1.6458 0.70536,0.6466 1.64586,0.6466 h 28.21468 q 0.94049,0 1.58708,-0.6466 0.70537,-0.7053 0.70537,-1.6458 z" />
  <path
     inkscape:connector-curvature="0"
     id="path10732"
     style="font-style:normal;font-variant:normal;font-weight:normal;font-stretch:normal;font-size:106.66666412px;line-height:1.54999995;font-family:Orbitron;-inkscape-font-specification:Orbitron;text-align:center;letter-spacing:0px;word-spacing:0px;text-anchor:middle;fill:#e9e9e9;fill-opacity:1;stroke:none;stroke-width:1.10213625"
     d="m 751.86918,1261.6421 h 42.32203 v 4.7612 H 775.4402 v 37.5608 h -4.76123 v -37.5608 h -18.80979 z" />
  <path
     inkscape:connector-curvature="0"
     id="path10734"
     style="font-style:normal;font-variant:normal;font-weight:normal;font-stretch:normal;font-size:106.66666412px;line-height:1.54999995;font-family:Orbitron;-inkscape-font-specification:Orbitron;text-align:center;letter-spacing:0px;word-spacing:0px;text-anchor:middle;fill:#e9e9e9;fill-opacity:1;stroke:none;stroke-width:1.10213625"
     d="m 798.70357,1303.9641 v -42.322 h 4.76123 v 42.322 z" />
  <path
     inkscape:connector-curvature="0"
     id="path10736"
     style="font-style:normal;font-variant:normal;font-weight:normal;font-stretch:normal;font-size:106.66666412px;line-height:1.54999995;font-family:Orbitron;-inkscape-font-specification:Orbitron;text-align:center;letter-spacing:0px;word-spacing:0px;text-anchor:middle;fill:#e9e9e9;fill-opacity:1;stroke:none;stroke-width:1.10213625"
     d="m 849.17865,1298.5563 v -36.9142 h 4.76123 v 42.322 h -6.52465 L 816.37908,1267.05 v 36.9141 h -4.76123 v -42.322 h 6.52465 z" />
  <path
     inkscape:connector-curvature="0"
     id="path10738"
     style="font-style:normal;font-variant:normal;font-weight:normal;font-stretch:normal;font-size:106.66666412px;line-height:1.54999995;font-family:Orbitron;-inkscape-font-specification:Orbitron;text-align:center;letter-spacing:0px;word-spacing:0px;text-anchor:middle;fill:#e9e9e9;fill-opacity:1;stroke:none;stroke-width:1.10213625"
     d="m 902.84717,1268.6958 v 1.7046 h -4.76122 v -1.7046 q 0,-0.9405 -0.70537,-1.5871 -0.64657,-0.7054 -1.58708,-0.7054 h -28.21468 q -0.94051,0 -1.64588,0.7054 -0.64657,0.6466 -0.64657,1.5871 v 28.2147 q 0,0.9405 0.64657,1.6458 0.70537,0.6466 1.64588,0.6466 h 28.21468 q 0.94051,0 1.58708,-0.6466 0.70537,-0.7053 0.70537,-1.6458 v -10.4629 h -10.46297 v -4.8201 h 15.22419 v 15.283 q 0,2.939 -2.0573,4.9963 -2.05736,2.0573 -4.99637,2.0573 h -28.21468 q -2.93902,0 -4.99637,-2.0573 -2.05731,-2.0573 -2.05731,-4.9963 v -28.2147 q 0,-2.939 2.05731,-4.9963 2.05735,-2.0574 4.99637,-2.0574 h 28.21468 q 2.93901,0 4.99637,2.0574 2.0573,2.0573 2.0573,4.9963 z" />
  <path
     inkscape:connector-curvature="0"
     id="path10740"
     style="font-style:normal;font-variant:normal;font-weight:normal;font-stretch:normal;font-size:106.66666412px;line-height:1.54999995;font-family:Orbitron;-inkscape-font-specification:Orbitron;text-align:center;letter-spacing:0px;word-spacing:0px;text-anchor:middle;fill:#e9e9e9;fill-opacity:1;stroke:none;stroke-width:1.10213625"
     d="m 108.32271,1360.7521 h 5.17269 l -15.40051,42.322 H 93.92147 L 80.754612,1366.924 67.58776,1403.0741 h -4.114643 l -15.400513,-42.322 h 5.055129 l 12.402708,33.9751 12.343926,-33.9751 h 5.760496 l 12.402708,33.9751 z" />
  <path
     inkscape:connector-curvature="0"
     id="path10742"
     style="font-style:normal;font-variant:normal;font-weight:normal;font-stretch:normal;font-size:106.66666412px;line-height:1.54999995;font-family:Orbitron;-inkscape-font-specification:Orbitron;text-align:center;letter-spacing:0px;word-spacing:0px;text-anchor:middle;fill:#e9e9e9;fill-opacity:1;stroke:none;stroke-width:1.10213625"
     d="m 118.70851,1403.0741 v -42.322 h 4.76123 v 42.322 z" />
  <path
     inkscape:connector-curvature="0"
     id="path10744"
     style="font-style:normal;font-variant:normal;font-weight:normal;font-stretch:normal;font-size:106.66666412px;line-height:1.54999995;font-family:Orbitron;-inkscape-font-specification:Orbitron;text-align:center;letter-spacing:0px;word-spacing:0px;text-anchor:middle;fill:#e9e9e9;fill-opacity:1;stroke:none;stroke-width:1.10213625"
     d="m 173.88604,1367.8645 v 12.4027 q 0,2.939 -2.05732,4.9964 -2.05732,2.0573 -4.99635,2.0573 h -6.46586 l 13.28441,15.7532 h -6.28952 l -13.22564,-15.7532 h -15.51808 q -0.52902,0 -2.29244,-0.2352 v 15.9884 h -4.76123 v -42.2633 h 35.26836 q 2.93903,0 4.99635,2.0574 2.05732,2.0573 2.05732,4.9963 z m -35.26836,14.6364 h 28.21469 q 0.94049,0 1.58708,-0.6466 0.64658,-0.6466 0.64658,-1.5871 v -12.4027 q 0,-0.9405 -0.64658,-1.5871 -0.64659,-0.7054 -1.58708,-0.7054 h -28.21469 q -0.94049,0 -1.64586,0.7054 -0.64658,0.6466 -0.64658,1.5871 v 12.4027 q 0,0.9405 0.64658,1.5871 0.70537,0.6466 1.64586,0.6466 z" />
  <path
     inkscape:connector-curvature="0"
     id="path10746"
     style="font-style:normal;font-variant:normal;font-weight:normal;font-stretch:normal;font-size:106.66666412px;line-height:1.54999995;font-family:Orbitron;-inkscape-font-specification:Orbitron;text-align:center;letter-spacing:0px;word-spacing:0px;text-anchor:middle;fill:#e9e9e9;fill-opacity:1;stroke:none;stroke-width:1.10213625"
     d="m 218.80727,1360.7521 v 4.7612 h -33.85762 v 13.9897 h 27.21541 v 4.8201 h -27.21541 v 13.9898 h 33.85762 v 4.7612 h -38.61885 v -42.322 z" />
  <path
     inkscape:connector-curvature="0"
     id="path10748"
     style="font-style:normal;font-variant:normal;font-weight:normal;font-stretch:normal;font-size:106.66666412px;line-height:1.54999995;font-family:Orbitron;-inkscape-font-specification:Orbitron;text-align:center;letter-spacing:0px;word-spacing:0px;text-anchor:middle;fill:#e9e9e9;fill-opacity:1;stroke:none;stroke-width:1.10213625"
     d="m 225.13353,1403.0741 v -42.3808 h 4.76123 v 37.6196 h 37.5608 v 4.7612 z" />
  <path
     inkscape:connector-curvature="0"
     id="path10750"
     style="font-style:normal;font-variant:normal;font-weight:normal;font-stretch:normal;font-size:106.66666412px;line-height:1.54999995;font-family:Orbitron;-inkscape-font-specification:Orbitron;text-align:center;letter-spacing:0px;word-spacing:0px;text-anchor:middle;fill:#e9e9e9;fill-opacity:1;stroke:none;stroke-width:1.10213625"
     d="m 309.61869,1360.7521 v 4.7612 h -33.85762 v 13.9897 h 27.21542 v 4.8201 h -27.21542 v 13.9898 h 33.85762 v 4.7612 h -38.61885 v -42.322 z" />
  <path
     inkscape:connector-curvature="0"
     id="path10752"
     style="font-style:normal;font-variant:normal;font-weight:normal;font-stretch:normal;font-size:106.66666412px;line-height:1.54999995;font-family:Orbitron;-inkscape-font-specification:Orbitron;text-align:center;letter-spacing:0px;word-spacing:0px;text-anchor:middle;fill:#e9e9e9;fill-opacity:1;stroke:none;stroke-width:1.10213625"
     d="m 357.91431,1367.8057 v 1.6459 h -4.76123 v -1.6459 q 0,-0.9405 -0.70536,-1.587 -0.64659,-0.7054 -1.58708,-0.7054 h -28.21469 q -0.94048,0 -1.64585,0.7054 -0.64659,0.6465 -0.64659,1.587 v 9.4637 q 0,0.9405 0.64659,1.5871 0.70537,0.6465 1.64585,0.6465 h 28.21469 q 2.93904,0 4.99635,2.0574 2.05732,2.0573 2.05732,4.9963 v 9.4637 q 0,2.939 -2.05732,4.9963 -2.05731,2.0574 -4.99635,2.0574 h -28.21469 q -2.93902,0 -4.99634,-2.0574 -2.05733,-2.0573 -2.05733,-4.9963 v -1.6459 h 4.76123 v 1.6459 q 0,0.9405 0.64659,1.6458 0.70537,0.6467 1.64585,0.6467 h 28.21469 q 0.94049,0 1.58708,-0.6467 0.70536,-0.7053 0.70536,-1.6458 v -9.4637 q 0,-0.9404 -0.70536,-1.5871 -0.64659,-0.6465 -1.58708,-0.6465 h -28.21469 q -2.93902,0 -4.99634,-2.0573 -2.05733,-2.0574 -2.05733,-4.9964 v -9.4637 q 0,-2.939 2.05733,-4.9963 2.05732,-2.0573 4.99634,-2.0573 h 28.21469 q 2.93904,0 4.99635,2.0573 2.05732,2.0573 2.05732,4.9963 z" />
  <path
     inkscape:connector-curvature="0"
     id="path10754"
     style="font-style:normal;font-variant:normal;font-weight:normal;font-stretch:normal;font-size:106.66666412px;line-height:1.54999995;font-family:Orbitron;-inkscape-font-specification:Orbitron;text-align:center;letter-spacing:0px;word-spacing:0px;text-anchor:middle;fill:#e9e9e9;fill-opacity:1;stroke:none;stroke-width:1.10213625"
     d="m 406.24757,1367.8057 v 1.6459 h -4.76123 v -1.6459 q 0,-0.9405 -0.70537,-1.587 -0.64659,-0.7054 -1.58707,-0.7054 h -28.21469 q -0.94049,0 -1.64586,0.7054 -0.64658,0.6465 -0.64658,1.587 v 9.4637 q 0,0.9405 0.64658,1.5871 0.70537,0.6465 1.64586,0.6465 h 28.21469 q 2.93903,0 4.99635,2.0574 2.05732,2.0573 2.05732,4.9963 v 9.4637 q 0,2.939 -2.05732,4.9963 -2.05732,2.0574 -4.99635,2.0574 h -28.21469 q -2.93903,0 -4.99635,-2.0574 -2.05732,-2.0573 -2.05732,-4.9963 v -1.6459 h 4.76123 v 1.6459 q 0,0.9405 0.64658,1.6458 0.70537,0.6467 1.64586,0.6467 h 28.21469 q 0.94048,0 1.58707,-0.6467 0.70537,-0.7053 0.70537,-1.6458 v -9.4637 q 0,-0.9404 -0.70537,-1.5871 -0.64659,-0.6465 -1.58707,-0.6465 h -28.21469 q -2.93903,0 -4.99635,-2.0573 -2.05732,-2.0574 -2.05732,-4.9964 v -9.4637 q 0,-2.939 2.05732,-4.9963 2.05732,-2.0573 4.99635,-2.0573 h 28.21469 q 2.93903,0 4.99635,2.0573 2.05732,2.0573 2.05732,4.9963 z" />
  <path
     inkscape:connector-curvature="0"
     id="path10756"
     style="font-style:normal;font-variant:normal;font-weight:normal;font-stretch:normal;font-size:106.66666412px;line-height:1.54999995;font-family:Orbitron;-inkscape-font-specification:Orbitron;text-align:center;letter-spacing:0px;word-spacing:0px;text-anchor:middle;fill:#e9e9e9;fill-opacity:1;stroke:none;stroke-width:1.10213625"
     d="m 452.61078,1381.6779 17.57539,-20.9258 h 6.52465 v 42.322 h -4.76123 v -36.9142 l -19.33881,22.9832 -19.33882,-22.9832 v 36.9142 h -4.76123 v -42.322 h 6.52465 z" />
  <path
     inkscape:connector-curvature="0"
     id="path10758"
     style="font-style:normal;font-variant:normal;font-weight:normal;font-stretch:normal;font-size:106.66666412px;line-height:1.54999995;font-family:Orbitron;-inkscape-font-specification:Orbitron;text-align:center;letter-spacing:0px;word-spacing:0px;text-anchor:middle;fill:#e9e9e9;fill-opacity:1;stroke:none;stroke-width:1.10213625"
     d="m 521.77991,1360.7521 v 4.7612 h -33.85762 v 13.9897 h 27.21542 v 4.8201 h -27.21542 v 13.9898 h 33.85762 v 4.7612 h -38.61885 v -42.322 z" />
  <path
     inkscape:connector-curvature="0"
     id="path10760"
     style="font-style:normal;font-variant:normal;font-weight:normal;font-stretch:normal;font-size:106.66666412px;line-height:1.54999995;font-family:Orbitron;-inkscape-font-specification:Orbitron;text-align:center;letter-spacing:0px;word-spacing:0px;text-anchor:middle;fill:#e9e9e9;fill-opacity:1;stroke:none;stroke-width:1.10213625"
     d="m 570.0755,1367.8057 v 1.6459 h -4.76123 v -1.6459 q 0,-0.9405 -0.70537,-1.587 -0.64658,-0.7054 -1.58707,-0.7054 h -28.21469 q -0.94049,0 -1.64585,0.7054 -0.64659,0.6465 -0.64659,1.587 v 9.4637 q 0,0.9405 0.64659,1.5871 0.70536,0.6465 1.64585,0.6465 h 28.21469 q 2.93903,0 4.99635,2.0574 2.05732,2.0573 2.05732,4.9963 v 9.4637 q 0,2.939 -2.05732,4.9963 -2.05732,2.0574 -4.99635,2.0574 h -28.21469 q -2.93903,0 -4.99635,-2.0574 -2.05732,-2.0573 -2.05732,-4.9963 v -1.6459 h 4.76123 v 1.6459 q 0,0.9405 0.64659,1.6458 0.70536,0.6467 1.64585,0.6467 h 28.21469 q 0.94049,0 1.58707,-0.6467 0.70537,-0.7053 0.70537,-1.6458 v -9.4637 q 0,-0.9404 -0.70537,-1.5871 -0.64658,-0.6465 -1.58707,-0.6465 h -28.21469 q -2.93903,0 -4.99635,-2.0573 -2.05732,-2.0574 -2.05732,-4.9964 v -9.4637 q 0,-2.939 2.05732,-4.9963 2.05732,-2.0573 4.99635,-2.0573 h 28.21469 q 2.93903,0 4.99635,2.0573 2.05732,2.0573 2.05732,4.9963 z" />
  <path
     inkscape:connector-curvature="0"
     id="path10762"
     style="font-style:normal;font-variant:normal;font-weight:normal;font-stretch:normal;font-size:106.66666412px;line-height:1.54999995;font-family:Orbitron;-inkscape-font-specification:Orbitron;text-align:center;letter-spacing:0px;word-spacing:0px;text-anchor:middle;fill:#e9e9e9;fill-opacity:1;stroke:none;stroke-width:1.10213625"
     d="m 614.99951,1360.7521 h 4.82001 v 42.322 h -4.82001 v -18.751 h -33.79884 v 18.751 h -4.76123 v -42.322 h 4.76123 v 18.7509 h 33.79884 z" />
  <path
     inkscape:connector-curvature="0"
     id="path10764"
     style="font-style:normal;font-variant:normal;font-weight:normal;font-stretch:normal;font-size:106.66666412px;line-height:1.54999995;font-family:Orbitron;-inkscape-font-specification:Orbitron;text-align:center;letter-spacing:0px;word-spacing:0px;text-anchor:middle;fill:#e9e9e9;fill-opacity:1;stroke:none;stroke-width:1.10213625"
     d="m 679.95484,1397.6662 v -36.9141 h 4.76123 v 42.322 h -6.52465 l -31.03615,-36.9142 v 36.9142 h -4.76123 v -42.322 h 6.52465 z" />
  <path
     inkscape:connector-curvature="0"
     id="path10766"
     style="font-style:normal;font-variant:normal;font-weight:normal;font-stretch:normal;font-size:106.66666412px;line-height:1.54999995;font-family:Orbitron;-inkscape-font-specification:Orbitron;text-align:center;letter-spacing:0px;word-spacing:0px;text-anchor:middle;fill:#e9e9e9;fill-opacity:1;stroke:none;stroke-width:1.10213625"
     d="m 730.03774,1360.7521 v 4.7612 h -33.85762 v 13.9897 h 27.21542 v 4.8201 h -27.21542 v 13.9898 h 33.85762 v 4.7612 h -38.61885 v -42.322 z" />
  <path
     inkscape:connector-curvature="0"
     id="path10768"
     style="font-style:normal;font-variant:normal;font-weight:normal;font-stretch:normal;font-size:106.66666412px;line-height:1.54999995;font-family:Orbitron;-inkscape-font-specification:Orbitron;text-align:center;letter-spacing:0px;word-spacing:0px;text-anchor:middle;fill:#e9e9e9;fill-opacity:1;stroke:none;stroke-width:1.10213625"
     d="m 734.1891,1360.7521 h 42.32203 v 4.7612 h -18.75101 v 37.5608 h -4.76122 v -37.5608 h -18.8098 z" />
  <path
     inkscape:connector-curvature="0"
     id="path10770"
     style="font-style:normal;font-variant:normal;font-weight:normal;font-stretch:normal;font-size:106.66666412px;line-height:1.54999995;font-family:Orbitron;-inkscape-font-specification:Orbitron;text-align:center;letter-spacing:0px;word-spacing:0px;text-anchor:middle;fill:#e9e9e9;fill-opacity:1;stroke:none;stroke-width:1.10213625"
     d="m 839.98039,1360.7521 h 5.17265 l -15.40048,42.322 h -4.17346 l -13.16683,-36.1501 -13.16684,36.1501 h -4.11465 l -15.40051,-42.322 h 5.05513 l 12.40268,33.9751 12.34392,-33.9751 h 5.76054 l 12.40267,33.9751 z" />
  <path
     inkscape:connector-curvature="0"
     id="path10772"
     style="font-style:normal;font-variant:normal;font-weight:normal;font-stretch:normal;font-size:106.66666412px;line-height:1.54999995;font-family:Orbitron;-inkscape-font-specification:Orbitron;text-align:center;letter-spacing:0px;word-spacing:0px;text-anchor:middle;fill:#e9e9e9;fill-opacity:1;stroke:none;stroke-width:1.10213625"
     d="m 855.86586,1360.7521 h 28.21469 q 2.93901,0 4.99637,2.0573 2.0573,2.0573 2.0573,4.9963 v 28.2147 q 0,2.939 -2.0573,4.9963 -2.05736,2.0574 -4.99637,2.0574 h -28.21469 q -2.93901,0 -4.99637,-2.0574 -2.0573,-2.0573 -2.0573,-4.9963 v -28.2147 q 0,-2.939 2.0573,-4.9963 2.05736,-2.0573 4.99637,-2.0573 z m 0,37.5608 h 28.21469 q 0.94051,0 1.58708,-0.6467 0.70536,-0.7053 0.70536,-1.6458 v -28.2147 q 0,-0.9405 -0.70536,-1.587 -0.64657,-0.7054 -1.58708,-0.7054 h -28.21469 q -0.94051,0 -1.64587,0.7054 -0.64657,0.6465 -0.64657,1.587 v 28.2147 q 0,0.9405 0.64657,1.6458 0.70536,0.6467 1.64587,0.6467 z" />
  <path
     inkscape:connector-curvature="0"
     id="path10774"
     style="font-style:normal;font-variant:normal;font-weight:normal;font-stretch:normal;font-size:106.66666412px;line-height:1.54999995;font-family:Orbitron;-inkscape-font-specification:Orbitron;text-align:center;letter-spacing:0px;word-spacing:0px;text-anchor:middle;fill:#e9e9e9;fill-opacity:1;stroke:none;stroke-width:1.10213625"
     d="m 939.87068,1367.8645 v 12.4027 q 0,2.939 -2.0573,4.9964 -2.0573,2.0573 -4.99637,2.0573 h -6.46584 l 13.28443,15.7532 h -6.28956 l -13.22564,-15.7532 h -15.51807 q -0.52903,0 -2.29245,-0.2352 v 15.9884 h -4.76123 v -42.2633 h 35.26836 q 2.93907,0 4.99637,2.0574 2.0573,2.0573 2.0573,4.9963 z m -35.26835,14.6364 h 28.21468 q 0.94051,0 1.58708,-0.6466 0.64662,-0.6466 0.64662,-1.5871 v -12.4027 q 0,-0.9405 -0.64662,-1.5871 -0.64657,-0.7054 -1.58708,-0.7054 h -28.21468 q -0.94046,0 -1.64582,0.7054 -0.64663,0.6466 -0.64663,1.5871 v 12.4027 q 0,0.9405 0.64663,1.5871 0.70536,0.6466 1.64582,0.6466 z" />
  <path
     inkscape:connector-curvature="0"
     id="path10776"
     style="font-style:normal;font-variant:normal;font-weight:normal;font-stretch:normal;font-size:106.66666412px;line-height:1.54999995;font-family:Orbitron;-inkscape-font-specification:Orbitron;text-align:center;letter-spacing:0px;word-spacing:0px;text-anchor:middle;fill:#e9e9e9;fill-opacity:1;stroke:none;stroke-width:1.10213625"
     d="m 980.32459,1360.7521 h 6.11317 l -17.69293,21.161 17.75173,21.161 h -6.17197 l -15.75322,-18.751 h -13.63706 v 18.751 h -4.82002 v -42.322 h 4.82002 v 18.7509 h 13.63706 z" />
  <path
     inkscape:connector-curvature="0"
     id="path10778"
     style="font-style:normal;font-variant:normal;font-weight:normal;font-stretch:normal;font-size:106.66666412px;line-height:1.54999995;font-family:Orbitron;-inkscape-font-specification:Orbitron;text-align:center;letter-spacing:0px;word-spacing:0px;text-anchor:middle;fill:#e9e9e9;fill-opacity:1;stroke:none;stroke-width:1.10213625"
     d="M 133.81742,1164.6232 H 98.666624 q -0.940492,0 -1.645859,0.7054 -0.646585,0.6465 -0.646585,1.587 v 28.2147 q 0,0.9405 0.646585,1.6459 0.705367,0.6466 1.645859,0.6466 h 35.150796 v 4.7612 H 98.666624 q -2.939028,0 -4.996353,-2.0573 -2.057319,-2.0574 -2.057319,-4.9964 v -28.2147 q 0,-2.939 2.057319,-4.9963 2.057325,-2.0573 4.996353,-2.0573 h 35.150796 z" />
  <path
     inkscape:connector-curvature="0"
     id="path10780"
     style="font-style:normal;font-variant:normal;font-weight:normal;font-stretch:normal;font-size:106.66666412px;line-height:1.54999995;font-family:Orbitron;-inkscape-font-specification:Orbitron;text-align:center;letter-spacing:0px;word-spacing:0px;text-anchor:middle;fill:#e9e9e9;fill-opacity:1;stroke:none;stroke-width:1.10213625"
     d="m 146.88232,1159.862 h 28.21469 q 2.93903,0 4.99635,2.0573 2.05732,2.0573 2.05732,4.9963 v 28.2147 q 0,2.939 -2.05732,4.9964 -2.05732,2.0573 -4.99635,2.0573 h -28.21469 q -2.93903,0 -4.99635,-2.0573 -2.05732,-2.0574 -2.05732,-4.9964 v -28.2147 q 0,-2.939 2.05732,-4.9963 2.05732,-2.0573 4.99635,-2.0573 z m 0,37.5608 h 28.21469 q 0.94049,0 1.58707,-0.6466 0.70537,-0.7054 0.70537,-1.6459 v -28.2147 q 0,-0.9405 -0.70537,-1.587 -0.64658,-0.7054 -1.58707,-0.7054 h -28.21469 q -0.94048,0 -1.64585,0.7054 -0.64659,0.6465 -0.64659,1.587 v 28.2147 q 0,0.9405 0.64659,1.6459 0.70537,0.6466 1.64585,0.6466 z" />
  <path
     inkscape:connector-curvature="0"
     id="path10782"
     style="font-style:normal;font-variant:normal;font-weight:normal;font-stretch:normal;font-size:106.66666412px;line-height:1.54999995;font-family:Orbitron;-inkscape-font-specification:Orbitron;text-align:center;letter-spacing:0px;word-spacing:0px;text-anchor:middle;fill:#e9e9e9;fill-opacity:1;stroke:none;stroke-width:1.10213625"
     d="m 230.94592,1166.9156 v 1.7047 h -4.76123 v -1.7047 q 0,-0.9405 -0.70536,-1.587 -0.64659,-0.7054 -1.58708,-0.7054 h -28.21469 q -0.94049,0 -1.64585,0.7054 -0.64659,0.6465 -0.64659,1.587 v 28.2147 q 0,0.9405 0.64659,1.6459 0.70536,0.6466 1.64585,0.6466 h 28.21469 q 0.94049,0 1.58708,-0.6466 0.70536,-0.7054 0.70536,-1.6459 v -10.4629 h -10.46294 v -4.82 h 15.22417 v 15.2829 q 0,2.939 -2.05732,4.9964 -2.05732,2.0573 -4.99635,2.0573 h -28.21469 q -2.93903,0 -4.99635,-2.0573 -2.05731,-2.0574 -2.05731,-4.9964 v -28.2147 q 0,-2.939 2.05731,-4.9963 2.05732,-2.0573 4.99635,-2.0573 h 28.21469 q 2.93903,0 4.99635,2.0573 2.05732,2.0573 2.05732,4.9963 z" />
  <path
     inkscape:connector-curvature="0"
     id="path10784"
     style="font-style:normal;font-variant:normal;font-weight:normal;font-stretch:normal;font-size:106.66666412px;line-height:1.54999995;font-family:Orbitron;-inkscape-font-specification:Orbitron;text-align:center;letter-spacing:0px;word-spacing:0px;text-anchor:middle;fill:#e9e9e9;fill-opacity:1;stroke:none;stroke-width:1.10213625"
     d="m 274.97718,1196.7762 v -36.9142 h 4.76122 v 42.322 h -6.52464 l -31.03616,-36.9142 v 36.9142 h -4.76123 v -42.322 h 6.52465 z" />
  <path
     inkscape:connector-curvature="0"
     id="path10786"
     style="font-style:normal;font-variant:normal;font-weight:normal;font-stretch:normal;font-size:106.66666412px;line-height:1.54999995;font-family:Orbitron;-inkscape-font-specification:Orbitron;text-align:center;letter-spacing:0px;word-spacing:0px;text-anchor:middle;fill:#e9e9e9;fill-opacity:1;stroke:none;stroke-width:1.10213625"
     d="m 286.38245,1202.184 v -42.322 h 4.76123 v 42.322 z" />
  <path
     inkscape:connector-curvature="0"
     id="path10788"
     style="font-style:normal;font-variant:normal;font-weight:normal;font-stretch:normal;font-size:106.66666412px;line-height:1.54999995;font-family:Orbitron;-inkscape-font-specification:Orbitron;text-align:center;letter-spacing:0px;word-spacing:0px;text-anchor:middle;fill:#e9e9e9;fill-opacity:1;stroke:none;stroke-width:1.10213625"
     d="m 297.18064,1159.862 h 42.32203 v 4.7612 h -18.75101 v 37.5608 h -4.76123 v -37.5608 h -18.80979 z" />
  <path
     inkscape:connector-curvature="0"
     id="path10790"
     style="font-style:normal;font-variant:normal;font-weight:normal;font-stretch:normal;font-size:106.66666412px;line-height:1.54999995;font-family:Orbitron;-inkscape-font-specification:Orbitron;text-align:center;letter-spacing:0px;word-spacing:0px;text-anchor:middle;fill:#e9e9e9;fill-opacity:1;stroke:none;stroke-width:1.10213625"
     d="m 344.01499,1202.184 v -42.322 h 4.76123 v 42.322 z" />
  <path
     inkscape:connector-curvature="0"
     id="path10792"
     style="font-style:normal;font-variant:normal;font-weight:normal;font-stretch:normal;font-size:106.66666412px;line-height:1.54999995;font-family:Orbitron;-inkscape-font-specification:Orbitron;text-align:center;letter-spacing:0px;word-spacing:0px;text-anchor:middle;fill:#e9e9e9;fill-opacity:1;stroke:none;stroke-width:1.10213625"
     d="m 382.96907,1197.5403 21.63126,-37.6783 h 5.58416 l -24.45273,42.322 h -5.52538 l -24.5115,-42.322 h 5.58415 z" />
  <path
     inkscape:connector-curvature="0"
     id="path10794"
     style="font-style:normal;font-variant:normal;font-weight:normal;font-stretch:normal;font-size:106.66666412px;line-height:1.54999995;font-family:Orbitron;-inkscape-font-specification:Orbitron;text-align:center;letter-spacing:0px;word-spacing:0px;text-anchor:middle;fill:#e9e9e9;fill-opacity:1;stroke:none;stroke-width:1.10213625"
     d="m 454.67588,1159.862 v 4.7612 h -33.85762 v 13.9898 h 27.21541 v 4.82 h -27.21541 v 13.9898 h 33.85762 v 4.7612 h -38.61885 v -42.322 z" />
  <path
     inkscape:connector-curvature="0"
     id="path10796"
     style="font-style:normal;font-variant:normal;font-weight:normal;font-stretch:normal;font-size:106.66666412px;line-height:1.54999995;font-family:Orbitron;-inkscape-font-specification:Orbitron;text-align:center;letter-spacing:0px;word-spacing:0px;text-anchor:middle;fill:#e9e9e9;fill-opacity:1;stroke:none;stroke-width:1.10213625"
     d="m 519.16463,1166.9744 v 12.4027 q 0,2.9391 -2.05733,4.9964 -2.05732,2.0573 -4.99635,2.0573 h -6.46587 l 13.28442,15.7532 h -6.28952 l -13.22563,-15.7532 h -15.51808 q -0.52903,0 -2.29245,-0.2351 v 15.9883 h -4.76122 v -42.2632 h 35.26835 q 2.93903,0 4.99635,2.0573 2.05733,2.0573 2.05733,4.9963 z m -35.26836,14.6364 h 28.21468 q 0.94049,0 1.58708,-0.6466 0.64659,-0.6466 0.64659,-1.5871 v -12.4027 q 0,-0.9405 -0.64659,-1.587 -0.64659,-0.7054 -1.58708,-0.7054 h -28.21468 q -0.94049,0 -1.64586,0.7054 -0.64659,0.6465 -0.64659,1.587 v 12.4027 q 0,0.9405 0.64659,1.5871 0.70537,0.6466 1.64586,0.6466 z" />
  <path
     inkscape:connector-curvature="0"
     id="path10798"
     style="font-style:normal;font-variant:normal;font-weight:normal;font-stretch:normal;font-size:106.66666412px;line-height:1.54999995;font-family:Orbitron;-inkscape-font-specification:Orbitron;text-align:center;letter-spacing:0px;word-spacing:0px;text-anchor:middle;fill:#e9e9e9;fill-opacity:1;stroke:none;stroke-width:1.10213625"
     d="m 532.52069,1159.862 h 28.21468 q 2.93904,0 4.99636,2.0573 2.05732,2.0573 2.05732,4.9963 v 35.2684 h -4.76123 v -15.4593 h -32.79958 v 15.4593 h -4.76122 v -35.2684 q 0,-2.939 2.05732,-4.9963 2.05732,-2.0573 4.99635,-2.0573 z m -2.29245,22.1015 h 32.79958 v -15.0479 q 0,-0.9405 -0.70537,-1.587 -0.64658,-0.7054 -1.58708,-0.7054 h -28.21468 q -0.94049,0 -1.64586,0.7054 -0.64659,0.6465 -0.64659,1.587 z" />
  <path
     inkscape:connector-curvature="0"
     id="path10800"
     style="font-style:normal;font-variant:normal;font-weight:normal;font-stretch:normal;font-size:106.66666412px;line-height:1.54999995;font-family:Orbitron;-inkscape-font-specification:Orbitron;text-align:center;letter-spacing:0px;word-spacing:0px;text-anchor:middle;fill:#e9e9e9;fill-opacity:1;stroke:none;stroke-width:1.10213625"
     d="m 574.60393,1159.862 h 35.26836 q 2.93903,0 4.99635,2.0573 2.05732,2.0573 2.05732,4.9963 v 28.2147 q 0,2.939 -2.05732,4.9964 -2.05732,2.0573 -4.99635,2.0573 h -35.26836 z m 37.56081,35.2683 v -28.2147 q 0,-0.9405 -0.70537,-1.587 -0.64659,-0.7054 -1.58708,-0.7054 h -28.21468 q -0.94049,0 -1.64586,0.7054 -0.64659,0.6465 -0.64659,1.587 v 28.2147 q 0,0.9405 0.64659,1.6459 0.70537,0.6466 1.64586,0.6466 h 28.21468 q 0.94049,0 1.58708,-0.6466 0.70537,-0.7054 0.70537,-1.6459 z" />
  <path
     inkscape:connector-curvature="0"
     id="path10802"
     style="font-style:normal;font-variant:normal;font-weight:normal;font-stretch:normal;font-size:106.66666412px;line-height:1.54999995;font-family:Orbitron;-inkscape-font-specification:Orbitron;text-align:center;letter-spacing:0px;word-spacing:0px;text-anchor:middle;fill:#e9e9e9;fill-opacity:1;stroke:none;stroke-width:1.10213625"
     d="m 623.56724,1202.184 v -42.322 h 4.76123 v 42.322 z" />
  <path
     inkscape:connector-curvature="0"
     id="path10804"
     style="font-style:normal;font-variant:normal;font-weight:normal;font-stretch:normal;font-size:106.66666412px;line-height:1.54999995;font-family:Orbitron;-inkscape-font-specification:Orbitron;text-align:center;letter-spacing:0px;word-spacing:0px;text-anchor:middle;fill:#e9e9e9;fill-opacity:1;stroke:none;stroke-width:1.10213625"
     d="m 643.41761,1159.862 h 28.21469 q 2.93903,0 4.99635,2.0573 2.05732,2.0573 2.05732,4.9963 v 28.2147 q 0,2.939 -2.05732,4.9964 -2.05732,2.0573 -4.99635,2.0573 h -28.21469 q -2.93903,0 -4.99635,-2.0573 -2.05732,-2.0574 -2.05732,-4.9964 v -28.2147 q 0,-2.939 2.05732,-4.9963 2.05732,-2.0573 4.99635,-2.0573 z m 0,37.5608 h 28.21469 q 0.94049,0 1.58707,-0.6466 0.70537,-0.7054 0.70537,-1.6459 v -28.2147 q 0,-0.9405 -0.70537,-1.587 -0.64658,-0.7054 -1.58707,-0.7054 h -28.21469 q -0.94049,0 -1.64585,0.7054 -0.64659,0.6465 -0.64659,1.587 v 28.2147 q 0,0.9405 0.64659,1.6459 0.70536,0.6466 1.64585,0.6466 z" />
  <path
     inkscape:connector-curvature="0"
     id="path10806"
     style="font-style:normal;font-variant:normal;font-weight:normal;font-stretch:normal;font-size:106.66666412px;line-height:1.54999995;font-family:Orbitron;-inkscape-font-specification:Orbitron;text-align:center;letter-spacing:0px;word-spacing:0px;text-anchor:middle;fill:#e9e9e9;fill-opacity:1;stroke:none;stroke-width:1.10213625"
     d="m 708.05332,1159.862 h 28.21469 q 2.93902,0 4.99635,2.0573 2.05732,2.0573 2.05732,4.9963 v 28.2147 q 0,2.939 -2.05732,4.9964 -2.05733,2.0573 -4.99635,2.0573 h -28.21469 q -2.93903,0 -4.99635,-2.0573 -2.05732,-2.0574 -2.05732,-4.9964 v -28.2147 q 0,-2.939 2.05732,-4.9963 2.05732,-2.0573 4.99635,-2.0573 z m 0,37.5608 h 28.21469 q 0.94049,0 1.58707,-0.6466 0.70537,-0.7054 0.70537,-1.6459 v -28.2147 q 0,-0.9405 -0.70537,-1.587 -0.64658,-0.7054 -1.58707,-0.7054 h -28.21469 q -0.94049,0 -1.64586,0.7054 -0.64659,0.6465 -0.64659,1.587 v 28.2147 q 0,0.9405 0.64659,1.6459 0.70537,0.6466 1.64586,0.6466 z" />
  <path
     inkscape:connector-curvature="0"
     id="path10808"
     style="font-style:normal;font-variant:normal;font-weight:normal;font-stretch:normal;font-size:106.66666412px;line-height:1.54999995;font-family:Orbitron;-inkscape-font-specification:Orbitron;text-align:center;letter-spacing:0px;word-spacing:0px;text-anchor:middle;fill:#e9e9e9;fill-opacity:1;stroke:none;stroke-width:1.10213625"
     d="m 749.79491,1159.9208 h 35.26836 q 2.93903,0 4.99635,2.0573 2.05732,2.0573 2.05732,4.9963 v 12.4027 q 0,2.9391 -2.05732,4.9964 -2.05732,2.0573 -4.99635,2.0573 h -28.21468 q -0.52903,0 -2.29245,-0.2351 v 15.9883 h -4.76123 z m 37.56081,19.4563 v -12.4027 q 0,-0.9405 -0.70537,-1.587 -0.64659,-0.7054 -1.58708,-0.7054 h -28.21468 q -0.9405,0 -1.64586,0.7054 -0.64659,0.6465 -0.64659,1.587 v 12.4027 q 0,0.9405 0.64659,1.5871 0.70536,0.6466 1.64586,0.6466 h 28.21468 q 0.94049,0 1.58708,-0.6466 0.70537,-0.6466 0.70537,-1.5871 z" />
  <path
     inkscape:connector-curvature="0"
     id="path10810"
     style="font-style:normal;font-variant:normal;font-weight:normal;font-stretch:normal;font-size:106.66666412px;line-height:1.54999995;font-family:Orbitron;-inkscape-font-specification:Orbitron;text-align:center;letter-spacing:0px;word-spacing:0px;text-anchor:middle;fill:#e9e9e9;fill-opacity:1;stroke:none;stroke-width:1.10213625"
     d="m 794.17518,1159.862 h 42.32202 v 4.7612 h -18.75098 v 37.5608 h -4.76123 v -37.5608 h -18.80981 z" />
  <path
     inkscape:connector-curvature="0"
     id="path10812"
     style="font-style:normal;font-variant:normal;font-weight:normal;font-stretch:normal;font-size:106.66666412px;line-height:1.54999995;font-family:Orbitron;-inkscape-font-specification:Orbitron;text-align:center;letter-spacing:0px;word-spacing:0px;text-anchor:middle;fill:#e9e9e9;fill-opacity:1;stroke:none;stroke-width:1.10213625"
     d="m 841.00951,1202.184 v -42.322 h 4.76123 v 42.322 z" />
  <path
     inkscape:connector-curvature="0"
     id="path10814"
     style="font-style:normal;font-variant:normal;font-weight:normal;font-stretch:normal;font-size:106.66666412px;line-height:1.54999995;font-family:Orbitron;-inkscape-font-specification:Orbitron;text-align:center;letter-spacing:0px;word-spacing:0px;text-anchor:middle;fill:#e9e9e9;fill-opacity:1;stroke:none;stroke-width:1.10213625"
     d="m 896.12822,1164.6232 h -35.15076 q -0.94051,0 -1.64587,0.7054 -0.64657,0.6465 -0.64657,1.587 v 28.2147 q 0,0.9405 0.64657,1.6459 0.70536,0.6466 1.64587,0.6466 h 35.15076 v 4.7612 h -35.15076 q -2.93907,0 -4.99637,-2.0573 -2.0573,-2.0574 -2.0573,-4.9964 v -28.2147 q 0,-2.939 2.0573,-4.9963 2.0573,-2.0573 4.99637,-2.0573 h 35.15076 z" />
  <path
     inkscape:connector-curvature="0"
     id="path10816"
     style="font-style:normal;font-variant:normal;font-weight:normal;font-stretch:normal;font-size:106.66666412px;line-height:1.54999995;font-family:Orbitron;-inkscape-font-specification:Orbitron;text-align:center;letter-spacing:0px;word-spacing:0px;text-anchor:middle;fill:#e9e9e9;fill-opacity:1;stroke:none;stroke-width:1.10213625"
     d="m 944.28518,1166.9156 v 1.6459 h -4.76123 v -1.6459 q 0,-0.9405 -0.70537,-1.587 -0.64656,-0.7054 -1.58707,-0.7054 h -28.21469 q -0.94045,0 -1.64582,0.7054 -0.64662,0.6465 -0.64662,1.587 v 9.4637 q 0,0.9405 0.64662,1.5871 0.70537,0.6466 1.64582,0.6466 h 28.21469 q 2.93907,0 4.99637,2.0573 2.0573,2.0573 2.0573,4.9964 v 9.4636 q 0,2.939 -2.0573,4.9964 -2.0573,2.0573 -4.99637,2.0573 h -28.21469 q -2.93901,0 -4.99631,-2.0573 -2.05736,-2.0574 -2.05736,-4.9964 v -1.6458 h 4.76123 v 1.6458 q 0,0.9405 0.64662,1.6459 0.70537,0.6466 1.64582,0.6466 h 28.21469 q 0.94051,0 1.58707,-0.6466 0.70537,-0.7054 0.70537,-1.6459 v -9.4636 q 0,-0.9405 -0.70537,-1.5871 -0.64656,-0.6466 -1.58707,-0.6466 h -28.21469 q -2.93901,0 -4.99631,-2.0573 -2.05736,-2.0573 -2.05736,-4.9964 v -9.4637 q 0,-2.939 2.05736,-4.9963 2.0573,-2.0573 4.99631,-2.0573 h 28.21469 q 2.93907,0 4.99637,2.0573 2.0573,2.0573 2.0573,4.9963 z" />
</svg>
