<?xml version="1.0" encoding="UTF-8" standalone="no"?>
<!-- Created with Inkscape (http://www.inkscape.org/) -->

<svg
   xmlns:dc="http://purl.org/dc/elements/1.1/"
   xmlns:cc="http://creativecommons.org/ns#"
   xmlns:rdf="http://www.w3.org/1999/02/22-rdf-syntax-ns#"
   xmlns:svg="http://www.w3.org/2000/svg"
   xmlns="http://www.w3.org/2000/svg"
   xmlns:sodipodi="http://sodipodi.sourceforge.net/DTD/sodipodi-0.dtd"
   xmlns:inkscape="http://www.inkscape.org/namespaces/inkscape"
   width="153.30142"
   height="40.521591"
   viewBox="0 0 40.561192 10.721338"
   version="1.1"
   id="svg5116"
   inkscape:version="0.92.2 (5c3e80d, 2017-08-06)"
   sodipodi:docname="emiia40.1.1.svg">
  <defs
     id="defs5110" />
  <sodipodi:namedview
     id="base"
     pagecolor="#ffffff"
     bordercolor="#666666"
     borderopacity="1.0"
     inkscape:pageopacity="0.0"
     inkscape:pageshadow="2"
     inkscape:zoom="1.6296875"
     inkscape:cx="102.70231"
     inkscape:cy="26.024543"
     inkscape:document-units="mm"
     inkscape:current-layer="layer1"
     showgrid="false"
     fit-margin-top="0"
     fit-margin-left="0"
     fit-margin-right="0"
     fit-margin-bottom="0"
     inkscape:window-width="1366"
     inkscape:window-height="745"
     inkscape:window-x="-8"
     inkscape:window-y="-8"
     inkscape:window-maximized="1"
     units="px" />
  <metadata
     id="metadata5113">
    <rdf:RDF>
      <cc:Work
         rdf:about="">
        <dc:format>image/svg+xml</dc:format>
        <dc:type
           rdf:resource="http://purl.org/dc/dcmitype/StillImage" />
        <dc:title />
      </cc:Work>
    </rdf:RDF>
  </metadata>
  <g
     inkscape:label="Layer 1"
     inkscape:groupmode="layer"
     id="layer1"
     transform="translate(-26.301296,-119.73322)">
    <text
       xml:space="preserve"
       style="font-style:normal;font-weight:normal;font-size:10.58338356px;line-height:1.25;font-family:sans-serif;letter-spacing:0px;word-spacing:0px;fill:#000000;fill-opacity:1;stroke:none;stroke-width:0.26458457"
       x="-1.7101167"
       y="156.16997"
       id="text1585"><tspan
         sodipodi:role="line"
         id="tspan1583"
         x="-1.7101167"
         y="165.82552"
         style="stroke-width:0.26458457" /></text>
    <g
       aria-label="EMIIA.AI"
       style="font-style:normal;font-variant:normal;font-weight:normal;font-stretch:normal;font-size:9.79808617px;line-height:1.25;font-family:Orbitron;-inkscape-font-specification:Orbitron;letter-spacing:0px;word-spacing:0px;fill:#000000;fill-opacity:1;stroke:none;stroke-width:0.26244876;stroke-opacity:1"
       id="text3948">
      <path
         d="m 33.149202,121.88138 v 0.79365 h -5.643698 v 2.33194 h 4.536514 v 0.80345 h -4.536514 v 2.33194 h 5.643698 v 0.79364 h -6.437343 v -7.05462 z"
         style="font-size:9.79808617px;stroke-width:0.26244876;stroke:none;stroke-opacity:1"
         id="path5307" />
      <path
         d="m 37.924084,125.3695 2.929628,-3.48812 H 41.9413 v 7.05462 h -0.793645 v -6.15319 l -3.223571,3.83105 -3.22357,-3.83105 v 6.15319 h -0.793645 v -7.05462 h 1.087588 z"
         style="font-size:9.79808617px;stroke-width:0.26244876;stroke:none;stroke-opacity:1"
         id="path5309" />
      <path
         d="m 43.006687,128.936 v -7.05462 h 0.793645 v 7.05462 z"
         style="font-size:9.79808617px;stroke-width:0.26244876;stroke:none;stroke-opacity:1"
         id="path5311" />
      <path
         d="m 45.169157,128.936 v -7.05462 h 0.793645 v 7.05462 z"
         style="font-size:9.79808617px;stroke-width:0.26244876;stroke:none;stroke-opacity:1"
         id="path5313" />
      <path
         d="m 48.517194,121.88138 h 4.703081 q 0.489904,0 0.832837,0.34294 0.342933,0.34293 0.342933,0.83283 V 128.936 H 53.6024 v -2.57689 h -5.467332 v 2.57689 h -0.793645 v -5.87885 q 0,-0.4899 0.342933,-0.83283 0.342933,-0.34294 0.832838,-0.34294 z m -0.382126,3.68408 H 53.6024 v -2.50831 q 0,-0.15677 -0.117577,-0.26455 -0.107779,-0.11757 -0.264548,-0.11757 h -4.703081 q -0.15677,0 -0.274347,0.11757 -0.107779,0.10778 -0.107779,0.26455 z"
         style="font-size:9.79808617px;stroke-width:0.26244876;stroke:none;stroke-opacity:1"
         id="path5315" />
      <path
         d="m 56.296262,128.13256 v 0.80344 h -0.803443 v -0.80344 z"
         style="fill:#d3d3d3;fill-opacity:1;stroke-width:0.26244876;stroke:none;stroke-opacity:1"
         id="path5317" />
      <path
         d="m 58.812838,121.88138 h 4.703082 q 0.489904,0 0.832837,0.34294 0.342933,0.34293 0.342933,0.83283 v 5.87885 h -0.793645 v -2.57689 h -5.467332 v 2.57689 h -0.793645 v -5.87885 q 0,-0.4899 0.342933,-0.83283 0.342933,-0.34294 0.832837,-0.34294 z m -0.382125,3.68408 h 5.467332 v -2.50831 q 0,-0.15677 -0.117577,-0.26455 -0.107779,-0.11757 -0.264548,-0.11757 h -4.703082 q -0.156769,0 -0.274346,0.11757 -0.107779,0.10778 -0.107779,0.26455 z"
         style="fill:#d3d3d3;fill-opacity:1;stroke-width:0.26244876;stroke:none;stroke-opacity:1"
         id="path5319" />
      <path
         d="m 65.81786,128.936 v -7.05462 h 0.793645 v 7.05462 z"
         style="fill:#d3d3d3;fill-opacity:1;stroke-width:0.26244876;stroke:none;stroke-opacity:1"
         id="path5321" />
    </g>
  </g>
</svg>
