<?xml version="1.0" encoding="UTF-8" standalone="no"?>
<!-- Created with Inkscape (http://www.inkscape.org/) -->

<svg
   xmlns:dc="http://purl.org/dc/elements/1.1/"
   xmlns:cc="http://creativecommons.org/ns#"
   xmlns:rdf="http://www.w3.org/1999/02/22-rdf-syntax-ns#"
   xmlns:svg="http://www.w3.org/2000/svg"
   xmlns="http://www.w3.org/2000/svg"
   xmlns:sodipodi="http://sodipodi.sourceforge.net/DTD/sodipodi-0.dtd"
   xmlns:inkscape="http://www.inkscape.org/namespaces/inkscape"
   width="33.267948mm"
   height="17mm"
   viewBox="0 0 33.26795 17"
   version="1.1"
   id="svg20953"
   inkscape:version="0.92.2 (5c3e80d, 2017-08-06)"
   sodipodi:docname="emiia31.svg"
   inkscape:export-filename="C:\Users\User1\Desktop\15 Владимир 3д макс\IoT &amp; IIoT\infografics\Соцсети\fog88.png"
   inkscape:export-xdpi="1182.2"
   inkscape:export-ydpi="1182.2">
  <defs
     id="defs20947">
    <pattern
       y="0"
       x="0"
       height="6"
       width="6"
       patternUnits="userSpaceOnUse"
       id="EMFhbasepattern" />
    <pattern
       y="0"
       x="0"
       height="6"
       width="6"
       patternUnits="userSpaceOnUse"
       id="EMFhbasepattern-8" />
    <pattern
       y="0"
       x="0"
       height="6"
       width="6"
       patternUnits="userSpaceOnUse"
       id="EMFhbasepattern-6" />
  </defs>
  <sodipodi:namedview
     id="base"
     pagecolor="#ffffff"
     bordercolor="#666666"
     borderopacity="1.0"
     inkscape:pageopacity="0.0"
     inkscape:pageshadow="2"
     inkscape:zoom="2.1142299"
     inkscape:cx="78.380789"
     inkscape:cy="17.825337"
     inkscape:document-units="mm"
     inkscape:current-layer="layer1"
     showgrid="false"
     fit-margin-top="0"
     fit-margin-left="0"
     fit-margin-right="0"
     fit-margin-bottom="0"
     inkscape:window-width="1366"
     inkscape:window-height="745"
     inkscape:window-x="-8"
     inkscape:window-y="-8"
     inkscape:window-maximized="1" />
  <metadata
     id="metadata20950">
    <rdf:RDF>
      <cc:Work
         rdf:about="">
        <dc:format>image/svg+xml</dc:format>
        <dc:type
           rdf:resource="http://purl.org/dc/dcmitype/StillImage" />
        <dc:title></dc:title>
      </cc:Work>
    </rdf:RDF>
  </metadata>
  <g
     inkscape:label="Layer 1"
     inkscape:groupmode="layer"
     id="layer1"
     transform="translate(-45.28919,-133.1472)">
    <text
       xml:space="preserve"
       style="font-style:normal;font-weight:normal;font-size:4.23333311px;line-height:1.25;font-family:sans-serif;letter-spacing:0px;word-spacing:0px;fill:#000000;fill-opacity:1;stroke:none;stroke-width:0.26458332"
       x="70.045975"
       y="142.4696"
       id="text891"><tspan
         sodipodi:role="line"
         id="tspan889"
         x="70.045975"
         y="146.3318"
         style="stroke-width:0.26458332" /></text>
    <text
       xml:space="preserve"
       style="font-style:normal;font-weight:normal;font-size:6.3499999px;line-height:1.25;font-family:sans-serif;letter-spacing:0px;word-spacing:0px;fill:#000000;fill-opacity:1;stroke:none;stroke-width:0.26458332"
       x="69.878426"
       y="142.46696"
       id="text1433"><tspan
         sodipodi:role="line"
         id="tspan1431"
         x="69.878426"
         y="148.26027"
         style="stroke-width:0.26458332" /></text>
    <path
       id="path2860"
       d="m 56.350008,140.15595 h 11.823226 v -0.78976 H 56.350008 Z"
       style="fill:none;stroke:#4a99d9;stroke-width:0.13284522px;stroke-linecap:butt;stroke-linejoin:miter;stroke-miterlimit:4;stroke-dasharray:none;stroke-opacity:1"
       inkscape:connector-curvature="0" />
    <path
       id="path2862"
       d="m 61.865743,146.09508 c 2.114895,-0.57096 0.839581,-0.84844 0.791757,-3.16968 -2.114896,0.56564 -0.844896,0.84845 -0.791757,3.16968 z"
       style="fill:none;stroke:#4a99d9;stroke-width:0.13284522px;stroke-linecap:butt;stroke-linejoin:miter;stroke-miterlimit:4;stroke-dasharray:none;stroke-opacity:1"
       inkscape:connector-curvature="0" />
    <path
       id="path2864"
       d="m 59.107876,146.09508 c 2.109582,-0.57096 0.839582,-0.84844 0.786443,-3.16968 -2.109582,0.56564 -0.839581,0.84845 -0.786443,3.16968 z"
       style="fill:none;stroke:#4a99d9;stroke-width:0.13284522px;stroke-linecap:butt;stroke-linejoin:miter;stroke-miterlimit:4;stroke-dasharray:none;stroke-opacity:1"
       inkscape:connector-curvature="0" />
    <path
       id="path2866"
       d="m 64.62361,146.09508 c 2.114896,-0.57096 0.839581,-0.84844 0.791757,-3.16968 -2.114896,0.56564 -0.839582,0.84845 -0.791757,3.16968 z"
       style="fill:none;stroke:#4a99d9;stroke-width:0.13284522px;stroke-linecap:butt;stroke-linejoin:miter;stroke-miterlimit:4;stroke-dasharray:none;stroke-opacity:1"
       inkscape:connector-curvature="0" />
    <path
       id="path2868"
       d="m 66.988255,136.19651 h 1.184979 v -0.78975 h -1.184979 z"
       style="fill:none;stroke:#4a99d9;stroke-width:0.13284522px;stroke-linecap:butt;stroke-linejoin:miter;stroke-miterlimit:4;stroke-dasharray:none;stroke-opacity:1"
       inkscape:connector-curvature="0" />
    <path
       id="path2870"
       d="M 55.016242,133.88595 H 69.64516 c 0.350712,0 0.637657,0.28815 0.637657,0.64034 v 6.51012 c 0,0.35219 -0.286945,0.64034 -0.637657,0.64034 H 55.016242 c -0.350711,0 -0.637657,-0.28815 -0.637657,-0.64034 v -6.51012 c 0,-0.35219 0.286946,-0.64034 0.637657,-0.64034 z"
       style="fill:none;stroke:#4a99d9;stroke-width:0.13284522px;stroke-linecap:butt;stroke-linejoin:miter;stroke-miterlimit:4;stroke-dasharray:none;stroke-opacity:1"
       inkscape:connector-curvature="0" />
    <g
       aria-label="Климат системы"
       style="font-style:normal;font-weight:normal;font-size:2.82222223px;line-height:1.25;font-family:sans-serif;letter-spacing:0px;word-spacing:0px;fill:#000000;fill-opacity:1;stroke:none;stroke-width:0.26458332"
       id="text2887">
      <path
         d="m 52.094931,149.77177 h -0.350022 l -0.833713,-0.93568 h -0.186035 v 0.93568 h -0.272852 v -2.05189 h 0.272852 v 0.92052 q 0.07028,-0.001 0.132291,-0.0138 0.06201,-0.0124 0.117134,-0.0469 0.05512,-0.0317 0.108865,-0.0896 0.05374,-0.0593 0.09508,-0.1447 0.01792,-0.0372 0.04134,-0.0937 0.02481,-0.0565 0.04961,-0.11851 0.09508,-0.22876 0.221864,-0.32109 0.128157,-0.0923 0.376204,-0.0923 h 0.108865 v 0.24391 h -0.114377 q -0.09508,0 -0.148828,0.0179 -0.05374,0.0165 -0.09646,0.0565 -0.03996,0.0358 -0.07028,0.0965 -0.02894,0.0606 -0.06063,0.14194 -0.07166,0.1819 -0.146072,0.26734 -0.07304,0.0854 -0.19706,0.14883 z"
         style="font-size:2.82222223px;stroke-width:0.26458332"
         id="path2889" />
      <path
         d="m 53.623175,149.77177 h -0.259071 v -1.32153 h -0.574642 q -0.0041,0.11437 -0.0083,0.22048 -0.0041,0.10611 -0.0083,0.19155 -0.0096,0.23013 -0.03169,0.36794 -0.02205,0.13642 -0.05788,0.22737 -0.03307,0.0854 -0.07441,0.13918 -0.03996,0.0524 -0.08682,0.0951 -0.04685,0.0413 -0.104731,0.062 -0.0565,0.0207 -0.124024,0.0207 -0.02343,0 -0.0689,-0.001 -0.0441,-0.001 -0.05788,-0.001 v -0.22599 h 0.01378 q 0.01102,0 0.03169,0.001 0.02067,0.001 0.03445,0.001 0.03307,0 0.06752,-0.01 0.03583,-0.01 0.06063,-0.0358 0.07028,-0.0689 0.113,-0.23289 0.04272,-0.16399 0.0565,-0.47405 0.0055,-0.113 0.0096,-0.26734 0.0055,-0.15571 0.0096,-0.29627 h 1.059711 z"
         style="font-size:2.82222223px;stroke-width:0.26458332"
         id="path2891" />
      <path
         d="m 55.431161,149.77177 h -0.256315 v -1.15617 l -0.806152,1.15617 h -0.234267 v -1.53926 h 0.256315 v 1.13963 l 0.797884,-1.13963 h 0.242535 z"
         style="font-size:2.82222223px;stroke-width:0.26458332"
         id="path2893" />
      <path
         d="m 57.397622,149.77177 h -0.256316 v -1.21543 l -0.383094,0.791 h -0.192926 l -0.380338,-0.791 v 1.21543 h -0.242535 v -1.53926 h 0.312815 l 0.418924,0.86127 0.405143,-0.86127 h 0.318327 z"
         style="font-size:2.82222223px;stroke-width:0.26458332"
         id="path2895" />
      <path
         d="m 59.106389,149.77177 h -0.257693 v -0.16398 q -0.03445,0.0234 -0.09371,0.0661 -0.05788,0.0413 -0.112999,0.0661 -0.06477,0.0317 -0.148828,0.0524 -0.08406,0.0221 -0.197059,0.0221 -0.208084,0 -0.352778,-0.1378 -0.144694,-0.1378 -0.144694,-0.3514 0,-0.17501 0.07441,-0.2825 0.07579,-0.10886 0.214974,-0.17087 0.14056,-0.062 0.337619,-0.0841 0.19706,-0.0221 0.423058,-0.0331 v -0.04 q 0,-0.0882 -0.03169,-0.14607 -0.03032,-0.0579 -0.08819,-0.0909 -0.05512,-0.0317 -0.132292,-0.0427 -0.07717,-0.011 -0.16123,-0.011 -0.101975,0 -0.227377,0.0276 -0.125401,0.0262 -0.259071,0.0772 h -0.01378 v -0.2632 q 0.07579,-0.0207 0.219108,-0.0455 0.143316,-0.0248 0.282498,-0.0248 0.162608,0 0.282497,0.0276 0.121268,0.0262 0.209462,0.0909 0.08682,0.0634 0.132292,0.16399 0.04548,0.10059 0.04548,0.24942 z m -0.257693,-0.37896 v -0.42857 q -0.118511,0.007 -0.279742,0.0207 -0.159852,0.0138 -0.253559,0.04 -0.111621,0.0317 -0.180523,0.0992 -0.0689,0.0661 -0.0689,0.18328 0,0.13229 0.07993,0.19981 0.07993,0.0661 0.243912,0.0661 0.136426,0 0.249425,-0.0524 0.112999,-0.0537 0.209462,-0.12816 z"
         style="font-size:2.82222223px;stroke-width:0.26458332"
         id="path2897" />
      <path
         d="m 60.739364,148.45988 h -0.556727 v 1.31189 h -0.259071 v -1.31189 h -0.556728 v -0.22737 h 1.372526 z"
         style="font-size:2.82222223px;stroke-width:0.26458332"
         id="path2899" />
      <path
         d="m 63.152309,149.67531 q -0.158475,0.0744 -0.272852,0.10198 -0.112999,0.0289 -0.225998,0.0289 -0.168121,0 -0.308681,-0.0482 -0.14056,-0.0496 -0.241156,-0.14882 -0.100597,-0.0992 -0.157097,-0.25081 -0.05512,-0.15158 -0.05512,-0.35415 0,-0.36794 0.203949,-0.58705 0.20395,-0.22048 0.558106,-0.22048 0.13367,0 0.261827,0.0372 0.129536,0.0372 0.237023,0.0909 v 0.28801 h -0.01516 q -0.128157,-0.0978 -0.253559,-0.14469 -0.124023,-0.0469 -0.241156,-0.0469 -0.230133,0 -0.356912,0.15434 -0.125402,0.15434 -0.125402,0.42857 0,0.27423 0.125402,0.42581 0.125401,0.15159 0.356912,0.15159 0.0813,0 0.16123,-0.0207 0.0813,-0.0207 0.14745,-0.0537 0.05237,-0.0262 0.107487,-0.062 0.0565,-0.0372 0.07855,-0.0551 h 0.01516 z"
         style="font-size:2.82222223px;stroke-width:0.26458332"
         id="path2901" />
      <path
         d="m 64.807333,149.77177 h -0.256315 v -1.15617 l -0.806152,1.15617 h -0.234267 v -1.53926 h 0.256315 v 1.13963 l 0.797884,-1.13963 h 0.242535 z"
         style="font-size:2.82222223px;stroke-width:0.26458332"
         id="path2903" />
      <path
         d="m 66.470625,149.67531 q -0.158474,0.0744 -0.272851,0.10198 -0.112999,0.0289 -0.225999,0.0289 -0.16812,0 -0.30868,-0.0482 -0.14056,-0.0496 -0.241157,-0.14882 -0.100597,-0.0992 -0.157096,-0.25081 -0.05512,-0.15158 -0.05512,-0.35415 0,-0.36794 0.20395,-0.58705 0.20395,-0.22048 0.558105,-0.22048 0.13367,0 0.261828,0.0372 0.129535,0.0372 0.237022,0.0909 v 0.28801 h -0.01516 q -0.128158,-0.0978 -0.253559,-0.14469 -0.124024,-0.0469 -0.241157,-0.0469 -0.230132,0 -0.356912,0.15434 -0.125401,0.15434 -0.125401,0.42857 0,0.27423 0.125401,0.42581 0.125402,0.15159 0.356912,0.15159 0.0813,0 0.161231,-0.0207 0.0813,-0.0207 0.14745,-0.0537 0.05237,-0.0262 0.107487,-0.062 0.0565,-0.0372 0.07855,-0.0551 h 0.01516 z"
         style="font-size:2.82222223px;stroke-width:0.26458332"
         id="path2905" />
      <path
         d="m 67.960285,148.45988 h -0.556728 v 1.31189 h -0.259071 v -1.31189 h -0.556727 v -0.22737 h 1.372526 z"
         style="font-size:2.82222223px;stroke-width:0.26458332"
         id="path2907" />
      <path
         d="m 69.517467,149.02901 h -1.134126 q 0,0.14194 0.04272,0.24805 0.04272,0.10473 0.117134,0.17225 0.07166,0.0661 0.169498,0.0992 0.09922,0.0331 0.21773,0.0331 0.157097,0 0.315571,-0.062 0.159853,-0.0634 0.227376,-0.12402 h 0.01378 v 0.2825 q -0.130914,0.0551 -0.26734,0.0923 -0.136425,0.0372 -0.286632,0.0372 -0.383094,0 -0.598068,-0.2067 -0.214974,-0.20809 -0.214974,-0.5898 0,-0.37759 0.205328,-0.59945 0.206705,-0.22186 0.542947,-0.22186 0.311436,0 0.479557,0.1819 0.169499,0.1819 0.169499,0.51676 z m -0.252181,-0.19844 q -0.0014,-0.20395 -0.103353,-0.31557 -0.100597,-0.11162 -0.307303,-0.11162 -0.208083,0 -0.332107,0.12265 -0.122645,0.12264 -0.139182,0.30454 z"
         style="font-size:2.82222223px;stroke-width:0.26458332"
         id="path2909" />
      <path
         d="m 71.365417,149.77177 h -0.256315 v -1.21543 l -0.383095,0.791 h -0.192925 l -0.380339,-0.791 v 1.21543 h -0.242534 v -1.53926 h 0.312814 l 0.418924,0.86127 0.405143,-0.86127 h 0.318327 z"
         style="font-size:2.82222223px;stroke-width:0.26458332"
         id="path2911" />
      <path
         d="m 72.826137,149.29911 q 0,-0.0703 -0.02481,-0.12265 -0.02343,-0.0537 -0.07855,-0.0868 -0.05788,-0.0345 -0.132291,-0.0413 -0.07304,-0.007 -0.21084,-0.007 h -0.242535 v 0.52366 h 0.237023 q 0.137803,0 0.213596,-0.011 0.07579,-0.0124 0.130913,-0.0455 0.0565,-0.0358 0.0813,-0.0841 0.02618,-0.0496 0.02618,-0.1254 z m 0.26734,-0.004 q 0,0.11162 -0.04548,0.20257 -0.0441,0.091 -0.121267,0.14745 -0.09095,0.0689 -0.194303,0.0978 -0.103353,0.0289 -0.265962,0.0289 h -0.588422 v -1.53926 h 0.259071 v 0.59944 h 0.336241 q 0.173633,0 0.268718,0.0179 0.09646,0.0179 0.191547,0.0882 0.07993,0.0593 0.119889,0.15159 0.03996,0.0923 0.03996,0.20532 z m 0.257693,-1.06246 h 0.259071 v 1.53926 H 73.35117 Z"
         style="font-size:2.82222223px;stroke-width:0.26458332"
         id="path2913" />
    </g>
  </g>
</svg>
