<?xml version="1.0" encoding="UTF-8" standalone="no"?>
<!-- Created with Inkscape (http://www.inkscape.org/) -->

<svg
   xmlns:dc="http://purl.org/dc/elements/1.1/"
   xmlns:cc="http://creativecommons.org/ns#"
   xmlns:rdf="http://www.w3.org/1999/02/22-rdf-syntax-ns#"
   xmlns:svg="http://www.w3.org/2000/svg"
   xmlns="http://www.w3.org/2000/svg"
   xmlns:sodipodi="http://sodipodi.sourceforge.net/DTD/sodipodi-0.dtd"
   xmlns:inkscape="http://www.inkscape.org/namespaces/inkscape"
   width="27.390459mm"
   height="13.48382mm"
   viewBox="0 0 27.39046 13.48382"
   version="1.1"
   id="svg20953"
   inkscape:version="0.92.2 (5c3e80d, 2017-08-06)"
   sodipodi:docname="emiia9.svg"
   inkscape:export-filename="C:\Users\User1\Desktop\15 Р’Р»Р°РґРёРјРёСЂ 3Рґ РјР°РєСЃ\IoT &amp; IIoT\infografics\РЎРѕС†СЃРµС‚Рё\fog88.png"
   inkscape:export-xdpi="1182.2"
   inkscape:export-ydpi="1182.2">
  <defs
     id="defs20947" />
  <sodipodi:namedview
     id="base"
     pagecolor="#ffffff"
     bordercolor="#666666"
     borderopacity="1.0"
     inkscape:pageopacity="0.0"
     inkscape:pageshadow="2"
     inkscape:zoom="4.2284597"
     inkscape:cx="79.815262"
     inkscape:cy="59.716131"
     inkscape:document-units="mm"
     inkscape:current-layer="layer1"
     showgrid="false"
     fit-margin-top="0"
     fit-margin-left="0"
     fit-margin-right="0"
     fit-margin-bottom="0"
     inkscape:window-width="1366"
     inkscape:window-height="745"
     inkscape:window-x="-8"
     inkscape:window-y="-8"
     inkscape:window-maximized="1" />
  <metadata
     id="metadata20950">
    <rdf:RDF>
      <cc:Work
         rdf:about="">
        <dc:format>image/svg+xml</dc:format>
        <dc:type
           rdf:resource="http://purl.org/dc/dcmitype/StillImage" />
        <dc:title />
      </cc:Work>
    </rdf:RDF>
  </metadata>
  <g
     inkscape:label="Layer 1"
     inkscape:groupmode="layer"
     id="layer1"
     transform="translate(-49.304447,-134.3368)">
    <text
       xml:space="preserve"
       style="font-style:normal;font-weight:normal;font-size:4.23333311px;line-height:1.25;font-family:sans-serif;letter-spacing:0px;word-spacing:0px;fill:#000000;fill-opacity:1;stroke:none;stroke-width:0.26458332"
       x="70.045975"
       y="142.4696"
       id="text891"><tspan
         sodipodi:role="line"
         id="tspan889"
         x="70.045975"
         y="146.3318"
         style="stroke-width:0.26458332" /></text>
    <polygon
       transform="matrix(0.00613869,0,0,0.00613775,15.636151,109.64961)"
       style="clip-rule:evenodd;fill:#000000;fill-rule:evenodd;stroke-width:1.62913418;image-rendering:optimizeQuality;shape-rendering:geometricPrecision;text-rendering:geometricPrecision"
       id="polygon824"
       points="8305.8,4826 8298.74,4816.12 8297.33,4826 "
       class="fil1" />
    <polygon
       transform="matrix(0.00613869,0,0,0.00613775,15.636151,109.64961)"
       style="clip-rule:evenodd;fill:#000000;fill-rule:evenodd;stroke-width:1.62913418;image-rendering:optimizeQuality;shape-rendering:geometricPrecision;text-rendering:geometricPrecision"
       id="polygon826"
       points="7078.14,5359.4 7085.19,5369.28 7086.6,5359.4 "
       class="fil1" />
    <path
       inkscape:connector-curvature="0"
       style="fill:none;fill-rule:evenodd;stroke:#000000;stroke-width:0.3;stroke-miterlimit:4;stroke-dasharray:none;stroke-opacity:1"
       id="path2409"
       d="m 62.799347,134.83073 c -3.541086,0 -6.285427,2.59085 -6.285427,6.09 0,1.83039 0.751204,3.41194 1.974156,4.50463 0.102452,0.0922 0.164393,0.21979 0.169453,0.3575 l 0.03417,1.11666 c 0.0114,0.35623 0.379384,0.5874 0.705692,0.44465 l 1.246964,-0.54947 a 0.50201696,0.50194439 0 0 1 0.335139,-0.0252 c 0.572885,0.15791 1.183738,0.24128 1.819856,0.24128 3.541079,0 6.28542,-2.59086 6.28542,-6.08999 0,-3.49912 -2.744341,-6.08998 -6.28542,-6.08998 z" />
    <path
       style="fill:none;fill-rule:evenodd;stroke:#000000;stroke-width:0.15;stroke-miterlimit:4;stroke-dasharray:none;stroke-opacity:1"
       inkscape:connector-curvature="0"
       id="path2411"
       d="m 59.025576,142.70184 1.846409,-2.9256 c 0.293398,-0.46488 0.923197,-0.58112 1.363302,-0.2514 l 1.468277,1.10028 a 0.37781696,0.37776234 0 0 0 0.454026,-9.4e-4 l 1.983024,-1.50325 c 0.264305,-0.20083 0.610846,0.11631 0.432505,0.39666 l -1.845157,2.92435 c -0.293398,0.46487 -0.923204,0.5811 -1.363302,0.25139 l -1.468276,-1.10025 a 0.37781696,0.37776234 0 0 0 -0.454027,9.3e-4 l -1.984283,1.50451 c -0.264299,0.20086 -0.610847,-0.1162 -0.432498,-0.39667 z" />
  </g>
</svg>
