<?xml version="1.0" encoding="UTF-8" standalone="no"?>
<!-- Created with Inkscape (http://www.inkscape.org/) -->

<svg
   xmlns:dc="http://purl.org/dc/elements/1.1/"
   xmlns:cc="http://creativecommons.org/ns#"
   xmlns:rdf="http://www.w3.org/1999/02/22-rdf-syntax-ns#"
   xmlns:svg="http://www.w3.org/2000/svg"
   xmlns="http://www.w3.org/2000/svg"
   xmlns:sodipodi="http://sodipodi.sourceforge.net/DTD/sodipodi-0.dtd"
   xmlns:inkscape="http://www.inkscape.org/namespaces/inkscape"
   width="250.99998"
   height="40"
   viewBox="0 0 66.410668 10.583333"
   version="1.1"
   id="svg5116"
   inkscape:version="0.92.2 (5c3e80d, 2017-08-06)"
   sodipodi:docname="emiia000.svg">
  <defs
     id="defs5110" />
  <sodipodi:namedview
     id="base"
     pagecolor="#ffffff"
     bordercolor="#666666"
     borderopacity="1.0"
     inkscape:pageopacity="0.0"
     inkscape:pageshadow="2"
     inkscape:zoom="1.8970581"
     inkscape:cx="148.93188"
     inkscape:cy="-3.7245503"
     inkscape:document-units="mm"
     inkscape:current-layer="layer1"
     showgrid="false"
     fit-margin-top="0"
     fit-margin-left="0"
     fit-margin-right="0"
     fit-margin-bottom="0"
     inkscape:window-width="1366"
     inkscape:window-height="745"
     inkscape:window-x="-8"
     inkscape:window-y="-8"
     inkscape:window-maximized="1"
     units="px" />
  <metadata
     id="metadata5113">
    <rdf:RDF>
      <cc:Work
         rdf:about="">
        <dc:format>image/svg+xml</dc:format>
        <dc:type
           rdf:resource="http://purl.org/dc/dcmitype/StillImage" />
        <dc:title></dc:title>
      </cc:Work>
    </rdf:RDF>
  </metadata>
  <g
     inkscape:label="Layer 1"
     inkscape:groupmode="layer"
     id="layer1"
     transform="translate(-33.356792,-119.20172)">
    <g
       aria-label="ЭМИИА"
       style="font-style:normal;font-weight:normal;font-size:4.2333498px;line-height:1.25;font-family:sans-serif;letter-spacing:0px;word-spacing:0px;fill:#000000;fill-opacity:1;stroke:none;stroke-width:0.67860729"
       id="text3119"
       transform="matrix(0.3898932,0,0,0.3898932,40.302927,76.234985)">
      <path
         d="m 40.502588,120.15289 h 7.62003 q 0.635002,0 1.079504,0.4445 0.444501,0.4445 0.444501,1.0795 v 6.09602 q 0,0.63501 -0.444501,1.07951 -0.444502,0.4445 -1.079504,0.4445 h -7.62003 v -1.0287 h 7.62003 q 0.2032,0 0.342901,-0.1397 0.1524,-0.1524 0.1524,-0.35561 v -2.66701 h -5.575321 v -1.016 h 5.575321 v -2.41301 q 0,-0.2032 -0.1524,-0.3429 -0.139701,-0.1524 -0.342901,-0.1524 h -7.62003 z"
         style="font-style:normal;font-variant:normal;font-weight:normal;font-stretch:normal;font-size:12.70004845px;font-family:Orbitron;-inkscape-font-specification:Orbitron;stroke-width:0.67860729"
         id="path3121"
         inkscape:connector-curvature="0" />
      <path
         d="m 56.028398,124.6741 3.797314,-4.52121 h 1.409706 v 9.14403 h -1.028704 v -7.97563 l -4.178316,4.96572 -4.178316,-4.96572 v 7.97563 h -1.028704 v -9.14403 h 1.409705 z"
         style="font-style:normal;font-variant:normal;font-weight:normal;font-stretch:normal;font-size:12.70004845px;font-family:Orbitron;-inkscape-font-specification:Orbitron;stroke-width:0.67860729"
         id="path3123"
         inkscape:connector-curvature="0" />
      <path
         d="m 70.13954,120.15289 h 1.409706 v 9.14403 h -1.028704 v -7.97563 l -6.705626,7.97563 h -1.409705 v -9.14403 h 1.028704 v 7.97563 z"
         style="font-style:normal;font-variant:normal;font-weight:normal;font-stretch:normal;font-size:12.70004845px;font-family:Orbitron;-inkscape-font-specification:Orbitron;stroke-width:0.67860729"
         id="path3125"
         inkscape:connector-curvature="0" />
      <path
         d="m 80.458331,120.15289 h 1.409705 v 9.14403 h -1.028704 v -7.97563 l -6.705625,7.97563 h -1.409706 v -9.14403 h 1.028704 v 7.97563 z"
         style="font-style:normal;font-variant:normal;font-weight:normal;font-stretch:normal;font-size:12.70004845px;font-family:Orbitron;-inkscape-font-specification:Orbitron;stroke-width:0.67860729"
         id="path3127"
         inkscape:connector-curvature="0" />
      <path
         d="m 84.566797,120.15289 h 6.096024 q 0.635002,0 1.079504,0.4445 0.444501,0.4445 0.444501,1.0795 v 7.62003 h -1.028703 v -3.34011 h -7.086627 v 3.34011 h -1.028704 v -7.62003 q 0,-0.635 0.444501,-1.0795 0.444502,-0.4445 1.079504,-0.4445 z m -0.495301,4.77521 h 7.086627 v -3.25121 q 0,-0.2032 -0.152401,-0.3429 -0.139701,-0.1524 -0.342901,-0.1524 h -6.096024 q -0.2032,0 -0.355601,0.1524 -0.1397,0.1397 -0.1397,0.3429 z"
         style="font-style:normal;font-variant:normal;font-weight:normal;font-stretch:normal;font-size:12.70004845px;font-family:Orbitron;-inkscape-font-specification:Orbitron;stroke-width:0.67860729"
         id="path3129"
         inkscape:connector-curvature="0" />
    </g>
  </g>
</svg>
