<?xml version="1.0" standalone="no"?><!DOCTYPE svg PUBLIC "-//W3C//DTD SVG 1.1//EN" "http://www.w3.org/Graphics/SVG/1.1/DTD/svg11.dtd" [<!ENTITY nbsp "&#160;">]><svg viewBox="0 0 37 37" preserveAspectRatio="none" xmlns="http://www.w3.org/2000/svg" version="1.1" xmlns:xlink="http://www.w3.org/1999/xlink" width="500" height="500"><defs><style type="text/css"><![CDATA[

]]></style></defs>
        
        <path d="M 4.35 4 L 4.65 4 L 5.35 4 L 5.65 4 L 6.35 4 L 6.65 4 L 7.35 4 L 7.65 4 L 8.35 4 L 8.65 4 L 9.35 4 L 9.65 4 L 10.35 4 L 10.65 4 Q 11 4 11 4.35 L 11 4.65 L 11 5.35 L 11 5.65 L 11 6.35 L 11 6.65 L 11 7.35 L 11 7.65 L 11 8.35 L 11 8.65 L 11 9.35 L 11 9.65 L 11 10.35 L 11 10.65 Q 11 11 10.65 11 L 10.35 11 L 9.65 11 L 9.35 11 L 8.65 11 L 8.35 11 L 7.65 11 L 7.35 11 L 6.65 11 L 6.35 11 L 5.65 11 L 5.35 11 L 4.65 11 L 4.35 11 Q 4 11 4 10.65 L 4 10.35 L 4 9.65 L 4 9.35 L 4 8.65 L 4 8.35 L 4 7.65 L 4 7.35 L 4 6.65 L 4 6.35 L 4 5.65 L 4 5.35 L 4 4.65 L 4 4.35 Q 4 4 4.35 4 Z M 5 5.35 L 5 5.65 L 5 6.35 L 5 6.65 L 5 7.35 L 5 7.65 L 5 8.35 L 5 8.65 L 5 9.35 L 5 9.65 Q 5 10 5.35 10 L 5.65 10 L 6.35 10 L 6.65 10 L 7.35 10 L 7.65 10 L 8.35 10 L 8.65 10 L 9.35 10 L 9.65 10 Q 10 10 10 9.65 L 10 9.35 L 10 8.65 L 10 8.35 L 10 7.65 L 10 7.35 L 10 6.65 L 10 6.35 L 10 5.65 L 10 5.35 Q 10 5 9.65 5 L 9.35 5 L 8.65 5 L 8.35 5 L 7.65 5 L 7.35 5 L 6.65 5 L 6.35 5 L 5.65 5 L 5.35 5 Q 5 5 5 5.35 Z" fill="#161616"></path>
<path d="M 4.35 12 L 4.65 12 Q 5 12 5 12.35 L 5 12.65 Q 5 13 4.65 13 L 4.35 13 Q 4 13 4 12.65 L 4 12.35 Q 4 12 4.35 12 Z" fill="#161616"></path>
<path d="M 4.35 14 L 4.65 14 Q 5 14 5 14.35 L 5 14.65 Q 5 15 4.65 15 L 4.35 15 Q 4 15 4 14.65 L 4 14.35 Q 4 14 4.35 14 Z" fill="#161616"></path>
<path d="M 4.35 18 L 4.65 18 Q 5 18 5 18.35 L 5 18.65 L 5 19.35 L 5 19.65 Q 5 20 4.65 20 L 4.35 20 Q 4 20 4 19.65 L 4 19.35 L 4 18.65 L 4 18.35 Q 4 18 4.35 18 Z" fill="#161616"></path>
<path d="M 4.35 21 L 4.65 21 L 5.35 21 L 5.65 21 Q 6 21 6 20.65 L 6 20.35 Q 6 20 6.35 20 L 6.65 20 L 7.35 20 L 7.65 20 Q 8 20 8 20.35 L 8 20.65 Q 8 21 8.35 21 L 8.65 21 Q 9 21 9 20.65 L 9 20.35 Q 9 20 9.35 20 L 9.65 20 L 10.35 20 L 10.65 20 Q 11 20 11 20.35 L 11 20.65 Q 11 21 10.65 21 L 10.35 21 Q 10 21 10 21.35 L 10 21.65 Q 10 22 10.35 22 L 10.65 22 Q 11 22 11 21.65 L 11 21.35 Q 11 21 11.35 21 L 11.65 21 Q 12 21 12 21.35 L 12 21.65 Q 12 22 12.35 22 L 12.65 22 L 13.35 22 L 13.65 22 Q 14 22 14 22.35 L 14 22.65 Q 14 23 13.65 23 L 13.35 23 L 12.65 23 L 12.35 23 L 11.65 23 L 11.35 23 L 10.65 23 L 10.35 23 Q 10 23 10 23.35 L 10 23.65 Q 10 24 10.35 24 L 10.65 24 L 11.35 24 L 11.65 24 Q 12 24 12 24.35 L 12 24.65 Q 12 25 11.65 25 L 11.35 25 L 10.65 25 L 10.35 25 L 9.65 25 L 9.35 25 L 8.65 25 L 8.35 25 L 7.65 25 L 7.35 25 L 6.65 25 L 6.35 25 Q 6 25 6 24.65 L 6 24.35 Q 6 24 6.35 24 L 6.65 24 Q 7 24 7 23.65 L 7 23.35 Q 7 23 6.65 23 L 6.35 23 Q 6 23 6 22.65 L 6 22.35 Q 6 22 5.65 22 L 5.35 22 Q 5 22 5 22.35 L 5 22.65 L 5 23.35 L 5 23.65 L 5 24.35 L 5 24.65 Q 5 25 4.65 25 L 4.35 25 Q 4 25 4 24.65 L 4 24.35 L 4 23.65 L 4 23.35 L 4 22.65 L 4 22.35 L 4 21.65 L 4 21.35 Q 4 21 4.35 21 Z M 8 22.35 L 8 22.65 Q 8 23 8.35 23 L 8.65 23 Q 9 23 9 22.65 L 9 22.35 Q 9 22 8.65 22 L 8.35 22 Q 8 22 8 22.35 Z" fill="#161616"></path>
<path d="M 4.35 26 L 4.65 26 L 5.35 26 L 5.65 26 L 6.35 26 L 6.65 26 L 7.35 26 L 7.65 26 L 8.35 26 L 8.65 26 L 9.35 26 L 9.65 26 L 10.35 26 L 10.65 26 Q 11 26 11 26.35 L 11 26.65 L 11 27.35 L 11 27.65 L 11 28.35 L 11 28.65 L 11 29.35 L 11 29.65 L 11 30.35 L 11 30.65 L 11 31.35 L 11 31.65 L 11 32.35 L 11 32.65 Q 11 33 10.65 33 L 10.35 33 L 9.65 33 L 9.35 33 L 8.65 33 L 8.35 33 L 7.65 33 L 7.35 33 L 6.65 33 L 6.35 33 L 5.65 33 L 5.35 33 L 4.65 33 L 4.35 33 Q 4 33 4 32.65 L 4 32.35 L 4 31.65 L 4 31.35 L 4 30.65 L 4 30.35 L 4 29.65 L 4 29.35 L 4 28.65 L 4 28.35 L 4 27.65 L 4 27.35 L 4 26.65 L 4 26.35 Q 4 26 4.35 26 Z M 5 27.35 L 5 27.65 L 5 28.35 L 5 28.65 L 5 29.35 L 5 29.65 L 5 30.35 L 5 30.65 L 5 31.35 L 5 31.65 Q 5 32 5.35 32 L 5.65 32 L 6.35 32 L 6.65 32 L 7.35 32 L 7.65 32 L 8.35 32 L 8.65 32 L 9.35 32 L 9.65 32 Q 10 32 10 31.65 L 10 31.35 L 10 30.65 L 10 30.35 L 10 29.65 L 10 29.35 L 10 28.65 L 10 28.35 L 10 27.65 L 10 27.35 Q 10 27 9.65 27 L 9.35 27 L 8.65 27 L 8.35 27 L 7.65 27 L 7.35 27 L 6.65 27 L 6.35 27 L 5.65 27 L 5.35 27 Q 5 27 5 27.35 Z" fill="#161616"></path>
<path d="M 5.35 13 L 5.65 13 Q 6 13 6 13.35 L 6 13.65 Q 6 14 5.65 14 L 5.35 14 Q 5 14 5 13.65 L 5 13.35 Q 5 13 5.35 13 Z" fill="#161616"></path>
<path d="M 5.35 15 L 5.65 15 Q 6 15 6 14.65 L 6 14.35 Q 6 14 6.35 14 L 6.65 14 Q 7 14 7 13.65 L 7 13.35 Q 7 13 6.65 13 L 6.35 13 Q 6 13 6 12.65 L 6 12.35 Q 6 12 6.35 12 L 6.65 12 L 7.35 12 L 7.65 12 L 8.35 12 L 8.65 12 L 9.35 12 L 9.65 12 L 10.35 12 L 10.65 12 Q 11 12 11 12.35 L 11 12.65 Q 11 13 10.65 13 L 10.35 13 Q 10 13 10 13.35 L 10 13.65 Q 10 14 10.35 14 L 10.65 14 L 11.35 14 L 11.65 14 Q 12 14 12 14.35 L 12 14.65 Q 12 15 11.65 15 L 11.35 15 L 10.65 15 L 10.35 15 Q 10 15 10 15.35 L 10 15.65 Q 10 16 9.65 16 L 9.35 16 Q 9 16 9 16.35 L 9 16.65 Q 9 17 8.65 17 L 8.35 17 Q 8 17 8 17.35 L 8 17.65 Q 8 18 7.65 18 L 7.35 18 L 6.65 18 L 6.35 18 L 5.65 18 L 5.35 18 Q 5 18 5 17.65 L 5 17.35 Q 5 17 5.35 17 L 5.65 17 Q 6 17 6 16.65 L 6 16.35 Q 6 16 5.65 16 L 5.35 16 Q 5 16 5 15.65 L 5 15.35 Q 5 15 5.35 15 Z" fill="#161616"></path>
<path d="M 6.35 6 L 6.65 6 L 7.35 6 L 7.65 6 L 8.35 6 L 8.65 6 Q 9 6 9 6.35 L 9 6.65 L 9 7.35 L 9 7.65 L 9 8.35 L 9 8.65 Q 9 9 8.65 9 L 8.35 9 L 7.65 9 L 7.35 9 L 6.65 9 L 6.35 9 Q 6 9 6 8.65 L 6 8.35 L 6 7.65 L 6 7.35 L 6 6.65 L 6 6.35 Q 6 6 6.35 6 Z" fill="#161616"></path>
<path d="M 6.35 28 L 6.65 28 L 7.35 28 L 7.65 28 L 8.35 28 L 8.65 28 Q 9 28 9 28.35 L 9 28.65 L 9 29.35 L 9 29.65 L 9 30.35 L 9 30.65 Q 9 31 8.65 31 L 8.35 31 L 7.65 31 L 7.35 31 L 6.65 31 L 6.35 31 Q 6 31 6 30.65 L 6 30.35 L 6 29.65 L 6 29.35 L 6 28.65 L 6 28.35 Q 6 28 6.35 28 Z" fill="#161616"></path>
<path d="M 8.35 18 L 8.65 18 Q 9 18 9 17.65 L 9 17.35 Q 9 17 9.35 17 L 9.65 17 Q 10 17 10 17.35 L 10 17.65 Q 10 18 10.35 18 L 10.65 18 Q 11 18 11 18.35 L 11 18.65 Q 11 19 10.65 19 L 10.35 19 L 9.65 19 L 9.35 19 Q 9 19 9 19.35 L 9 19.65 Q 9 20 8.65 20 L 8.35 20 Q 8 20 8 19.65 L 8 19.35 L 8 18.65 L 8 18.35 Q 8 18 8.35 18 Z" fill="#161616"></path>
<path d="M 10.35 16 L 10.65 16 L 11.35 16 L 11.65 16 L 12.35 16 L 12.65 16 Q 13 16 13 16.35 L 13 16.65 L 13 17.35 L 13 17.65 Q 13 18 12.65 18 L 12.35 18 L 11.65 18 L 11.35 18 Q 11 18 11 17.65 L 11 17.35 Q 11 17 10.65 17 L 10.35 17 Q 10 17 10 16.65 L 10 16.35 Q 10 16 10.35 16 Z" fill="#161616"></path>
<path d="M 11.35 19 L 11.65 19 L 12.35 19 L 12.65 19 L 13.35 19 L 13.65 19 L 14.35 19 L 14.65 19 L 15.35 19 L 15.65 19 L 16.35 19 L 16.65 19 Q 17 19 17 18.65 L 17 18.35 L 17 17.65 L 17 17.35 Q 17 17 17.35 17 L 17.65 17 Q 18 17 18 17.35 L 18 17.65 Q 18 18 18.35 18 L 18.65 18 L 19.35 18 L 19.65 18 Q 20 18 20 18.35 L 20 18.65 Q 20 19 20.35 19 L 20.65 19 Q 21 19 21 19.35 L 21 19.65 Q 21 20 20.65 20 L 20.35 20 L 19.65 20 L 19.35 20 Q 19 20 19 19.65 L 19 19.35 Q 19 19 18.65 19 L 18.35 19 Q 18 19 18 19.35 L 18 19.65 Q 18 20 17.65 20 L 17.35 20 L 16.65 20 L 16.35 20 L 15.65 20 L 15.35 20 Q 15 20 15 20.35 L 15 20.65 Q 15 21 14.65 21 L 14.35 21 L 13.65 21 L 13.35 21 Q 13 21 13 20.65 L 13 20.35 Q 13 20 12.65 20 L 12.35 20 L 11.65 20 L 11.35 20 Q 11 20 11 19.65 L 11 19.35 Q 11 19 11.35 19 Z" fill="#161616"></path>
<path d="M 12.35 6 L 12.65 6 L 13.35 6 L 13.65 6 Q 14 6 14 5.65 L 14 5.35 L 14 4.65 L 14 4.35 Q 14 4 14.35 4 L 14.65 4 L 15.35 4 L 15.65 4 L 16.35 4 L 16.65 4 Q 17 4 17 4.35 L 17 4.65 Q 17 5 16.65 5 L 16.35 5 Q 16 5 16 5.35 L 16 5.65 L 16 6.35 L 16 6.65 Q 16 7 15.65 7 L 15.35 7 Q 15 7 15 7.35 L 15 7.65 Q 15 8 14.65 8 L 14.35 8 Q 14 8 14 7.65 L 14 7.35 Q 14 7 13.65 7 L 13.35 7 Q 13 7 13 7.35 L 13 7.65 L 13 8.35 L 13 8.65 Q 13 9 13.35 9 L 13.65 9 L 14.35 9 L 14.65 9 Q 15 9 15 9.35 L 15 9.65 L 15 10.35 L 15 10.65 L 15 11.35 L 15 11.65 Q 15 12 14.65 12 L 14.35 12 Q 14 12 14 11.65 L 14 11.35 L 14 10.65 L 14 10.35 Q 14 10 13.65 10 L 13.35 10 Q 13 10 13 10.35 L 13 10.65 L 13 11.35 L 13 11.65 Q 13 12 12.65 12 L 12.35 12 Q 12 12 12 11.65 L 12 11.35 L 12 10.65 L 12 10.35 L 12 9.65 L 12 9.35 L 12 8.65 L 12 8.35 L 12 7.65 L 12 7.35 L 12 6.65 L 12 6.35 Q 12 6 12.35 6 Z" fill="#161616"></path>
<path d="M 12.35 25 L 12.65 25 Q 13 25 13 25.35 L 13 25.65 Q 13 26 12.65 26 L 12.35 26 Q 12 26 12 25.65 L 12 25.35 Q 12 25 12.35 25 Z" fill="#161616"></path>
<path d="M 12.35 27 L 12.65 27 Q 13 27 13 27.35 L 13 27.65 Q 13 28 13.35 28 L 13.65 28 Q 14 28 14 28.35 L 14 28.65 Q 14 29 13.65 29 L 13.35 29 Q 13 29 13 29.35 L 13 29.65 L 13 30.35 L 13 30.65 Q 13 31 12.65 31 L 12.35 31 Q 12 31 12 30.65 L 12 30.35 L 12 29.65 L 12 29.35 L 12 28.65 L 12 28.35 L 12 27.65 L 12 27.35 Q 12 27 12.35 27 Z" fill="#161616"></path>
<path d="M 12.35 32 L 12.65 32 Q 13 32 13 31.65 L 13 31.35 Q 13 31 13.35 31 L 13.65 31 Q 14 31 14 31.35 L 14 31.65 L 14 32.35 L 14 32.65 Q 14 33 13.65 33 L 13.35 33 L 12.65 33 L 12.35 33 Q 12 33 12 32.65 L 12 32.35 Q 12 32 12.35 32 Z" fill="#161616"></path>
<path d="M 13.35 12 L 13.65 12 Q 14 12 14 12.35 L 14 12.65 Q 14 13 13.65 13 L 13.35 13 Q 13 13 13 12.65 L 13 12.35 Q 13 12 13.35 12 Z" fill="#161616"></path>
<path d="M 13.35 14 L 13.65 14 L 14.35 14 L 14.65 14 Q 15 14 15 13.65 L 15 13.35 Q 15 13 15.35 13 L 15.65 13 Q 16 13 16 13.35 L 16 13.65 Q 16 14 16.35 14 L 16.65 14 Q 17 14 17 14.35 L 17 14.65 Q 17 15 16.65 15 L 16.35 15 Q 16 15 16 15.35 L 16 15.65 Q 16 16 15.65 16 L 15.35 16 Q 15 16 15 15.65 L 15 15.35 Q 15 15 14.65 15 L 14.35 15 L 13.65 15 L 13.35 15 Q 13 15 13 14.65 L 13 14.35 Q 13 14 13.35 14 Z" fill="#161616"></path>
<path d="M 14.35 16 L 14.65 16 Q 15 16 15 16.35 L 15 16.65 L 15 17.35 L 15 17.65 Q 15 18 14.65 18 L 14.35 18 Q 14 18 14 17.65 L 14 17.35 L 14 16.65 L 14 16.35 Q 14 16 14.35 16 Z" fill="#161616"></path>
<path d="M 14.35 23 L 14.65 23 L 15.35 23 L 15.65 23 Q 16 23 16 22.65 L 16 22.35 L 16 21.65 L 16 21.35 Q 16 21 16.35 21 L 16.65 21 Q 17 21 17 21.35 L 17 21.65 L 17 22.35 L 17 22.65 L 17 23.35 L 17 23.65 Q 17 24 16.65 24 L 16.35 24 L 15.65 24 L 15.35 24 Q 15 24 15 24.35 L 15 24.65 Q 15 25 15.35 25 L 15.65 25 L 16.35 25 L 16.65 25 L 17.35 25 L 17.65 25 L 18.35 25 L 18.65 25 Q 19 25 19 25.35 L 19 25.65 Q 19 26 19.35 26 L 19.65 26 Q 20 26 20 25.65 L 20 25.35 Q 20 25 20.35 25 L 20.65 25 Q 21 25 21 24.65 L 21 24.35 Q 21 24 21.35 24 L 21.65 24 Q 22 24 22 24.35 L 22 24.65 Q 22 25 22.35 25 L 22.65 25 Q 23 25 23 25.35 L 23 25.65 Q 23 26 22.65 26 L 22.35 26 L 21.65 26 L 21.35 26 Q 21 26 21 26.35 L 21 26.65 L 21 27.35 L 21 27.65 Q 21 28 20.65 28 L 20.35 28 Q 20 28 20 27.65 L 20 27.35 Q 20 27 19.65 27 L 19.35 27 L 18.65 27 L 18.35 27 Q 18 27 18 27.35 L 18 27.65 Q 18 28 17.65 28 L 17.35 28 Q 17 28 17 27.65 L 17 27.35 L 17 26.65 L 17 26.35 Q 17 26 16.65 26 L 16.35 26 L 15.65 26 L 15.35 26 Q 15 26 15 26.35 L 15 26.65 Q 15 27 14.65 27 L 14.35 27 Q 14 27 14 26.65 L 14 26.35 L 14 25.65 L 14 25.35 L 14 24.65 L 14 24.35 L 14 23.65 L 14 23.35 Q 14 23 14.35 23 Z" fill="#161616"></path>
<path d="M 15.35 27 L 15.65 27 Q 16 27 16 27.35 L 16 27.65 L 16 28.35 L 16 28.65 Q 16 29 16.35 29 L 16.65 29 L 17.35 29 L 17.65 29 Q 18 29 18 29.35 L 18 29.65 Q 18 30 18.35 30 L 18.65 30 L 19.35 30 L 19.65 30 Q 20 30 20 30.35 L 20 30.65 Q 20 31 19.65 31 L 19.35 31 Q 19 31 19 31.35 L 19 31.65 L 19 32.35 L 19 32.65 Q 19 33 18.65 33 L 18.35 33 L 17.65 33 L 17.35 33 Q 17 33 17 32.65 L 17 32.35 L 17 31.65 L 17 31.35 L 17 30.65 L 17 30.35 Q 17 30 16.65 30 L 16.35 30 Q 16 30 16 30.35 L 16 30.65 Q 16 31 15.65 31 L 15.35 31 Q 15 31 15 30.65 L 15 30.35 L 15 29.65 L 15 29.35 L 15 28.65 L 15 28.35 L 15 27.65 L 15 27.35 Q 15 27 15.35 27 Z" fill="#161616"></path>
<path d="M 16.35 8 L 16.65 8 Q 17 8 17 7.65 L 17 7.35 Q 17 7 17.35 7 L 17.65 7 L 18.35 7 L 18.65 7 Q 19 7 19 7.35 L 19 7.65 Q 19 8 18.65 8 L 18.35 8 Q 18 8 18 8.35 L 18 8.65 Q 18 9 17.65 9 L 17.35 9 L 16.65 9 L 16.35 9 Q 16 9 16 8.65 L 16 8.35 Q 16 8 16.35 8 Z" fill="#161616"></path>
<path d="M 16.35 10 L 16.65 10 Q 17 10 17 10.35 L 17 10.65 Q 17 11 16.65 11 L 16.35 11 Q 16 11 16 10.65 L 16 10.35 Q 16 10 16.35 10 Z" fill="#161616"></path>
<path d="M 16.35 12 L 16.65 12 L 17.35 12 L 17.65 12 Q 18 12 18 11.65 L 18 11.35 L 18 10.65 L 18 10.35 L 18 9.65 L 18 9.35 Q 18 9 18.35 9 L 18.65 9 L 19.35 9 L 19.65 9 Q 20 9 20 9.35 L 20 9.65 Q 20 10 19.65 10 L 19.35 10 Q 19 10 19 10.35 L 19 10.65 L 19 11.35 L 19 11.65 L 19 12.35 L 19 12.65 Q 19 13 18.65 13 L 18.35 13 Q 18 13 18 13.35 L 18 13.65 Q 18 14 17.65 14 L 17.35 14 Q 17 14 17 13.65 L 17 13.35 Q 17 13 16.65 13 L 16.35 13 Q 16 13 16 12.65 L 16 12.35 Q 16 12 16.35 12 Z" fill="#161616"></path>
<path d="M 16.35 16 L 16.65 16 Q 17 16 17 16.35 L 17 16.65 Q 17 17 16.65 17 L 16.35 17 Q 16 17 16 16.65 L 16 16.35 Q 16 16 16.35 16 Z" fill="#161616"></path>
<path d="M 18.35 4 L 18.65 4 Q 19 4 19 4.35 L 19 4.65 Q 19 5 19.35 5 L 19.65 5 Q 20 5 20 5.35 L 20 5.65 L 20 6.35 L 20 6.65 Q 20 7 19.65 7 L 19.35 7 Q 19 7 19 6.65 L 19 6.35 Q 19 6 18.65 6 L 18.35 6 Q 18 6 18 5.65 L 18 5.35 L 18 4.65 L 18 4.35 Q 18 4 18.35 4 Z" fill="#161616"></path>
<path d="M 18.35 14 L 18.65 14 L 19.35 14 L 19.65 14 L 20.35 14 L 20.65 14 Q 21 14 21 14.35 L 21 14.65 L 21 15.35 L 21 15.65 Q 21 16 20.65 16 L 20.35 16 Q 20 16 20 16.35 L 20 16.65 Q 20 17 19.65 17 L 19.35 17 Q 19 17 19 16.65 L 19 16.35 L 19 15.65 L 19 15.35 Q 19 15 18.65 15 L 18.35 15 Q 18 15 18 14.65 L 18 14.35 Q 18 14 18.35 14 Z" fill="#161616"></path>
<path d="M 18.35 20 L 18.65 20 Q 19 20 19 20.35 L 19 20.65 Q 19 21 18.65 21 L 18.35 21 Q 18 21 18 20.65 L 18 20.35 Q 18 20 18.35 20 Z" fill="#161616"></path>
<path d="M 18.35 23 L 18.65 23 Q 19 23 19 23.35 L 19 23.65 Q 19 24 18.65 24 L 18.35 24 Q 18 24 18 23.65 L 18 23.35 Q 18 23 18.35 23 Z" fill="#161616"></path>
<path d="M 18.35 28 L 18.65 28 Q 19 28 19 28.35 L 19 28.65 Q 19 29 18.65 29 L 18.35 29 Q 18 29 18 28.65 L 18 28.35 Q 18 28 18.35 28 Z" fill="#161616"></path>
<path d="M 19.35 22 L 19.65 22 Q 20 22 20 21.65 L 20 21.35 Q 20 21 20.35 21 L 20.65 21 Q 21 21 21 21.35 L 21 21.65 L 21 22.35 L 21 22.65 Q 21 23 20.65 23 L 20.35 23 L 19.65 23 L 19.35 23 Q 19 23 19 22.65 L 19 22.35 Q 19 22 19.35 22 Z" fill="#161616"></path>
<path d="M 19.35 24 L 19.65 24 Q 20 24 20 24.35 L 20 24.65 Q 20 25 19.65 25 L 19.35 25 Q 19 25 19 24.65 L 19 24.35 Q 19 24 19.35 24 Z" fill="#161616"></path>
<path d="M 20.35 4 L 20.65 4 L 21.35 4 L 21.65 4 L 22.35 4 L 22.65 4 L 23.35 4 L 23.65 4 Q 24 4 24 4.35 L 24 4.65 Q 24 5 23.65 5 L 23.35 5 L 22.65 5 L 22.35 5 Q 22 5 22 5.35 L 22 5.65 Q 22 6 21.65 6 L 21.35 6 Q 21 6 21 5.65 L 21 5.35 Q 21 5 20.65 5 L 20.35 5 Q 20 5 20 4.65 L 20 4.35 Q 20 4 20.35 4 Z" fill="#161616"></path>
<path d="M 20.35 8 L 20.65 8 Q 21 8 21 7.65 L 21 7.35 Q 21 7 21.35 7 L 21.65 7 Q 22 7 22 7.35 L 22 7.65 Q 22 8 22.35 8 L 22.65 8 L 23.35 8 L 23.65 8 Q 24 8 24 7.65 L 24 7.35 Q 24 7 24.35 7 L 24.65 7 Q 25 7 25 7.35 L 25 7.65 L 25 8.35 L 25 8.65 L 25 9.35 L 25 9.65 L 25 10.35 L 25 10.65 L 25 11.35 L 25 11.65 Q 25 12 24.65 12 L 24.35 12 Q 24 12 24 12.35 L 24 12.65 L 24 13.35 L 24 13.65 Q 24 14 23.65 14 L 23.35 14 L 22.65 14 L 22.35 14 Q 22 14 22 13.65 L 22 13.35 Q 22 13 22.35 13 L 22.65 13 Q 23 13 23 12.65 L 23 12.35 L 23 11.65 L 23 11.35 Q 23 11 23.35 11 L 23.65 11 Q 24 11 24 10.65 L 24 10.35 L 24 9.65 L 24 9.35 Q 24 9 23.65 9 L 23.35 9 Q 23 9 23 9.35 L 23 9.65 L 23 10.35 L 23 10.65 Q 23 11 22.65 11 L 22.35 11 Q 22 11 22 10.65 L 22 10.35 L 22 9.65 L 22 9.35 Q 22 9 21.65 9 L 21.35 9 L 20.65 9 L 20.35 9 Q 20 9 20 8.65 L 20 8.35 Q 20 8 20.35 8 Z" fill="#161616"></path>
<path d="M 20.35 10 L 20.65 10 Q 21 10 21 10.35 L 21 10.65 L 21 11.35 L 21 11.65 Q 21 12 20.65 12 L 20.35 12 Q 20 12 20 11.65 L 20 11.35 L 20 10.65 L 20 10.35 Q 20 10 20.35 10 Z" fill="#161616"></path>
<path d="M 20.35 17 L 20.65 17 Q 21 17 21 16.65 L 21 16.35 Q 21 16 21.35 16 L 21.65 16 Q 22 16 22 15.65 L 22 15.35 Q 22 15 22.35 15 L 22.65 15 Q 23 15 23 15.35 L 23 15.65 L 23 16.35 L 23 16.65 Q 23 17 23.35 17 L 23.65 17 Q 24 17 24 16.65 L 24 16.35 L 24 15.65 L 24 15.35 L 24 14.65 L 24 14.35 Q 24 14 24.35 14 L 24.65 14 Q 25 14 25 14.35 L 25 14.65 L 25 15.35 L 25 15.65 L 25 16.35 L 25 16.65 Q 25 17 25.35 17 L 25.65 17 L 26.35 17 L 26.65 17 Q 27 17 27 17.35 L 27 17.65 Q 27 18 27.35 18 L 27.65 18 Q 28 18 28 18.35 L 28 18.65 Q 28 19 28.35 19 L 28.65 19 Q 29 19 29 19.35 L 29 19.65 Q 29 20 28.65 20 L 28.35 20 Q 28 20 28 20.35 L 28 20.65 Q 28 21 28.35 21 L 28.65 21 Q 29 21 29 21.35 L 29 21.65 Q 29 22 28.65 22 L 28.35 22 Q 28 22 28 22.35 L 28 22.65 Q 28 23 28.35 23 L 28.65 23 Q 29 23 29 23.35 L 29 23.65 L 29 24.35 L 29 24.65 Q 29 25 29.35 25 L 29.65 25 Q 30 25 30 24.65 L 30 24.35 Q 30 24 30.35 24 L 30.65 24 Q 31 24 31 23.65 L 31 23.35 Q 31 23 31.35 23 L 31.65 23 Q 32 23 32 23.35 L 32 23.65 Q 32 24 32.35 24 L 32.65 24 Q 33 24 33 24.35 L 33 24.65 L 33 25.35 L 33 25.65 Q 33 26 32.65 26 L 32.35 26 L 31.65 26 L 31.35 26 Q 31 26 31 26.35 L 31 26.65 Q 31 27 30.65 27 L 30.35 27 L 29.65 27 L 29.35 27 Q 29 27 29 27.35 L 29 27.65 L 29 28.35 L 29 28.65 Q 29 29 28.65 29 L 28.35 29 Q 28 29 28 29.35 L 28 29.65 Q 28 30 28.35 30 L 28.65 30 Q 29 30 29 29.65 L 29 29.35 Q 29 29 29.35 29 L 29.65 29 Q 30 29 30 28.65 L 30 28.35 Q 30 28 30.35 28 L 30.65 28 Q 31 28 31 28.35 L 31 28.65 Q 31 29 31.35 29 L 31.65 29 L 32.35 29 L 32.65 29 Q 33 29 33 29.35 L 33 29.65 Q 33 30 32.65 30 L 32.35 30 Q 32 30 32 30.35 L 32 30.65 L 32 31.35 L 32 31.65 Q 32 32 31.65 32 L 31.35 32 Q 31 32 31 31.65 L 31 31.35 Q 31 31 30.65 31 L 30.35 31 Q 30 31 30 31.35 L 30 31.65 Q 30 32 30.35 32 L 30.65 32 Q 31 32 31 32.35 L 31 32.65 Q 31 33 30.65 33 L 30.35 33 L 29.65 33 L 29.35 33 L 28.65 33 L 28.35 33 L 27.65 33 L 27.35 33 Q 27 33 27 32.65 L 27 32.35 Q 27 32 26.65 32 L 26.35 32 L 25.65 32 L 25.35 32 L 24.65 32 L 24.35 32 Q 24 32 24 31.65 L 24 31.35 Q 24 31 24.35 31 L 24.65 31 Q 25 31 25 30.65 L 25 30.35 Q 25 30 25.35 30 L 25.65 30 L 26.35 30 L 26.65 30 Q 27 30 27 29.65 L 27 29.35 Q 27 29 26.65 29 L 26.35 29 L 25.65 29 L 25.35 29 L 24.65 29 L 24.35 29 Q 24 29 24 28.65 L 24 28.35 L 24 27.65 L 24 27.35 Q 24 27 23.65 27 L 23.35 27 Q 23 27 23 26.65 L 23 26.35 Q 23 26 23.35 26 L 23.65 26 Q 24 26 24 25.65 L 24 25.35 Q 24 25 23.65 25 L 23.35 25 Q 23 25 23 24.65 L 23 24.35 L 23 23.65 L 23 23.35 Q 23 23 23.35 23 L 23.65 23 L 24.35 23 L 24.65 23 Q 25 23 25 23.35 L 25 23.65 Q 25 24 25.35 24 L 25.65 24 L 26.35 24 L 26.65 24 Q 27 24 27 23.65 L 27 23.35 Q 27 23 26.65 23 L 26.35 23 L 25.65 23 L 25.35 23 Q 25 23 25 22.65 L 25 22.35 Q 25 22 24.65 22 L 24.35 22 L 23.65 22 L 23.35 22 L 22.65 22 L 22.35 22 Q 22 22 22 21.65 L 22 21.35 Q 22 21 22.35 21 L 22.65 21 L 23.35 21 L 23.65 21 Q 24 21 24 20.65 L 24 20.35 Q 24 20 24.35 20 L 24.65 20 Q 25 20 25 20.35 L 25 20.65 Q 25 21 25.35 21 L 25.65 21 L 26.35 21 L 26.65 21 Q 27 21 27 20.65 L 27 20.35 L 27 19.65 L 27 19.35 Q 27 19 26.65 19 L 26.35 19 Q 26 19 26 18.65 L 26 18.35 Q 26 18 25.65 18 L 25.35 18 L 24.65 18 L 24.35 18 L 23.65 18 L 23.35 18 L 22.65 18 L 22.35 18 L 21.65 18 L 21.35 18 L 20.65 18 L 20.35 18 Q 20 18 20 17.65 L 20 17.35 Q 20 17 20.35 17 Z M 25 25.35 L 25 25.65 L 25 26.35 L 25 26.65 L 25 27.35 L 25 27.65 Q 25 28 25.35 28 L 25.65 28 L 26.35 28 L 26.65 28 L 27.35 28 L 27.65 28 Q 28 28 28 27.65 L 28 27.35 L 28 26.65 L 28 26.35 L 28 25.65 L 28 25.35 Q 28 25 27.65 25 L 27.35 25 L 26.65 25 L 26.35 25 L 25.65 25 L 25.35 25 Q 25 25 25 25.35 Z M 28 31.35 L 28 31.65 Q 28 32 28.35 32 L 28.65 32 Q 29 32 29 31.65 L 29 31.35 Q 29 31 28.65 31 L 28.35 31 Q 28 31 28 31.35 Z" fill="#161616"></path>
<path d="M 20.35 29 L 20.65 29 Q 21 29 21 28.65 L 21 28.35 Q 21 28 21.35 28 L 21.65 28 Q 22 28 22 28.35 L 22 28.65 Q 22 29 22.35 29 L 22.65 29 L 23.35 29 L 23.65 29 Q 24 29 24 29.35 L 24 29.65 Q 24 30 23.65 30 L 23.35 30 L 22.65 30 L 22.35 30 Q 22 30 22 30.35 L 22 30.65 Q 22 31 21.65 31 L 21.35 31 Q 21 31 21 30.65 L 21 30.35 Q 21 30 20.65 30 L 20.35 30 Q 20 30 20 29.65 L 20 29.35 Q 20 29 20.35 29 Z" fill="#161616"></path>
<path d="M 20.35 31 L 20.65 31 Q 21 31 21 31.35 L 21 31.65 Q 21 32 20.65 32 L 20.35 32 Q 20 32 20 31.65 L 20 31.35 Q 20 31 20.35 31 Z" fill="#161616"></path>
<path d="M 21.35 12 L 21.65 12 Q 22 12 22 12.35 L 22 12.65 Q 22 13 21.65 13 L 21.35 13 Q 21 13 21 12.65 L 21 12.35 Q 21 12 21.35 12 Z" fill="#161616"></path>
<path d="M 21.35 20 L 21.65 20 Q 22 20 22 20.35 L 22 20.65 Q 22 21 21.65 21 L 21.35 21 Q 21 21 21 20.65 L 21 20.35 Q 21 20 21.35 20 Z" fill="#161616"></path>
<path d="M 21.35 32 L 21.65 32 Q 22 32 22 32.35 L 22 32.65 Q 22 33 21.65 33 L 21.35 33 Q 21 33 21 32.65 L 21 32.35 Q 21 32 21.35 32 Z" fill="#161616"></path>
<path d="M 23.35 19 L 23.65 19 Q 24 19 24 19.35 L 24 19.65 Q 24 20 23.65 20 L 23.35 20 Q 23 20 23 19.65 L 23 19.35 Q 23 19 23.35 19 Z" fill="#161616"></path>
<path d="M 23.35 32 L 23.65 32 Q 24 32 24 32.35 L 24 32.65 Q 24 33 23.65 33 L 23.35 33 Q 23 33 23 32.65 L 23 32.35 Q 23 32 23.35 32 Z" fill="#161616"></path>
<path d="M 25.35 13 L 25.65 13 Q 26 13 26 12.65 L 26 12.35 Q 26 12 26.35 12 L 26.65 12 L 27.35 12 L 27.65 12 L 28.35 12 L 28.65 12 L 29.35 12 L 29.65 12 L 30.35 12 L 30.65 12 Q 31 12 31 12.35 L 31 12.65 Q 31 13 30.65 13 L 30.35 13 L 29.65 13 L 29.35 13 Q 29 13 29 13.35 L 29 13.65 Q 29 14 28.65 14 L 28.35 14 L 27.65 14 L 27.35 14 L 26.65 14 L 26.35 14 L 25.65 14 L 25.35 14 Q 25 14 25 13.65 L 25 13.35 Q 25 13 25.35 13 Z" fill="#161616"></path>
<path d="M 26.35 4 L 26.65 4 L 27.35 4 L 27.65 4 L 28.35 4 L 28.65 4 L 29.35 4 L 29.65 4 L 30.35 4 L 30.65 4 L 31.35 4 L 31.65 4 L 32.35 4 L 32.65 4 Q 33 4 33 4.35 L 33 4.65 L 33 5.35 L 33 5.65 L 33 6.35 L 33 6.65 L 33 7.35 L 33 7.65 L 33 8.35 L 33 8.65 L 33 9.35 L 33 9.65 L 33 10.35 L 33 10.65 Q 33 11 32.65 11 L 32.35 11 L 31.65 11 L 31.35 11 L 30.65 11 L 30.35 11 L 29.65 11 L 29.35 11 L 28.65 11 L 28.35 11 L 27.65 11 L 27.35 11 L 26.65 11 L 26.35 11 Q 26 11 26 10.65 L 26 10.35 L 26 9.65 L 26 9.35 L 26 8.65 L 26 8.35 L 26 7.65 L 26 7.35 L 26 6.65 L 26 6.35 L 26 5.65 L 26 5.35 L 26 4.65 L 26 4.35 Q 26 4 26.35 4 Z M 27 5.35 L 27 5.65 L 27 6.35 L 27 6.65 L 27 7.35 L 27 7.65 L 27 8.35 L 27 8.65 L 27 9.35 L 27 9.65 Q 27 10 27.35 10 L 27.65 10 L 28.35 10 L 28.65 10 L 29.35 10 L 29.65 10 L 30.35 10 L 30.65 10 L 31.35 10 L 31.65 10 Q 32 10 32 9.65 L 32 9.35 L 32 8.65 L 32 8.35 L 32 7.65 L 32 7.35 L 32 6.65 L 32 6.35 L 32 5.65 L 32 5.35 Q 32 5 31.65 5 L 31.35 5 L 30.65 5 L 30.35 5 L 29.65 5 L 29.35 5 L 28.65 5 L 28.35 5 L 27.65 5 L 27.35 5 Q 27 5 27 5.35 Z" fill="#161616"></path>
<path d="M 26.35 26 L 26.65 26 Q 27 26 27 26.35 L 27 26.65 Q 27 27 26.65 27 L 26.35 27 Q 26 27 26 26.65 L 26 26.35 Q 26 26 26.35 26 Z" fill="#161616"></path>
<path d="M 27.35 15 L 27.65 15 Q 28 15 28 15.35 L 28 15.65 Q 28 16 27.65 16 L 27.35 16 Q 27 16 27 15.65 L 27 15.35 Q 27 15 27.35 15 Z" fill="#161616"></path>
<path d="M 28.35 6 L 28.65 6 L 29.35 6 L 29.65 6 L 30.35 6 L 30.65 6 Q 31 6 31 6.35 L 31 6.65 L 31 7.35 L 31 7.65 L 31 8.35 L 31 8.65 Q 31 9 30.65 9 L 30.35 9 L 29.65 9 L 29.35 9 L 28.65 9 L 28.35 9 Q 28 9 28 8.65 L 28 8.35 L 28 7.65 L 28 7.35 L 28 6.65 L 28 6.35 Q 28 6 28.35 6 Z" fill="#161616"></path>
<path d="M 28.35 17 L 28.65 17 Q 29 17 29 17.35 L 29 17.65 Q 29 18 28.65 18 L 28.35 18 Q 28 18 28 17.65 L 28 17.35 Q 28 17 28.35 17 Z" fill="#161616"></path>
<path d="M 29.35 15 L 29.65 15 Q 30 15 30 15.35 L 30 15.65 Q 30 16 30.35 16 L 30.65 16 Q 31 16 31 16.35 L 31 16.65 Q 31 17 30.65 17 L 30.35 17 L 29.65 17 L 29.35 17 Q 29 17 29 16.65 L 29 16.35 L 29 15.65 L 29 15.35 Q 29 15 29.35 15 Z" fill="#161616"></path>
<path d="M 29.35 18 L 29.65 18 L 30.35 18 L 30.65 18 Q 31 18 31 18.35 L 31 18.65 Q 31 19 30.65 19 L 30.35 19 L 29.65 19 L 29.35 19 Q 29 19 29 18.65 L 29 18.35 Q 29 18 29.35 18 Z" fill="#161616"></path>
<path d="M 29.35 20 L 29.65 20 L 30.35 20 L 30.65 20 Q 31 20 31 20.35 L 31 20.65 L 31 21.35 L 31 21.65 L 31 22.35 L 31 22.65 Q 31 23 30.65 23 L 30.35 23 Q 30 23 30 22.65 L 30 22.35 L 30 21.65 L 30 21.35 Q 30 21 29.65 21 L 29.35 21 Q 29 21 29 20.65 L 29 20.35 Q 29 20 29.35 20 Z" fill="#161616"></path>
<path d="M 31.35 15 L 31.65 15 Q 32 15 32 15.35 L 32 15.65 Q 32 16 31.65 16 L 31.35 16 Q 31 16 31 15.65 L 31 15.35 Q 31 15 31.35 15 Z" fill="#161616"></path>
<path d="M 31.35 19 L 31.65 19 Q 32 19 32 19.35 L 32 19.65 Q 32 20 31.65 20 L 31.35 20 Q 31 20 31 19.65 L 31 19.35 Q 31 19 31.35 19 Z" fill="#161616"></path>
<path d="M 32.35 13 L 32.65 13 Q 33 13 33 13.35 L 33 13.65 Q 33 14 32.65 14 L 32.35 14 Q 32 14 32 13.65 L 32 13.35 Q 32 13 32.35 13 Z" fill="#161616"></path>
<path d="M 32.35 17 L 32.65 17 Q 33 17 33 17.35 L 33 17.65 Q 33 18 32.65 18 L 32.35 18 Q 32 18 32 17.65 L 32 17.35 Q 32 17 32.35 17 Z" fill="#161616"></path>
<path d="M 32.35 21 L 32.65 21 Q 33 21 33 21.35 L 33 21.65 Q 33 22 32.65 22 L 32.35 22 Q 32 22 32 21.65 L 32 21.35 Q 32 21 32.35 21 Z" fill="#161616"></path>
<path d="M 32.35 27 L 32.65 27 Q 33 27 33 27.35 L 33 27.65 Q 33 28 32.65 28 L 32.35 28 Q 32 28 32 27.65 L 32 27.35 Q 32 27 32.35 27 Z" fill="#161616"></path>

    </svg>