<?xml version="1.0" encoding="UTF-8" standalone="no"?>
<!-- Created with Inkscape (http://www.inkscape.org/) -->

<svg
   xmlns:dc="http://purl.org/dc/elements/1.1/"
   xmlns:cc="http://creativecommons.org/ns#"
   xmlns:rdf="http://www.w3.org/1999/02/22-rdf-syntax-ns#"
   xmlns:svg="http://www.w3.org/2000/svg"
   xmlns="http://www.w3.org/2000/svg"
   xmlns:sodipodi="http://sodipodi.sourceforge.net/DTD/sodipodi-0.dtd"
   xmlns:inkscape="http://www.inkscape.org/namespaces/inkscape"
   width="22.26795mm"
   height="16mm"
   viewBox="0 0 22.267952 16"
   version="1.1"
   id="svg20953"
   inkscape:version="0.92.2 (5c3e80d, 2017-08-06)"
   sodipodi:docname="emiia27.svg"
   inkscape:export-filename="C:\Users\User1\Desktop\15 Владимир 3д макс\IoT &amp; IIoT\infografics\Соцсети\fog88.png"
   inkscape:export-xdpi="1182.2"
   inkscape:export-ydpi="1182.2">
  <defs
     id="defs20947" />
  <sodipodi:namedview
     id="base"
     pagecolor="#ffffff"
     bordercolor="#666666"
     borderopacity="1.0"
     inkscape:pageopacity="0.0"
     inkscape:pageshadow="2"
     inkscape:zoom="2.9899725"
     inkscape:cx="89.548382"
     inkscape:cy="29.243978"
     inkscape:document-units="mm"
     inkscape:current-layer="layer1"
     showgrid="false"
     fit-margin-top="0"
     fit-margin-left="0"
     fit-margin-right="0"
     fit-margin-bottom="0"
     inkscape:window-width="1366"
     inkscape:window-height="745"
     inkscape:window-x="-8"
     inkscape:window-y="-8"
     inkscape:window-maximized="1" />
  <metadata
     id="metadata20950">
    <rdf:RDF>
      <cc:Work
         rdf:about="">
        <dc:format>image/svg+xml</dc:format>
        <dc:type
           rdf:resource="http://purl.org/dc/dcmitype/StillImage" />
        <dc:title></dc:title>
      </cc:Work>
    </rdf:RDF>
  </metadata>
  <g
     inkscape:label="Layer 1"
     inkscape:groupmode="layer"
     id="layer1"
     transform="translate(-45.28919,-134.1472)">
    <text
       xml:space="preserve"
       style="font-style:normal;font-weight:normal;font-size:4.23333311px;line-height:1.25;font-family:sans-serif;letter-spacing:0px;word-spacing:0px;fill:#000000;fill-opacity:1;stroke:none;stroke-width:0.26458332"
       x="70.045975"
       y="142.4696"
       id="text891"><tspan
         sodipodi:role="line"
         id="tspan889"
         x="70.045975"
         y="146.3318"
         style="stroke-width:0.26458332" /></text>
    <polygon
       transform="matrix(0.00613869,0,0,0.00613775,9.2861476,109.4744)"
       style="clip-rule:evenodd;fill:#000000;fill-rule:evenodd;stroke-width:1.62913418;image-rendering:optimizeQuality;shape-rendering:geometricPrecision;text-rendering:geometricPrecision"
       id="polygon824"
       points="8297.33,4826 8305.8,4826 8298.74,4816.12 "
       class="fil1" />
    <polygon
       transform="matrix(0.00613869,0,0,0.00613775,9.2861476,109.4744)"
       style="clip-rule:evenodd;fill:#000000;fill-rule:evenodd;stroke-width:1.62913418;image-rendering:optimizeQuality;shape-rendering:geometricPrecision;text-rendering:geometricPrecision"
       id="polygon826"
       points="7086.6,5359.4 7078.14,5359.4 7085.19,5369.28 "
       class="fil1" />
    <path
       id="path818"
       d="M 61.829969,134.48289 H 51.253707 c -0.621816,0 -1.125701,0.50601 -1.125701,1.13045 v 10.62075 c 0,0.62443 0.503885,1.13044 1.125701,1.13044 h 10.576262 c 0.621817,0 1.125702,-0.50601 1.125702,-1.13044 v -10.62075 c 0,-0.62444 -0.503885,-1.13045 -1.125702,-1.13045 z"
       style="fill:none;stroke:#4a99d9;stroke-width:0.13401243px;stroke-linecap:butt;stroke-linejoin:miter;stroke-miterlimit:4;stroke-dasharray:none;stroke-opacity:1"
       inkscape:connector-curvature="0" />
    <path
       id="path820-0"
       d="m 56.539159,136.36159 c -2.508715,0 -4.540339,2.04017 -4.540339,4.55943 0,2.52464 2.031624,4.56483 4.540339,4.56483 2.514074,0 4.545703,-2.04019 4.545703,-4.56483 0,-2.51926 -2.031629,-4.55943 -4.545703,-4.55943 z"
       style="fill:none;stroke:#4a99d9;stroke-width:0.13401243px;stroke-linecap:butt;stroke-linejoin:miter;stroke-miterlimit:4;stroke-dasharray:none;stroke-opacity:1"
       inkscape:connector-curvature="0" />
    <path
       id="path822-2"
       d="m 54.775556,140.3881 c -0.294828,0 -0.536054,0.23686 -0.536054,0.53292 0,0.29607 0.241226,0.53831 0.536054,0.53831 0.294827,0 0.536048,-0.24224 0.536048,-0.53831 0,-0.29606 -0.241221,-0.53292 -0.536048,-0.53292 z"
       style="fill:none;stroke:#4a99d9;stroke-width:0.13401243px;stroke-linecap:butt;stroke-linejoin:miter;stroke-miterlimit:4;stroke-dasharray:none;stroke-opacity:1"
       inkscape:connector-curvature="0" />
    <path
       id="path824"
       d="m 58.302762,140.3881 c -0.294826,0 -0.53069,0.23686 -0.53069,0.53292 0,0.29607 0.235864,0.53831 0.53069,0.53831 0.294827,0 0.536048,-0.24224 0.536048,-0.53831 0,-0.29606 -0.241221,-0.53292 -0.536048,-0.53292 z"
       style="fill:none;stroke:#4a99d9;stroke-width:0.13401243px;stroke-linecap:butt;stroke-linejoin:miter;stroke-miterlimit:4;stroke-dasharray:none;stroke-opacity:1"
       inkscape:connector-curvature="0" />
    <path
       id="path826"
       d="m 56.539159,144.50075 v 0 c 0.117933,0 0.214417,0.0969 0.214417,0.21532 v 0.55445 c 0,0.11843 -0.09648,0.21533 -0.214417,0.21533 v 0 c -0.117931,0 -0.209058,-0.0969 -0.209058,-0.21533 v -0.55445 c 0,-0.11843 0.09113,-0.21532 0.209058,-0.21532 z"
       style="fill:none;stroke:#4a99d9;stroke-width:0.13401243px;stroke-linecap:butt;stroke-linejoin:miter;stroke-miterlimit:4;stroke-dasharray:none;stroke-opacity:1"
       inkscape:connector-curvature="0" />
    <path
       id="path828"
       d="m 56.539159,136.36159 v 0 c 0.117933,0 0.214417,0.0969 0.214417,0.21532 v 0.55445 c 0,0.11842 -0.09648,0.21532 -0.214417,0.21532 v 0 c -0.117931,0 -0.209058,-0.097 -0.209058,-0.21532 v -0.55445 c 0,-0.11843 0.09113,-0.21532 0.209058,-0.21532 z"
       style="fill:none;stroke:#4a99d9;stroke-width:0.13401243px;stroke-linecap:butt;stroke-linejoin:miter;stroke-miterlimit:4;stroke-dasharray:none;stroke-opacity:1"
       inkscape:connector-curvature="0" />
    <g
       aria-label="Розетки/Выключатели"
       style="font-style:normal;font-variant:normal;font-weight:normal;font-stretch:normal;font-size:2.11666656px;line-height:1.25;font-family:Arial;-inkscape-font-specification:Arial;letter-spacing:0px;word-spacing:0px;fill:#000000;fill-opacity:1;stroke:none;stroke-width:0.26458332"
       id="text1429">
      <path
         d="m 45.818357,149.94617 v -1.51516 h 0.571542 q 0.150895,0 0.230477,0.0145 0.111621,0.0186 0.187068,0.0713 0.07545,0.0517 0.120923,0.14572 0.04651,0.0941 0.04651,0.20671 0,0.19327 -0.12299,0.32763 -0.12299,0.13332 -0.444417,0.13332 h -0.388607 v 0.61599 z m 0.200505,-0.79479 h 0.391707 q 0.194304,0 0.275952,-0.0723 0.08165,-0.0724 0.08165,-0.20361 0,-0.0951 -0.04858,-0.16226 -0.04754,-0.0682 -0.12609,-0.0899 -0.05064,-0.0134 -0.187069,-0.0134 h -0.387573 z"
         style="font-style:normal;font-variant:normal;font-weight:normal;font-stretch:normal;font-size:2.11666656px;font-family:Arial;-inkscape-font-specification:Arial;stroke-width:0.26458332"
         id="path1435" />
      <path
         d="m 47.048256,149.39736 q 0,-0.30489 0.169499,-0.45165 0.141593,-0.12196 0.345199,-0.12196 0.226342,0 0.370003,0.14883 0.14366,0.1478 0.14366,0.40928 0,0.21187 -0.06408,0.33383 -0.06305,0.12092 -0.185002,0.1881 -0.120923,0.0672 -0.264583,0.0672 -0.230477,0 -0.373104,-0.14779 -0.141594,-0.1478 -0.141594,-0.42582 z m 0.191203,0 q 0,0.21084 0.09198,0.31626 0.09198,0.10439 0.231511,0.10439 0.138492,0 0.230477,-0.10542 0.09198,-0.10542 0.09198,-0.32143 0,-0.2036 -0.09302,-0.30799 -0.09198,-0.10542 -0.229443,-0.10542 -0.139527,0 -0.231511,0.10439 -0.09198,0.10438 -0.09198,0.31522 z"
         style="font-style:normal;font-variant:normal;font-weight:normal;font-stretch:normal;font-size:2.11666656px;font-family:Arial;-inkscape-font-specification:Arial;stroke-width:0.26458332"
         id="path1437" />
      <path
         d="m 48.5138,149.45007 v -0.14572 q 0.117822,-0.001 0.160197,-0.009 0.04341,-0.008 0.08165,-0.0496 0.03824,-0.0413 0.03824,-0.10335 0,-0.0754 -0.05064,-0.11989 -0.04961,-0.0455 -0.129191,-0.0455 -0.157096,0 -0.220141,0.185 l -0.176734,-0.0289 q 0.08268,-0.30903 0.398942,-0.30903 0.1757,0 0.274919,0.0961 0.100252,0.0961 0.100252,0.22945 0,0.13436 -0.130224,0.21394 0.08268,0.0444 0.124023,0.11369 0.04134,0.0682 0.04134,0.16226 0,0.14779 -0.107487,0.23978 -0.107487,0.092 -0.300757,0.092 -0.375171,0 -0.435115,-0.33383 l 0.174666,-0.0372 q 0.02377,0.10542 0.09612,0.1633 0.07338,0.0579 0.167432,0.0579 0.09405,0 0.156063,-0.0527 0.06305,-0.0537 0.06305,-0.13643 0,-0.0641 -0.03927,-0.11162 -0.03927,-0.0475 -0.08372,-0.0589 -0.04444,-0.0124 -0.16123,-0.0124 -0.0093,0 -0.04237,0.001 z"
         style="font-style:normal;font-variant:normal;font-weight:normal;font-stretch:normal;font-size:2.11666656px;font-family:Arial;-inkscape-font-specification:Arial;stroke-width:0.26458332"
         id="path1439" />
      <path
         d="m 49.969008,149.5927 0.192237,0.0238 q -0.04548,0.16847 -0.168466,0.26148 -0.122989,0.093 -0.314192,0.093 -0.240812,0 -0.382406,-0.14779 -0.14056,-0.14883 -0.14056,-0.41651 0,-0.27699 0.142627,-0.42995 0.142627,-0.15297 0.370003,-0.15297 0.220142,0 0.359668,0.14987 0.139527,0.14986 0.139527,0.42168 0,0.0165 -0.001,0.0496 h -0.818554 q 0.01033,0.18086 0.102319,0.27698 0.09198,0.0961 0.229443,0.0961 0.10232,0 0.174667,-0.0537 0.07235,-0.0538 0.114721,-0.17157 z m -0.610815,-0.30076 h 0.612882 q -0.0124,-0.13849 -0.07028,-0.20774 -0.08888,-0.10748 -0.230476,-0.10748 -0.128158,0 -0.216008,0.0858 -0.08682,0.0858 -0.09612,0.22944 z"
         style="font-style:normal;font-variant:normal;font-weight:normal;font-stretch:normal;font-size:2.11666656px;font-family:Arial;-inkscape-font-specification:Arial;stroke-width:0.26458332"
         id="path1441" />
      <path
         d="m 50.225324,148.84856 h 0.891935 v 0.154 h -0.353467 v 0.94361 H 50.57879 v -0.94361 h -0.353466 z"
         style="font-style:normal;font-variant:normal;font-weight:normal;font-stretch:normal;font-size:2.11666656px;font-family:Arial;-inkscape-font-specification:Arial;stroke-width:0.26458332"
         id="path1443" />
      <path
         d="m 51.296059,148.84856 h 0.186035 v 0.47439 q 0.08888,0 0.124023,-0.0341 0.03617,-0.0341 0.10542,-0.19843 0.05478,-0.13023 0.08888,-0.17157 0.03411,-0.0413 0.07855,-0.0558 0.04444,-0.0145 0.142627,-0.0145 h 0.03721 v 0.154 l -0.05168,-0.001 q -0.07338,0 -0.09405,0.0217 -0.0217,0.0227 -0.06614,0.13539 -0.04237,0.10749 -0.07751,0.14883 -0.03514,0.0413 -0.108521,0.0754 0.11989,0.032 0.235645,0.22325 l 0.203605,0.34003 h -0.204639 l -0.198437,-0.34003 q -0.06098,-0.10232 -0.106453,-0.13436 -0.04548,-0.0331 -0.108521,-0.0331 v 0.50747 h -0.186035 z"
         style="font-style:normal;font-variant:normal;font-weight:normal;font-stretch:normal;font-size:2.11666656px;font-family:Arial;-inkscape-font-specification:Arial;stroke-width:0.26458332"
         id="path1445" />
      <path
         d="m 52.223134,148.84856 h 0.186035 v 0.83716 l 0.515731,-0.83716 h 0.200504 v 1.09761 h -0.186035 v -0.83199 l -0.51573,0.83199 h -0.200505 z"
         style="font-style:normal;font-variant:normal;font-weight:normal;font-stretch:normal;font-size:2.11666656px;font-family:Arial;-inkscape-font-specification:Arial;stroke-width:0.26458332"
         id="path1447" />
      <path
         d="m 53.265965,149.97201 0.439249,-1.56683 h 0.148828 l -0.438216,1.56683 z"
         style="font-style:normal;font-variant:normal;font-weight:normal;font-stretch:normal;font-size:2.11666656px;font-family:Arial;-inkscape-font-specification:Arial;stroke-width:0.26458332"
         id="path1449" />
      <path
         d="m 54.008038,149.94617 v -1.51516 h 0.56844 q 0.173633,0 0.278019,0.0465 0.10542,0.0455 0.164332,0.1416 0.05994,0.0951 0.05994,0.19947 0,0.0971 -0.05271,0.18293 -0.05271,0.0858 -0.159163,0.13849 0.137459,0.0403 0.21084,0.13746 0.07441,0.0972 0.07441,0.22945 0,0.10645 -0.04548,0.19843 -0.04444,0.091 -0.110587,0.14056 -0.06615,0.0496 -0.166398,0.0754 -0.09922,0.0248 -0.243913,0.0248 z m 0.200504,-0.8785 h 0.327629 q 0.133325,0 0.191202,-0.0176 0.07648,-0.0227 0.114722,-0.0754 0.03927,-0.0527 0.03927,-0.13229 0,-0.0755 -0.03617,-0.13229 -0.03617,-0.0579 -0.103353,-0.0786 -0.06718,-0.0217 -0.230477,-0.0217 h -0.302824 z m 0,0.6997 h 0.377238 q 0.09715,0 0.136426,-0.007 0.06925,-0.0124 0.115755,-0.0413 0.04651,-0.0289 0.07648,-0.0837 0.02997,-0.0558 0.02997,-0.12815 0,-0.0848 -0.04341,-0.14676 -0.04341,-0.0631 -0.120923,-0.0879 -0.07648,-0.0258 -0.221175,-0.0258 h -0.350366 z"
         style="font-style:normal;font-variant:normal;font-weight:normal;font-stretch:normal;font-size:2.11666656px;font-family:Arial;-inkscape-font-specification:Arial;stroke-width:0.26458332"
         id="path1451" />
      <path
         d="m 56.4513,148.84856 h 0.186035 v 1.09761 H 56.4513 Z m -1.040763,0 h 0.186035 v 0.42891 h 0.235644 q 0.230477,0 0.354501,0.0899 0.125057,0.0889 0.125057,0.24598 0,0.13746 -0.104387,0.23565 -0.103353,0.0971 -0.331762,0.0971 h -0.465088 z m 0.186035,0.94464 h 0.195337 q 0.176733,0 0.252181,-0.0434 0.07545,-0.0434 0.07545,-0.1354 0,-0.0713 -0.05581,-0.12712 -0.05581,-0.0558 -0.247014,-0.0558 h -0.220141 z"
         style="font-style:normal;font-variant:normal;font-weight:normal;font-stretch:normal;font-size:2.11666656px;font-family:Arial;-inkscape-font-specification:Arial;stroke-width:0.26458332"
         id="path1453" />
      <path
         d="m 56.926723,148.84856 h 0.186035 v 0.47439 q 0.08888,0 0.124023,-0.0341 0.03617,-0.0341 0.10542,-0.19843 0.05478,-0.13023 0.08888,-0.17157 0.03411,-0.0413 0.07855,-0.0558 0.04444,-0.0145 0.142627,-0.0145 h 0.03721 v 0.154 l -0.05168,-0.001 q -0.07338,0 -0.09405,0.0217 -0.0217,0.0227 -0.06614,0.13539 -0.04238,0.10749 -0.07752,0.14883 -0.03514,0.0413 -0.108521,0.0754 0.11989,0.032 0.235645,0.22325 l 0.203605,0.34003 h -0.204639 l -0.198437,-0.34003 q -0.06098,-0.10232 -0.106454,-0.13436 -0.04547,-0.0331 -0.10852,-0.0331 v 0.50747 h -0.186035 z"
         style="font-style:normal;font-variant:normal;font-weight:normal;font-stretch:normal;font-size:2.11666656px;font-family:Arial;-inkscape-font-specification:Arial;stroke-width:0.26458332"
         id="path1455" />
      <path
         d="m 57.969553,148.84856 h 0.86403 v 1.09761 h -0.185001 v -0.94361 h -0.492993 v 0.54673 q 0,0.1912 -0.0124,0.25218 -0.0124,0.061 -0.06821,0.10646 -0.05581,0.0455 -0.16123,0.0455 -0.06511,0 -0.149862,-0.008 v -0.15503 h 0.08165 q 0.05788,0 0.08268,-0.0114 0.02481,-0.0124 0.03307,-0.0383 0.0083,-0.0258 0.0083,-0.16846 z"
         style="font-style:normal;font-variant:normal;font-weight:normal;font-stretch:normal;font-size:2.11666656px;font-family:Arial;-inkscape-font-specification:Arial;stroke-width:0.26458332"
         id="path1457" />
      <path
         d="m 59.11677,148.84856 h 0.186035 v 0.45889 h 0.22531 q 0.0248,-0.23565 0.146761,-0.35967 0.12299,-0.12403 0.318326,-0.12403 0.166399,0 0.262517,0.0672 0.09612,0.0672 0.15813,0.18501 0.06305,0.11782 0.06305,0.31729 0,0.28422 -0.129191,0.43098 -0.129191,0.14676 -0.350366,0.14676 -0.205673,0 -0.329696,-0.13642 -0.124023,-0.13643 -0.139526,-0.37414 h -0.22531 v 0.48576 H 59.11677 Z m 0.886768,0.13332 q -0.136426,0 -0.212907,0.10542 -0.07545,0.10439 -0.07545,0.29353 0,0.22634 0.07648,0.33176 0.07648,0.10542 0.204639,0.10542 0.127124,0 0.207739,-0.0971 0.08165,-0.0982 0.08165,-0.31523 0,-0.21187 -0.07028,-0.31729 -0.07028,-0.10646 -0.211873,-0.10646 z"
         style="font-style:normal;font-variant:normal;font-weight:normal;font-stretch:normal;font-size:2.11666656px;font-family:Arial;-inkscape-font-specification:Arial;stroke-width:0.26458332"
         id="path1459" />
      <path
         d="m 60.588515,148.84856 h 0.186035 v 0.20774 q 0,0.13436 0.0155,0.19534 0.01654,0.0599 0.07751,0.10542 0.06098,0.0444 0.152962,0.0444 0.10542,0 0.272851,-0.0558 v -0.49713 h 0.186036 v 1.09761 h -0.186036 v -0.44235 q -0.171565,0.0537 -0.320393,0.0537 -0.125057,0 -0.221176,-0.0631 -0.09508,-0.0641 -0.129191,-0.15606 -0.03411,-0.092 -0.03411,-0.20257 z"
         style="font-style:normal;font-variant:normal;font-weight:normal;font-stretch:normal;font-size:2.11666656px;font-family:Arial;-inkscape-font-specification:Arial;stroke-width:0.26458332"
         id="path1461" />
      <path
         d="m 62.476772,149.81077 q -0.103353,0.0879 -0.199472,0.12403 -0.09508,0.0362 -0.204638,0.0362 -0.180868,0 -0.278019,-0.0879 -0.09715,-0.0889 -0.09715,-0.22634 0,-0.0806 0.03617,-0.14676 0.03721,-0.0672 0.09612,-0.10749 0.05994,-0.0403 0.134358,-0.061 0.05478,-0.0145 0.165365,-0.0279 0.225309,-0.0269 0.331763,-0.0641 0.001,-0.0382 0.001,-0.0486 0,-0.11369 -0.05271,-0.16019 -0.07131,-0.0631 -0.211873,-0.0631 -0.131258,0 -0.194304,0.0465 -0.06201,0.0455 -0.09198,0.16226 l -0.181901,-0.0248 q 0.02481,-0.11679 0.08165,-0.1881 0.05684,-0.0724 0.164331,-0.11059 0.107487,-0.0393 0.249081,-0.0393 0.140559,0 0.228409,0.0331 0.08785,0.0331 0.129191,0.0837 0.04134,0.0496 0.05788,0.12609 0.0093,0.0476 0.0093,0.17157 v 0.24805 q 0,0.25941 0.01137,0.32866 0.0124,0.0682 0.04754,0.13126 h -0.194303 q -0.02894,-0.0579 -0.03721,-0.1354 z m -0.0155,-0.41547 q -0.101286,0.0413 -0.303858,0.0703 -0.114722,0.0165 -0.162264,0.0372 -0.04754,0.0207 -0.07338,0.061 -0.02584,0.0393 -0.02584,0.0879 0,0.0744 0.05581,0.12402 0.05684,0.0496 0.165365,0.0496 0.107487,0 0.191202,-0.0465 0.08372,-0.0476 0.12299,-0.1292 0.02997,-0.063 0.02997,-0.18603 z"
         style="font-style:normal;font-variant:normal;font-weight:normal;font-stretch:normal;font-size:2.11666656px;font-family:Arial;-inkscape-font-specification:Arial;stroke-width:0.26458332"
         id="path1463" />
      <path
         d="m 62.793032,148.84856 h 0.891935 v 0.154 H 63.3315 v 0.94361 h -0.185002 v -0.94361 h -0.353466 z"
         style="font-style:normal;font-variant:normal;font-weight:normal;font-stretch:normal;font-size:2.11666656px;font-family:Arial;-inkscape-font-specification:Arial;stroke-width:0.26458332"
         id="path1465" />
      <path
         d="m 64.591372,149.5927 0.192236,0.0238 q -0.04547,0.16847 -0.168465,0.26148 -0.12299,0.093 -0.314193,0.093 -0.240812,0 -0.382405,-0.14779 -0.14056,-0.14883 -0.14056,-0.41651 0,-0.27699 0.142627,-0.42995 0.142627,-0.15297 0.370003,-0.15297 0.220141,0 0.359668,0.14987 0.139526,0.14986 0.139526,0.42168 0,0.0165 -0.001,0.0496 h -0.818555 q 0.01033,0.18086 0.102319,0.27698 0.09198,0.0961 0.229444,0.0961 0.102319,0 0.174666,-0.0537 0.07235,-0.0538 0.114722,-0.17157 z m -0.610816,-0.30076 h 0.612883 q -0.0124,-0.13849 -0.07028,-0.20774 -0.08888,-0.10748 -0.230477,-0.10748 -0.128158,0 -0.216008,0.0858 -0.08682,0.0858 -0.09612,0.22944 z"
         style="font-style:normal;font-variant:normal;font-weight:normal;font-stretch:normal;font-size:2.11666656px;font-family:Arial;-inkscape-font-specification:Arial;stroke-width:0.26458332"
         id="path1467" />
      <path
         d="m 65.038889,148.84856 h 0.86403 v 1.09761 h -0.185001 v -0.94361 h -0.492993 v 0.54673 q 0,0.1912 -0.0124,0.25218 -0.0124,0.061 -0.06821,0.10646 -0.05581,0.0455 -0.16123,0.0455 -0.06511,0 -0.149862,-0.008 v -0.15503 h 0.08165 q 0.05788,0 0.08268,-0.0114 0.02481,-0.0124 0.03307,-0.0383 0.0083,-0.0258 0.0083,-0.16846 z"
         style="font-style:normal;font-variant:normal;font-weight:normal;font-stretch:normal;font-size:2.11666656px;font-family:Arial;-inkscape-font-specification:Arial;stroke-width:0.26458332"
         id="path1469" />
      <path
         d="m 66.184038,148.84856 h 0.186035 v 0.83716 l 0.515731,-0.83716 h 0.200505 v 1.09761 h -0.186036 v -0.83199 l -0.51573,0.83199 h -0.200505 z"
         style="font-style:normal;font-variant:normal;font-weight:normal;font-stretch:normal;font-size:2.11666656px;font-family:Arial;-inkscape-font-specification:Arial;stroke-width:0.26458332"
         id="path1471" />
    </g>
    <text
       xml:space="preserve"
       style="font-style:normal;font-weight:normal;font-size:6.3499999px;line-height:1.25;font-family:sans-serif;letter-spacing:0px;word-spacing:0px;fill:#000000;fill-opacity:1;stroke:none;stroke-width:0.26458332"
       x="69.878426"
       y="142.46696"
       id="text1433"><tspan
         sodipodi:role="line"
         id="tspan1431"
         x="69.878426"
         y="148.26027"
         style="stroke-width:0.26458332" /></text>
  </g>
</svg>
