<?xml version="1.0" encoding="UTF-8" standalone="no"?>
<!-- Created with Inkscape (http://www.inkscape.org/) -->

<svg
   xmlns:dc="http://purl.org/dc/elements/1.1/"
   xmlns:cc="http://creativecommons.org/ns#"
   xmlns:rdf="http://www.w3.org/1999/02/22-rdf-syntax-ns#"
   xmlns:svg="http://www.w3.org/2000/svg"
   xmlns="http://www.w3.org/2000/svg"
   xmlns:sodipodi="http://sodipodi.sourceforge.net/DTD/sodipodi-0.dtd"
   xmlns:inkscape="http://www.inkscape.org/namespaces/inkscape"
   width="27.390459mm"
   height="9.48382mm"
   viewBox="0 0 27.39046 9.48382"
   version="1.1"
   id="svg20953"
   inkscape:version="0.92.2 (5c3e80d, 2017-08-06)"
   sodipodi:docname="monocle neuro.svg">
  <defs
     id="defs20947">
    <marker
       style="overflow:visible"
       id="marker14805-3"
       overflow="visible"
       orient="auto">
      <path
         style="fill-rule:evenodd;stroke:#000000;stroke-width:1.00000003pt"
         inkscape:connector-curvature="0"
         transform="matrix(0.2,0,0,0.2,1.48,0.2)"
         d="m -2.5,-1 c 0,2.76 -2.24,5 -5,5 -2.76,0 -5,-2.24 -5,-5 0,-2.76 2.24,-5 5,-5 2.76,0 5,2.24 5,5 z"
         id="path4029" />
    </marker>
    <marker
       style="overflow:visible"
       id="DotM"
       overflow="visible"
       orient="auto">
      <path
         style="fill-rule:evenodd;stroke:#000000;stroke-width:1.00000003pt"
         inkscape:connector-curvature="0"
         transform="matrix(0.4,0,0,0.4,2.96,0.4)"
         d="m -2.5,-1 c 0,2.76 -2.24,5 -5,5 -2.76,0 -5,-2.24 -5,-5 0,-2.76 2.24,-5 5,-5 2.76,0 5,2.24 5,5 z"
         id="path4032" />
    </marker>
    <marker
       style="overflow:visible"
       id="marker15147"
       overflow="visible"
       orient="auto">
      <path
         style="fill-rule:evenodd;stroke:#000000;stroke-width:1.00000003pt"
         inkscape:connector-curvature="0"
         transform="matrix(0.4,0,0,0.4,2.96,0.4)"
         d="m -2.5,-1 c 0,2.76 -2.24,5 -5,5 -2.76,0 -5,-2.24 -5,-5 0,-2.76 2.24,-5 5,-5 2.76,0 5,2.24 5,5 z"
         id="path4023" />
    </marker>
    <marker
       style="overflow:visible"
       id="marker15253-0"
       overflow="visible"
       orient="auto">
      <path
         style="fill-rule:evenodd;stroke:#000000;stroke-width:1.00000003pt"
         inkscape:connector-curvature="0"
         transform="matrix(0.4,0,0,0.4,2.96,0.4)"
         d="m -2.5,-1 c 0,2.76 -2.24,5 -5,5 -2.76,0 -5,-2.24 -5,-5 0,-2.76 2.24,-5 5,-5 2.76,0 5,2.24 5,5 z"
         id="path4026" />
    </marker>
    <marker
       style="overflow:visible"
       id="marker15513-1"
       overflow="visible"
       orient="auto">
      <path
         style="fill-rule:evenodd;stroke:#000000;stroke-width:1.00000003pt"
         inkscape:connector-curvature="0"
         transform="matrix(0.4,0,0,0.4,2.96,0.4)"
         d="m -2.5,-1 c 0,2.76 -2.24,5 -5,5 -2.76,0 -5,-2.24 -5,-5 0,-2.76 2.24,-5 5,-5 2.76,0 5,2.24 5,5 z"
         id="path4020" />
    </marker>
    <marker
       style="overflow:visible"
       id="marker12376-8"
       overflow="visible"
       orient="auto">
      <path
         style="fill-rule:evenodd;stroke:#000000;stroke-width:1.00000003pt"
         inkscape:connector-curvature="0"
         transform="matrix(0.2,0,0,0.2,1.48,0.2)"
         d="m -2.5,-1 c 0,2.76 -2.24,5 -5,5 -2.76,0 -5,-2.24 -5,-5 0,-2.76 2.24,-5 5,-5 2.76,0 5,2.24 5,5 z"
         id="path4014" />
    </marker>
    <marker
       style="overflow:visible"
       id="marker15649"
       overflow="visible"
       orient="auto">
      <path
         style="fill-rule:evenodd;stroke:#000000;stroke-width:1.00000003pt"
         inkscape:connector-curvature="0"
         transform="matrix(0.4,0,0,0.4,2.96,0.4)"
         d="m -2.5,-1 c 0,2.76 -2.24,5 -5,5 -2.76,0 -5,-2.24 -5,-5 0,-2.76 2.24,-5 5,-5 2.76,0 5,2.24 5,5 z"
         id="path4017" />
    </marker>
    <marker
       style="overflow:visible"
       id="marker12348-5"
       overflow="visible"
       orient="auto">
      <path
         style="fill-rule:evenodd;stroke:#000000;stroke-width:1.00000003pt"
         inkscape:connector-curvature="0"
         transform="matrix(0.2,0,0,0.2,1.48,0.2)"
         d="m -2.5,-1 c 0,2.76 -2.24,5 -5,5 -2.76,0 -5,-2.24 -5,-5 0,-2.76 2.24,-5 5,-5 2.76,0 5,2.24 5,5 z"
         id="path4035" />
    </marker>
    <marker
       style="overflow:visible"
       id="marker12366-5"
       overflow="visible"
       orient="auto">
      <path
         style="fill-rule:evenodd;stroke:#000000;stroke-width:1.00000003pt"
         inkscape:connector-curvature="0"
         transform="matrix(0.2,0,0,0.2,1.48,0.2)"
         d="m -2.5,-1 c 0,2.76 -2.24,5 -5,5 -2.76,0 -5,-2.24 -5,-5 0,-2.76 2.24,-5 5,-5 2.76,0 5,2.24 5,5 z"
         id="path4038" />
    </marker>
    <marker
       style="overflow:visible"
       id="marker12196-5"
       overflow="visible"
       orient="auto">
      <path
         style="fill-rule:evenodd;stroke:#000000;stroke-width:1.00000003pt"
         inkscape:connector-curvature="0"
         transform="matrix(0.2,0,0,0.2,1.48,0.2)"
         d="m -2.5,-1 c 0,2.76 -2.24,5 -5,5 -2.76,0 -5,-2.24 -5,-5 0,-2.76 2.24,-5 5,-5 2.76,0 5,2.24 5,5 z"
         id="path4041" />
    </marker>
    <marker
       style="overflow:visible"
       id="marker15383"
       overflow="visible"
       orient="auto">
      <path
         style="fill-rule:evenodd;stroke:#000000;stroke-width:1.00000003pt"
         inkscape:connector-curvature="0"
         transform="matrix(0.4,0,0,0.4,2.96,0.4)"
         d="m -2.5,-1 c 0,2.76 -2.24,5 -5,5 -2.76,0 -5,-2.24 -5,-5 0,-2.76 2.24,-5 5,-5 2.76,0 5,2.24 5,5 z"
         id="path4044" />
    </marker>
    <marker
       style="overflow:visible"
       id="marker12123-1"
       overflow="visible"
       orient="auto">
      <path
         style="fill-rule:evenodd;stroke:#000000;stroke-width:1.00000003pt"
         inkscape:connector-curvature="0"
         transform="matrix(0.2,0,0,0.2,1.48,0.2)"
         d="m -2.5,-1 c 0,2.76 -2.24,5 -5,5 -2.76,0 -5,-2.24 -5,-5 0,-2.76 2.24,-5 5,-5 2.76,0 5,2.24 5,5 z"
         id="path4053" />
    </marker>
    <marker
       style="overflow:visible"
       id="marker12099"
       overflow="visible"
       orient="auto">
      <path
         style="fill-rule:evenodd;stroke:#000000;stroke-width:1.00000003pt"
         inkscape:connector-curvature="0"
         transform="matrix(0.2,0,0,0.2,1.48,0.2)"
         d="m -2.5,-1 c 0,2.76 -2.24,5 -5,5 -2.76,0 -5,-2.24 -5,-5 0,-2.76 2.24,-5 5,-5 2.76,0 5,2.24 5,5 z"
         id="path4047" />
    </marker>
    <marker
       style="overflow:visible"
       id="marker12103-9"
       overflow="visible"
       orient="auto">
      <path
         style="fill-rule:evenodd;stroke:#000000;stroke-width:1.00000003pt"
         inkscape:connector-curvature="0"
         transform="matrix(0.2,0,0,0.2,1.48,0.2)"
         d="m -2.5,-1 c 0,2.76 -2.24,5 -5,5 -2.76,0 -5,-2.24 -5,-5 0,-2.76 2.24,-5 5,-5 2.76,0 5,2.24 5,5 z"
         id="path4050" />
    </marker>
    <marker
       style="overflow:visible"
       id="DotS-7"
       overflow="visible"
       orient="auto">
      <path
         style="fill-rule:evenodd;stroke:#000000;stroke-width:1.00000003pt"
         inkscape:connector-curvature="0"
         transform="matrix(0.2,0,0,0.2,1.48,0.2)"
         d="m -2.5,-1 c 0,2.76 -2.24,5 -5,5 -2.76,0 -5,-2.24 -5,-5 0,-2.76 2.24,-5 5,-5 2.76,0 5,2.24 5,5 z"
         id="path4056" />
    </marker>
  </defs>
  <sodipodi:namedview
     id="base"
     pagecolor="#ffffff"
     bordercolor="#666666"
     borderopacity="1.0"
     inkscape:pageopacity="0.0"
     inkscape:pageshadow="2"
     inkscape:zoom="2.5354645"
     inkscape:cx="150.15942"
     inkscape:cy="48.558322"
     inkscape:document-units="mm"
     inkscape:current-layer="layer1"
     showgrid="false"
     fit-margin-top="0"
     fit-margin-left="0"
     fit-margin-right="0"
     fit-margin-bottom="0"
     inkscape:window-width="1366"
     inkscape:window-height="705"
     inkscape:window-x="-8"
     inkscape:window-y="-8"
     inkscape:window-maximized="1" />
  <metadata
     id="metadata20950">
    <rdf:RDF>
      <cc:Work
         rdf:about="">
        <dc:format>image/svg+xml</dc:format>
        <dc:type
           rdf:resource="http://purl.org/dc/dcmitype/StillImage" />
        <dc:title></dc:title>
      </cc:Work>
    </rdf:RDF>
  </metadata>
  <g
     inkscape:label="Layer 1"
     inkscape:groupmode="layer"
     id="layer1"
     transform="translate(-49.304447,-138.3368)">
    <path
       d="M 64.946863,143.18864 H 58.392351"
       id="path4169"
       inkscape:connector-curvature="0"
       style="fill:none;stroke:#000000;stroke-width:0.25600001;stroke-linecap:round;stroke-miterlimit:4;stroke-dasharray:none;marker-start:url(#DotS-7)" />
    <path
       style="fill:none;stroke:#000000;stroke-width:0.21958098"
       inkscape:connector-curvature="0"
       id="path4171"
       d="m 58.455368,139.18902 h 7.514079" />
    <path
       style="fill:none;stroke:#000000;stroke-width:0.25600001;stroke-miterlimit:4;stroke-dasharray:none;marker-end:url(#marker12123-1)"
       inkscape:connector-curvature="0"
       id="path4173"
       d="m 59.616085,147.31885 6.028856,0.032" />
    <path
       style="fill:none;stroke:#000000;stroke-width:0.21958098;marker-start:url(#marker12099);marker-end:url(#marker12103-9)"
       inkscape:connector-curvature="0"
       id="path4175"
       d="m 66.791364,140.43976 0.03198,5.73384" />
    <path
       style="fill:none;stroke:#000000;stroke-width:0.25600001;stroke-miterlimit:4;stroke-dasharray:none"
       inkscape:connector-curvature="0"
       id="path4177"
       d="m 58.392831,143.18865 -0.01776,3.20761" />
    <path
       style="fill:none;stroke:#000000;stroke-width:0.25600001;stroke-linecap:round;stroke-miterlimit:4;stroke-dasharray:none"
       inkscape:connector-curvature="0"
       id="path4181"
       d="m 58.37565,146.39797 c -0.01776,0.55709 0.221327,0.96342 1.244902,0.92274" />
    <path
       style="fill:none;stroke:#000000;stroke-width:0.21958098;stroke-linecap:round"
       inkscape:connector-curvature="0"
       id="path4183"
       d="m 66.825037,146.17119 c 0.06395,1.0309 -0.496764,1.20154 -1.179615,1.17975" />
    <path
       style="fill:none;stroke:#000000;stroke-width:0.21958098;stroke-linecap:round"
       inkscape:connector-curvature="0"
       id="path4185"
       d="m 65.907597,139.18902 c 0.604164,-0.0319 0.934552,0.54416 0.88466,1.24916" />
    <path
       style="fill:none;stroke:#000000;stroke-width:0.10979051;marker-start:url(#marker12196-5);marker-end:url(#marker15383)"
       inkscape:connector-curvature="0"
       id="path4189"
       d="m 64.946863,143.18864 h 1.786434" />
    <path
       style="fill:none;stroke:#000000;stroke-width:0.10979051;marker-start:url(#marker12366-5)"
       inkscape:connector-curvature="0"
       id="path4191"
       d="m 65.188767,144.8036 1.636067,1.37069" />
    <path
       style="fill:none;stroke:#000000;stroke-width:0.21958098"
       inkscape:connector-curvature="0"
       id="path4193"
       d="M 67.775468,147.66244" />
    <path
       style="fill:none;stroke:#000000;stroke-width:0.25600001;stroke-miterlimit:4;stroke-dasharray:none;marker-end:url(#marker12348-5)"
       inkscape:connector-curvature="0"
       id="path4195"
       d="m 58.32948,139.189 6.341739,-0.007" />
    <g
       style="fill:none;stroke:#000000;stroke-width:0.15976"
       id="g4209"
       transform="matrix(0.68722141,0,0,0.68722141,39.398031,57.430252)">
      <path
         style="marker-start:url(#marker14805-3);marker-end:url(#DotM)"
         inkscape:connector-curvature="0"
         id="path4197"
         d="m 36.775,118.98 0.75346,1.3778" />
      <path
         inkscape:connector-curvature="0"
         id="path4199"
         d="m 37.529,120.36 2.3326,0.43425" />
      <path
         style="marker-start:url(#marker15147);marker-end:url(#marker15253-0)"
         inkscape:connector-curvature="0"
         id="path4201"
         d="m 39.861,120.79 -2.684,4.0036" />
      <path
         inkscape:connector-curvature="0"
         id="path4203"
         d="m 37.177,124.79 0.35153,2.3454" />
      <path
         style="marker-end:url(#marker15513-1)"
         inkscape:connector-curvature="0"
         id="path4205"
         d="m 38.193,130.85 -0.66346,-3.7118" />
      <path
         style="marker-start:url(#marker12376-8);marker-end:url(#marker15649)"
         inkscape:connector-curvature="0"
         id="path4207"
         d="m 37.529,127.14 -1.6781,1.5391" />
    </g>
  </g>
</svg>
