<?xml version="1.0" encoding="UTF-8" standalone="no"?>
<!-- Created with Inkscape (http://www.inkscape.org/) -->

<svg
   xmlns:dc="http://purl.org/dc/elements/1.1/"
   xmlns:cc="http://creativecommons.org/ns#"
   xmlns:rdf="http://www.w3.org/1999/02/22-rdf-syntax-ns#"
   xmlns:svg="http://www.w3.org/2000/svg"
   xmlns="http://www.w3.org/2000/svg"
   xmlns:sodipodi="http://sodipodi.sourceforge.net/DTD/sodipodi-0.dtd"
   xmlns:inkscape="http://www.inkscape.org/namespaces/inkscape"
   width="13.39046mm"
   height="13.48382mm"
   viewBox="0 0 13.390461 13.48382"
   version="1.1"
   id="svg20953"
   inkscape:version="0.92.2 (5c3e80d, 2017-08-06)"
   sodipodi:docname="emiia21.svg"
   inkscape:export-filename="C:\Users\User1\Desktop\15 Владимир 3д макс\IoT &amp; IIoT\infografics\Соцсети\fog88.png"
   inkscape:export-xdpi="1182.2"
   inkscape:export-ydpi="1182.2">
  <defs
     id="defs20947" />
  <sodipodi:namedview
     id="base"
     pagecolor="#ffffff"
     bordercolor="#666666"
     borderopacity="1.0"
     inkscape:pageopacity="0.0"
     inkscape:pageshadow="2"
     inkscape:zoom="1.4949863"
     inkscape:cx="16.216084"
     inkscape:cy="31.596636"
     inkscape:document-units="mm"
     inkscape:current-layer="layer1"
     showgrid="false"
     fit-margin-top="0"
     fit-margin-left="0"
     fit-margin-right="0"
     fit-margin-bottom="0"
     inkscape:window-width="1366"
     inkscape:window-height="745"
     inkscape:window-x="-8"
     inkscape:window-y="-8"
     inkscape:window-maximized="1" />
  <metadata
     id="metadata20950">
    <rdf:RDF>
      <cc:Work
         rdf:about="">
        <dc:format>image/svg+xml</dc:format>
        <dc:type
           rdf:resource="http://purl.org/dc/dcmitype/StillImage" />
        <dc:title />
      </cc:Work>
    </rdf:RDF>
  </metadata>
  <g
     inkscape:label="Layer 1"
     inkscape:groupmode="layer"
     id="layer1"
     transform="translate(-49.304447,-134.3368)">
    <text
       xml:space="preserve"
       style="font-style:normal;font-weight:normal;font-size:4.23333311px;line-height:1.25;font-family:sans-serif;letter-spacing:0px;word-spacing:0px;fill:#000000;fill-opacity:1;stroke:none;stroke-width:0.26458332"
       x="70.045975"
       y="142.4696"
       id="text891"><tspan
         sodipodi:role="line"
         id="tspan889"
         x="70.045975"
         y="146.3318"
         style="stroke-width:0.26458332" /></text>
    <polygon
       transform="matrix(0.00613869,0,0,0.00613775,8.7569809,110.17878)"
       style="clip-rule:evenodd;fill:#000000;fill-rule:evenodd;stroke-width:1.62913418;image-rendering:optimizeQuality;shape-rendering:geometricPrecision;text-rendering:geometricPrecision"
       id="polygon824"
       points="8297.33,4826 8305.8,4826 8298.74,4816.12 "
       class="fil1" />
    <polygon
       transform="matrix(0.00613869,0,0,0.00613775,8.7569809,110.17878)"
       style="clip-rule:evenodd;fill:#000000;fill-rule:evenodd;stroke-width:1.62913418;image-rendering:optimizeQuality;shape-rendering:geometricPrecision;text-rendering:geometricPrecision"
       id="polygon826"
       points="7086.6,5359.4 7078.14,5359.4 7085.19,5369.28 "
       class="fil1" />
    <g
       aria-label="..."
       style="font-style:normal;font-weight:normal;font-size:9.61668587px;line-height:1.25;font-family:sans-serif;letter-spacing:0px;word-spacing:0px;fill:#4e9bda;fill-opacity:1;stroke:none;stroke-width:0.40069526;stroke-opacity:1"
       id="text23038"
       transform="translate(0.06257204,0.21630649)">
      <path
         d="m 53.927253,141.36479 q -0.216,0 -0.370957,-0.15495 -0.15026,-0.15496 -0.15026,-0.37096 0,-0.216 0.15026,-0.37095 0.154957,-0.15966 0.370957,-0.15966 0.220695,0 0.375651,0.15966 0.154957,0.15495 0.154957,0.37095 0,0.216 -0.154957,0.37096 -0.154956,0.15495 -0.375651,0.15495 z"
         style="font-style:normal;font-variant:normal;font-weight:normal;font-stretch:normal;font-family:'Segoe UI';-inkscape-font-specification:'Segoe UI';fill:#4e9bda;fill-opacity:1;stroke:none;stroke-width:0.40069526;stroke-opacity:1"
         id="path23040"
         inkscape:connector-curvature="0" />
      <path
         d="m 56.01212,141.36479 q -0.216,0 -0.370956,-0.15495 -0.150261,-0.15496 -0.150261,-0.37096 0,-0.216 0.150261,-0.37095 0.154956,-0.15966 0.370956,-0.15966 0.220695,0 0.375652,0.15966 0.154956,0.15495 0.154956,0.37095 0,0.216 -0.154956,0.37096 -0.154957,0.15495 -0.375652,0.15495 z"
         style="font-style:normal;font-variant:normal;font-weight:normal;font-stretch:normal;font-family:'Segoe UI';-inkscape-font-specification:'Segoe UI';fill:#4e9bda;fill-opacity:1;stroke:none;stroke-width:0.40069526;stroke-opacity:1"
         id="path23042"
         inkscape:connector-curvature="0" />
      <path
         d="m 58.096987,141.36479 q -0.215999,0 -0.370956,-0.15495 -0.15026,-0.15496 -0.15026,-0.37096 0,-0.216 0.15026,-0.37095 0.154957,-0.15966 0.370956,-0.15966 0.220696,0 0.375652,0.15966 0.154957,0.15495 0.154957,0.37095 0,0.216 -0.154957,0.37096 -0.154956,0.15495 -0.375652,0.15495 z"
         style="font-style:normal;font-variant:normal;font-weight:normal;font-stretch:normal;font-family:'Segoe UI';-inkscape-font-specification:'Segoe UI';fill:#4e9bda;fill-opacity:1;stroke:none;stroke-width:0.40069526;stroke-opacity:1"
         id="path23044"
         inkscape:connector-curvature="0" />
    </g>
    <g
       style="fill:none;fill-opacity:1;stroke:#4e9bda;stroke-width:0.2835567;stroke-miterlimit:4;stroke-dasharray:none;stroke-opacity:1"
       id="g23096"
       transform="matrix(0.35266314,0,0,0.35266314,36.527589,136.47826)" />
    <g
       style="fill:none;fill-opacity:1;stroke:#4e9bda;stroke-width:0.2835567;stroke-miterlimit:4;stroke-dasharray:none;stroke-opacity:1"
       id="g23098"
       transform="matrix(0.35266314,0,0,0.35266314,36.527589,136.47826)" />
    <g
       style="fill:none;fill-opacity:1;stroke:#4e9bda;stroke-width:0.2835567;stroke-miterlimit:4;stroke-dasharray:none;stroke-opacity:1"
       id="g23100"
       transform="matrix(0.35266314,0,0,0.35266314,36.527589,136.47826)" />
    <g
       style="fill:none;fill-opacity:1;stroke:#4e9bda;stroke-width:0.2835567;stroke-miterlimit:4;stroke-dasharray:none;stroke-opacity:1"
       id="g23102"
       transform="matrix(0.35266314,0,0,0.35266314,36.527589,136.47826)" />
    <g
       style="fill:none;fill-opacity:1;stroke:#4e9bda;stroke-width:0.2835567;stroke-miterlimit:4;stroke-dasharray:none;stroke-opacity:1"
       id="g23104"
       transform="matrix(0.35266314,0,0,0.35266314,36.527589,136.47826)" />
    <g
       style="fill:none;fill-opacity:1;stroke:#4e9bda;stroke-width:0.2835567;stroke-miterlimit:4;stroke-dasharray:none;stroke-opacity:1"
       id="g23106"
       transform="matrix(0.35266314,0,0,0.35266314,36.527589,136.47826)" />
    <g
       style="fill:none;fill-opacity:1;stroke:#4e9bda;stroke-width:0.2835567;stroke-miterlimit:4;stroke-dasharray:none;stroke-opacity:1"
       id="g23108"
       transform="matrix(0.35266314,0,0,0.35266314,36.527589,136.47826)" />
    <g
       style="fill:none;fill-opacity:1;stroke:#4e9bda;stroke-width:0.2835567;stroke-miterlimit:4;stroke-dasharray:none;stroke-opacity:1"
       id="g23110"
       transform="matrix(0.35266314,0,0,0.35266314,36.527589,136.47826)" />
    <g
       style="fill:none;fill-opacity:1;stroke:#4e9bda;stroke-width:0.2835567;stroke-miterlimit:4;stroke-dasharray:none;stroke-opacity:1"
       id="g23112"
       transform="matrix(0.35266314,0,0,0.35266314,36.527589,136.47826)" />
    <g
       style="fill:none;fill-opacity:1;stroke:#4e9bda;stroke-width:0.2835567;stroke-miterlimit:4;stroke-dasharray:none;stroke-opacity:1"
       id="g23114"
       transform="matrix(0.35266314,0,0,0.35266314,36.527589,136.47826)" />
    <g
       style="fill:none;fill-opacity:1;stroke:#4e9bda;stroke-width:0.2835567;stroke-miterlimit:4;stroke-dasharray:none;stroke-opacity:1"
       id="g23116"
       transform="matrix(0.35266314,0,0,0.35266314,36.527589,136.47826)" />
    <g
       style="fill:none;fill-opacity:1;stroke:#4e9bda;stroke-width:0.2835567;stroke-miterlimit:4;stroke-dasharray:none;stroke-opacity:1"
       id="g23118"
       transform="matrix(0.35266314,0,0,0.35266314,36.527589,136.47826)" />
    <g
       style="fill:none;fill-opacity:1;stroke:#4e9bda;stroke-width:0.2835567;stroke-miterlimit:4;stroke-dasharray:none;stroke-opacity:1"
       id="g23120"
       transform="matrix(0.35266314,0,0,0.35266314,36.527589,136.47826)" />
    <g
       style="fill:none;fill-opacity:1;stroke:#4e9bda;stroke-width:0.2835567;stroke-miterlimit:4;stroke-dasharray:none;stroke-opacity:1"
       id="g23122"
       transform="matrix(0.35266314,0,0,0.35266314,36.527589,136.47826)" />
    <g
       style="fill:none;fill-opacity:1;stroke:#4e9bda;stroke-width:0.2835567;stroke-miterlimit:4;stroke-dasharray:none;stroke-opacity:1"
       id="g23124"
       transform="matrix(0.35266314,0,0,0.35266314,36.527589,136.47826)" />
    <path
       inkscape:connector-curvature="0"
       style="fill:none;fill-rule:evenodd;stroke:#4e9bda;stroke-width:0.30000001;stroke-miterlimit:4;stroke-dasharray:none;stroke-opacity:1"
       id="path2409"
       d="m 56.066145,134.85107 c -3.541086,0 -6.285427,2.59085 -6.285427,6.09 0,1.83039 0.751204,3.41194 1.974156,4.50463 0.102452,0.0922 0.164393,0.21979 0.169453,0.3575 l 0.03417,1.11666 c 0.0114,0.35623 0.379384,0.5874 0.705692,0.44465 l 1.246964,-0.54947 a 0.50201698,0.5019444 0 0 1 0.335139,-0.0252 c 0.572885,0.15791 1.183738,0.24128 1.819856,0.24128 3.541079,0 6.28542,-2.59086 6.28542,-6.08999 0,-3.49912 -2.744341,-6.08998 -6.28542,-6.08998 z" />
  </g>
</svg>
